<?xml version="1.0" encoding="utf-8"?>
<!-- Generator: Adobe Illustrator 27.5.0, SVG Export Plug-In . SVG Version: 6.00 Build 0)  -->
<svg version="1.1" id="Capa_1" xmlns="http://www.w3.org/2000/svg" xmlns:xlink="http://www.w3.org/1999/xlink" x="0px" y="0px"
	 viewBox="0 0 375 351.5" style="enable-background:new 0 0 375 351.5;" xml:space="preserve">
<style type="text/css">
	.st0{fill:none;stroke:#CC161B;stroke-width:0.25;stroke-miterlimit:10;stroke-dasharray:1,1;}
	.st1{fill:none;}
	.st2{fill:#1E1E1C;}
	.st3{font-family:'ArialMT';}
	.st4{font-size:25.433px;}
	.st5{fill:#A19D9D;}
	.st6{fill:#EEB9A4;}
	.st7{fill:none;stroke:#1D1D1B;stroke-miterlimit:10;}
	.st8{fill:#1D1D1B;}
	.st9{font-size:20px;}
</style>
<line class="st0" x1="61.1" y1="95.33" x2="361.15" y2="95.33"/>
<line class="st0" x1="61.1" y1="109.35" x2="361.15" y2="109.35"/>
<line class="st0" x1="61.1" y1="91.81" x2="361.15" y2="91.81"/>
<line class="st0" x1="63.08" y1="84.45" x2="363.13" y2="84.45"/>
<g>
	<rect x="91.17" y="27.74" class="st1" width="246.21" height="20.34"/>
	<text transform="matrix(1 0 0 1 91.1678 45.5466)" class="st2 st3 st4">Altura remeros (metros)</text>
</g>
<g>
	<g>
		<path class="st5" d="M294.88,148.16c-0.31,2.99-0.62,5.88-0.93,8.76c-0.26,2.5-0.51,5-0.8,7.5c-0.18,1.5,0.33,2.9,0.54,4.34
			c1.04,7.09-0.11,13.94-2.09,20.7c-0.73,2.51-1.21,5.06-1.85,7.58c-0.15,0.56-0.01,0.93,0.43,1.31c1.24,1.08,1.8,2.55,1.82,4.14
			c0.01,1.64,0.24,3.17,1.04,4.6c0.13,0.24,0.21,0.51,0.27,0.78c0.19,0.73,0.73,1.65-0.02,2.16c-0.91,0.62-1.2-0.61-1.78-1.01
			c-0.21-0.15-0.39-0.34-0.84-0.75c0.48,1.6,0.89,2.79,1.93,3.72c0.98,0.88,1.88,1.88,1.92,3.34c0.02,0.56-0.02,1.19-0.58,1.43
			c-0.48,0.21-0.79-0.3-1.13-0.59c-4.77-4.1-6.96-9.59-7.32-15.67c-0.43-7.17-1.39-14.27-1.87-21.42
			c-0.28-4.16-0.13-8.31,1.31-12.33c0.62-1.75,0.06-3.63,0.02-5.45c-0.1-5.26-0.23-10.52-0.4-15.77c-0.07-2.42-0.8-4.77-0.91-7.2
			c-0.17-3.62,0.16-7.13,2.05-10.32c1.94-3.28,4.84-5.09,8.55-5.59c0.64-0.08,1.23-0.28,1.8-0.54c2.09-0.98,4.17-1.98,6.28-2.91
			c3.69-1.64,5.13-3.81,4.63-9c-0.12-1.25-0.4-2.43-1.48-3.39c-0.84-0.75-0.94-2.06-1.09-3.19c-0.34-2.58-0.7-5.17-0.81-7.77
			c-0.26-6,2.98-10.36,8.7-11.96c0.65-0.18,1.33-0.39,1.86-0.79c1.14-0.84,2.18-0.72,3.4-0.17c5.44,2.47,8.65,8.15,7.91,14.14
			c-0.3,2.45-0.54,4.91-0.91,7.34c-0.18,1.16-0.47,2.35-1.57,3.08c-0.2,0.13-0.38,0.42-0.43,0.66c-0.54,2.34-0.79,4.71-0.02,7.04
			c0.46,1.39,1.32,2.52,2.65,3.16c2.9,1.39,5.78,2.81,8.73,4.07c1.18,0.5,2.56,0.45,3.79,0.95c3.81,1.55,6.1,4.41,7.15,8.38
			c0.87,3.3,0.77,6.64,0.24,9.94c-0.7,4.27-0.61,8.56-0.77,12.85c-0.07,2.01-0.09,4.02-0.24,6.03c-0.25,3.5,0.37,6.86,0.99,10.29
			c0.96,5.25,0.48,10.6-0.31,15.84c-0.6,4-0.83,8.01-0.91,12.02c-0.1,4.86-1.69,9.25-3.79,13.46c-0.91,1.82-2.63,3.12-4.09,4.55
			c-0.6,0.58-1.02,0.39-1.32-0.34c-0.3-0.74-0.18-1.43,0.2-2.1c0.43-0.76,0.97-1.44,1.63-2.01c0.98-0.85,1.37-1.97,1.66-3.25
			c-0.66,0.16-0.87,0.72-1.26,1.06c-0.33,0.27-0.64,0.55-1.08,0.3c-0.42-0.24-0.43-0.66-0.37-1.09c0.16-1.1,0.57-2.12,1.11-3.08
			c0.46-0.83,0.62-1.66,0.54-2.62c-0.15-1.79,0.27-3.48,1.6-4.77c0.65-0.64,0.67-1.28,0.52-2.11c-0.82-4.41-2.36-8.64-3.22-13.04
			c-1.14-5.84-1.38-11.69-0.11-17.57c0.39-1.8-0.2-3.63-0.37-5.43c-0.39-4.1-0.85-8.18-1.32-12.6c-0.73,2.54-1,4.85-1.34,7.14
			c-0.57,3.89-0.83,7.82-0.93,11.75c-0.15,5.5,0.35,10.9,1.6,16.31c1.74,7.49,1.49,15.16,0.9,22.8c-0.75,9.64-2.42,19.14-4.73,28.51
			c-0.73,2.95-1.04,5.94-1.51,8.91c-0.15,0.93,0.02,1.81,0.19,2.72c1.52,8.49,0.94,16.94-0.61,25.36c-0.78,4.28-1.67,8.55-3.21,12.6
			c-1.35,3.58-0.9,7.19-1.01,10.83c-0.07,2.61,0.85,4.52,2.88,6.03c0.76,0.57,1.32,1.39,1.57,2.35c0.24,0.89-0.07,1.47-1.03,1.48
			c-3.25,0.02-6.5,0.05-9.75-0.01c-1.26-0.02-2-1.88-1.22-3.24c0.46-0.79,0.48-1.48,0.38-2.32c-0.3-2.48-0.18-4.91,0.81-7.27
			c0.65-1.56-0.04-3.17-0.13-4.74c-0.25-4.19-0.68-8.38-0.95-12.58c-0.24-3.88-0.55-7.77-0.47-11.65c0.11-5.38-0.09-10.8,0.8-16.15
			c0.33-1.96,0.16-3.93,0.13-5.89c-0.14-7.72-0.34-15.45-0.51-23.18c-0.17-7.82-0.34-15.63-0.52-23.45
			c-0.01-0.61,0.03-1.24-0.84-1.27c-0.8-0.03-0.93,0.45-1.02,1.13c-0.4,3.15-0.15,6.31-0.22,9.46c-0.23,9.46-0.39,18.93-0.58,28.4
			c-0.05,2.15-0.06,4.3-0.22,6.44c-0.46,6.02,0.73,11.95,0.81,17.94c0.1,7.51-0.14,15-0.74,22.48c-0.27,3.37-0.5,6.75-0.85,10.11
			c-0.15,1.38-0.02,2.7,0.46,4.04c0.73,2.06,0.72,4.22,0.45,6.37c-0.08,0.66-0.05,1.21,0.26,1.83c1.05,2.07,0.11,3.57-2.16,3.58
			c-2.8,0-5.6,0.02-8.4-0.01c-1.42-0.01-1.86-0.77-1.15-2.04c0.79-1.41,1.88-2.58,3.15-3.55c0.77-0.59,1.03-1.27,1.04-2.22
			c0.01-2.65-0.12-5.31,0.21-7.95c0.1-0.83-0.07-1.63-0.35-2.42c-2.65-7.63-4.42-15.46-5.2-23.51c-0.58-5.98-0.52-11.97,0.76-17.88
			c0.13-0.6,0.1-1.16,0.05-1.76c-0.55-5.99-2.36-11.73-3.48-17.6c-2.05-10.66-3.46-21.4-3.09-32.29c0.16-4.85,0.61-9.68,2.11-14.33
			c0.47-1.46,0.44-2.99,0.51-4.48c0.38-8.48-0.02-16.92-1.66-25.27C295.26,148.98,295.29,148.55,294.88,148.16z"/>
	</g>
</g>
<g>
	<g>
		<path class="st5" d="M151.76,154.5c-0.31,2.84-0.6,5.59-0.9,8.35c-0.26,2.38-0.49,4.76-0.78,7.14c-0.17,1.43,0.32,2.76,0.52,4.13
			c1.01,6.75-0.11,13.28-2.02,19.71c-0.71,2.39-1.17,4.82-1.79,7.22c-0.14,0.54-0.01,0.88,0.41,1.25c1.2,1.03,1.74,2.43,1.75,3.94
			c0.02,1.56,0.23,3.02,1.01,4.38c0.13,0.22,0.2,0.48,0.26,0.74c0.18,0.7,0.7,1.58-0.02,2.06c-0.88,0.6-1.16-0.58-1.72-0.96
			c-0.21-0.14-0.38-0.33-0.81-0.72c0.47,1.52,0.86,2.65,1.86,3.55c0.94,0.84,1.81,1.79,1.86,3.18c0.02,0.53-0.02,1.13-0.56,1.36
			c-0.47,0.2-0.77-0.29-1.09-0.56c-4.61-3.91-6.72-9.13-7.07-14.92c-0.41-6.82-1.35-13.59-1.81-20.4
			c-0.27-3.96-0.12-7.91,1.26-11.74c0.6-1.66,0.06-3.46,0.02-5.19c-0.1-5-0.22-10.01-0.38-15.02c-0.07-2.31-0.77-4.55-0.88-6.86
			c-0.16-3.45,0.16-6.79,1.98-9.83c1.88-3.12,4.67-4.85,8.26-5.32c0.62-0.08,1.18-0.26,1.74-0.52c2.02-0.93,4.03-1.88,6.06-2.77
			c3.57-1.56,4.95-3.63,4.47-8.57c-0.12-1.19-0.39-2.32-1.43-3.23c-0.82-0.72-0.91-1.97-1.05-3.04c-0.33-2.46-0.68-4.92-0.79-7.4
			c-0.25-5.72,2.88-9.87,8.39-11.39c0.62-0.17,1.29-0.38,1.8-0.75c1.1-0.8,2.1-0.69,3.28-0.16c5.25,2.35,8.35,7.76,7.63,13.47
			c-0.29,2.33-0.52,4.67-0.88,6.99c-0.17,1.11-0.45,2.23-1.52,2.93c-0.2,0.13-0.36,0.4-0.42,0.63c-0.52,2.23-0.76,4.48-0.02,6.71
			c0.44,1.32,1.27,2.4,2.56,3.01c2.79,1.33,5.58,2.68,8.43,3.87c1.14,0.48,2.47,0.43,3.66,0.9c3.68,1.47,5.89,4.2,6.9,7.98
			c0.84,3.14,0.74,6.32,0.23,9.47c-0.67,4.06-0.59,8.16-0.75,12.24c-0.07,1.91-0.09,3.83-0.23,5.74c-0.25,3.33,0.35,6.54,0.96,9.8
			c0.93,5,0.46,10.09-0.3,15.09c-0.58,3.81-0.8,7.63-0.88,11.44c-0.1,4.63-1.63,8.8-3.66,12.82c-0.88,1.74-2.54,2.97-3.95,4.33
			c-0.58,0.56-0.99,0.38-1.27-0.32c-0.29-0.7-0.18-1.36,0.19-2c0.42-0.72,0.94-1.37,1.57-1.91c0.95-0.81,1.33-1.88,1.6-3.1
			c-0.64,0.15-0.84,0.69-1.22,1.01c-0.32,0.26-0.62,0.52-1.04,0.29c-0.4-0.23-0.42-0.63-0.36-1.04c0.16-1.05,0.55-2.02,1.07-2.93
			c0.44-0.79,0.6-1.58,0.52-2.5c-0.15-1.71,0.26-3.31,1.54-4.54c0.63-0.61,0.65-1.21,0.5-2.01c-0.79-4.2-2.28-8.23-3.11-12.42
			c-1.1-5.56-1.33-11.13-0.1-16.73c0.38-1.72-0.19-3.46-0.36-5.18c-0.38-3.9-0.83-7.79-1.28-11.99c-0.71,2.42-0.96,4.62-1.29,6.8
			c-0.55,3.71-0.8,7.45-0.9,11.19c-0.14,5.23,0.34,10.38,1.55,15.53c1.67,7.14,1.44,14.44,0.87,21.71
			c-0.72,9.18-2.34,18.22-4.57,27.15c-0.7,2.81-1,5.65-1.46,8.48c-0.14,0.89,0.02,1.73,0.18,2.59c1.47,8.09,0.9,16.13-0.59,24.15
			c-0.76,4.07-1.61,8.14-3.1,12c-1.31,3.41-0.87,6.85-0.97,10.31c-0.07,2.49,0.82,4.3,2.78,5.74c0.73,0.54,1.27,1.32,1.51,2.24
			c0.23,0.85-0.07,1.4-0.99,1.41c-3.14,0.02-6.28,0.04-9.41-0.01c-1.21-0.02-1.92-1.79-1.17-3.09c0.44-0.75,0.46-1.41,0.37-2.21
			c-0.29-2.36-0.17-4.68,0.78-6.93c0.63-1.48-0.04-3.01-0.13-4.52c-0.24-4-0.66-7.98-0.92-11.97c-0.23-3.69-0.53-7.4-0.46-11.09
			c0.1-5.13-0.09-10.28,0.77-15.38c0.31-1.86,0.16-3.74,0.13-5.61c-0.14-7.36-0.33-14.71-0.49-22.07
			c-0.17-7.44-0.34-14.89-0.5-22.33c-0.01-0.57,0.03-1.18-0.81-1.21c-0.77-0.03-0.9,0.43-0.98,1.07c-0.39,3-0.14,6.01-0.21,9.01
			c-0.23,9.01-0.37,18.03-0.56,27.04c-0.04,2.04-0.06,4.09-0.21,6.13c-0.44,5.73,0.71,11.38,0.78,17.08
			c0.1,7.15-0.14,14.28-0.71,21.41c-0.26,3.21-0.48,6.43-0.83,9.63c-0.14,1.31-0.02,2.57,0.44,3.85c0.71,1.96,0.7,4.02,0.43,6.07
			c-0.08,0.62-0.05,1.15,0.25,1.74c1.01,1.97,0.11,3.41-2.09,3.41c-2.7,0-5.41,0.02-8.11-0.01c-1.38-0.01-1.79-0.73-1.11-1.95
			c0.76-1.34,1.82-2.46,3.04-3.38c0.74-0.56,1-1.21,1-2.11c0.01-2.52-0.12-5.05,0.2-7.57c0.1-0.79-0.07-1.55-0.34-2.31
			c-2.56-7.26-4.27-14.73-5.02-22.38c-0.56-5.7-0.5-11.4,0.74-17.03c0.13-0.57,0.1-1.11,0.05-1.68c-0.53-5.71-2.27-11.17-3.36-16.76
			c-1.97-10.15-3.34-20.37-2.98-30.75c0.16-4.62,0.6-9.21,2.04-13.65c0.45-1.39,0.42-2.85,0.49-4.27
			c0.37-8.07-0.02-16.11-1.61-24.06C152.12,155.28,152.15,154.87,151.76,154.5z"/>
	</g>
</g>
<g>
	<g>
		<path class="st6" d="M110.45,205.02c-0.53,0.4-0.38,0.89-0.36,1.33c0.44,8.86,0.1,17.71-0.25,26.56
			c-0.12,3.12-0.18,6.23-0.31,9.35c-0.13,3.07-0.24,6.15-0.47,9.21c-0.29,3.85,0.5,7.62,0.59,11.45c0.08,3.33,0.14,6.65,0.04,9.98
			c-0.14,4.36-0.4,8.72-0.64,13.08c-0.1,1.83-0.25,3.65-0.42,5.47c-0.06,0.68-0.04,1.32,0.21,1.96c0.67,1.75,0.87,3.55,0.57,5.4
			c-0.12,0.76-0.04,1.44,0.3,2.17c0.7,1.52-0.05,2.66-1.69,2.67c-2.04,0.02-4.08,0.02-6.12,0c-1.4-0.01-1.76-0.66-1.08-1.91
			c0.57-1.04,1.42-1.85,2.28-2.63c0.61-0.55,0.79-1.17,0.84-1.97c0.43-5.58-0.59-11-1.56-16.45c-0.88-4.96-1.33-9.99-1.33-15.01
			c0.01-3.47,0.1-6.99,1.24-10.36c0.11-0.34,0.15-0.74,0.11-1.1c-0.47-4.5-0.86-9.02-1.51-13.5c-0.27-1.87-1.11-3.65-1.7-5.47
			c-1.66-5.11-3.13-10.27-4-15.57c-0.25-1.52-1.52-1.85-2.33-3.16c0.29,1.89,1.26,3.07,1.89,4.4c0.35,0.74,1.05,1.78,0.34,2.24
			c-0.66,0.43-1.21-0.73-1.72-1.28c-3.02-3.23-4.26-7.25-4.59-11.48c-0.49-6.34-0.64-12.7-0.91-19.06
			c-0.21-4.96,0.92-9.84,0.97-14.79c0.03-3.16,0.23-6.31,0.43-9.47c0.31-4.93,0.46-9.89,1.92-14.68c0.37-1.21,0.84-2.36,1.56-3.38
			c0.76-1.07,1.61-2.02,3.1-2.04c0.35,0,0.71-0.21,1.04-0.37c1.75-0.87,3.49-1.77,5.25-2.62c1.23-0.6,2.15-1.52,2.47-2.83
			c0.58-2.36,0.9-4.74-0.8-6.87c-0.45-0.56-0.56-1.28-0.69-1.98c-0.47-2.5-0.63-5.03-0.69-7.56c-0.04-1.79,0.46-3.47,1.6-4.89
			c0.53-0.66,0.56-1.11,0.06-1.83c-1.34-1.92-1.28-4.54,0-6.34c1.31-1.85,3.69-2.75,5.83-2.21c2.3,0.58,3.93,2.37,4.27,4.69
			c0.14,0.93-0.01,1.83-0.32,2.7c-0.14,0.39-0.18,0.7,0.28,0.93c3.75,1.88,4.47,5.19,4.15,8.96c-0.13,1.57-0.27,3.15-0.48,4.71
			c-0.18,1.32-0.55,2.52-1.43,3.64c-1.7,2.17-0.53,7.42,1.94,8.69c2.42,1.24,4.74,2.75,7.46,3.38c1.44,0.33,2.23,1.52,2.89,2.76
			c1.68,3.16,2.19,6.63,2.54,10.1c0.59,5.75,0.66,11.54,0.82,17.31c0.09,3.2,0.46,6.38,0.79,9.56c0.41,3.96,0.05,7.9-0.17,11.83
			c-0.17,3.03-0.4,6.05-0.41,9.09c0,4.08-1.09,7.9-2.87,11.52c-0.72,1.45-1.94,2.58-3.08,3.74c-0.18,0.18-0.42,0.34-0.67,0.2
			s-0.22-0.43-0.17-0.67c0.16-0.78,0.47-1.51,0.88-2.19c0.7-1.18,1.32-2.39,1.62-3.64c-2.75,1.32-2.51,4.2-3.06,6.61
			c-1.19,5.16-2.68,10.22-4.39,15.22c-0.66,1.92-0.87,3.88-1.07,5.86c-0.27,2.73-0.49,5.47-0.89,8.18
			c-0.34,2.39,0.57,4.59,0.84,6.89c0.5,4.28,0.38,8.54,0.03,12.82c-0.47,5.77-1.56,11.44-2.52,17.14c-0.48,2.83,0.1,5.72,0.14,8.59
			c0.01,0.56,0.49,0.84,0.86,1.17c0.92,0.8,1.75,1.68,2.22,2.82c0.42,1,0.09,1.52-1,1.54c-2.12,0.04-4.24,0.03-6.36,0.01
			c-1.37-0.01-2.2-0.75-1.74-2.02c0.7-1.91,0.02-3.8,0.38-5.67c0.14-0.73,0.19-1.49,0.47-2.19c0.37-0.93,0.35-1.87,0.27-2.83
			c-0.86-9.99-1.15-20.01-0.9-30.03c0.04-1.45,0.25-2.9,0.45-4.34c0.32-2.28,0.03-4.56-0.04-6.84c-0.17-5.36-0.49-10.71-0.7-16.07
			c-0.3-7.65-0.48-15.3-0.44-22.95c0.01-1.37,0.15-2.74,0.19-4.11C110.69,206.09,110.81,205.58,110.45,205.02z M126.56,214.43
			c0.44-0.45,0.46-0.95,0.45-1.52c-0.02-1.68,0.12-3.34,1.48-4.59c0.39-0.35,0.4-0.8,0.37-1.27c-0.1-1.37-0.21-2.73-0.32-4.1
			c-0.24-2.99-0.97-5.9-1.36-8.87c-0.93-7.05-0.92-14.18-1.79-21.23c-0.22-1.82-0.41-3.64-0.63-5.66c-1,1.05-1.69,2.04-2.32,3.06
			c-3.39,5.57-3.77,11.91,0.82,17.24c0.52,0.61,0.86,1.43,1.15,2.2c1.71,4.56,2.52,9.3,2.6,14.16
			C127.09,207.39,127.07,210.92,126.56,214.43z M96.17,167.39c-0.28,0.17-0.3,0.38-0.31,0.58c-0.27,5.31-1.25,10.56-1.34,15.88
			c-0.03,1.82-0.24,3.64-0.36,5.46c-0.34,5.06-1.72,9.98-2,15.05c-0.1,1.71-0.72,3.53,0.9,4.98c0.41,0.37,0.41,1.06,0.58,1.62
			c0.31,1.07-0.08,2.23,0.48,3.25c0.06-0.37,0.05-0.74,0.01-1.11c-0.58-5.18-0.68-10.38,0.18-15.52c0.71-4.22,1.81-8.26,4.43-11.89
			C103,179.77,100.67,172.44,96.17,167.39z"/>
	</g>
</g>
<g>
	<path class="st6" d="M254.28,192.51c-0.6,0.46-0.43,1.02-0.41,1.51c0.5,10.09,0.12,20.16-0.29,30.24
		c-0.14,3.55-0.21,7.1-0.36,10.65c-0.14,3.5-0.27,7-0.53,10.49c-0.33,4.38,0.57,8.68,0.67,13.03c0.09,3.79,0.16,7.58,0.04,11.36
		c-0.16,4.97-0.46,9.93-0.73,14.89c-0.11,2.08-0.29,4.15-0.48,6.22c-0.07,0.77-0.04,1.5,0.24,2.23c0.76,1.99,0.99,4.04,0.65,6.14
		c-0.14,0.87-0.05,1.64,0.33,2.47c0.8,1.73-0.06,3.03-1.92,3.04c-2.32,0.02-4.64,0.02-6.96,0c-1.6-0.01-2.01-0.76-1.23-2.18
		c0.65-1.18,1.62-2.1,2.6-2.99c0.69-0.63,0.89-1.33,0.96-2.24c0.49-6.35-0.67-12.53-1.78-18.73c-1.01-5.64-1.52-11.37-1.51-17.09
		c0.01-3.95,0.11-7.96,1.4-11.8c0.13-0.39,0.18-0.84,0.13-1.25c-0.54-5.13-0.98-10.28-1.72-15.38c-0.31-2.12-1.26-4.15-1.94-6.22
		c-1.89-5.81-3.56-11.7-4.55-17.73c-0.29-1.73-1.73-2.11-2.66-3.6c0.33,2.15,1.44,3.49,2.16,5.01c0.4,0.84,1.19,2.02,0.38,2.56
		c-0.75,0.49-1.38-0.84-1.96-1.46c-3.44-3.67-4.85-8.26-5.22-13.07c-0.57-7.22-0.73-14.46-1.04-21.69
		c-0.25-5.65,1.05-11.2,1.11-16.84c0.03-3.6,0.25-7.19,0.48-10.78c0.36-5.62,0.52-11.26,2.19-16.71c0.42-1.37,0.96-2.68,1.78-3.85
		c0.86-1.22,1.84-2.3,3.53-2.32c0.4-0.01,0.81-0.24,1.19-0.43c1.99-0.99,3.97-2.01,5.97-2.98c1.4-0.68,2.44-1.73,2.81-3.22
		c0.67-2.69,1.03-5.39-0.91-7.82c-0.51-0.64-0.63-1.46-0.78-2.26c-0.53-2.85-0.71-5.72-0.78-8.61c-0.05-2.04,0.53-3.95,1.82-5.56
		c0.6-0.75,0.63-1.26,0.06-2.08c-1.52-2.2-1.45-5.17,0-7.22c1.49-2.1,4.2-3.13,6.63-2.52c2.62,0.66,4.47,2.7,4.87,5.34
		c0.16,1.06-0.02,2.08-0.37,3.07c-0.16,0.45-0.21,0.8,0.31,1.06c4.28,2.14,5.09,5.91,4.73,10.2c-0.15,1.79-0.31,3.58-0.55,5.36
		c-0.2,1.5-0.62,2.87-1.62,4.14c-1.94,2.47-0.61,8.45,2.2,9.89c2.76,1.42,5.39,3.13,8.49,3.85c1.64,0.38,2.54,1.73,3.29,3.14
		c1.91,3.6,2.49,7.55,2.89,11.5c0.67,6.54,0.75,13.13,0.93,19.71c0.1,3.64,0.53,7.26,0.9,10.88c0.47,4.51,0.06,8.99-0.19,13.47
		c-0.19,3.45-0.46,6.89-0.46,10.35c0,4.64-1.24,8.99-3.27,13.11c-0.82,1.65-2.22,2.94-3.51,4.26c-0.2,0.2-0.47,0.39-0.76,0.23
		s-0.25-0.49-0.2-0.77c0.18-0.89,0.54-1.72,1-2.5c0.8-1.34,1.51-2.72,1.84-4.14c-3.13,1.5-2.85,4.78-3.49,7.52
		c-1.36,5.87-3.05,11.63-5,17.32c-0.75,2.19-0.99,4.42-1.22,6.68c-0.31,3.1-0.56,6.22-1.01,9.31c-0.4,2.73,0.65,5.23,0.95,7.84
		c0.57,4.87,0.43,9.73,0.03,14.59c-0.53,6.57-1.77,13.03-2.87,19.52c-0.55,3.22,0.11,6.52,0.16,9.78c0.01,0.64,0.55,0.96,0.97,1.33
		c1.05,0.91,1.99,1.91,2.53,3.2c0.48,1.15,0.11,1.74-1.13,1.76c-2.42,0.04-4.83,0.03-7.25,0.02c-1.56-0.01-2.51-0.85-1.97-2.3
		c0.79-2.17,0.02-4.32,0.43-6.45c0.16-0.84,0.21-1.7,0.53-2.49c0.42-1.05,0.4-2.13,0.3-3.22c-0.98-11.38-1.31-22.78-1.02-34.19
		c0.04-1.65,0.28-3.3,0.51-4.94c0.37-2.6,0.04-5.2-0.04-7.79c-0.19-6.1-0.56-12.2-0.8-18.29c-0.34-8.71-0.55-17.41-0.5-26.12
		c0.01-1.56,0.16-3.12,0.22-4.68C254.55,193.72,254.69,193.14,254.28,192.51z M272.62,203.22c0.51-0.51,0.52-1.08,0.52-1.72
		c-0.03-1.92,0.13-3.81,1.69-5.22c0.44-0.4,0.46-0.92,0.42-1.44c-0.11-1.56-0.25-3.11-0.37-4.67c-0.28-3.4-1.11-6.72-1.55-10.1
		c-1.06-8.03-1.05-16.14-2.03-24.17c-0.25-2.07-0.46-4.15-0.72-6.45c-1.14,1.2-1.92,2.32-2.64,3.48
		c-3.86,6.34-4.29,13.56,0.93,19.62c0.6,0.7,0.98,1.63,1.31,2.51c1.95,5.19,2.87,10.58,2.96,16.12
		C273.21,195.2,273.2,199.22,272.62,203.22z M238.01,149.67c-0.32,0.19-0.34,0.43-0.36,0.66c-0.3,6.04-1.42,12.02-1.52,18.08
		c-0.03,2.07-0.27,4.15-0.41,6.22c-0.39,5.76-1.95,11.36-2.27,17.13c-0.11,1.95-0.82,4.02,1.02,5.67c0.47,0.43,0.47,1.21,0.66,1.84
		c0.35,1.21-0.09,2.53,0.54,3.7c0.07-0.43,0.06-0.85,0.01-1.26c-0.65-5.9-0.77-11.81,0.21-17.67c0.81-4.8,2.06-9.4,5.04-13.53
		C245.79,163.76,243.14,155.41,238.01,149.67z"/>
</g>
<line class="st7" x1="61.1" y1="58.19" x2="61.1" y2="307.54"/>
<line class="st7" x1="363.13" y1="305.63" x2="61.1" y2="305.63"/>
<rect x="119.16" y="315.17" class="st1" width="51.27" height="22.12"/>
<text transform="matrix(1 0 0 1 119.162 332.9724)" class="st8 st3 st9">1928</text>
<rect x="268.4" y="315.17" class="st1" width="67.48" height="22.12"/>
<text transform="matrix(1 0 0 1 268.4046 332.9724)" class="st8 st3 st9">2012</text>
<rect x="16.71" y="189.1" class="st1" width="36.51" height="22.12"/>
<text transform="matrix(1 0 0 1 16.7098 206.907)" class="st8 st3 st9">1,00</text>
<rect x="11.9" y="61.47" class="st1" width="41.31" height="22.12"/>
<text transform="matrix(1 0 0 1 14.9041 79.2722)" class="st8 st3 st9">2,00</text>
<rect x="15.54" y="125.64" class="st1" width="41.3" height="22.12"/>
<text transform="matrix(1 0 0 1 15.5428 143.4392)" class="st8 st3 st9">1,50</text>
<rect x="93.29" y="150.83" class="st1" width="41.31" height="22.12"/>
<text transform="matrix(1 0 0 1 91.2855 168.6296)" class="st8 st3 st9">1,65</text>
<rect x="152.64" y="150.83" class="st1" width="41.3" height="22.12"/>
<text transform="matrix(1 0 0 1 152.6361 168.6296)" class="st8 st3 st9">1,82</text>
<rect x="296.12" y="149.96" class="st1" width="41.3" height="22.12"/>
<text transform="matrix(1 0 0 1 296.1224 167.7605)" class="st8 st3 st9">1,93</text>
<rect x="235.45" y="149.96" class="st1" width="41.3" height="22.12"/>
<text transform="matrix(1 0 0 1 235.4486 167.7605)" class="st8 st3 st9">1,80</text>
<rect x="11.13" y="252.71" class="st1" width="41.3" height="22.12"/>
<text transform="matrix(1 0 0 1 16.1341 270.5076)" class="st8 st3 st9">0,50</text>
<rect x="42.57" y="315.17" class="st1" width="16.85" height="22.12"/>
<text transform="matrix(1 0 0 1 42.5682 332.9724)" class="st8 st3 st9">0</text>
</svg>
