<?xml version="1.0" encoding="utf-8"?>
<!-- Generator: Adobe Illustrator 27.5.0, SVG Export Plug-In . SVG Version: 6.00 Build 0)  -->
<svg version="1.1" id="Capa_1" xmlns="http://www.w3.org/2000/svg" xmlns:xlink="http://www.w3.org/1999/xlink" x="0px" y="0px"
	 viewBox="0 0 1140.25 174.08" style="enable-background:new 0 0 1140.25 174.08;" xml:space="preserve">
<style type="text/css">
	.st0{fill:#1E1E1C;}
	.st1{font-family:'ArialMT';}
	.st2{font-size:17px;}
	.st3{fill:none;stroke:#1D1D1B;stroke-width:0.25;stroke-linecap:round;stroke-linejoin:round;}
	.st4{fill:#FFFFFF;}
	.st5{fill:#DDDBDC;}
	.st6{fill:#CC1719;}
	.st7{fill:#FFFFFF;stroke:#1D1D1B;stroke-width:0.25;stroke-linecap:round;stroke-linejoin:round;}
	.st8{fill:none;stroke:#1D1E1C;stroke-width:0.5;stroke-miterlimit:10;}
	.st9{fill:#1D1E1C;}
	.st10{fill:none;stroke:#CC1719;stroke-miterlimit:10;}
	.st11{fill:none;stroke:#1D1D1B;stroke-width:0.35;stroke-linecap:round;stroke-linejoin:round;}
	.st12{fill:#1D1D1B;}
	.st13{fill:#A29E9E;}
	.st14{fill:#82828B;}
	.st15{fill:#656571;}
	.st16{fill:#6E6B6A;}
</style>
<g>
	<text transform="matrix(1 0 0 1 567.7612 157.8667)" class="st0 st1 st2">1.000 m</text>
</g>
<g>
	<text transform="matrix(1 0 0 1 841.2861 157.6911)" class="st0 st1 st2">500 m</text>
</g>
<g>
	<text transform="matrix(1 0 0 1 1106.1035 157.8667)" class="st0 st1 st2">0 m</text>
</g>
<g>
	<text transform="matrix(1 0 0 1 6.1831 157.7837)" class="st0 st1 st2">2.000 m</text>
</g>
<g>
	<text transform="matrix(1 0 0 1 288.8506 157.4332)" class="st0 st1 st2">1.500 m</text>
</g>
<path class="st3" d="M472.62,114.8"/>
<path class="st3" d="M184.01,114.8"/>
<g>
	<polygon class="st4" points="1150,135.01 575,135.01 575,69.37 1048.9,69.37 	"/>
	<polygon class="st5" points="1128.4,129.71 548.85,129.71 548.85,71.95 1052.15,69.37 	"/>
	<polygon class="st4" points="0,135.01 560.2,135.01 560.2,69.37 98.5,69.37 	"/>
	<polygon class="st5" points="19.91,129.71 562.21,129.71 562.21,71.95 96.2,69.37 	"/>
</g>
<text transform="matrix(1 0 0 1 1052.8271 24.8511)" class="st6 st1 st2">Salida</text>
<path class="st7" d="M555.1,107.01"/>
<path class="st7" d="M659.88,64.37"/>
<g>
	<line class="st3" x1="77.36" y1="150.14" x2="280.07" y2="150.14"/>
	<line class="st3" x1="80.76" y1="148.31" x2="73.96" y2="151.97"/>
	<line class="st3" x1="280.03" y1="146.81" x2="280.1" y2="153.47"/>
</g>
<g>
	<line class="st3" x1="351.05" y1="150.14" x2="557.17" y2="150.14"/>
	<line class="st3" x1="557.17" y1="152.84" x2="557.17" y2="147.44"/>
	<line class="st3" x1="351.03" y1="146.81" x2="351.08" y2="153.47"/>
</g>
<g>
	<line class="st3" x1="626.8" y1="150.14" x2="832.91" y2="150.14"/>
	<line class="st3" x1="832.91" y1="152.84" x2="832.91" y2="147.44"/>
	<line class="st3" x1="626.77" y1="146.81" x2="626.83" y2="153.47"/>
</g>
<g>
	<line class="st3" x1="892.82" y1="150.14" x2="1098.93" y2="150.14"/>
	<line class="st3" x1="1098.93" y1="152.84" x2="1098.93" y2="147.44"/>
	<line class="st3" x1="892.8" y1="146.81" x2="892.85" y2="153.47"/>
</g>
<g>
	<g>
		<line class="st8" x1="896.08" y1="100.87" x2="692.03" y2="100.87"/>
		<g>
			<polygon class="st9" points="692.76,98.38 688.44,100.87 692.76,103.37 			"/>
		</g>
	</g>
</g>
<g>
	<g>
		<line class="st8" x1="482.61" y1="99.94" x2="278.56" y2="99.94"/>
		<g>
			<polygon class="st9" points="279.29,97.45 274.97,99.94 279.29,102.43 			"/>
		</g>
	</g>
</g>
<path class="st10" d="M1035.16,73.81"/>
<polygon class="st6" points="1100.43,129.71 1128.4,129.71 1052.15,69.37 1032.3,69.44 "/>
<g>
	<g>
		<line class="st11" x1="1078.12" y1="97.77" x2="1078.12" y2="32.8"/>
		<g>
			<circle class="st12" cx="1078.12" cy="97.77" r="0.53"/>
		</g>
	</g>
</g>
<polygon class="st6" points="47.49,129.71 19.52,129.71 94.98,69.37 119.08,69.44 "/>
<text transform="matrix(1 0 0 1 43.2114 25.2642)" class="st6 st1 st2">Meta</text>
<g>
	<g>
		<line class="st11" x1="59.54" y1="104.01" x2="59.54" y2="39.04"/>
		<g>
			<circle class="st12" cx="59.54" cy="104.01" r="0.53"/>
		</g>
	</g>
</g>
<g>
	<path class="st13" d="M1048.15,101.44c0,0-9.48-4.12-20.01-3.5l-14.02-0.04l-3.57-3.77l-4.58-11.31c0,0-0.52-1.54-2.09-4.84
		c0,0-1.19,0.94-1,1.79c0.2,0.85,1.92,3.16,2.17,3.35c0.26,0.19,4.29,10.84,4.29,10.84l-3.02,3.91l-14.65-0.05l-3.5-3.7l-4.58-11.31
		c0,0-0.67-1.75-2.09-4.84c0,0-1.19,0.94-1,1.79c0.2,0.85,1.92,3.16,2.17,3.35c0.26,0.19,4.29,10.84,4.29,10.84L984,97.79
		l-13.39-0.04l-3.43-3.63l-4.58-11.31c0,0-0.61-1.28-2.09-4.84c0,0-1.19,0.94-0.99,1.79s1.91,3.16,2.17,3.35s4.29,10.84,4.29,10.84
		l-2.91,3.77l-15.51-0.05l-2.9-3.06l-4.58-11.31c0,0-1.19-1.59-2.09-4.84c0,0-1.19,0.94-1,1.79c0.2,0.85,1.92,3.16,2.17,3.35
		c0.26,0.19,4.29,10.84,4.29,10.84l-2.47,3.2l-9.62-0.03c0,0-12.27,0.56-17.14,3.31c0,0,8.16,2.22,17.4,2.65l20.62,0.19l2.61,3.8
		c0,0-4.6,10.42-4.87,10.59c-0.27,0.17-2.11,2.39-2.35,3.23s0.9,1.84,0.9,1.84c2.09-1.87,2.35-4.71,2.35-4.71l5.18-11.04l3.82-3.62
		l15.02,0.14l2.47,3.58c0,0-4.6,10.42-4.87,10.59c-0.27,0.17-2.11,2.39-2.35,3.23s0.9,1.84,0.9,1.84c2.3-2.55,2.35-4.71,2.35-4.71
		l5.18-11.04l3.6-3.42l13.85,0.13l2.33,3.39c0,0-4.6,10.42-4.87,10.59c-0.27,0.17-2.11,2.39-2.35,3.23s0.9,1.84,0.9,1.84
		c2.01-2.29,2.35-4.71,2.35-4.71l5.18-11.04l3.4-3.23l15.57,0.14l2.19,3.18c0,0-4.6,10.42-4.87,10.59
		c-0.27,0.17-2.11,2.39-2.35,3.23s0.9,1.84,0.9,1.84c1.53-2.55,2.35-4.71,2.35-4.71l5.18-11.04l3.19-3.02l2.29,0.02
		C1027.42,104.48,1041.88,105.45,1048.15,101.44z M1022.24,106.26l0.97-1.82l0.74,0.01L1022.24,106.26z M1019.93,104.42l2.19,0.02
		l-0.82,2.03L1019.93,104.42z M999.87,106.26l1.08-2.02l0.83,0.01L999.87,106.26z M997.43,104.21l2.42,0.02l-0.91,2.23
		L997.43,104.21z M978.88,106.26l1.18-2.21l0.91,0.01L978.88,106.26z M976.31,104.01l2.62,0.02l-0.98,2.43L976.31,104.01z
		 M956.36,106.26l1.29-2.42l0.99,0.01L956.36,106.26z M953.65,103.8l2.85,0.03l-1.07,2.64L953.65,103.8z M944.68,97.68l-2.26-0.01
		l1.55-2.06L944.68,97.68z M946.43,97.69h-0.7l-0.85-1.82L946.43,97.69z M967.39,97.75l-2.88-0.01l1.97-2.63L967.39,97.75z
		 M969.43,97.76h-0.91l-1.11-2.39L969.43,97.76z M988.4,97.82l-2.95-0.01l2.02-2.7L988.4,97.82z M990.48,97.83h-0.94l-1.14-2.45
		L990.48,97.83z M1010.8,97.89l-3.03-0.01l2.08-2.76L1010.8,97.89z M1012.9,97.9h-0.97l-1.17-2.52L1012.9,97.9z"/>
	<path class="st12" d="M1031.78,100.53l-95.94-1.14c-0.66-0.01-1.2,0.53-1.21,1.19l0,0c-0.01,0.66,0.53,1.2,1.18,1.21l95.94,1.14
		c0.66,0.01,1.21-0.52,1.21-1.18l0,0C1032.97,101.08,1032.43,100.54,1031.78,100.53z"/>
	<g>
		<path class="st14" d="M947.49,100.21h-6.3c-0.35,0-0.63,0.28-0.63,0.63l0,0c0,0.35,0.28,0.63,0.63,0.63h6.3
			c0.34,0,0.63-0.28,0.63-0.63l0,0C948.12,100.49,947.84,100.21,947.49,100.21z"/>
		<path class="st14" d="M944.85,101.8c0,0,0.35,1.25,1.46,1.11c1.11-0.14,1.82-0.82,1.82-1.45c0-0.24-0.17-0.79-0.43-1.35
			c-0.41-0.89-1.07-1.84-1.66-1.71c-0.97,0.21-1.18,1.8-1.18,1.8s0.83,0.49,1.04-0.28c0.21-0.76-0.07-0.62,0.59-0.69
			c0.66-0.08,1.07,1.73,0.45,2.7c-0.63,0.97-1.32,0.47-1.25,0s-0.83-1.53-0.83-0.83C944.85,101.8,944.85,101.8,944.85,101.8z"/>
		<path class="st15" d="M947.8,100.21L947.8,100.21c-0.4,0-0.72,0.32-0.72,0.72l0,0c0,0.4,0.32,0.72,0.72,0.72l0,0
			c0.4,0,0.72-0.32,0.72-0.72l0,0C948.52,100.53,948.2,100.21,947.8,100.21z"/>
		<path class="st14" d="M943.77,100.21L943.77,100.21c-0.09,0-0.17,0.08-0.17,0.17v0.91c0,0.09,0.08,0.17,0.17,0.17l0,0
			c0.1,0,0.17-0.08,0.17-0.17v-0.91C943.95,100.28,943.87,100.21,943.77,100.21z"/>
	</g>
	<g>
		<path class="st14" d="M958.82,100.37h-6.3c-0.35,0-0.63,0.28-0.63,0.63l0,0c0,0.35,0.28,0.63,0.63,0.63h6.3
			c0.35,0,0.63-0.28,0.63-0.63l0,0C959.45,100.66,959.17,100.37,958.82,100.37z"/>
		<path class="st14" d="M956.18,101.97c0,0,0.35,1.25,1.46,1.11c1.11-0.14,1.81-0.82,1.81-1.45c0-0.25-0.17-0.79-0.43-1.35
			c-0.42-0.89-1.07-1.84-1.66-1.71c-0.97,0.21-1.18,1.8-1.18,1.8s0.83,0.48,1.04-0.28c0.21-0.76-0.07-0.61,0.59-0.69
			c0.66-0.08,1.07,1.73,0.45,2.7s-1.32,0.47-1.25,0s-0.83-1.53-0.83-0.83C956.18,101.97,956.18,101.97,956.18,101.97z"/>
		<path class="st15" d="M959.13,100.37L959.13,100.37c-0.4,0-0.72,0.32-0.72,0.72l0,0c0,0.4,0.32,0.72,0.72,0.72l0,0
			c0.4,0,0.72-0.32,0.72-0.72l0,0C959.85,100.7,959.53,100.37,959.13,100.37z"/>
		<path class="st14" d="M955.11,100.37L955.11,100.37c-0.1,0-0.17,0.08-0.17,0.17v0.91c0,0.09,0.08,0.17,0.17,0.17l0,0
			c0.09,0,0.17-0.08,0.17-0.17v-0.91C955.28,100.45,955.2,100.37,955.11,100.37z"/>
	</g>
	<g>
		<path class="st14" d="M970.36,100.17h-6.3c-0.35,0-0.63,0.28-0.63,0.63l0,0c0,0.35,0.28,0.63,0.63,0.63h6.3
			c0.35,0,0.63-0.28,0.63-0.63l0,0C970.99,100.45,970.7,100.17,970.36,100.17z"/>
		<path class="st14" d="M967.72,101.76c0,0,0.35,1.25,1.46,1.11c1.11-0.14,1.81-0.82,1.81-1.45c0-0.24-0.17-0.79-0.43-1.35
			c-0.41-0.89-1.07-1.84-1.66-1.71c-0.97,0.21-1.18,1.8-1.18,1.8s0.83,0.49,1.04-0.28c0.21-0.76-0.07-0.62,0.6-0.69
			c0.66-0.08,1.07,1.73,0.45,2.7c-0.63,0.97-1.32,0.47-1.25,0s-0.83-1.53-0.83-0.83C967.72,101.76,967.72,101.76,967.72,101.76z"/>
		<path class="st15" d="M970.66,100.17L970.66,100.17c-0.4,0-0.72,0.32-0.72,0.72l0,0c0,0.4,0.33,0.72,0.72,0.72l0,0
			c0.4,0,0.72-0.32,0.72-0.72l0,0C971.39,100.49,971.06,100.17,970.66,100.17z"/>
		<path class="st14" d="M966.64,100.17L966.64,100.17c-0.09,0-0.17,0.08-0.17,0.17v0.91c0,0.09,0.08,0.17,0.17,0.17l0,0
			c0.09,0,0.17-0.08,0.17-0.17v-0.91C966.81,100.24,966.73,100.17,966.64,100.17z"/>
	</g>
	<g>
		<path class="st14" d="M980.58,100.27h-6.3c-0.35,0-0.63,0.28-0.63,0.63l0,0c0,0.35,0.28,0.63,0.63,0.63h6.3
			c0.35,0,0.63-0.28,0.63-0.63l0,0C981.2,100.55,980.92,100.27,980.58,100.27z"/>
		<path class="st14" d="M977.93,101.86c0,0,0.35,1.25,1.46,1.11c1.11-0.14,1.81-0.82,1.81-1.45c0-0.25-0.17-0.79-0.43-1.35
			c-0.42-0.9-1.07-1.84-1.66-1.71c-0.97,0.21-1.18,1.8-1.18,1.8s0.83,0.49,1.04-0.28c0.21-0.76-0.07-0.61,0.6-0.69
			c0.66-0.08,1.07,1.73,0.44,2.7c-0.62,0.97-1.32,0.47-1.25,0s-0.83-1.52-0.83-0.83C977.93,101.86,977.93,101.86,977.93,101.86z"/>
		<path class="st15" d="M980.88,100.27L980.88,100.27c-0.4,0-0.72,0.33-0.72,0.72l0,0c0,0.4,0.33,0.72,0.72,0.72l0,0
			c0.4,0,0.72-0.32,0.72-0.72l0,0C981.6,100.59,981.28,100.27,980.88,100.27z"/>
		<path class="st14" d="M976.86,100.27L976.86,100.27c-0.1,0-0.17,0.08-0.17,0.18v0.91c0,0.09,0.08,0.18,0.17,0.18l0,0
			c0.09,0,0.17-0.08,0.17-0.18v-0.91C977.03,100.34,976.95,100.27,976.86,100.27z"/>
	</g>
	<g>
		<path class="st14" d="M991.34,100.39h-6.3c-0.35,0-0.63,0.28-0.63,0.63l0,0c0,0.34,0.28,0.63,0.63,0.63h6.3
			c0.35,0,0.63-0.28,0.63-0.63l0,0C991.97,100.67,991.69,100.39,991.34,100.39z"/>
		<path class="st14" d="M988.7,101.98c0,0,0.35,1.25,1.46,1.11c1.11-0.14,1.81-0.82,1.81-1.45c0-0.25-0.17-0.79-0.43-1.35
			c-0.42-0.89-1.07-1.84-1.66-1.71c-0.97,0.21-1.18,1.8-1.18,1.8s0.83,0.48,1.04-0.28c0.21-0.76-0.07-0.61,0.6-0.69
			c0.66-0.08,1.07,1.74,0.44,2.71c-0.62,0.97-1.32,0.47-1.25,0s-0.83-1.53-0.83-0.83C988.7,101.98,988.7,101.98,988.7,101.98z"/>
		<path class="st15" d="M991.65,100.39L991.65,100.39c-0.4,0-0.72,0.32-0.72,0.72l0,0c0,0.4,0.33,0.72,0.72,0.72l0,0
			c0.4,0,0.72-0.33,0.72-0.72l0,0C992.37,100.71,992.05,100.39,991.65,100.39z"/>
		<path class="st14" d="M987.63,100.39L987.63,100.39c-0.09,0-0.17,0.08-0.17,0.17v0.91c0,0.09,0.08,0.17,0.17,0.17l0,0
			c0.09,0,0.17-0.08,0.17-0.17v-0.91C987.8,100.46,987.72,100.39,987.63,100.39z"/>
	</g>
	<g>
		<path class="st14" d="M1002.8,100.35h-6.3c-0.34,0-0.63,0.28-0.63,0.63l0,0c0,0.35,0.28,0.63,0.63,0.63h6.3
			c0.34,0,0.63-0.28,0.63-0.63l0,0C1003.43,100.63,1003.14,100.35,1002.8,100.35z"/>
		<path class="st14" d="M1000.16,101.94c0,0,0.35,1.25,1.46,1.11s1.81-0.82,1.81-1.45c0-0.25-0.17-0.79-0.43-1.35
			c-0.41-0.89-1.07-1.84-1.66-1.71c-0.97,0.21-1.18,1.8-1.18,1.8s0.83,0.48,1.04-0.28c0.21-0.76-0.06-0.61,0.6-0.69
			c0.66-0.08,1.07,1.74,0.45,2.71s-1.32,0.47-1.25,0s-0.83-1.53-0.83-0.83C1000.16,101.94,1000.16,101.94,1000.16,101.94z"/>
		<path class="st15" d="M1003.1,100.35L1003.1,100.35c-0.4,0-0.72,0.32-0.72,0.72l0,0c0,0.4,0.32,0.72,0.72,0.72l0,0
			c0.4,0,0.72-0.33,0.72-0.72l0,0C1003.83,100.67,1003.5,100.35,1003.1,100.35z"/>
		<path class="st14" d="M999.08,100.35L999.08,100.35c-0.1,0-0.17,0.08-0.17,0.17v0.91c0,0.09,0.08,0.17,0.17,0.17l0,0
			c0.09,0,0.17-0.08,0.17-0.17v-0.91C999.25,100.43,999.18,100.35,999.08,100.35z"/>
	</g>
	<g>
		<path class="st14" d="M1013.31,100.48h-6.3c-0.35,0-0.63,0.28-0.63,0.63l0,0c0,0.35,0.28,0.63,0.63,0.63h6.3
			c0.35,0,0.63-0.28,0.63-0.63l0,0C1013.94,100.76,1013.65,100.48,1013.31,100.48z"/>
		<path class="st14" d="M1010.67,102.07c0,0,0.34,1.25,1.46,1.11c1.11-0.14,1.81-0.82,1.81-1.45c0-0.24-0.17-0.79-0.43-1.35
			c-0.41-0.9-1.07-1.84-1.66-1.71c-0.97,0.21-1.18,1.8-1.18,1.8s0.83,0.49,1.04-0.28c0.21-0.76-0.07-0.61,0.6-0.69
			c0.66-0.08,1.07,1.73,0.45,2.7c-0.63,0.97-1.32,0.47-1.25,0s-0.83-1.53-0.83-0.83C1010.67,102.07,1010.67,102.07,1010.67,102.07z"
			/>
		<path class="st15" d="M1013.61,100.48L1013.61,100.48c-0.4,0-0.72,0.33-0.72,0.72l0,0c0,0.4,0.33,0.72,0.72,0.72l0,0
			c0.4,0,0.72-0.32,0.72-0.72l0,0C1014.33,100.8,1014.01,100.48,1013.61,100.48z"/>
		<path class="st14" d="M1009.59,100.48L1009.59,100.48c-0.09,0-0.17,0.08-0.17,0.17v0.91c0,0.09,0.08,0.17,0.17,0.17l0,0
			c0.09,0,0.17-0.08,0.17-0.17v-0.91C1009.76,100.55,1009.68,100.48,1009.59,100.48z"/>
	</g>
	<g>
		<path class="st14" d="M1024.5,100.75h-6.3c-0.34,0-0.63,0.28-0.63,0.63l0,0c0,0.35,0.28,0.63,0.63,0.63h6.3
			c0.35,0,0.63-0.28,0.63-0.63l0,0C1025.13,101.03,1024.84,100.75,1024.5,100.75z"/>
		<path class="st14" d="M1021.85,102.34c0,0,0.35,1.25,1.46,1.11s1.81-0.81,1.81-1.45c0-0.24-0.17-0.79-0.43-1.35
			c-0.42-0.9-1.07-1.84-1.66-1.71c-0.97,0.21-1.18,1.8-1.18,1.8s0.83,0.49,1.04-0.28c0.21-0.76-0.07-0.61,0.59-0.69
			c0.66-0.08,1.07,1.73,0.45,2.7s-1.32,0.47-1.25,0s-0.83-1.53-0.83-0.83C1021.85,102.34,1021.85,102.34,1021.85,102.34z"/>
		<path class="st15" d="M1024.8,100.75L1024.8,100.75c-0.4,0-0.72,0.33-0.72,0.72l0,0c0,0.4,0.32,0.72,0.72,0.72l0,0
			c0.4,0,0.72-0.32,0.72-0.72l0,0C1025.52,101.08,1025.2,100.75,1024.8,100.75z"/>
		<path class="st14" d="M1020.78,100.75L1020.78,100.75c-0.1,0-0.17,0.08-0.17,0.17v0.91c0,0.09,0.08,0.17,0.17,0.17l0,0
			c0.09,0,0.17-0.08,0.17-0.17v-0.91C1020.95,100.83,1020.87,100.75,1020.78,100.75z"/>
	</g>
	<path class="st16" d="M1031.86,103.81l2.26-1.52l12.6-0.37C1046.73,101.92,1039.64,104.1,1031.86,103.81z"/>
	<path class="st16" d="M1033.74,101.52l-1.44-2.01c0,0,12.04,0.61,14.19,1.87L1033.74,101.52z"/>
	<path class="st16" d="M935.17,102.67l-1.22-1.73l-18.88-0.09C915.07,100.86,933.34,103.63,935.17,102.67z"/>
	<path class="st16" d="M934.71,98.39l-1.16,2.04l-18.48,0.22C915.07,100.65,925.17,98.1,934.71,98.39z"/>
	<path class="st13" d="M971.6,124.63c0,0-2.56-1.3-2.91-1.67c-0.34-0.37,0.45-2.31,1.27-3.75c0.83-1.44,0.63-1.04,0.63-1.04
		s1,0.3,1.69,0.09l0.45-0.08c0,0,0.71,0.03,0.62,0.29c-0.09,0.27-1.54,5.7-1.65,5.93C971.6,124.63,971.6,124.63,971.6,124.63z"/>
	<path class="st13" d="M949.57,125.05c0,0-2.56-1.3-2.91-1.67c-0.34-0.37,0.45-2.31,1.27-3.75c0.83-1.44,0.63-1.04,0.63-1.04
		s1,0.3,1.69,0.09l0.45-0.08c0,0,0.71,0.03,0.62,0.3s-1.54,5.69-1.65,5.92C949.57,125.05,949.57,125.05,949.57,125.05z"/>
	<path class="st13" d="M992.98,124.63c0,0-2.56-1.3-2.91-1.67c-0.34-0.37,0.45-2.31,1.27-3.75c0.83-1.44,0.63-1.04,0.63-1.04
		s1,0.3,1.69,0.09l0.45-0.08c0,0,0.71,0.03,0.62,0.29s-1.54,5.7-1.65,5.93C992.98,124.63,992.98,124.63,992.98,124.63z"/>
	<path class="st13" d="M1015.29,124.63c0,0-2.56-1.3-2.91-1.67c-0.34-0.37,0.45-2.31,1.27-3.75c0.83-1.44,0.64-1.04,0.64-1.04
		s1,0.3,1.69,0.09l0.45-0.08c0,0,0.71,0.03,0.62,0.29c-0.09,0.27-1.54,5.7-1.65,5.93C1015.29,124.63,1015.29,124.63,1015.29,124.63z
		"/>
	<path class="st13" d="M981.13,76.7c0,0-2.41,1.57-2.71,1.98c-0.3,0.4,0.69,2.25,1.67,3.59c0.98,1.35,0.74,0.96,0.74,0.96
		s0.96-0.41,1.67-0.27l0.46,0.03c0,0,0.71-0.11,0.58-0.36c-0.12-0.25-2.15-5.5-2.28-5.71C981.13,76.7,981.13,76.7,981.13,76.7z"/>
	<path class="st13" d="M937.48,77.17c0,0-2.41,1.57-2.71,1.98c-0.3,0.4,0.69,2.25,1.67,3.59s0.74,0.96,0.74,0.96
		s0.96-0.41,1.67-0.27l0.46,0.03c0,0,0.71-0.11,0.58-0.36c-0.12-0.25-2.15-5.5-2.28-5.71C937.48,77.17,937.48,77.17,937.48,77.17z"
		/>
	<path class="st13" d="M1003.56,76.7c0,0-2.41,1.57-2.71,1.98c-0.3,0.4,0.69,2.25,1.67,3.59c0.98,1.35,0.74,0.96,0.74,0.96
		s0.96-0.41,1.67-0.27l0.46,0.03c0,0,0.71-0.11,0.58-0.36c-0.12-0.25-2.15-5.5-2.28-5.71C1003.56,76.7,1003.56,76.7,1003.56,76.7z"
		/>
	<path class="st13" d="M960.02,76.7c0,0-2.41,1.57-2.71,1.98c-0.3,0.4,0.69,2.25,1.67,3.59c0.98,1.35,0.74,0.96,0.74,0.96
		s0.96-0.41,1.67-0.27l0.46,0.03c0,0,0.71-0.11,0.58-0.36c-0.12-0.25-2.15-5.5-2.28-5.71C960.02,76.7,960.02,76.7,960.02,76.7z"/>
</g>
<g>
	<path class="st13" d="M210.26,95.3l-2.29,0.02l-3.19-3.02l-5.18-11.05c0,0-0.82-2.16-2.35-4.72c0,0-1.14,1-0.9,1.84
		c0.24,0.83,2.08,3.05,2.35,3.23c0.27,0.17,4.87,10.59,4.87,10.59l-2.19,3.18l-15.57,0.14l-3.4-3.23l-5.18-11.05
		c0,0-0.34-2.42-2.35-4.72c0,0-1.14,1-0.9,1.84c0.24,0.83,2.08,3.05,2.35,3.23c0.27,0.17,4.87,10.59,4.87,10.59l-2.33,3.39
		l-13.84,0.13l-3.61-3.42l-5.18-11.05c0,0-0.05-2.16-2.35-4.72c0,0-1.14,1-0.9,1.84c0.24,0.83,2.08,3.05,2.35,3.23
		c0.27,0.17,4.87,10.59,4.87,10.59l-2.47,3.59l-15.02,0.14l-3.82-3.62l-5.18-11.05c0,0-0.25-2.85-2.35-4.72c0,0-1.14,1-0.9,1.84
		c0.24,0.83,2.08,3.05,2.35,3.23c0.27,0.17,4.87,10.59,4.87,10.59l-2.61,3.8l-20.62,0.19c-9.24,0.42-17.4,2.65-17.4,2.65
		c4.87,2.75,17.14,3.31,17.14,3.31l9.62-0.03l2.47,3.21c0,0-4.03,10.65-4.29,10.84s-1.97,2.5-2.17,3.35s1,1.78,1,1.78
		c0.9-3.24,2.09-4.83,2.09-4.83l4.58-11.31l2.9-3.06l15.51-0.05l2.91,3.77c0,0-4.03,10.65-4.29,10.84s-1.98,2.5-2.17,3.35
		c-0.2,0.85,1,1.78,1,1.78c1.48-3.56,2.09-4.83,2.09-4.83l4.58-11.31l3.43-3.63l13.39-0.04l2.96,3.84c0,0-4.03,10.65-4.29,10.84
		s-1.98,2.5-2.17,3.35c-0.2,0.85,0.99,1.78,0.99,1.78c1.42-3.08,2.09-4.83,2.09-4.83l4.58-11.31l3.5-3.7l14.66-0.05l3.01,3.91
		c0,0-4.03,10.65-4.29,10.84s-1.98,2.5-2.17,3.35c-0.2,0.85,1,1.78,1,1.78c1.57-3.3,2.09-4.83,2.09-4.83l4.58-11.31l3.57-3.77
		l14.02-0.05c10.53,0.62,20.01-3.49,20.01-3.49C224.72,94.34,210.26,95.3,210.26,95.3z M206.78,95.33l-0.74,0.01l-0.97-1.82
		L206.78,95.33z M204.14,93.32l0.82,2.03l-2.19,0.02L204.14,93.32z M184.61,95.54l-0.83,0.01l-1.08-2.02L184.61,95.54z
		 M181.78,93.32l0.9,2.23l-2.42,0.02L181.78,93.32z M163.8,95.73l-0.91,0.01l-1.18-2.22L163.8,95.73z M160.79,93.32l0.98,2.43
		l-2.62,0.02L160.79,93.32z M141.48,95.94l-0.99,0.01l-1.29-2.42L141.48,95.94z M138.27,93.32l1.07,2.64l-2.85,0.03L138.27,93.32z
		 M126.81,104.17l-1.55-2.06l2.26-0.01L126.81,104.17z M127.72,103.92l0.85-1.82h0.7L127.72,103.92z M149.33,104.67l-1.97-2.63
		l2.88-0.01L149.33,104.67z M150.24,104.42l1.11-2.39h0.92L150.24,104.42z M170.31,104.67l-2.02-2.69l2.95-0.01L170.31,104.67z
		 M171.23,104.42l1.14-2.46h0.94L171.23,104.42z M192.68,104.67l-2.08-2.76l3.03-0.01L192.68,104.67z M193.6,104.42l1.17-2.53h0.97
		L193.6,104.42z"/>
	<path class="st12" d="M214.61,99.26l-95.94,1.14c-0.66,0.01-1.2-0.52-1.21-1.18l0,0c-0.01-0.66,0.53-1.21,1.18-1.21l95.94-1.14
		c0.66-0.01,1.2,0.53,1.21,1.18l0,0C215.81,98.71,215.27,99.25,214.61,99.26z"/>
	<g>
		<path class="st14" d="M130.33,99.58h-6.3c-0.35,0-0.63-0.28-0.63-0.63l0,0c0-0.35,0.28-0.63,0.63-0.63h6.3
			c0.34,0,0.63,0.28,0.63,0.63l0,0C130.96,99.3,130.68,99.58,130.33,99.58z"/>
		<path class="st14" d="M127.69,97.98c0,0,0.35-1.25,1.46-1.11s1.81,0.82,1.81,1.45c0,0.24-0.17,0.79-0.43,1.35
			c-0.42,0.9-1.07,1.84-1.66,1.71c-0.97-0.21-1.18-1.8-1.18-1.8s0.83-0.49,1.04,0.28c0.21,0.76-0.07,0.61,0.6,0.69
			c0.66,0.08,1.07-1.74,0.44-2.71c-0.62-0.97-1.32-0.47-1.25,0s-0.83,1.53-0.83,0.83C127.69,97.98,127.69,97.98,127.69,97.98z"/>
		<path class="st15" d="M130.64,99.58L130.64,99.58c-0.4,0-0.72-0.33-0.72-0.72l0,0c0-0.4,0.33-0.72,0.72-0.72l0,0
			c0.4,0,0.72,0.33,0.72,0.72l0,0C131.36,99.26,131.03,99.58,130.64,99.58z"/>
		<path class="st14" d="M126.61,99.58L126.61,99.58c-0.1,0-0.17-0.08-0.17-0.17V98.5c0-0.09,0.08-0.17,0.17-0.17l0,0
			c0.09,0,0.17,0.08,0.17,0.17v0.91C126.79,99.5,126.71,99.58,126.61,99.58z"/>
	</g>
	<g>
		<path class="st14" d="M141.66,99.41h-6.3c-0.35,0-0.63-0.28-0.63-0.63l0,0c0-0.35,0.28-0.63,0.63-0.63h6.3
			c0.35,0,0.63,0.28,0.63,0.63l0,0C142.29,99.13,142.01,99.41,141.66,99.41z"/>
		<path class="st14" d="M139.02,97.82c0,0,0.35-1.25,1.46-1.11s1.81,0.82,1.81,1.45c0,0.24-0.17,0.79-0.43,1.35
			c-0.42,0.89-1.07,1.84-1.66,1.71c-0.97-0.21-1.18-1.81-1.18-1.81s0.83-0.49,1.04,0.28c0.21,0.76-0.07,0.61,0.6,0.69
			c0.66,0.08,1.07-1.73,0.44-2.71c-0.62-0.97-1.32-0.47-1.25,0s-0.83,1.53-0.83,0.83C139.02,97.82,139.02,97.82,139.02,97.82z"/>
		<path class="st15" d="M141.97,99.41L141.97,99.41c-0.4,0-0.72-0.32-0.72-0.72l0,0c0-0.4,0.33-0.72,0.72-0.72l0,0
			c0.4,0,0.72,0.33,0.72,0.72l0,0C142.69,99.09,142.36,99.41,141.97,99.41z"/>
		<path class="st14" d="M137.94,99.41L137.94,99.41c-0.09,0-0.17-0.08-0.17-0.17v-0.91c0-0.09,0.08-0.17,0.17-0.17l0,0
			c0.09,0,0.17,0.08,0.17,0.17v0.91C138.12,99.33,138.04,99.41,137.94,99.41z"/>
	</g>
	<g>
		<path class="st14" d="M153.19,99.62h-6.3c-0.34,0-0.63-0.28-0.63-0.63l0,0c0-0.35,0.28-0.63,0.63-0.63h6.3
			c0.35,0,0.63,0.28,0.63,0.63l0,0C153.82,99.34,153.54,99.62,153.19,99.62z"/>
		<path class="st14" d="M150.55,98.02c0,0,0.35-1.25,1.46-1.11s1.81,0.82,1.81,1.45c0,0.24-0.17,0.79-0.43,1.35
			c-0.41,0.9-1.07,1.84-1.66,1.71c-0.97-0.21-1.18-1.8-1.18-1.8s0.83-0.49,1.04,0.28c0.21,0.76-0.07,0.61,0.6,0.69
			c0.66,0.08,1.07-1.74,0.45-2.71c-0.63-0.97-1.32-0.47-1.25,0s-0.83,1.53-0.83,0.83C150.55,98.02,150.55,98.02,150.55,98.02z"/>
		<path class="st15" d="M153.5,99.62L153.5,99.62c-0.4,0-0.72-0.33-0.72-0.72l0,0c0-0.4,0.33-0.72,0.72-0.72l0,0
			c0.4,0,0.72,0.33,0.72,0.72l0,0C154.22,99.29,153.9,99.62,153.5,99.62z"/>
		<path class="st14" d="M149.48,99.62L149.48,99.62c-0.09,0-0.17-0.08-0.17-0.17v-0.91c0-0.09,0.08-0.17,0.17-0.17l0,0
			c0.09,0,0.17,0.08,0.17,0.17v0.91C149.65,99.54,149.57,99.62,149.48,99.62z"/>
	</g>
	<g>
		<path class="st14" d="M163.41,99.52h-6.3c-0.35,0-0.63-0.28-0.63-0.63l0,0c0-0.35,0.28-0.63,0.63-0.63h6.3
			c0.35,0,0.63,0.28,0.63,0.63l0,0C164.04,99.24,163.76,99.52,163.41,99.52z"/>
		<path class="st14" d="M160.77,97.92c0,0,0.35-1.25,1.46-1.11s1.81,0.82,1.81,1.45c0,0.24-0.17,0.79-0.43,1.35
			c-0.42,0.89-1.07,1.84-1.66,1.71c-0.97-0.21-1.18-1.8-1.18-1.8s0.83-0.49,1.04,0.28c0.21,0.76-0.07,0.61,0.6,0.69
			c0.66,0.08,1.07-1.73,0.44-2.71c-0.62-0.97-1.32-0.47-1.25,0s-0.83,1.53-0.83,0.83C160.77,97.92,160.77,97.92,160.77,97.92z"/>
		<path class="st15" d="M163.72,99.52L163.72,99.52c-0.4,0-0.72-0.33-0.72-0.72l0,0c0-0.4,0.33-0.72,0.72-0.72l0,0
			c0.4,0,0.72,0.33,0.72,0.72l0,0C164.44,99.19,164.12,99.52,163.72,99.52z"/>
		<path class="st14" d="M159.7,99.52L159.7,99.52c-0.1,0-0.17-0.08-0.17-0.17v-0.91c0-0.1,0.08-0.17,0.17-0.17l0,0
			c0.09,0,0.17,0.08,0.17,0.17v0.91C159.87,99.44,159.79,99.52,159.7,99.52z"/>
	</g>
	<g>
		<path class="st14" d="M174.18,99.4h-6.3c-0.35,0-0.63-0.28-0.63-0.63l0,0c0-0.35,0.28-0.63,0.63-0.63h6.3
			c0.35,0,0.63,0.28,0.63,0.63l0,0C174.81,99.12,174.53,99.4,174.18,99.4z"/>
		<path class="st14" d="M171.54,97.81c0,0,0.35-1.25,1.46-1.11s1.81,0.82,1.81,1.45c0,0.25-0.17,0.79-0.43,1.35
			c-0.42,0.9-1.07,1.84-1.66,1.71c-0.97-0.21-1.18-1.8-1.18-1.8s0.83-0.49,1.04,0.28c0.21,0.76-0.07,0.61,0.6,0.69
			c0.66,0.08,1.07-1.73,0.44-2.7c-0.62-0.97-1.32-0.47-1.25,0s-0.83,1.53-0.83,0.83C171.54,97.81,171.54,97.81,171.54,97.81z"/>
		<path class="st15" d="M174.49,99.4L174.49,99.4c-0.4,0-0.72-0.33-0.72-0.72l0,0c0-0.4,0.33-0.72,0.72-0.72l0,0
			c0.4,0,0.72,0.32,0.72,0.72l0,0C175.21,99.08,174.88,99.4,174.49,99.4z"/>
		<path class="st14" d="M170.47,99.4L170.47,99.4c-0.09,0-0.17-0.08-0.17-0.17v-0.91c0-0.09,0.08-0.17,0.17-0.17l0,0
			c0.09,0,0.17,0.08,0.17,0.17v0.91C170.64,99.32,170.56,99.4,170.47,99.4z"/>
	</g>
	<g>
		<path class="st14" d="M185.63,99.44h-6.3c-0.34,0-0.63-0.28-0.63-0.63l0,0c0-0.35,0.28-0.63,0.63-0.63h6.3
			c0.35,0,0.63,0.28,0.63,0.63l0,0C186.26,99.16,185.98,99.44,185.63,99.44z"/>
		<path class="st14" d="M182.99,97.84c0,0,0.35-1.25,1.46-1.11s1.81,0.82,1.81,1.45c0,0.25-0.17,0.79-0.43,1.35
			c-0.42,0.89-1.07,1.84-1.66,1.71c-0.97-0.21-1.18-1.8-1.18-1.8s0.83-0.49,1.04,0.28c0.21,0.76-0.07,0.61,0.59,0.69
			c0.66,0.08,1.07-1.73,0.45-2.7c-0.62-0.97-1.32-0.47-1.25,0s-0.83,1.52-0.83,0.83C182.99,97.84,182.99,97.84,182.99,97.84z"/>
		<path class="st15" d="M185.94,99.44L185.94,99.44c-0.4,0-0.72-0.33-0.72-0.72l0,0c0-0.4,0.32-0.72,0.72-0.72l0,0
			c0.4,0,0.72,0.32,0.72,0.72l0,0C186.66,99.11,186.34,99.44,185.94,99.44z"/>
		<path class="st14" d="M181.92,99.44L181.92,99.44c-0.1,0-0.17-0.08-0.17-0.17v-0.91c0-0.09,0.08-0.17,0.17-0.17l0,0
			c0.09,0,0.17,0.08,0.17,0.17v0.91C182.09,99.36,182.01,99.44,181.92,99.44z"/>
	</g>
	<g>
		<path class="st14" d="M196.14,99.31h-6.3c-0.35,0-0.63-0.28-0.63-0.63l0,0c0-0.35,0.28-0.63,0.63-0.63h6.3
			c0.35,0,0.63,0.28,0.63,0.63l0,0C196.78,99.02,196.49,99.31,196.14,99.31z"/>
		<path class="st14" d="M193.5,97.71c0,0,0.35-1.25,1.46-1.11s1.82,0.81,1.82,1.45c0,0.24-0.17,0.79-0.43,1.35
			c-0.41,0.9-1.07,1.84-1.66,1.71c-0.97-0.21-1.18-1.8-1.18-1.8s0.83-0.49,1.04,0.28c0.21,0.76-0.07,0.61,0.6,0.69
			c0.66,0.08,1.07-1.73,0.45-2.7c-0.63-0.97-1.32-0.47-1.25,0s-0.83,1.53-0.83,0.83C193.5,97.71,193.5,97.71,193.5,97.71z"/>
		<path class="st15" d="M196.45,99.31L196.45,99.31c-0.4,0-0.72-0.33-0.72-0.72l0,0c0-0.4,0.33-0.72,0.72-0.72l0,0
			c0.4,0,0.72,0.32,0.72,0.72l0,0C197.17,98.98,196.85,99.31,196.45,99.31z"/>
		<path class="st14" d="M192.43,99.31L192.43,99.31c-0.09,0-0.17-0.08-0.17-0.17v-0.91c0-0.09,0.08-0.17,0.17-0.17l0,0
			c0.09,0,0.17,0.08,0.17,0.17v0.91C192.6,99.23,192.52,99.31,192.43,99.31z"/>
	</g>
	<g>
		<path class="st14" d="M207.33,99.04h-6.3c-0.35,0-0.63-0.28-0.63-0.63l0,0c0-0.35,0.28-0.63,0.63-0.63h6.3
			c0.35,0,0.63,0.28,0.63,0.63l0,0C207.96,98.75,207.68,99.04,207.33,99.04z"/>
		<path class="st14" d="M204.69,97.44c0,0,0.35-1.25,1.46-1.11s1.81,0.82,1.81,1.45c0,0.24-0.17,0.79-0.43,1.35
			c-0.42,0.9-1.07,1.84-1.66,1.71c-0.97-0.21-1.18-1.8-1.18-1.8s0.83-0.49,1.04,0.28c0.21,0.76-0.07,0.61,0.6,0.69
			c0.66,0.08,1.07-1.73,0.44-2.7c-0.62-0.97-1.32-0.47-1.25,0s-0.83,1.52-0.83,0.83C204.69,97.44,204.69,97.44,204.69,97.44z"/>
		<path class="st15" d="M207.64,99.04L207.64,99.04c-0.4,0-0.72-0.33-0.72-0.72l0,0c0-0.4,0.33-0.72,0.72-0.72l0,0
			c0.4,0,0.72,0.33,0.72,0.72l0,0C208.36,98.71,208.04,99.04,207.64,99.04z"/>
		<path class="st14" d="M203.62,99.04L203.62,99.04c-0.09,0-0.17-0.08-0.17-0.17v-0.91c0-0.09,0.08-0.17,0.17-0.17l0,0
			c0.09,0,0.17,0.08,0.17,0.17v0.91C203.79,98.96,203.71,99.04,203.62,99.04z"/>
	</g>
	<path class="st16" d="M214.69,95.97l2.26,1.53l12.6,0.36C229.56,97.86,222.48,95.68,214.69,95.97z"/>
	<path class="st16" d="M216.58,98.27l-1.44,2.01c0,0,12.04-0.61,14.19-1.87L216.58,98.27z"/>
	<path class="st16" d="M118,97.11l-1.22,1.73L97.9,98.93C97.91,98.93,116.18,96.16,118,97.11z"/>
	<path class="st16" d="M117.55,101.4l-1.16-2.04l-18.48-0.23C97.91,99.13,108.01,101.68,117.55,101.4z"/>
	<path class="st13" d="M154.43,75.15c0,0-2.56,1.3-2.91,1.67c-0.34,0.37,0.45,2.31,1.27,3.75c0.83,1.44,0.63,1.04,0.63,1.04
		s1-0.3,1.69-0.09l0.46,0.08c0,0,0.71-0.03,0.62-0.3c-0.09-0.27-1.54-5.7-1.65-5.92C154.43,75.15,154.43,75.15,154.43,75.15z"/>
	<path class="st13" d="M132.4,74.74c0,0-2.56,1.3-2.91,1.67c-0.34,0.37,0.45,2.31,1.27,3.75c0.83,1.44,0.63,1.04,0.63,1.04
		s1-0.3,1.69-0.09l0.46,0.08c0,0,0.71-0.03,0.62-0.3c-0.09-0.27-1.54-5.7-1.65-5.92C132.4,74.74,132.4,74.74,132.4,74.74z"/>
	<path class="st13" d="M175.82,75.15c0,0-2.56,1.3-2.91,1.67c-0.34,0.37,0.45,2.31,1.27,3.75c0.83,1.44,0.63,1.04,0.63,1.04
		s1-0.3,1.69-0.09l0.45,0.08c0,0,0.71-0.03,0.62-0.3c-0.09-0.27-1.54-5.7-1.65-5.92C175.82,75.15,175.82,75.15,175.82,75.15z"/>
	<path class="st13" d="M198.13,75.15c0,0-2.56,1.3-2.91,1.67c-0.34,0.37,0.45,2.31,1.27,3.75c0.83,1.44,0.63,1.04,0.63,1.04
		s1-0.3,1.69-0.09l0.46,0.08c0,0,0.71-0.03,0.62-0.3c-0.09-0.27-1.54-5.7-1.65-5.92C198.13,75.15,198.13,75.15,198.13,75.15z"/>
	<path class="st13" d="M163.97,123.09c0,0-2.41-1.57-2.71-1.97s0.69-2.25,1.67-3.59s0.74-0.96,0.74-0.96s0.96,0.41,1.67,0.27
		l0.46-0.03c0,0,0.71,0.11,0.58,0.36c-0.12,0.26-2.15,5.5-2.28,5.71C163.97,123.09,163.97,123.09,163.97,123.09z"/>
	<path class="st13" d="M120.32,122.62c0,0-2.41-1.57-2.71-1.98c-0.3-0.4,0.69-2.25,1.67-3.59s0.74-0.96,0.74-0.96
		s0.96,0.41,1.67,0.27l0.46-0.03c0,0,0.71,0.11,0.58,0.36c-0.12,0.25-2.15,5.5-2.28,5.71C120.32,122.62,120.32,122.62,120.32,122.62
		z"/>
	<path class="st13" d="M186.4,123.09c0,0-2.41-1.57-2.71-1.97s0.69-2.25,1.67-3.59s0.74-0.96,0.74-0.96s0.96,0.41,1.67,0.27
		l0.46-0.03c0,0,0.71,0.11,0.58,0.36c-0.12,0.26-2.15,5.5-2.28,5.71C186.4,123.09,186.4,123.09,186.4,123.09z"/>
	<path class="st13" d="M142.86,123.09c0,0-2.41-1.57-2.71-1.97s0.69-2.25,1.67-3.59s0.74-0.96,0.74-0.96s0.96,0.41,1.67,0.27
		l0.46-0.03c0,0,0.71,0.11,0.58,0.36c-0.12,0.26-2.15,5.5-2.28,5.71C142.86,123.09,142.86,123.09,142.86,123.09z"/>
</g>
<g>
	<path class="st13" d="M641.43,96.07l-2.29,0.02l-3.19-3.02l-5.18-11.05c0,0-0.82-2.16-2.35-4.71c0,0-1.14,1-0.9,1.84
		c0.24,0.83,2.08,3.05,2.35,3.23c0.27,0.17,4.87,10.59,4.87,10.59l-2.19,3.19l-15.57,0.14l-3.4-3.22l-5.18-11.05
		c0,0-0.34-2.42-2.35-4.71c0,0-1.14,1-0.9,1.84c0.24,0.83,2.08,3.05,2.35,3.23c0.27,0.17,4.87,10.59,4.87,10.59l-2.33,3.39
		L596.2,96.5l-3.6-3.42l-5.18-11.05c0,0-0.05-2.16-2.35-4.71c0,0-1.14,1-0.9,1.84c0.24,0.83,2.08,3.05,2.35,3.23
		c0.27,0.17,4.87,10.59,4.87,10.59l-2.47,3.59l-15.02,0.14l-3.82-3.62l-5.18-11.05c0,0-0.25-2.85-2.35-4.71c0,0-1.14,1-0.9,1.84
		c0.24,0.83,2.08,3.05,2.35,3.23c0.27,0.17,4.87,10.59,4.87,10.59l-2.61,3.8l-20.62,0.19c-9.24,0.42-17.4,2.65-17.4,2.65
		c4.87,2.75,17.14,3.31,17.14,3.31l9.62-0.03l2.47,3.21c0,0-4.03,10.65-4.29,10.84c-0.26,0.19-1.98,2.5-2.17,3.35
		c-0.2,0.85,0.99,1.78,0.99,1.78c0.9-3.25,2.09-4.83,2.09-4.83l4.57-11.31l2.9-3.06l15.52-0.05l2.91,3.77c0,0-4.03,10.65-4.29,10.84
		c-0.26,0.19-1.98,2.5-2.17,3.35c-0.2,0.85,1,1.78,1,1.78c1.48-3.56,2.09-4.84,2.09-4.84l4.58-11.31l3.44-3.63l13.39-0.04l2.96,3.84
		c0,0-4.03,10.65-4.29,10.84c-0.26,0.19-1.98,2.5-2.17,3.35c-0.2,0.85,1,1.78,1,1.78c1.42-3.08,2.09-4.84,2.09-4.84l4.58-11.31
		l3.5-3.7l14.65-0.05l3.02,3.91c0,0-4.03,10.65-4.29,10.84c-0.26,0.19-1.98,2.5-2.17,3.35c-0.2,0.85,0.99,1.78,0.99,1.78
		c1.57-3.3,2.09-4.84,2.09-4.84l4.58-11.31l3.57-3.77l14.03-0.05c10.53,0.62,20.01-3.49,20.01-3.49
		C655.88,95.11,641.43,96.07,641.43,96.07z M637.94,96.11l-0.74,0.01l-0.97-1.82L637.94,96.11z M635.31,94.09l0.82,2.03l-2.19,0.02
		L635.31,94.09z M615.77,96.31l-0.83,0.01l-1.08-2.02L615.77,96.31z M612.94,94.09l0.91,2.23l-2.42,0.02L612.94,94.09z M594.97,96.5
		l-0.91,0.01l-1.18-2.22L594.97,96.5z M591.95,94.09l0.98,2.43l-2.62,0.03L591.95,94.09z M572.64,96.71l-0.99,0.01l-1.29-2.42
		L572.64,96.71z M569.43,94.09l1.07,2.63l-2.85,0.03L569.43,94.09z M557.97,104.94l-1.55-2.06l2.26-0.01L557.97,104.94z
		 M558.89,104.69l0.85-1.82h0.7L558.89,104.69z M580.49,105.44l-1.97-2.63l2.88-0.01L580.49,105.44z M581.4,105.19l1.11-2.39h0.92
		L581.4,105.19z M601.48,105.44l-2.02-2.69l2.95-0.01L601.48,105.44z M602.39,105.19l1.14-2.46h0.94L602.39,105.19z M623.84,105.44
		l-2.07-2.77l3.03-0.01L623.84,105.44z M624.76,105.19l1.17-2.53h0.97L624.76,105.19z"/>
	<path class="st12" d="M645.77,100.03l-95.94,1.14c-0.66,0.01-1.21-0.53-1.21-1.18l0,0c-0.01-0.66,0.53-1.21,1.19-1.21l95.94-1.14
		c0.66-0.01,1.21,0.53,1.21,1.18l0,0C646.97,99.48,646.43,100.02,645.77,100.03z"/>
	<g>
		<path class="st14" d="M561.49,100.35h-6.3c-0.35,0-0.63-0.28-0.63-0.63l0,0c0-0.35,0.28-0.63,0.63-0.63h6.3
			c0.35,0,0.63,0.28,0.63,0.63l0,0C562.12,100.07,561.84,100.35,561.49,100.35z"/>
		<path class="st14" d="M558.85,98.76c0,0,0.35-1.25,1.46-1.11c1.11,0.14,1.81,0.81,1.81,1.45c0,0.24-0.17,0.79-0.43,1.35
			c-0.42,0.9-1.07,1.84-1.66,1.71c-0.97-0.21-1.18-1.8-1.18-1.8s0.83-0.49,1.04,0.28c0.21,0.76-0.07,0.61,0.6,0.69
			c0.66,0.08,1.07-1.73,0.45-2.7c-0.63-0.97-1.32-0.47-1.25,0s-0.83,1.53-0.83,0.83C558.85,98.76,558.85,98.76,558.85,98.76z"/>
		<path class="st15" d="M561.8,100.35L561.8,100.35c-0.4,0-0.72-0.33-0.72-0.72l0,0c0-0.4,0.33-0.72,0.72-0.72l0,0
			c0.4,0,0.72,0.33,0.72,0.72l0,0C562.52,100.03,562.2,100.35,561.8,100.35z"/>
		<path class="st14" d="M557.78,100.35L557.78,100.35c-0.09,0-0.17-0.08-0.17-0.17v-0.91c0-0.09,0.08-0.17,0.17-0.17l0,0
			c0.09,0,0.17,0.08,0.17,0.17v0.91C557.95,100.28,557.87,100.35,557.78,100.35z"/>
	</g>
	<g>
		<path class="st14" d="M572.82,100.18h-6.3c-0.35,0-0.63-0.28-0.63-0.63l0,0c0-0.35,0.28-0.63,0.63-0.63h6.3
			c0.35,0,0.63,0.28,0.63,0.63l0,0C573.45,99.9,573.17,100.18,572.82,100.18z"/>
		<path class="st14" d="M570.18,98.59c0,0,0.35-1.25,1.46-1.11c1.11,0.14,1.82,0.82,1.82,1.45c0,0.24-0.17,0.79-0.43,1.35
			c-0.41,0.9-1.07,1.84-1.66,1.71c-0.97-0.21-1.18-1.81-1.18-1.81s0.83-0.49,1.04,0.28c0.21,0.76-0.07,0.61,0.6,0.69
			c0.66,0.08,1.07-1.73,0.45-2.71c-0.63-0.97-1.32-0.47-1.25,0s-0.83,1.53-0.83,0.83C570.18,98.59,570.18,98.59,570.18,98.59z"/>
		<path class="st15" d="M573.13,100.18L573.13,100.18c-0.4,0-0.72-0.33-0.72-0.72l0,0c0-0.4,0.33-0.72,0.72-0.72l0,0
			c0.4,0,0.72,0.33,0.72,0.72l0,0C573.85,99.86,573.53,100.18,573.13,100.18z"/>
		<path class="st14" d="M569.11,100.18L569.11,100.18c-0.09,0-0.17-0.08-0.17-0.17V99.1c0-0.09,0.08-0.17,0.17-0.17l0,0
			c0.09,0,0.17,0.08,0.17,0.17v0.91C569.28,100.11,569.2,100.18,569.11,100.18z"/>
	</g>
	<g>
		<path class="st14" d="M584.36,100.39h-6.3c-0.35,0-0.63-0.28-0.63-0.63l0,0c0-0.35,0.28-0.63,0.63-0.63h6.3
			c0.35,0,0.63,0.28,0.63,0.63l0,0C584.99,100.11,584.7,100.39,584.36,100.39z"/>
		<path class="st14" d="M581.71,98.8c0,0,0.35-1.25,1.46-1.11c1.11,0.14,1.81,0.81,1.81,1.45c0,0.24-0.17,0.79-0.43,1.35
			c-0.42,0.9-1.07,1.84-1.66,1.71c-0.97-0.21-1.18-1.8-1.18-1.8s0.83-0.49,1.04,0.28c0.21,0.76-0.07,0.61,0.59,0.69
			c0.66,0.08,1.07-1.73,0.45-2.7s-1.32-0.47-1.25,0s-0.83,1.53-0.83,0.83C581.71,98.8,581.71,98.8,581.71,98.8z"/>
		<path class="st15" d="M584.66,100.39L584.66,100.39c-0.4,0-0.72-0.33-0.72-0.72l0,0c0-0.4,0.32-0.72,0.72-0.72l0,0
			c0.4,0,0.72,0.33,0.72,0.72l0,0C585.39,100.07,585.06,100.39,584.66,100.39z"/>
		<path class="st14" d="M580.64,100.39L580.64,100.39c-0.09,0-0.17-0.08-0.17-0.17v-0.91c0-0.09,0.08-0.17,0.17-0.17l0,0
			c0.09,0,0.17,0.08,0.17,0.17v0.91C580.81,100.31,580.74,100.39,580.64,100.39z"/>
	</g>
	<g>
		<path class="st14" d="M594.57,100.29h-6.3c-0.35,0-0.63-0.28-0.63-0.63l0,0c0-0.35,0.28-0.63,0.63-0.63h6.3
			c0.35,0,0.63,0.28,0.63,0.63l0,0C595.2,100.01,594.92,100.29,594.57,100.29z"/>
		<path class="st14" d="M591.93,98.7c0,0,0.35-1.25,1.46-1.11c1.11,0.14,1.81,0.82,1.81,1.45c0,0.24-0.17,0.79-0.43,1.35
			c-0.41,0.9-1.07,1.84-1.66,1.71c-0.97-0.21-1.18-1.81-1.18-1.81s0.83-0.49,1.04,0.28c0.21,0.76-0.06,0.61,0.6,0.69
			c0.66,0.08,1.07-1.74,0.45-2.71c-0.63-0.97-1.32-0.47-1.25,0s-0.83,1.53-0.83,0.83C591.93,98.7,591.93,98.7,591.93,98.7z"/>
		<path class="st15" d="M594.88,100.29L594.88,100.29c-0.4,0-0.72-0.32-0.72-0.72l0,0c0-0.4,0.32-0.72,0.72-0.72l0,0
			c0.4,0,0.72,0.33,0.72,0.72l0,0C595.61,99.96,595.28,100.29,594.88,100.29z"/>
		<path class="st14" d="M590.86,100.29L590.86,100.29c-0.09,0-0.17-0.08-0.17-0.17v-0.91c0-0.09,0.08-0.17,0.17-0.17l0,0
			c0.09,0,0.17,0.08,0.17,0.17v0.91C591.03,100.21,590.95,100.29,590.86,100.29z"/>
	</g>
	<g>
		<path class="st14" d="M605.34,100.17h-6.3c-0.35,0-0.63-0.28-0.63-0.63l0,0c0-0.34,0.28-0.63,0.63-0.63h6.3
			c0.35,0,0.63,0.28,0.63,0.63l0,0C605.98,99.89,605.69,100.17,605.34,100.17z"/>
		<path class="st14" d="M602.7,98.58c0,0,0.35-1.25,1.46-1.11c1.11,0.14,1.82,0.82,1.82,1.45c0,0.24-0.17,0.79-0.43,1.35
			c-0.41,0.89-1.07,1.84-1.66,1.71c-0.97-0.21-1.18-1.8-1.18-1.8s0.83-0.49,1.04,0.28c0.21,0.76-0.06,0.61,0.6,0.69
			c0.66,0.08,1.07-1.73,0.45-2.7c-0.63-0.97-1.32-0.47-1.25,0s-0.83,1.52-0.83,0.83C602.7,98.58,602.7,98.58,602.7,98.58z"/>
		<path class="st15" d="M605.65,100.17L605.65,100.17c-0.4,0-0.72-0.33-0.72-0.72l0,0c0-0.4,0.33-0.72,0.72-0.72l0,0
			c0.4,0,0.72,0.33,0.72,0.72l0,0C606.37,99.85,606.05,100.17,605.65,100.17z"/>
		<path class="st14" d="M601.63,100.17L601.63,100.17c-0.09,0-0.17-0.08-0.17-0.17v-0.91c0-0.1,0.08-0.17,0.17-0.17l0,0
			c0.1,0,0.17,0.08,0.17,0.17V100C601.8,100.09,601.72,100.17,601.63,100.17z"/>
	</g>
	<g>
		<path class="st14" d="M616.8,100.21h-6.3c-0.35,0-0.63-0.28-0.63-0.63l0,0c0-0.35,0.28-0.63,0.63-0.63h6.3
			c0.35,0,0.63,0.28,0.63,0.63l0,0C617.43,99.93,617.14,100.21,616.8,100.21z"/>
		<path class="st14" d="M614.15,98.62c0,0,0.35-1.25,1.46-1.11c1.11,0.14,1.81,0.82,1.81,1.45c0,0.24-0.17,0.79-0.43,1.35
			c-0.41,0.9-1.07,1.84-1.66,1.71c-0.97-0.21-1.18-1.8-1.18-1.8s0.83-0.49,1.04,0.28c0.21,0.76-0.07,0.61,0.6,0.69
			c0.66,0.08,1.07-1.73,0.45-2.7c-0.63-0.97-1.32-0.47-1.25,0s-0.83,1.52-0.83,0.83C614.15,98.62,614.15,98.62,614.15,98.62z"/>
		<path class="st15" d="M617.1,100.21L617.1,100.21c-0.4,0-0.72-0.33-0.72-0.72l0,0c0-0.4,0.33-0.72,0.72-0.72l0,0
			c0.4,0,0.72,0.33,0.72,0.72l0,0C617.83,99.89,617.5,100.21,617.1,100.21z"/>
		<path class="st14" d="M613.08,100.21L613.08,100.21c-0.09,0-0.17-0.08-0.17-0.17v-0.91c0-0.09,0.08-0.17,0.17-0.17l0,0
			c0.09,0,0.17,0.08,0.17,0.17v0.91C613.25,100.14,613.18,100.21,613.08,100.21z"/>
	</g>
	<g>
		<path class="st14" d="M627.31,100.08H621c-0.35,0-0.63-0.28-0.63-0.63l0,0c0-0.35,0.28-0.63,0.63-0.63h6.3
			c0.34,0,0.63,0.28,0.63,0.63l0,0C627.94,99.8,627.65,100.08,627.31,100.08z"/>
		<path class="st14" d="M624.66,98.48c0,0,0.35-1.25,1.46-1.11c1.11,0.14,1.81,0.82,1.81,1.45c0,0.24-0.17,0.79-0.43,1.35
			c-0.42,0.89-1.07,1.84-1.66,1.71c-0.97-0.21-1.18-1.8-1.18-1.8s0.83-0.49,1.04,0.28c0.21,0.76-0.07,0.61,0.6,0.69
			c0.66,0.08,1.07-1.73,0.44-2.7c-0.62-0.97-1.32-0.47-1.25,0s-0.83,1.53-0.83,0.83S624.66,98.48,624.66,98.48z"/>
		<path class="st15" d="M627.61,100.08L627.61,100.08c-0.4,0-0.72-0.33-0.72-0.72l0,0c0-0.4,0.33-0.72,0.72-0.72l0,0
			c0.4,0,0.72,0.33,0.72,0.72l0,0C628.34,99.76,628.01,100.08,627.61,100.08z"/>
		<path class="st14" d="M623.59,100.08L623.59,100.08c-0.1,0-0.17-0.08-0.17-0.17V99c0-0.09,0.08-0.17,0.17-0.17l0,0
			c0.09,0,0.17,0.08,0.17,0.17v0.91C623.76,100,623.69,100.08,623.59,100.08z"/>
	</g>
	<g>
		<path class="st14" d="M638.49,99.81h-6.3c-0.35,0-0.63-0.28-0.63-0.63l0,0c0-0.35,0.28-0.63,0.63-0.63h6.3
			c0.35,0,0.63,0.28,0.63,0.63l0,0C639.13,99.52,638.84,99.81,638.49,99.81z"/>
		<path class="st14" d="M635.85,98.21c0,0,0.35-1.25,1.46-1.11c1.11,0.14,1.82,0.82,1.82,1.45c0,0.24-0.17,0.79-0.43,1.35
			c-0.41,0.89-1.07,1.84-1.66,1.71c-0.97-0.21-1.18-1.81-1.18-1.81s0.83-0.49,1.04,0.28c0.21,0.76-0.07,0.61,0.6,0.69
			c0.66,0.08,1.07-1.73,0.45-2.71c-0.63-0.97-1.32-0.47-1.25,0s-0.83,1.53-0.83,0.83C635.85,98.21,635.85,98.21,635.85,98.21z"/>
		<path class="st15" d="M638.8,99.81L638.8,99.81c-0.4,0-0.72-0.32-0.72-0.72l0,0c0-0.4,0.33-0.72,0.72-0.72l0,0
			c0.4,0,0.72,0.33,0.72,0.72l0,0C639.53,99.48,639.2,99.81,638.8,99.81z"/>
		<path class="st14" d="M634.78,99.81L634.78,99.81c-0.09,0-0.17-0.08-0.17-0.17v-0.91c0-0.1,0.08-0.17,0.17-0.17l0,0
			c0.09,0,0.17,0.08,0.17,0.17v0.91C634.95,99.73,634.87,99.81,634.78,99.81z"/>
	</g>
	<path class="st16" d="M645.86,96.75l2.26,1.52l12.6,0.36C660.73,98.63,653.64,96.45,645.86,96.75z"/>
	<path class="st16" d="M647.74,99.04l-1.44,2.01c0,0,12.04-0.61,14.19-1.88L647.74,99.04z"/>
	<path class="st16" d="M549.17,97.88l-1.22,1.73l-18.88,0.09C529.07,99.7,547.34,96.93,549.17,97.88z"/>
	<path class="st16" d="M548.71,102.17l-1.16-2.04l-18.48-0.23C529.07,99.9,539.17,102.45,548.71,102.17z"/>
	<path class="st13" d="M585.6,75.93c0,0-2.56,1.3-2.91,1.67c-0.34,0.37,0.45,2.31,1.27,3.75c0.83,1.44,0.63,1.04,0.63,1.04
		s1-0.3,1.69-0.09l0.45,0.08c0,0,0.71-0.03,0.62-0.3s-1.54-5.69-1.65-5.92C585.6,75.93,585.6,75.93,585.6,75.93z"/>
	<path class="st13" d="M563.57,75.51c0,0-2.56,1.3-2.91,1.67s0.44,2.31,1.27,3.75c0.83,1.44,0.63,1.04,0.63,1.04s1-0.3,1.69-0.09
		l0.45,0.08c0,0,0.71-0.03,0.62-0.3s-1.54-5.7-1.65-5.92C563.57,75.51,563.57,75.51,563.57,75.51z"/>
	<path class="st13" d="M606.98,75.93c0,0-2.56,1.3-2.91,1.67c-0.34,0.37,0.45,2.31,1.27,3.75c0.83,1.44,0.63,1.04,0.63,1.04
		s1-0.3,1.69-0.09l0.46,0.08c0,0,0.71-0.03,0.62-0.3s-1.54-5.69-1.65-5.92S606.98,75.93,606.98,75.93z"/>
	<path class="st13" d="M629.29,75.93c0,0-2.56,1.3-2.91,1.67s0.45,2.31,1.27,3.75c0.83,1.44,0.63,1.04,0.63,1.04s1-0.3,1.69-0.09
		l0.45,0.08c0,0,0.71-0.03,0.62-0.3s-1.54-5.69-1.65-5.92C629.29,75.93,629.29,75.93,629.29,75.93z"/>
	<path class="st13" d="M595.13,123.86c0,0-2.41-1.57-2.71-1.97c-0.3-0.4,0.69-2.25,1.67-3.59s0.74-0.96,0.74-0.96
		s0.96,0.41,1.67,0.27l0.46-0.03c0,0,0.71,0.11,0.59,0.36c-0.12,0.26-2.15,5.5-2.28,5.71C595.13,123.86,595.13,123.86,595.13,123.86
		z"/>
	<path class="st13" d="M551.48,123.39c0,0-2.41-1.57-2.71-1.97c-0.3-0.4,0.69-2.25,1.67-3.59s0.74-0.96,0.74-0.96
		s0.96,0.41,1.67,0.27l0.46-0.03c0,0,0.71,0.11,0.58,0.36c-0.12,0.26-2.15,5.5-2.28,5.71C551.48,123.39,551.48,123.39,551.48,123.39
		z"/>
	<path class="st13" d="M617.56,123.86c0,0-2.41-1.57-2.71-1.97c-0.3-0.4,0.69-2.25,1.67-3.59s0.74-0.96,0.74-0.96
		s0.96,0.41,1.67,0.27l0.46-0.03c0,0,0.71,0.11,0.58,0.36c-0.12,0.26-2.15,5.5-2.28,5.71C617.56,123.86,617.56,123.86,617.56,123.86
		z"/>
	<path class="st13" d="M574.02,123.86c0,0-2.41-1.57-2.71-1.97c-0.3-0.4,0.69-2.25,1.67-3.59s0.74-0.96,0.74-0.96
		s0.96,0.41,1.67,0.27l0.46-0.03c0,0,0.71,0.11,0.58,0.36c-0.12,0.26-2.15,5.5-2.28,5.71C574.02,123.86,574.02,123.86,574.02,123.86
		z"/>
</g>
</svg>
