<?xml version="1.0" encoding="utf-8"?>
<!-- Generator: Adobe Illustrator 27.5.0, SVG Export Plug-In . SVG Version: 6.00 Build 0)  -->
<svg version="1.1" id="Capa_1" xmlns="http://www.w3.org/2000/svg" xmlns:xlink="http://www.w3.org/1999/xlink" x="0px" y="0px"
	 viewBox="0 0 1200 628" style="enable-background:new 0 0 1200 628;" xml:space="preserve">
<style type="text/css">
	.st0{fill:#1E1E1C;}
	.st1{font-family:'BarlowSemiCondensed-MediumItalic';}
	.st2{font-size:17.6692px;}
	.st3{fill:none;stroke:#1D1D1B;stroke-width:0.25;stroke-linecap:round;stroke-linejoin:round;}
	.st4{fill:#FFFFFF;}
	.st5{fill:#DDDBDC;}
	.st6{fill:#CC1719;}
	.st7{fill:#FFFFFF;stroke:#1D1D1B;stroke-width:0.25;stroke-linecap:round;stroke-linejoin:round;}
	.st8{fill:none;stroke:#1D1E1C;stroke-width:0.5;stroke-miterlimit:10;}
	.st9{fill:#1D1E1C;}
	.st10{fill:none;stroke:#CC1719;stroke-miterlimit:10;}
	.st11{fill:none;stroke:#1D1D1B;stroke-width:0.35;stroke-linecap:round;stroke-linejoin:round;}
	.st12{fill:#1D1D1B;}
	.st13{fill:#A29E9E;}
	.st14{fill:#82828B;}
	.st15{fill:#656571;}
	.st16{fill:#6E6B6A;}
</style>
<g>
	<text transform="matrix(1 0 0 1 597.7612 335.5361)" class="st0 st1 st2">1.000 m</text>
</g>
<g>
	<text transform="matrix(1 0 0 1 871.2861 335.3604)" class="st0 st1 st2">500 m</text>
</g>
<g>
	<text transform="matrix(1 0 0 1 1136.1035 335.5361)" class="st0 st1 st2">0 m</text>
</g>
<g>
	<text transform="matrix(1 0 0 1 36.1831 335.4531)" class="st0 st1 st2">2.000 m</text>
</g>
<g>
	<text transform="matrix(1 0 0 1 318.8506 335.1025)" class="st0 st1 st2">1.500 m</text>
</g>
<path class="st3" d="M502.62,292.47"/>
<path class="st3" d="M214.01,292.47"/>
<g>
	<polygon class="st4" points="1180,312.68 605,312.68 605,247.04 1078.9,247.04 	"/>
	<polygon class="st5" points="1158.4,307.38 578.85,307.38 578.85,249.62 1082.15,247.04 	"/>
	<polygon class="st4" points="30,312.68 590.2,312.68 590.2,247.04 128.5,247.04 	"/>
	<polygon class="st5" points="49.91,307.38 592.21,307.38 592.21,249.62 126.2,247.04 	"/>
</g>
<text transform="matrix(1 0 0 1 1082.8271 202.5205)" class="st6 st1 st2">Salida</text>
<path class="st7" d="M585.1,284.68"/>
<path class="st7" d="M689.88,242.04"/>
<g>
	<line class="st3" x1="107.36" y1="327.81" x2="310.07" y2="327.81"/>
	<line class="st3" x1="110.76" y1="325.98" x2="103.96" y2="329.64"/>
	<line class="st3" x1="310.03" y1="324.48" x2="310.1" y2="331.14"/>
</g>
<g>
	<line class="st3" x1="381.05" y1="327.81" x2="587.17" y2="327.81"/>
	<line class="st3" x1="587.17" y1="330.51" x2="587.17" y2="325.11"/>
	<line class="st3" x1="381.03" y1="324.48" x2="381.08" y2="331.14"/>
</g>
<g>
	<line class="st3" x1="656.8" y1="327.81" x2="862.91" y2="327.81"/>
	<line class="st3" x1="862.91" y1="330.51" x2="862.91" y2="325.11"/>
	<line class="st3" x1="656.77" y1="324.48" x2="656.83" y2="331.14"/>
</g>
<g>
	<line class="st3" x1="922.82" y1="327.81" x2="1128.93" y2="327.81"/>
	<line class="st3" x1="1128.93" y1="330.51" x2="1128.93" y2="325.11"/>
	<line class="st3" x1="922.8" y1="324.48" x2="922.85" y2="331.14"/>
</g>
<g>
	<g>
		<line class="st8" x1="926.08" y1="278.54" x2="722.03" y2="278.54"/>
		<g>
			<polygon class="st9" points="722.76,276.05 718.44,278.54 722.76,281.04 			"/>
		</g>
	</g>
</g>
<g>
	<g>
		<line class="st8" x1="512.61" y1="277.61" x2="308.56" y2="277.61"/>
		<g>
			<polygon class="st9" points="309.29,275.12 304.97,277.61 309.29,280.1 			"/>
		</g>
	</g>
</g>
<path class="st10" d="M1065.16,251.48"/>
<polygon class="st6" points="1130.43,307.38 1158.4,307.38 1082.15,247.04 1062.3,247.11 "/>
<g>
	<g>
		<line class="st11" x1="1108.12" y1="275.44" x2="1108.12" y2="210.47"/>
		<g>
			<circle class="st12" cx="1108.12" cy="275.44" r="0.53"/>
		</g>
	</g>
</g>
<polygon class="st6" points="77.49,307.38 49.52,307.38 124.98,247.04 149.08,247.11 "/>
<text transform="matrix(1 0 0 1 73.2114 202.9336)" class="st6 st1 st2">Meta</text>
<g>
	<g>
		<line class="st11" x1="89.54" y1="281.68" x2="89.54" y2="216.71"/>
		<g>
			<circle class="st12" cx="89.54" cy="281.68" r="0.53"/>
		</g>
	</g>
</g>
<g>
	<path class="st13" d="M1078.15,279.11c0,0-9.48-4.12-20.01-3.5l-14.02-0.04l-3.57-3.77l-4.58-11.31c0,0-0.52-1.54-2.09-4.84
		c0,0-1.19,0.94-1,1.79c0.2,0.85,1.92,3.16,2.17,3.35c0.26,0.19,4.29,10.84,4.29,10.84l-3.02,3.91l-14.65-0.05l-3.5-3.7l-4.58-11.31
		c0,0-0.67-1.75-2.09-4.84c0,0-1.19,0.94-1,1.79c0.2,0.85,1.92,3.16,2.17,3.35c0.26,0.19,4.29,10.84,4.29,10.84l-2.96,3.84
		l-13.39-0.04l-3.43-3.63l-4.58-11.31c0,0-0.61-1.28-2.09-4.84c0,0-1.19,0.94-0.99,1.79c0.2,0.85,1.91,3.16,2.17,3.35
		c0.26,0.19,4.29,10.84,4.29,10.84l-2.91,3.77l-15.51-0.05l-2.9-3.06l-4.58-11.31c0,0-1.19-1.59-2.09-4.84c0,0-1.19,0.94-1,1.79
		c0.2,0.85,1.92,3.16,2.17,3.35c0.26,0.19,4.29,10.84,4.29,10.84l-2.47,3.2l-9.62-0.03c0,0-12.27,0.56-17.14,3.31
		c0,0,8.16,2.22,17.4,2.65l20.62,0.19l2.61,3.8c0,0-4.6,10.42-4.87,10.59c-0.27,0.17-2.11,2.39-2.35,3.23
		c-0.24,0.84,0.9,1.84,0.9,1.84c2.09-1.87,2.35-4.71,2.35-4.71l5.18-11.04l3.82-3.62l15.02,0.14l2.47,3.58c0,0-4.6,10.42-4.87,10.59
		c-0.27,0.17-2.11,2.39-2.35,3.23c-0.24,0.84,0.9,1.84,0.9,1.84c2.3-2.55,2.35-4.71,2.35-4.71l5.18-11.04l3.6-3.42l13.85,0.13
		l2.33,3.39c0,0-4.6,10.42-4.87,10.59c-0.27,0.17-2.11,2.39-2.35,3.23c-0.24,0.84,0.9,1.84,0.9,1.84c2.01-2.29,2.35-4.71,2.35-4.71
		l5.18-11.04l3.4-3.23l15.57,0.14l2.19,3.18c0,0-4.6,10.42-4.87,10.59c-0.27,0.17-2.11,2.39-2.35,3.23c-0.24,0.84,0.9,1.84,0.9,1.84
		c1.53-2.55,2.35-4.71,2.35-4.71l5.18-11.04l3.19-3.02l2.29,0.02C1057.42,282.15,1071.88,283.12,1078.15,279.11z M1052.24,283.93
		l0.97-1.82l0.74,0.01L1052.24,283.93z M1049.93,282.09l2.19,0.02l-0.82,2.03L1049.93,282.09z M1029.87,283.93l1.08-2.02l0.83,0.01
		L1029.87,283.93z M1027.43,281.88l2.42,0.02l-0.91,2.23L1027.43,281.88z M1008.88,283.93l1.18-2.21l0.91,0.01L1008.88,283.93z
		 M1006.31,281.68l2.62,0.02l-0.98,2.43L1006.31,281.68z M986.36,283.93l1.29-2.42l0.99,0.01L986.36,283.93z M983.65,281.47
		l2.85,0.03l-1.07,2.64L983.65,281.47z M974.68,275.35l-2.26-0.01l1.55-2.06L974.68,275.35z M976.43,275.36l-0.7,0l-0.85-1.82
		L976.43,275.36z M997.39,275.42l-2.88-0.01l1.97-2.63L997.39,275.42z M999.43,275.43l-0.91,0l-1.11-2.39L999.43,275.43z
		 M1018.4,275.49l-2.95-0.01l2.02-2.7L1018.4,275.49z M1020.48,275.5l-0.94,0l-1.14-2.45L1020.48,275.5z M1040.8,275.56l-3.03-0.01
		l2.08-2.76L1040.8,275.56z M1042.9,275.57l-0.97,0l-1.17-2.52L1042.9,275.57z"/>
	<path class="st12" d="M1061.78,278.2l-95.94-1.14c-0.66-0.01-1.2,0.53-1.21,1.19l0,0c-0.01,0.66,0.53,1.2,1.18,1.21l95.94,1.14
		c0.66,0.01,1.21-0.52,1.21-1.18l0,0C1062.97,278.75,1062.43,278.21,1061.78,278.2z"/>
	<g>
		<path class="st14" d="M977.49,277.88h-6.3c-0.35,0-0.63,0.28-0.63,0.63l0,0c0,0.35,0.28,0.63,0.63,0.63h6.3
			c0.34,0,0.63-0.28,0.63-0.63l0,0C978.12,278.16,977.84,277.88,977.49,277.88z"/>
		<path class="st14" d="M974.85,279.47c0,0,0.35,1.25,1.46,1.11c1.11-0.14,1.82-0.82,1.82-1.45c0-0.24-0.17-0.79-0.43-1.35
			c-0.41-0.89-1.07-1.84-1.66-1.71c-0.97,0.21-1.18,1.8-1.18,1.8s0.83,0.49,1.04-0.28c0.21-0.76-0.07-0.62,0.59-0.69
			c0.66-0.08,1.07,1.73,0.45,2.7c-0.63,0.97-1.32,0.47-1.25,0c0.07-0.47-0.83-1.53-0.83-0.83
			C974.85,279.47,974.85,279.47,974.85,279.47z"/>
		<path class="st15" d="M977.8,277.88L977.8,277.88c-0.4,0-0.72,0.32-0.72,0.72l0,0c0,0.4,0.32,0.72,0.72,0.72l0,0
			c0.4,0,0.72-0.32,0.72-0.72l0,0C978.52,278.2,978.2,277.88,977.8,277.88z"/>
		<path class="st14" d="M973.77,277.88L973.77,277.88c-0.09,0-0.17,0.08-0.17,0.17v0.91c0,0.09,0.08,0.17,0.17,0.17l0,0
			c0.1,0,0.17-0.08,0.17-0.17v-0.91C973.95,277.95,973.87,277.88,973.77,277.88z"/>
	</g>
	<g>
		<path class="st14" d="M988.82,278.04h-6.3c-0.35,0-0.63,0.28-0.63,0.63l0,0c0,0.35,0.28,0.63,0.63,0.63h6.3
			c0.35,0,0.63-0.28,0.63-0.63l0,0C989.45,278.33,989.17,278.04,988.82,278.04z"/>
		<path class="st14" d="M986.18,279.64c0,0,0.35,1.25,1.46,1.11c1.11-0.14,1.81-0.82,1.81-1.45c0-0.25-0.17-0.79-0.43-1.35
			c-0.42-0.89-1.07-1.84-1.66-1.71c-0.97,0.21-1.18,1.8-1.18,1.8s0.83,0.48,1.04-0.28c0.21-0.76-0.07-0.61,0.59-0.69
			c0.66-0.08,1.07,1.73,0.45,2.7c-0.62,0.97-1.32,0.47-1.25,0c0.07-0.47-0.83-1.53-0.83-0.83
			C986.18,279.64,986.18,279.64,986.18,279.64z"/>
		<path class="st15" d="M989.13,278.04L989.13,278.04c-0.4,0-0.72,0.32-0.72,0.72l0,0c0,0.4,0.32,0.72,0.72,0.72l0,0
			c0.4,0,0.72-0.32,0.72-0.72l0,0C989.85,278.37,989.53,278.04,989.13,278.04z"/>
		<path class="st14" d="M985.11,278.04L985.11,278.04c-0.1,0-0.17,0.08-0.17,0.17v0.91c0,0.09,0.08,0.17,0.17,0.17l0,0
			c0.09,0,0.17-0.08,0.17-0.17v-0.91C985.28,278.12,985.2,278.04,985.11,278.04z"/>
	</g>
	<g>
		<path class="st14" d="M1000.36,277.84h-6.3c-0.35,0-0.63,0.28-0.63,0.63l0,0c0,0.35,0.28,0.63,0.63,0.63h6.3
			c0.35,0,0.63-0.28,0.63-0.63l0,0C1000.99,278.12,1000.7,277.84,1000.36,277.84z"/>
		<path class="st14" d="M997.72,279.43c0,0,0.35,1.25,1.46,1.11c1.11-0.14,1.81-0.82,1.81-1.45c0-0.24-0.17-0.79-0.43-1.35
			c-0.41-0.89-1.07-1.84-1.66-1.71c-0.97,0.21-1.18,1.8-1.18,1.8s0.83,0.49,1.04-0.28c0.21-0.76-0.07-0.62,0.6-0.69
			c0.66-0.08,1.07,1.73,0.45,2.7c-0.63,0.97-1.32,0.47-1.25,0c0.07-0.47-0.83-1.53-0.83-0.83
			C997.72,279.43,997.72,279.43,997.72,279.43z"/>
		<path class="st15" d="M1000.66,277.84L1000.66,277.84c-0.4,0-0.72,0.32-0.72,0.72l0,0c0,0.4,0.33,0.72,0.72,0.72l0,0
			c0.4,0,0.72-0.32,0.72-0.72l0,0C1001.39,278.16,1001.06,277.84,1000.66,277.84z"/>
		<path class="st14" d="M996.64,277.84L996.64,277.84c-0.09,0-0.17,0.08-0.17,0.17v0.91c0,0.09,0.08,0.17,0.17,0.17l0,0
			c0.09,0,0.17-0.08,0.17-0.17v-0.91C996.81,277.91,996.73,277.84,996.64,277.84z"/>
	</g>
	<g>
		<path class="st14" d="M1010.58,277.94h-6.3c-0.35,0-0.63,0.28-0.63,0.63l0,0c0,0.35,0.28,0.63,0.63,0.63h6.3
			c0.35,0,0.63-0.28,0.63-0.63l0,0C1011.2,278.22,1010.92,277.94,1010.58,277.94z"/>
		<path class="st14" d="M1007.93,279.53c0,0,0.35,1.25,1.46,1.11c1.11-0.14,1.81-0.82,1.81-1.45c0-0.25-0.17-0.79-0.43-1.35
			c-0.42-0.9-1.07-1.84-1.66-1.71c-0.97,0.21-1.18,1.8-1.18,1.8s0.83,0.49,1.04-0.28c0.21-0.76-0.07-0.61,0.6-0.69
			c0.66-0.08,1.07,1.73,0.44,2.7c-0.62,0.97-1.32,0.47-1.25,0c0.07-0.47-0.83-1.52-0.83-0.83
			C1007.93,279.53,1007.93,279.53,1007.93,279.53z"/>
		<path class="st15" d="M1010.88,277.94L1010.88,277.94c-0.4,0-0.72,0.33-0.72,0.72l0,0c0,0.4,0.33,0.72,0.72,0.72l0,0
			c0.4,0,0.72-0.32,0.72-0.72l0,0C1011.6,278.26,1011.28,277.94,1010.88,277.94z"/>
		<path class="st14" d="M1006.86,277.94L1006.86,277.94c-0.1,0-0.17,0.08-0.17,0.18v0.91c0,0.09,0.08,0.18,0.17,0.18l0,0
			c0.09,0,0.17-0.08,0.17-0.18v-0.91C1007.03,278.01,1006.95,277.94,1006.86,277.94z"/>
	</g>
	<g>
		<path class="st14" d="M1021.34,278.06h-6.3c-0.35,0-0.63,0.28-0.63,0.63l0,0c0,0.34,0.28,0.63,0.63,0.63h6.3
			c0.35,0,0.63-0.28,0.63-0.63l0,0C1021.97,278.34,1021.69,278.06,1021.34,278.06z"/>
		<path class="st14" d="M1018.7,279.65c0,0,0.35,1.25,1.46,1.11c1.11-0.14,1.81-0.82,1.81-1.45c0-0.25-0.17-0.79-0.43-1.35
			c-0.42-0.89-1.07-1.84-1.66-1.71c-0.97,0.21-1.18,1.8-1.18,1.8s0.83,0.48,1.04-0.28c0.21-0.76-0.07-0.61,0.6-0.69
			c0.66-0.08,1.07,1.74,0.44,2.71c-0.62,0.97-1.32,0.47-1.25,0c0.07-0.47-0.83-1.53-0.83-0.83
			C1018.7,279.65,1018.7,279.65,1018.7,279.65z"/>
		<path class="st15" d="M1021.65,278.06L1021.65,278.06c-0.4,0-0.72,0.32-0.72,0.72l0,0c0,0.4,0.33,0.72,0.72,0.72l0,0
			c0.4,0,0.72-0.33,0.72-0.72l0,0C1022.37,278.38,1022.05,278.06,1021.65,278.06z"/>
		<path class="st14" d="M1017.63,278.06L1017.63,278.06c-0.09,0-0.17,0.08-0.17,0.17v0.91c0,0.09,0.08,0.17,0.17,0.17l0,0
			c0.09,0,0.17-0.08,0.17-0.17v-0.91C1017.8,278.13,1017.72,278.06,1017.63,278.06z"/>
	</g>
	<g>
		<path class="st14" d="M1032.8,278.02h-6.3c-0.34,0-0.63,0.28-0.63,0.63l0,0c0,0.35,0.28,0.63,0.63,0.63h6.3
			c0.34,0,0.63-0.28,0.63-0.63l0,0C1033.43,278.3,1033.14,278.02,1032.8,278.02z"/>
		<path class="st14" d="M1030.16,279.61c0,0,0.35,1.25,1.46,1.11c1.11-0.14,1.81-0.82,1.81-1.45c0-0.25-0.17-0.79-0.43-1.35
			c-0.41-0.89-1.07-1.84-1.66-1.71c-0.97,0.21-1.18,1.8-1.18,1.8s0.83,0.48,1.04-0.28c0.21-0.76-0.06-0.61,0.6-0.69
			c0.66-0.08,1.07,1.74,0.45,2.71c-0.62,0.97-1.32,0.47-1.25,0c0.07-0.47-0.83-1.53-0.83-0.83
			C1030.16,279.61,1030.16,279.61,1030.16,279.61z"/>
		<path class="st15" d="M1033.1,278.02L1033.1,278.02c-0.4,0-0.72,0.32-0.72,0.72l0,0c0,0.4,0.32,0.72,0.72,0.72l0,0
			c0.4,0,0.72-0.33,0.72-0.72l0,0C1033.83,278.34,1033.5,278.02,1033.1,278.02z"/>
		<path class="st14" d="M1029.08,278.02L1029.08,278.02c-0.1,0-0.17,0.08-0.17,0.17v0.91c0,0.09,0.08,0.17,0.17,0.17l0,0
			c0.09,0,0.17-0.08,0.17-0.17v-0.91C1029.25,278.1,1029.18,278.02,1029.08,278.02z"/>
	</g>
	<g>
		<path class="st14" d="M1043.31,278.15h-6.3c-0.35,0-0.63,0.28-0.63,0.63l0,0c0,0.35,0.28,0.63,0.63,0.63h6.3
			c0.35,0,0.63-0.28,0.63-0.63l0,0C1043.94,278.43,1043.65,278.15,1043.31,278.15z"/>
		<path class="st14" d="M1040.67,279.74c0,0,0.34,1.25,1.46,1.11c1.11-0.14,1.81-0.82,1.81-1.45c0-0.24-0.17-0.79-0.43-1.35
			c-0.41-0.9-1.07-1.84-1.66-1.71c-0.97,0.21-1.18,1.8-1.18,1.8s0.83,0.49,1.04-0.28c0.21-0.76-0.07-0.61,0.6-0.69
			c0.66-0.08,1.07,1.73,0.45,2.7c-0.63,0.97-1.32,0.47-1.25,0c0.07-0.47-0.83-1.53-0.83-0.83
			C1040.67,279.74,1040.67,279.74,1040.67,279.74z"/>
		<path class="st15" d="M1043.61,278.15L1043.61,278.15c-0.4,0-0.72,0.33-0.72,0.72l0,0c0,0.4,0.33,0.72,0.72,0.72l0,0
			c0.4,0,0.72-0.32,0.72-0.72l0,0C1044.33,278.47,1044.01,278.15,1043.61,278.15z"/>
		<path class="st14" d="M1039.59,278.15L1039.59,278.15c-0.09,0-0.17,0.08-0.17,0.17v0.91c0,0.09,0.08,0.17,0.17,0.17l0,0
			c0.09,0,0.17-0.08,0.17-0.17v-0.91C1039.76,278.22,1039.68,278.15,1039.59,278.15z"/>
	</g>
	<g>
		<path class="st14" d="M1054.5,278.42h-6.3c-0.34,0-0.63,0.28-0.63,0.63l0,0c0,0.35,0.28,0.63,0.63,0.63h6.3
			c0.35,0,0.63-0.28,0.63-0.63l0,0C1055.13,278.7,1054.84,278.42,1054.5,278.42z"/>
		<path class="st14" d="M1051.85,280.01c0,0,0.35,1.25,1.46,1.11c1.11-0.14,1.81-0.81,1.81-1.45c0-0.24-0.17-0.79-0.43-1.35
			c-0.42-0.9-1.07-1.84-1.66-1.71c-0.97,0.21-1.18,1.8-1.18,1.8s0.83,0.49,1.04-0.28c0.21-0.76-0.07-0.61,0.59-0.69
			c0.66-0.08,1.07,1.73,0.45,2.7c-0.62,0.97-1.32,0.47-1.25,0c0.07-0.47-0.83-1.53-0.83-0.83
			C1051.85,280.01,1051.85,280.01,1051.85,280.01z"/>
		<path class="st15" d="M1054.8,278.42L1054.8,278.42c-0.4,0-0.72,0.33-0.72,0.72l0,0c0,0.4,0.32,0.72,0.72,0.72l0,0
			c0.4,0,0.72-0.32,0.72-0.72l0,0C1055.52,278.75,1055.2,278.42,1054.8,278.42z"/>
		<path class="st14" d="M1050.78,278.42L1050.78,278.42c-0.1,0-0.17,0.08-0.17,0.17v0.91c0,0.09,0.08,0.17,0.17,0.17l0,0
			c0.09,0,0.17-0.08,0.17-0.17v-0.91C1050.95,278.5,1050.87,278.42,1050.78,278.42z"/>
	</g>
	<path class="st16" d="M1061.86,281.48l2.26-1.52l12.6-0.37C1076.73,279.59,1069.64,281.77,1061.86,281.48z"/>
	<path class="st16" d="M1063.74,279.19l-1.44-2.01c0,0,12.04,0.61,14.19,1.87L1063.74,279.19z"/>
	<path class="st16" d="M965.17,280.34l-1.22-1.73l-18.88-0.09C945.07,278.53,963.34,281.3,965.17,280.34z"/>
	<path class="st16" d="M964.71,276.06l-1.16,2.04l-18.48,0.22C945.07,278.32,955.17,275.77,964.71,276.06z"/>
	<path class="st13" d="M1001.6,302.3c0,0-2.56-1.3-2.91-1.67c-0.34-0.37,0.45-2.31,1.27-3.75c0.83-1.44,0.63-1.04,0.63-1.04
		s1,0.3,1.69,0.09l0.45-0.08c0,0,0.71,0.03,0.62,0.29c-0.09,0.27-1.54,5.7-1.65,5.93C1001.6,302.3,1001.6,302.3,1001.6,302.3z"/>
	<path class="st13" d="M979.57,302.72c0,0-2.56-1.3-2.91-1.67c-0.34-0.37,0.45-2.31,1.27-3.75c0.83-1.44,0.63-1.04,0.63-1.04
		s1,0.3,1.69,0.09l0.45-0.08c0,0,0.71,0.03,0.62,0.3c-0.09,0.27-1.54,5.69-1.65,5.92C979.57,302.72,979.57,302.72,979.57,302.72z"/>
	<path class="st13" d="M1022.98,302.3c0,0-2.56-1.3-2.91-1.67c-0.34-0.37,0.45-2.31,1.27-3.75c0.83-1.44,0.63-1.04,0.63-1.04
		s1,0.3,1.69,0.09l0.45-0.08c0,0,0.71,0.03,0.62,0.29s-1.54,5.7-1.65,5.93C1022.98,302.3,1022.98,302.3,1022.98,302.3z"/>
	<path class="st13" d="M1045.29,302.3c0,0-2.56-1.3-2.91-1.67c-0.34-0.37,0.45-2.31,1.27-3.75c0.83-1.44,0.64-1.04,0.64-1.04
		s1,0.3,1.69,0.09l0.45-0.08c0,0,0.71,0.03,0.62,0.29c-0.09,0.27-1.54,5.7-1.65,5.93C1045.29,302.3,1045.29,302.3,1045.29,302.3z"/>
	<path class="st13" d="M1011.13,254.37c0,0-2.41,1.57-2.71,1.98c-0.3,0.4,0.69,2.25,1.67,3.59c0.98,1.35,0.74,0.96,0.74,0.96
		s0.96-0.41,1.67-0.27l0.46,0.03c0,0,0.71-0.11,0.58-0.36c-0.12-0.25-2.15-5.5-2.28-5.71
		C1011.13,254.37,1011.13,254.37,1011.13,254.37z"/>
	<path class="st13" d="M967.48,254.84c0,0-2.41,1.57-2.71,1.98c-0.3,0.4,0.69,2.25,1.67,3.59c0.98,1.34,0.74,0.96,0.74,0.96
		s0.96-0.41,1.67-0.27l0.46,0.03c0,0,0.71-0.11,0.58-0.36c-0.12-0.25-2.15-5.5-2.28-5.71C967.48,254.84,967.48,254.84,967.48,254.84
		z"/>
	<path class="st13" d="M1033.56,254.37c0,0-2.41,1.57-2.71,1.98c-0.3,0.4,0.69,2.25,1.67,3.59c0.98,1.35,0.74,0.96,0.74,0.96
		s0.96-0.41,1.67-0.27l0.46,0.03c0,0,0.71-0.11,0.58-0.36c-0.12-0.25-2.15-5.5-2.28-5.71
		C1033.56,254.37,1033.56,254.37,1033.56,254.37z"/>
	<path class="st13" d="M990.02,254.37c0,0-2.41,1.57-2.71,1.98c-0.3,0.4,0.69,2.25,1.67,3.59c0.98,1.35,0.74,0.96,0.74,0.96
		s0.96-0.41,1.67-0.27l0.46,0.03c0,0,0.71-0.11,0.58-0.36c-0.12-0.25-2.15-5.5-2.28-5.71C990.02,254.37,990.02,254.37,990.02,254.37
		z"/>
</g>
<g>
	<path class="st13" d="M240.26,272.97l-2.29,0.02l-3.19-3.02l-5.18-11.05c0,0-0.82-2.16-2.35-4.72c0,0-1.14,1-0.9,1.84
		c0.24,0.83,2.08,3.05,2.35,3.23c0.27,0.17,4.87,10.59,4.87,10.59l-2.19,3.18l-15.57,0.14l-3.4-3.23l-5.18-11.05
		c0,0-0.34-2.42-2.35-4.72c0,0-1.14,1-0.9,1.84c0.24,0.83,2.08,3.05,2.35,3.23c0.27,0.17,4.87,10.59,4.87,10.59l-2.33,3.39
		l-13.84,0.13l-3.61-3.42l-5.18-11.05c0,0-0.05-2.16-2.35-4.72c0,0-1.14,1-0.9,1.84c0.24,0.83,2.08,3.05,2.35,3.23
		c0.27,0.17,4.87,10.59,4.87,10.59l-2.47,3.59l-15.02,0.14l-3.82-3.62l-5.18-11.05c0,0-0.25-2.85-2.35-4.72c0,0-1.14,1-0.9,1.84
		c0.24,0.83,2.08,3.05,2.35,3.23c0.27,0.17,4.87,10.59,4.87,10.59l-2.61,3.8l-20.62,0.19c-9.24,0.42-17.4,2.65-17.4,2.65
		c4.87,2.75,17.14,3.31,17.14,3.31l9.62-0.03l2.47,3.21c0,0-4.03,10.65-4.29,10.84c-0.26,0.19-1.97,2.5-2.17,3.35
		c-0.2,0.85,1,1.78,1,1.78c0.9-3.24,2.09-4.83,2.09-4.83l4.58-11.31l2.9-3.06l15.51-0.05l2.91,3.77c0,0-4.03,10.65-4.29,10.84
		c-0.26,0.19-1.98,2.5-2.17,3.35c-0.2,0.85,1,1.78,1,1.78c1.48-3.56,2.09-4.83,2.09-4.83l4.58-11.31l3.43-3.63l13.39-0.04l2.96,3.84
		c0,0-4.03,10.65-4.29,10.84c-0.26,0.19-1.98,2.5-2.17,3.35c-0.2,0.85,0.99,1.78,0.99,1.78c1.42-3.08,2.09-4.83,2.09-4.83
		l4.58-11.31l3.5-3.7l14.66-0.05l3.01,3.91c0,0-4.03,10.65-4.29,10.84c-0.26,0.19-1.98,2.5-2.17,3.35c-0.2,0.85,1,1.78,1,1.78
		c1.57-3.3,2.09-4.83,2.09-4.83l4.58-11.31l3.57-3.77l14.02-0.05c10.53,0.62,20.01-3.49,20.01-3.49
		C254.72,272.01,240.26,272.97,240.26,272.97z M236.78,273l-0.74,0.01l-0.97-1.82L236.78,273z M234.14,270.99l0.82,2.03l-2.19,0.02
		L234.14,270.99z M214.61,273.21l-0.83,0.01l-1.08-2.02L214.61,273.21z M211.78,270.99l0.9,2.23l-2.42,0.02L211.78,270.99z
		 M193.8,273.4l-0.91,0.01l-1.18-2.22L193.8,273.4z M190.79,270.99l0.98,2.43l-2.62,0.02L190.79,270.99z M171.48,273.61l-0.99,0.01
		l-1.29-2.42L171.48,273.61z M168.27,270.99l1.07,2.64l-2.85,0.03L168.27,270.99z M156.81,281.84l-1.55-2.06l2.26-0.01
		L156.81,281.84z M157.72,281.59l0.85-1.82l0.7,0L157.72,281.59z M179.33,282.34l-1.97-2.63l2.88-0.01L179.33,282.34z
		 M180.24,282.09l1.11-2.39l0.92,0L180.24,282.09z M200.31,282.34l-2.02-2.69l2.95-0.01L200.31,282.34z M201.23,282.09l1.14-2.46
		l0.94,0L201.23,282.09z M222.68,282.34l-2.08-2.76l3.03-0.01L222.68,282.34z M223.6,282.09l1.17-2.53l0.97,0L223.6,282.09z"/>
	<path class="st12" d="M244.61,276.93l-95.94,1.14c-0.66,0.01-1.2-0.52-1.21-1.18l0,0c-0.01-0.66,0.53-1.21,1.18-1.21l95.94-1.14
		c0.66-0.01,1.2,0.53,1.21,1.18l0,0C245.81,276.38,245.27,276.92,244.61,276.93z"/>
	<g>
		<path class="st14" d="M160.33,277.25h-6.3c-0.35,0-0.63-0.28-0.63-0.63l0,0c0-0.35,0.28-0.63,0.63-0.63h6.3
			c0.34,0,0.63,0.28,0.63,0.63l0,0C160.96,276.97,160.68,277.25,160.33,277.25z"/>
		<path class="st14" d="M157.69,275.65c0,0,0.35-1.25,1.46-1.11c1.11,0.14,1.81,0.82,1.81,1.45c0,0.24-0.17,0.79-0.43,1.35
			c-0.42,0.9-1.07,1.84-1.66,1.71c-0.97-0.21-1.18-1.8-1.18-1.8s0.83-0.49,1.04,0.28c0.21,0.76-0.07,0.61,0.6,0.69
			c0.66,0.08,1.07-1.74,0.44-2.71c-0.62-0.97-1.32-0.47-1.25,0c0.07,0.47-0.83,1.53-0.83,0.83
			C157.69,275.65,157.69,275.65,157.69,275.65z"/>
		<path class="st15" d="M160.64,277.25L160.64,277.25c-0.4,0-0.72-0.33-0.72-0.72l0,0c0-0.4,0.33-0.72,0.72-0.72l0,0
			c0.4,0,0.72,0.33,0.72,0.72l0,0C161.36,276.93,161.03,277.25,160.64,277.25z"/>
		<path class="st14" d="M156.61,277.25L156.61,277.25c-0.1,0-0.17-0.08-0.17-0.17v-0.91c0-0.09,0.08-0.17,0.17-0.17l0,0
			c0.09,0,0.17,0.08,0.17,0.17v0.91C156.79,277.17,156.71,277.25,156.61,277.25z"/>
	</g>
	<g>
		<path class="st14" d="M171.66,277.08h-6.3c-0.35,0-0.63-0.28-0.63-0.63l0,0c0-0.35,0.28-0.63,0.63-0.63h6.3
			c0.35,0,0.63,0.28,0.63,0.63l0,0C172.29,276.8,172.01,277.08,171.66,277.08z"/>
		<path class="st14" d="M169.02,275.49c0,0,0.35-1.25,1.46-1.11c1.11,0.14,1.81,0.82,1.81,1.45c0,0.24-0.17,0.79-0.43,1.35
			c-0.42,0.89-1.07,1.84-1.66,1.71c-0.97-0.21-1.18-1.81-1.18-1.81s0.83-0.49,1.04,0.28c0.21,0.76-0.07,0.61,0.6,0.69
			c0.66,0.08,1.07-1.73,0.44-2.71c-0.62-0.97-1.32-0.47-1.25,0c0.07,0.47-0.83,1.53-0.83,0.83
			C169.02,275.49,169.02,275.49,169.02,275.49z"/>
		<path class="st15" d="M171.97,277.08L171.97,277.08c-0.4,0-0.72-0.32-0.72-0.72l0,0c0-0.4,0.33-0.72,0.72-0.72l0,0
			c0.4,0,0.72,0.33,0.72,0.72l0,0C172.69,276.76,172.36,277.08,171.97,277.08z"/>
		<path class="st14" d="M167.94,277.08L167.94,277.08c-0.09,0-0.17-0.08-0.17-0.17V276c0-0.09,0.08-0.17,0.17-0.17l0,0
			c0.09,0,0.17,0.08,0.17,0.17v0.91C168.12,277,168.04,277.08,167.94,277.08z"/>
	</g>
	<g>
		<path class="st14" d="M183.19,277.29h-6.3c-0.34,0-0.63-0.28-0.63-0.63l0,0c0-0.35,0.28-0.63,0.63-0.63h6.3
			c0.35,0,0.63,0.28,0.63,0.63l0,0C183.82,277.01,183.54,277.29,183.19,277.29z"/>
		<path class="st14" d="M180.55,275.69c0,0,0.35-1.25,1.46-1.11c1.11,0.14,1.81,0.82,1.81,1.45c0,0.24-0.17,0.79-0.43,1.35
			c-0.41,0.9-1.07,1.84-1.66,1.71c-0.97-0.21-1.18-1.8-1.18-1.8s0.83-0.49,1.04,0.28c0.21,0.76-0.07,0.61,0.6,0.69
			c0.66,0.08,1.07-1.74,0.45-2.71c-0.63-0.97-1.32-0.47-1.25,0c0.07,0.47-0.83,1.53-0.83,0.83
			C180.55,275.69,180.55,275.69,180.55,275.69z"/>
		<path class="st15" d="M183.5,277.29L183.5,277.29c-0.4,0-0.72-0.33-0.72-0.72l0,0c0-0.4,0.33-0.72,0.72-0.72l0,0
			c0.4,0,0.72,0.33,0.72,0.72l0,0C184.22,276.96,183.9,277.29,183.5,277.29z"/>
		<path class="st14" d="M179.48,277.29L179.48,277.29c-0.09,0-0.17-0.08-0.17-0.17v-0.91c0-0.09,0.08-0.17,0.17-0.17l0,0
			c0.09,0,0.17,0.08,0.17,0.17v0.91C179.65,277.21,179.57,277.29,179.48,277.29z"/>
	</g>
	<g>
		<path class="st14" d="M193.41,277.19h-6.3c-0.35,0-0.63-0.28-0.63-0.63l0,0c0-0.35,0.28-0.63,0.63-0.63h6.3
			c0.35,0,0.63,0.28,0.63,0.63l0,0C194.04,276.91,193.76,277.19,193.41,277.19z"/>
		<path class="st14" d="M190.77,275.59c0,0,0.35-1.25,1.46-1.11c1.11,0.14,1.81,0.82,1.81,1.45c0,0.24-0.17,0.79-0.43,1.35
			c-0.42,0.89-1.07,1.84-1.66,1.71c-0.97-0.21-1.18-1.8-1.18-1.8s0.83-0.49,1.04,0.28c0.21,0.76-0.07,0.61,0.6,0.69
			c0.66,0.08,1.07-1.73,0.44-2.71c-0.62-0.97-1.32-0.47-1.25,0c0.07,0.47-0.83,1.53-0.83,0.83
			C190.77,275.59,190.77,275.59,190.77,275.59z"/>
		<path class="st15" d="M193.72,277.19L193.72,277.19c-0.4,0-0.72-0.33-0.72-0.72l0,0c0-0.4,0.33-0.72,0.72-0.72l0,0
			c0.4,0,0.72,0.33,0.72,0.72l0,0C194.44,276.86,194.12,277.19,193.72,277.19z"/>
		<path class="st14" d="M189.7,277.19L189.7,277.19c-0.1,0-0.17-0.08-0.17-0.17v-0.91c0-0.1,0.08-0.17,0.17-0.17l0,0
			c0.09,0,0.17,0.08,0.17,0.17v0.91C189.87,277.11,189.79,277.19,189.7,277.19z"/>
	</g>
	<g>
		<path class="st14" d="M204.18,277.07h-6.3c-0.35,0-0.63-0.28-0.63-0.63l0,0c0-0.35,0.28-0.63,0.63-0.63h6.3
			c0.35,0,0.63,0.28,0.63,0.63l0,0C204.81,276.79,204.53,277.07,204.18,277.07z"/>
		<path class="st14" d="M201.54,275.48c0,0,0.35-1.25,1.46-1.11c1.11,0.14,1.81,0.82,1.81,1.45c0,0.25-0.17,0.79-0.43,1.35
			c-0.42,0.9-1.07,1.84-1.66,1.71c-0.97-0.21-1.18-1.8-1.18-1.8s0.83-0.49,1.04,0.28c0.21,0.76-0.07,0.61,0.6,0.69
			c0.66,0.08,1.07-1.73,0.44-2.7c-0.62-0.97-1.32-0.47-1.25,0c0.07,0.47-0.83,1.53-0.83,0.83
			C201.54,275.48,201.54,275.48,201.54,275.48z"/>
		<path class="st15" d="M204.49,277.07L204.49,277.07c-0.4,0-0.72-0.33-0.72-0.72l0,0c0-0.4,0.33-0.72,0.72-0.72l0,0
			c0.4,0,0.72,0.32,0.72,0.72l0,0C205.21,276.75,204.88,277.07,204.49,277.07z"/>
		<path class="st14" d="M200.47,277.07L200.47,277.07c-0.09,0-0.17-0.08-0.17-0.17v-0.91c0-0.09,0.08-0.17,0.17-0.17l0,0
			c0.09,0,0.17,0.08,0.17,0.17v0.91C200.64,276.99,200.56,277.07,200.47,277.07z"/>
	</g>
	<g>
		<path class="st14" d="M215.63,277.11h-6.3c-0.34,0-0.63-0.28-0.63-0.63l0,0c0-0.35,0.28-0.63,0.63-0.63h6.3
			c0.35,0,0.63,0.28,0.63,0.63l0,0C216.26,276.83,215.98,277.11,215.63,277.11z"/>
		<path class="st14" d="M212.99,275.51c0,0,0.35-1.25,1.46-1.11c1.11,0.14,1.81,0.82,1.81,1.45c0,0.25-0.17,0.79-0.43,1.35
			c-0.42,0.89-1.07,1.84-1.66,1.71c-0.97-0.21-1.18-1.8-1.18-1.8s0.83-0.49,1.04,0.28c0.21,0.76-0.07,0.61,0.59,0.69
			c0.66,0.08,1.07-1.73,0.45-2.7c-0.62-0.97-1.32-0.47-1.25,0c0.07,0.47-0.83,1.52-0.83,0.83
			C212.99,275.51,212.99,275.51,212.99,275.51z"/>
		<path class="st15" d="M215.94,277.11L215.94,277.11c-0.4,0-0.72-0.33-0.72-0.72l0,0c0-0.4,0.32-0.72,0.72-0.72l0,0
			c0.4,0,0.72,0.32,0.72,0.72l0,0C216.66,276.78,216.34,277.11,215.94,277.11z"/>
		<path class="st14" d="M211.92,277.11L211.92,277.11c-0.1,0-0.17-0.08-0.17-0.17v-0.91c0-0.09,0.08-0.17,0.17-0.17l0,0
			c0.09,0,0.17,0.08,0.17,0.17v0.91C212.09,277.03,212.01,277.11,211.92,277.11z"/>
	</g>
	<g>
		<path class="st14" d="M226.14,276.98h-6.3c-0.35,0-0.63-0.28-0.63-0.63l0,0c0-0.35,0.28-0.63,0.63-0.63h6.3
			c0.35,0,0.63,0.28,0.63,0.63l0,0C226.78,276.69,226.49,276.98,226.14,276.98z"/>
		<path class="st14" d="M223.5,275.38c0,0,0.35-1.25,1.46-1.11c1.11,0.14,1.82,0.81,1.82,1.45c0,0.24-0.17,0.79-0.43,1.35
			c-0.41,0.9-1.07,1.84-1.66,1.71c-0.97-0.21-1.18-1.8-1.18-1.8s0.83-0.49,1.04,0.28c0.21,0.76-0.07,0.61,0.6,0.69
			c0.66,0.08,1.07-1.73,0.45-2.7c-0.63-0.97-1.32-0.47-1.25,0c0.07,0.47-0.83,1.53-0.83,0.83
			C223.5,275.38,223.5,275.38,223.5,275.38z"/>
		<path class="st15" d="M226.45,276.98L226.45,276.98c-0.4,0-0.72-0.33-0.72-0.72l0,0c0-0.4,0.33-0.72,0.72-0.72l0,0
			c0.4,0,0.72,0.32,0.72,0.72l0,0C227.17,276.65,226.85,276.98,226.45,276.98z"/>
		<path class="st14" d="M222.43,276.98L222.43,276.98c-0.09,0-0.17-0.08-0.17-0.17v-0.91c0-0.09,0.08-0.17,0.17-0.17l0,0
			c0.09,0,0.17,0.08,0.17,0.17v0.91C222.6,276.9,222.52,276.98,222.43,276.98z"/>
	</g>
	<g>
		<path class="st14" d="M237.33,276.71h-6.3c-0.35,0-0.63-0.28-0.63-0.63l0,0c0-0.35,0.28-0.63,0.63-0.63h6.3
			c0.35,0,0.63,0.28,0.63,0.63l0,0C237.96,276.42,237.68,276.71,237.33,276.71z"/>
		<path class="st14" d="M234.69,275.11c0,0,0.35-1.25,1.46-1.11c1.11,0.14,1.81,0.82,1.81,1.45c0,0.24-0.17,0.79-0.43,1.35
			c-0.42,0.9-1.07,1.84-1.66,1.71c-0.97-0.21-1.18-1.8-1.18-1.8s0.83-0.49,1.04,0.28c0.21,0.76-0.07,0.61,0.6,0.69
			c0.66,0.08,1.07-1.73,0.44-2.7c-0.62-0.97-1.32-0.47-1.25,0c0.07,0.47-0.83,1.52-0.83,0.83
			C234.69,275.11,234.69,275.11,234.69,275.11z"/>
		<path class="st15" d="M237.64,276.71L237.64,276.71c-0.4,0-0.72-0.33-0.72-0.72l0,0c0-0.4,0.33-0.72,0.72-0.72l0,0
			c0.4,0,0.72,0.33,0.72,0.72l0,0C238.36,276.38,238.04,276.71,237.64,276.71z"/>
		<path class="st14" d="M233.62,276.71L233.62,276.71c-0.09,0-0.17-0.08-0.17-0.17v-0.91c0-0.09,0.08-0.17,0.17-0.17l0,0
			c0.09,0,0.17,0.08,0.17,0.17v0.91C233.79,276.63,233.71,276.71,233.62,276.71z"/>
	</g>
	<path class="st16" d="M244.69,273.64l2.26,1.53l12.6,0.36C259.56,275.53,252.48,273.35,244.69,273.64z"/>
	<path class="st16" d="M246.58,275.94l-1.44,2.01c0,0,12.04-0.61,14.19-1.87L246.58,275.94z"/>
	<path class="st16" d="M148,274.78l-1.22,1.73l-18.88,0.09C127.91,276.6,146.18,273.83,148,274.78z"/>
	<path class="st16" d="M147.55,279.07l-1.16-2.04l-18.48-0.23C127.91,276.8,138.01,279.35,147.55,279.07z"/>
	<path class="st13" d="M184.43,252.82c0,0-2.56,1.3-2.91,1.67c-0.34,0.37,0.45,2.31,1.27,3.75c0.83,1.44,0.63,1.04,0.63,1.04
		s1-0.3,1.69-0.09l0.46,0.08c0,0,0.71-0.03,0.62-0.3c-0.09-0.27-1.54-5.7-1.65-5.92C184.43,252.82,184.43,252.82,184.43,252.82z"/>
	<path class="st13" d="M162.4,252.41c0,0-2.56,1.3-2.91,1.67c-0.34,0.37,0.45,2.31,1.27,3.75c0.83,1.44,0.63,1.04,0.63,1.04
		s1-0.3,1.69-0.09l0.46,0.08c0,0,0.71-0.03,0.62-0.3c-0.09-0.27-1.54-5.7-1.65-5.92C162.4,252.41,162.4,252.41,162.4,252.41z"/>
	<path class="st13" d="M205.82,252.82c0,0-2.56,1.3-2.91,1.67c-0.34,0.37,0.45,2.31,1.27,3.75c0.83,1.44,0.63,1.04,0.63,1.04
		s1-0.3,1.69-0.09l0.45,0.08c0,0,0.71-0.03,0.62-0.3c-0.09-0.27-1.54-5.7-1.65-5.92C205.82,252.82,205.82,252.82,205.82,252.82z"/>
	<path class="st13" d="M228.13,252.82c0,0-2.56,1.3-2.91,1.67c-0.34,0.37,0.45,2.31,1.27,3.75c0.83,1.44,0.63,1.04,0.63,1.04
		s1-0.3,1.69-0.09l0.46,0.08c0,0,0.71-0.03,0.62-0.3c-0.09-0.27-1.54-5.7-1.65-5.92C228.13,252.82,228.13,252.82,228.13,252.82z"/>
	<path class="st13" d="M193.97,300.76c0,0-2.41-1.57-2.71-1.97c-0.3-0.4,0.69-2.25,1.67-3.59c0.98-1.34,0.74-0.96,0.74-0.96
		s0.96,0.41,1.67,0.27l0.46-0.03c0,0,0.71,0.11,0.58,0.36c-0.12,0.26-2.15,5.5-2.28,5.71C193.97,300.76,193.97,300.76,193.97,300.76
		z"/>
	<path class="st13" d="M150.32,300.29c0,0-2.41-1.57-2.71-1.98c-0.3-0.4,0.69-2.25,1.67-3.59c0.98-1.34,0.74-0.96,0.74-0.96
		s0.96,0.41,1.67,0.27l0.46-0.03c0,0,0.71,0.11,0.58,0.36c-0.12,0.25-2.15,5.5-2.28,5.71C150.32,300.29,150.32,300.29,150.32,300.29
		z"/>
	<path class="st13" d="M216.4,300.76c0,0-2.41-1.57-2.71-1.97c-0.3-0.4,0.69-2.25,1.67-3.59c0.98-1.34,0.74-0.96,0.74-0.96
		s0.96,0.41,1.67,0.27l0.46-0.03c0,0,0.71,0.11,0.58,0.36c-0.12,0.26-2.15,5.5-2.28,5.71C216.4,300.76,216.4,300.76,216.4,300.76z"
		/>
	<path class="st13" d="M172.86,300.76c0,0-2.41-1.57-2.71-1.97c-0.3-0.4,0.69-2.25,1.67-3.59c0.98-1.34,0.74-0.96,0.74-0.96
		s0.96,0.41,1.67,0.27l0.46-0.03c0,0,0.71,0.11,0.58,0.36c-0.12,0.26-2.15,5.5-2.28,5.71C172.86,300.76,172.86,300.76,172.86,300.76
		z"/>
</g>
<g>
	<path class="st13" d="M671.43,273.74l-2.29,0.02l-3.19-3.02l-5.18-11.05c0,0-0.82-2.16-2.35-4.71c0,0-1.14,1-0.9,1.84
		c0.24,0.83,2.08,3.05,2.35,3.23c0.27,0.17,4.87,10.59,4.87,10.59l-2.19,3.19l-15.57,0.14l-3.4-3.22l-5.18-11.05
		c0,0-0.34-2.42-2.35-4.71c0,0-1.14,1-0.9,1.84c0.24,0.83,2.08,3.05,2.35,3.23c0.27,0.17,4.87,10.59,4.87,10.59l-2.33,3.39
		l-13.84,0.13l-3.6-3.42l-5.18-11.05c0,0-0.05-2.16-2.35-4.71c0,0-1.14,1-0.9,1.84c0.24,0.83,2.08,3.05,2.35,3.23
		c0.27,0.17,4.87,10.59,4.87,10.59l-2.47,3.59l-15.02,0.14l-3.82-3.62l-5.18-11.05c0,0-0.25-2.85-2.35-4.71c0,0-1.14,1-0.9,1.84
		c0.24,0.83,2.08,3.05,2.35,3.23c0.27,0.17,4.87,10.59,4.87,10.59l-2.61,3.8l-20.62,0.19c-9.24,0.42-17.4,2.65-17.4,2.65
		c4.87,2.75,17.14,3.31,17.14,3.31l9.62-0.03l2.47,3.21c0,0-4.03,10.65-4.29,10.84c-0.26,0.19-1.98,2.5-2.17,3.35
		c-0.2,0.85,0.99,1.78,0.99,1.78c0.9-3.25,2.09-4.83,2.09-4.83l4.57-11.31l2.9-3.06l15.52-0.05l2.91,3.77c0,0-4.03,10.65-4.29,10.84
		c-0.26,0.19-1.98,2.5-2.17,3.35c-0.2,0.85,1,1.78,1,1.78c1.48-3.56,2.09-4.84,2.09-4.84l4.58-11.31l3.44-3.63l13.39-0.04l2.96,3.84
		c0,0-4.03,10.65-4.29,10.84c-0.26,0.19-1.98,2.5-2.17,3.35c-0.2,0.85,1,1.78,1,1.78c1.42-3.08,2.09-4.84,2.09-4.84l4.58-11.31
		l3.5-3.7l14.65-0.05l3.02,3.91c0,0-4.03,10.65-4.29,10.84c-0.26,0.19-1.98,2.5-2.17,3.35c-0.2,0.85,0.99,1.78,0.99,1.78
		c1.57-3.3,2.09-4.84,2.09-4.84l4.58-11.31l3.57-3.77l14.03-0.05c10.53,0.62,20.01-3.49,20.01-3.49
		C685.88,272.78,671.43,273.74,671.43,273.74z M667.94,273.78l-0.74,0.01l-0.97-1.82L667.94,273.78z M665.31,271.76l0.82,2.03
		l-2.19,0.02L665.31,271.76z M645.77,273.98l-0.83,0.01l-1.08-2.02L645.77,273.98z M642.94,271.76l0.91,2.23l-2.42,0.02
		L642.94,271.76z M624.97,274.17l-0.91,0.01l-1.18-2.22L624.97,274.17z M621.95,271.76l0.98,2.43l-2.62,0.03L621.95,271.76z
		 M602.64,274.38l-0.99,0.01l-1.29-2.42L602.64,274.38z M599.43,271.76l1.07,2.63l-2.85,0.03L599.43,271.76z M587.97,282.61
		l-1.55-2.06l2.26-0.01L587.97,282.61z M588.89,282.36l0.85-1.82l0.7,0L588.89,282.36z M610.49,283.11l-1.97-2.63l2.88-0.01
		L610.49,283.11z M611.4,282.86l1.11-2.39l0.92,0L611.4,282.86z M631.48,283.11l-2.02-2.69l2.95-0.01L631.48,283.11z M632.39,282.86
		l1.14-2.46l0.94,0L632.39,282.86z M653.84,283.11l-2.07-2.77l3.03-0.01L653.84,283.11z M654.76,282.86l1.17-2.53l0.97,0
		L654.76,282.86z"/>
	<path class="st12" d="M675.77,277.7l-95.94,1.14c-0.66,0.01-1.21-0.53-1.21-1.18l0,0c-0.01-0.66,0.53-1.21,1.19-1.21l95.94-1.14
		c0.66-0.01,1.21,0.53,1.21,1.18l0,0C676.97,277.15,676.43,277.69,675.77,277.7z"/>
	<g>
		<path class="st14" d="M591.49,278.02h-6.3c-0.35,0-0.63-0.28-0.63-0.63l0,0c0-0.35,0.28-0.63,0.63-0.63h6.3
			c0.35,0,0.63,0.28,0.63,0.63l0,0C592.12,277.74,591.84,278.02,591.49,278.02z"/>
		<path class="st14" d="M588.85,276.43c0,0,0.35-1.25,1.46-1.11c1.11,0.14,1.81,0.81,1.81,1.45c0,0.24-0.17,0.79-0.43,1.35
			c-0.42,0.9-1.07,1.84-1.66,1.71c-0.97-0.21-1.18-1.8-1.18-1.8s0.83-0.49,1.04,0.28c0.21,0.76-0.07,0.61,0.6,0.69
			c0.66,0.08,1.07-1.73,0.45-2.7c-0.63-0.97-1.32-0.47-1.25,0c0.07,0.47-0.83,1.53-0.83,0.83
			C588.85,276.43,588.85,276.43,588.85,276.43z"/>
		<path class="st15" d="M591.8,278.02L591.8,278.02c-0.4,0-0.72-0.33-0.72-0.72l0,0c0-0.4,0.33-0.72,0.72-0.72l0,0
			c0.4,0,0.72,0.33,0.72,0.72l0,0C592.52,277.7,592.2,278.02,591.8,278.02z"/>
		<path class="st14" d="M587.78,278.02L587.78,278.02c-0.09,0-0.17-0.08-0.17-0.17v-0.91c0-0.09,0.08-0.17,0.17-0.17l0,0
			c0.09,0,0.17,0.08,0.17,0.17v0.91C587.95,277.95,587.87,278.02,587.78,278.02z"/>
	</g>
	<g>
		<path class="st14" d="M602.82,277.85h-6.3c-0.35,0-0.63-0.28-0.63-0.63l0,0c0-0.35,0.28-0.63,0.63-0.63h6.3
			c0.35,0,0.63,0.28,0.63,0.63l0,0C603.45,277.57,603.17,277.85,602.82,277.85z"/>
		<path class="st14" d="M600.18,276.26c0,0,0.35-1.25,1.46-1.11c1.11,0.14,1.82,0.82,1.82,1.45c0,0.24-0.17,0.79-0.43,1.35
			c-0.41,0.9-1.07,1.84-1.66,1.71c-0.97-0.21-1.18-1.81-1.18-1.81s0.83-0.49,1.04,0.28c0.21,0.76-0.07,0.61,0.6,0.69
			c0.66,0.08,1.07-1.73,0.45-2.71c-0.63-0.97-1.32-0.47-1.25,0c0.07,0.47-0.83,1.53-0.83,0.83
			C600.18,276.26,600.18,276.26,600.18,276.26z"/>
		<path class="st15" d="M603.13,277.85L603.13,277.85c-0.4,0-0.72-0.33-0.72-0.72l0,0c0-0.4,0.33-0.72,0.72-0.72l0,0
			c0.4,0,0.72,0.33,0.72,0.72l0,0C603.85,277.53,603.53,277.85,603.13,277.85z"/>
		<path class="st14" d="M599.11,277.85L599.11,277.85c-0.09,0-0.17-0.08-0.17-0.17v-0.91c0-0.09,0.08-0.17,0.17-0.17l0,0
			c0.09,0,0.17,0.08,0.17,0.17v0.91C599.28,277.78,599.2,277.85,599.11,277.85z"/>
	</g>
	<g>
		<path class="st14" d="M614.36,278.06h-6.3c-0.35,0-0.63-0.28-0.63-0.63l0,0c0-0.35,0.28-0.63,0.63-0.63h6.3
			c0.35,0,0.63,0.28,0.63,0.63l0,0C614.99,277.78,614.7,278.06,614.36,278.06z"/>
		<path class="st14" d="M611.71,276.47c0,0,0.35-1.25,1.46-1.11c1.11,0.14,1.81,0.81,1.81,1.45c0,0.24-0.17,0.79-0.43,1.35
			c-0.42,0.9-1.07,1.84-1.66,1.71c-0.97-0.21-1.18-1.8-1.18-1.8s0.83-0.49,1.04,0.28c0.21,0.76-0.07,0.61,0.59,0.69
			c0.66,0.08,1.07-1.73,0.45-2.7c-0.62-0.97-1.32-0.47-1.25,0c0.07,0.47-0.83,1.53-0.83,0.83
			C611.71,276.47,611.71,276.47,611.71,276.47z"/>
		<path class="st15" d="M614.66,278.06L614.66,278.06c-0.4,0-0.72-0.33-0.72-0.72l0,0c0-0.4,0.32-0.72,0.72-0.72l0,0
			c0.4,0,0.72,0.33,0.72,0.72l0,0C615.39,277.74,615.06,278.06,614.66,278.06z"/>
		<path class="st14" d="M610.64,278.06L610.64,278.06c-0.09,0-0.17-0.08-0.17-0.17v-0.91c0-0.09,0.08-0.17,0.17-0.17l0,0
			c0.09,0,0.17,0.08,0.17,0.17v0.91C610.81,277.98,610.74,278.06,610.64,278.06z"/>
	</g>
	<g>
		<path class="st14" d="M624.57,277.96h-6.3c-0.35,0-0.63-0.28-0.63-0.63l0,0c0-0.35,0.28-0.63,0.63-0.63h6.3
			c0.35,0,0.63,0.28,0.63,0.63l0,0C625.2,277.68,624.92,277.96,624.57,277.96z"/>
		<path class="st14" d="M621.93,276.37c0,0,0.35-1.25,1.46-1.11c1.11,0.14,1.81,0.82,1.81,1.45c0,0.24-0.17,0.79-0.43,1.35
			c-0.41,0.9-1.07,1.84-1.66,1.71c-0.97-0.21-1.18-1.81-1.18-1.81s0.83-0.49,1.04,0.28c0.21,0.76-0.06,0.61,0.6,0.69
			c0.66,0.08,1.07-1.74,0.45-2.71c-0.63-0.97-1.32-0.47-1.25,0c0.07,0.47-0.83,1.53-0.83,0.83
			C621.93,276.37,621.93,276.37,621.93,276.37z"/>
		<path class="st15" d="M624.88,277.96L624.88,277.96c-0.4,0-0.72-0.32-0.72-0.72l0,0c0-0.4,0.32-0.72,0.72-0.72l0,0
			c0.4,0,0.72,0.33,0.72,0.72l0,0C625.61,277.63,625.28,277.96,624.88,277.96z"/>
		<path class="st14" d="M620.86,277.96L620.86,277.96c-0.09,0-0.17-0.08-0.17-0.17v-0.91c0-0.09,0.08-0.17,0.17-0.17l0,0
			c0.09,0,0.17,0.08,0.17,0.17v0.91C621.03,277.88,620.95,277.96,620.86,277.96z"/>
	</g>
	<g>
		<path class="st14" d="M635.34,277.84h-6.3c-0.35,0-0.63-0.28-0.63-0.63l0,0c0-0.34,0.28-0.63,0.63-0.63h6.3
			c0.35,0,0.63,0.28,0.63,0.63l0,0C635.98,277.56,635.69,277.84,635.34,277.84z"/>
		<path class="st14" d="M632.7,276.25c0,0,0.35-1.25,1.46-1.11c1.11,0.14,1.82,0.82,1.82,1.45c0,0.24-0.17,0.79-0.43,1.35
			c-0.41,0.89-1.07,1.84-1.66,1.71c-0.97-0.21-1.18-1.8-1.18-1.8s0.83-0.49,1.04,0.28c0.21,0.76-0.06,0.61,0.6,0.69
			c0.66,0.08,1.07-1.73,0.45-2.7c-0.63-0.97-1.32-0.47-1.25,0c0.07,0.47-0.83,1.52-0.83,0.83
			C632.7,276.25,632.7,276.25,632.7,276.25z"/>
		<path class="st15" d="M635.65,277.84L635.65,277.84c-0.4,0-0.72-0.33-0.72-0.72l0,0c0-0.4,0.33-0.72,0.72-0.72l0,0
			c0.4,0,0.72,0.33,0.72,0.72l0,0C636.37,277.52,636.05,277.84,635.65,277.84z"/>
		<path class="st14" d="M631.63,277.84L631.63,277.84c-0.09,0-0.17-0.08-0.17-0.17v-0.91c0-0.1,0.08-0.17,0.17-0.17l0,0
			c0.1,0,0.17,0.08,0.17,0.17v0.91C631.8,277.76,631.72,277.84,631.63,277.84z"/>
	</g>
	<g>
		<path class="st14" d="M646.8,277.88h-6.3c-0.35,0-0.63-0.28-0.63-0.63l0,0c0-0.35,0.28-0.63,0.63-0.63h6.3
			c0.35,0,0.63,0.28,0.63,0.63l0,0C647.43,277.6,647.14,277.88,646.8,277.88z"/>
		<path class="st14" d="M644.15,276.29c0,0,0.35-1.25,1.46-1.11c1.11,0.14,1.81,0.82,1.81,1.45c0,0.24-0.17,0.79-0.43,1.35
			c-0.41,0.9-1.07,1.84-1.66,1.71c-0.97-0.21-1.18-1.8-1.18-1.8s0.83-0.49,1.04,0.28c0.21,0.76-0.07,0.61,0.6,0.69
			c0.66,0.08,1.07-1.73,0.45-2.7c-0.63-0.97-1.32-0.47-1.25,0c0.07,0.47-0.83,1.52-0.83,0.83
			C644.15,276.29,644.15,276.29,644.15,276.29z"/>
		<path class="st15" d="M647.1,277.88L647.1,277.88c-0.4,0-0.72-0.33-0.72-0.72l0,0c0-0.4,0.33-0.72,0.72-0.72l0,0
			c0.4,0,0.72,0.33,0.72,0.72l0,0C647.83,277.56,647.5,277.88,647.1,277.88z"/>
		<path class="st14" d="M643.08,277.88L643.08,277.88c-0.09,0-0.17-0.08-0.17-0.17v-0.91c0-0.09,0.08-0.17,0.17-0.17l0,0
			c0.09,0,0.17,0.08,0.17,0.17v0.91C643.25,277.81,643.18,277.88,643.08,277.88z"/>
	</g>
	<g>
		<path class="st14" d="M657.31,277.75H651c-0.35,0-0.63-0.28-0.63-0.63l0,0c0-0.35,0.28-0.63,0.63-0.63h6.3
			c0.34,0,0.63,0.28,0.63,0.63l0,0C657.94,277.47,657.65,277.75,657.31,277.75z"/>
		<path class="st14" d="M654.66,276.15c0,0,0.35-1.25,1.46-1.11c1.11,0.14,1.81,0.82,1.81,1.45c0,0.24-0.17,0.79-0.43,1.35
			c-0.42,0.89-1.07,1.84-1.66,1.71c-0.97-0.21-1.18-1.8-1.18-1.8s0.83-0.49,1.04,0.28c0.21,0.76-0.07,0.61,0.6,0.69
			c0.66,0.08,1.07-1.73,0.44-2.7c-0.62-0.97-1.32-0.47-1.25,0c0.07,0.47-0.83,1.53-0.83,0.83
			C654.66,276.15,654.66,276.15,654.66,276.15z"/>
		<path class="st15" d="M657.61,277.75L657.61,277.75c-0.4,0-0.72-0.33-0.72-0.72l0,0c0-0.4,0.33-0.72,0.72-0.72l0,0
			c0.4,0,0.72,0.33,0.72,0.72l0,0C658.34,277.43,658.01,277.75,657.61,277.75z"/>
		<path class="st14" d="M653.59,277.75L653.59,277.75c-0.1,0-0.17-0.08-0.17-0.17v-0.91c0-0.09,0.08-0.17,0.17-0.17l0,0
			c0.09,0,0.17,0.08,0.17,0.17v0.91C653.76,277.67,653.69,277.75,653.59,277.75z"/>
	</g>
	<g>
		<path class="st14" d="M668.49,277.48h-6.3c-0.35,0-0.63-0.28-0.63-0.63l0,0c0-0.35,0.28-0.63,0.63-0.63h6.3
			c0.35,0,0.63,0.28,0.63,0.63l0,0C669.13,277.19,668.84,277.48,668.49,277.48z"/>
		<path class="st14" d="M665.85,275.88c0,0,0.35-1.25,1.46-1.11c1.11,0.14,1.82,0.82,1.82,1.45c0,0.24-0.17,0.79-0.43,1.35
			c-0.41,0.89-1.07,1.84-1.66,1.71c-0.97-0.21-1.18-1.81-1.18-1.81s0.83-0.49,1.04,0.28c0.21,0.76-0.07,0.61,0.6,0.69
			c0.66,0.08,1.07-1.73,0.45-2.71c-0.63-0.97-1.32-0.47-1.25,0c0.07,0.47-0.83,1.53-0.83,0.83
			C665.85,275.88,665.85,275.88,665.85,275.88z"/>
		<path class="st15" d="M668.8,277.48L668.8,277.48c-0.4,0-0.72-0.32-0.72-0.72l0,0c0-0.4,0.33-0.72,0.72-0.72l0,0
			c0.4,0,0.72,0.33,0.72,0.72l0,0C669.53,277.15,669.2,277.48,668.8,277.48z"/>
		<path class="st14" d="M664.78,277.48L664.78,277.48c-0.09,0-0.17-0.08-0.17-0.17v-0.91c0-0.1,0.08-0.17,0.17-0.17l0,0
			c0.09,0,0.17,0.08,0.17,0.17v0.91C664.95,277.4,664.87,277.48,664.78,277.48z"/>
	</g>
	<path class="st16" d="M675.86,274.42l2.26,1.52l12.6,0.36C690.73,276.3,683.64,274.12,675.86,274.42z"/>
	<path class="st16" d="M677.74,276.71l-1.44,2.01c0,0,12.04-0.61,14.19-1.88L677.74,276.71z"/>
	<path class="st16" d="M579.17,275.55l-1.22,1.73l-18.88,0.09C559.07,277.37,577.34,274.6,579.17,275.55z"/>
	<path class="st16" d="M578.71,279.84l-1.16-2.04l-18.48-0.23C559.07,277.57,569.17,280.12,578.71,279.84z"/>
	<path class="st13" d="M615.6,253.6c0,0-2.56,1.3-2.91,1.67c-0.34,0.37,0.45,2.31,1.27,3.75c0.83,1.44,0.63,1.04,0.63,1.04
		s1-0.3,1.69-0.09l0.45,0.08c0,0,0.71-0.03,0.62-0.3c-0.09-0.27-1.54-5.69-1.65-5.92C615.6,253.6,615.6,253.6,615.6,253.6z"/>
	<path class="st13" d="M593.57,253.18c0,0-2.56,1.3-2.91,1.67c-0.35,0.37,0.44,2.31,1.27,3.75c0.83,1.44,0.63,1.04,0.63,1.04
		s1-0.3,1.69-0.09l0.45,0.08c0,0,0.71-0.03,0.62-0.3c-0.09-0.27-1.54-5.7-1.65-5.92C593.57,253.18,593.57,253.18,593.57,253.18z"/>
	<path class="st13" d="M636.98,253.6c0,0-2.56,1.3-2.91,1.67c-0.34,0.37,0.45,2.31,1.27,3.75c0.83,1.44,0.63,1.04,0.63,1.04
		s1-0.3,1.69-0.09l0.46,0.08c0,0,0.71-0.03,0.62-0.3c-0.09-0.27-1.54-5.69-1.65-5.92S636.98,253.6,636.98,253.6z"/>
	<path class="st13" d="M659.29,253.6c0,0-2.56,1.3-2.91,1.67c-0.35,0.37,0.45,2.31,1.27,3.75c0.83,1.44,0.63,1.04,0.63,1.04
		s1-0.3,1.69-0.09l0.45,0.08c0,0,0.71-0.03,0.62-0.3c-0.09-0.27-1.54-5.69-1.65-5.92C659.29,253.6,659.29,253.6,659.29,253.6z"/>
	<path class="st13" d="M625.13,301.53c0,0-2.41-1.57-2.71-1.97c-0.3-0.4,0.69-2.25,1.67-3.59c0.98-1.34,0.74-0.96,0.74-0.96
		s0.96,0.41,1.67,0.27l0.46-0.03c0,0,0.71,0.11,0.59,0.36c-0.12,0.26-2.15,5.5-2.28,5.71C625.13,301.53,625.13,301.53,625.13,301.53
		z"/>
	<path class="st13" d="M581.48,301.06c0,0-2.41-1.57-2.71-1.97c-0.3-0.4,0.69-2.25,1.67-3.59c0.98-1.34,0.74-0.96,0.74-0.96
		s0.96,0.41,1.67,0.27l0.46-0.03c0,0,0.71,0.11,0.58,0.36c-0.12,0.26-2.15,5.5-2.28,5.71C581.48,301.06,581.48,301.06,581.48,301.06
		z"/>
	<path class="st13" d="M647.56,301.53c0,0-2.41-1.57-2.71-1.97c-0.3-0.4,0.69-2.25,1.67-3.59c0.98-1.34,0.74-0.96,0.74-0.96
		s0.96,0.41,1.67,0.27l0.46-0.03c0,0,0.71,0.11,0.58,0.36c-0.12,0.26-2.15,5.5-2.28,5.71C647.56,301.53,647.56,301.53,647.56,301.53
		z"/>
	<path class="st13" d="M604.02,301.53c0,0-2.41-1.57-2.71-1.97c-0.3-0.4,0.69-2.25,1.67-3.59c0.98-1.34,0.74-0.96,0.74-0.96
		s0.96,0.41,1.67,0.27l0.46-0.03c0,0,0.71,0.11,0.58,0.36c-0.12,0.26-2.15,5.5-2.28,5.71C604.02,301.53,604.02,301.53,604.02,301.53
		z"/>
</g>
</svg>
