<?xml version="1.0" encoding="utf-8"?>
<!-- Generator: Adobe Illustrator 27.5.0, SVG Export Plug-In . SVG Version: 6.00 Build 0)  -->
<svg version="1.1" id="Capa_1" xmlns="http://www.w3.org/2000/svg" xmlns:xlink="http://www.w3.org/1999/xlink" x="0px" y="0px"
	 viewBox="0 0 562.04 259.71" style="enable-background:new 0 0 562.04 259.71;" xml:space="preserve">
<style type="text/css">
	.st0{fill:none;}
	.st1{fill:#1E1E1C;}
	.st2{font-family:'ArialMT';}
	.st3{font-size:18px;}
	.st4{fill:#CC1719;}
	.st5{fill:#EFBAA5;}
	.st6{fill:#DD6F53;}
	.st7{font-size:12px;}
	.st8{font-size:16px;}
	.st9{clip-path:url(#SVGID_00000118394724486680123650000013935988760429175966_);fill:#EFBBA6;}
	.st10{clip-path:url(#SVGID_00000182516365205559105200000008711037509225353130_);}
	.st11{clip-path:url(#SVGID_00000002376795255979173950000015463585153517759404_);fill:#EFBBA6;}
	.st12{clip-path:url(#SVGID_00000138548871705785408250000016652283172105642426_);}
	.st13{clip-path:url(#SVGID_00000161628685782958088110000006859334381950483855_);fill:#EFBBA6;}
	.st14{clip-path:url(#SVGID_00000067950725787428892250000015175896477593249166_);}
	.st15{clip-path:url(#SVGID_00000025443661434310260270000017211822189275592624_);fill:#EFBBA6;}
	.st16{clip-path:url(#SVGID_00000093141103754074774570000017279136394864819081_);}
	.st17{clip-path:url(#SVGID_00000108271874635351040130000007734427484455249550_);fill:#EFBBA6;}
	.st18{clip-path:url(#SVGID_00000101790099893211959970000012597769172683453603_);}
	.st19{clip-path:url(#SVGID_00000044898912582955187520000017175411018756665508_);fill:#EFBBA6;}
	.st20{clip-path:url(#SVGID_00000103978116359421692440000017230809264672252325_);}
	.st21{clip-path:url(#SVGID_00000151528740112611544350000004669096012570412439_);fill:#EFBBA6;}
	.st22{clip-path:url(#SVGID_00000000910860347847474450000017188746877409980572_);}
	.st23{clip-path:url(#SVGID_00000045617157337618547210000017784520508304424623_);fill:#EFBBA6;}
	.st24{clip-path:url(#SVGID_00000138539077500482315680000017886332776125450401_);fill:#DD6E52;}
	.st25{clip-path:url(#SVGID_00000011746537706620811970000011982028749159105188_);fill:#DD6E52;}
	.st26{clip-path:url(#SVGID_00000049180802589647239130000013175428480700960647_);fill:#DD6E52;}
	.st27{clip-path:url(#SVGID_00000078040223228752751430000008945182585380024981_);fill:#DD6E52;}
	.st28{clip-path:url(#SVGID_00000115476146288347746190000002000099157118848944_);fill:#DD6E52;}
	.st29{clip-path:url(#SVGID_00000117649527862768247670000013658209265731754648_);fill:#DD6E52;}
	.st30{clip-path:url(#SVGID_00000138566019256454361230000010811040916038074797_);fill:#DD6E52;}
	.st31{clip-path:url(#SVGID_00000054229199167265997600000007583619062203579063_);fill:#DD6E52;}
	.st32{clip-path:url(#SVGID_00000013168939965359000010000017830618756810097541_);fill:#CD181C;}
	.st33{clip-path:url(#SVGID_00000039131894698496735120000017430545698179060878_);fill:#CD181C;}
	.st34{clip-path:url(#SVGID_00000177457135523907849870000006992458186153570485_);fill:#CD181C;}
	.st35{clip-path:url(#SVGID_00000160874121337098191930000000583355017852346774_);fill:#CD181C;}
	.st36{clip-path:url(#SVGID_00000094595696822928777740000014266038954729198251_);fill:#CD181C;}
	.st37{clip-path:url(#SVGID_00000110454310317263588970000017772591964281760952_);fill:#CD181C;}
	.st38{clip-path:url(#SVGID_00000048495646823096227390000010149947712628981390_);fill:#CD181C;}
	.st39{clip-path:url(#SVGID_00000109746534790870301480000017847857300164770714_);fill:#CD181C;}
	.st40{fill:#010000;}
</style>
<g id="Capa_1_00000158742265258337145780000009423280058898325420_">
</g>
<g>
	<rect x="440.65" y="136.64" class="st0" width="44.24" height="15.95"/>
	<text transform="matrix(1 0 0 1 440.6479 151.6484)" class="st1 st2 st3">Oro</text>
</g>
<path class="st4" d="M435.53,133.64l-2.67,8.06c-0.06,0.19-0.25,0.31-0.43,0.31h-1.55l-0.31-0.93h1.52l2.36-7.13h-3.01l-1.61,4.93
	l-0.5-1.46l1.3-4.09c0.06-0.19,0.25-0.31,0.43-0.31h4c0.16,0,0.28,0.06,0.37,0.19C435.56,133.33,435.56,133.49,435.53,133.64z
	 M425.05,141.7l-2.67-8.06c-0.06-0.16-0.03-0.31,0.06-0.4c0.09-0.12,0.22-0.19,0.37-0.19h4c0.19,0,0.37,0.12,0.43,0.31l2.85,8.68
	h-4.62C425.29,142.04,425.11,141.92,425.05,141.7z M423.46,133.95l2.36,7.16h3.01l-2.36-7.16H423.46z M433.42,147.16
	c0,2.45-1.98,4.47-4.47,4.47s-4.47-2.02-4.47-4.47c0-2.45,1.98-4.5,4.47-4.5S433.42,144.68,433.42,147.16z"/>
<g>
	<rect x="442" y="197.53" class="st0" width="64.79" height="16.25"/>
	<text transform="matrix(1 0 0 1 441.9927 212.5371)" class="st1 st2 st3">Bronce</text>
</g>
<path class="st5" d="M437.08,194.47l-2.67,8.06c-0.06,0.19-0.25,0.31-0.43,0.31h-1.55l-0.31-0.93h1.52l2.36-7.13h-3.01l-1.61,4.93
	l-0.5-1.46l1.3-4.09c0.06-0.19,0.25-0.31,0.43-0.31h4c0.16,0,0.28,0.06,0.37,0.19C437.12,194.16,437.12,194.31,437.08,194.47z
	 M426.6,202.53l-2.67-8.06c-0.06-0.16-0.03-0.31,0.06-0.4c0.09-0.12,0.22-0.19,0.37-0.19h4c0.19,0,0.37,0.12,0.43,0.31l2.85,8.68
	h-4.62C426.85,202.87,426.67,202.75,426.6,202.53z M425.02,194.78l2.36,7.16h3.01l-2.36-7.16H425.02z M434.98,207.99
	c0,2.45-1.98,4.47-4.47,4.47s-4.47-2.02-4.47-4.47s1.98-4.5,4.47-4.5S434.98,205.51,434.98,207.99z"/>
<g>
	<rect x="441.8" y="167.91" class="st0" width="53.91" height="20.2"/>
	<text transform="matrix(1 0 0 1 441.7954 182.9102)" class="st1 st2 st3">Plata </text>
</g>
<path class="st6" d="M436.7,164.7l-2.67,8.06c-0.06,0.19-0.25,0.31-0.43,0.31h-1.55l-0.31-0.93h1.52l2.36-7.13h-3.01l-1.61,4.93
	l-0.5-1.46l1.3-4.09c0.06-0.19,0.25-0.31,0.43-0.31h4c0.16,0,0.28,0.06,0.37,0.19C436.73,164.39,436.73,164.55,436.7,164.7z
	 M426.22,172.76l-2.67-8.06c-0.06-0.16-0.03-0.31,0.06-0.4c0.09-0.12,0.22-0.19,0.37-0.19h4c0.19,0,0.37,0.12,0.43,0.31l2.85,8.68
	h-4.6C426.47,173.1,426.28,172.98,426.22,172.76z M424.64,165.01l2.36,7.16h3.01l-2.36-7.16H424.64z M434.59,178.22
	c0,2.45-1.98,4.47-4.47,4.47s-4.47-2.02-4.47-4.47s1.98-4.5,4.47-4.5C432.61,173.72,434.59,175.74,434.59,178.22z"/>
<g>
	<rect x="425.03" y="230.09" class="st0" width="152.92" height="19.46"/>
	<text transform="matrix(1 0 0 1 425.0298 241.3409)" class="st1 st2 st7">Datos desde 2011 al 2021</text>
</g>
<g>
	<rect x="30.56" y="151.51" class="st0" width="62.55" height="21.38"/>
	<text transform="matrix(1 0 0 1 30.5591 166.5078)" class="st1 st2 st8">EEUU</text>
</g>
<g>
	<rect x="7.56" y="13.59" class="st0" width="85.54" height="21.38"/>
	<text transform="matrix(1 0 0 1 7.5542 28.5898)" class="st1 st2 st8">Argentina </text>
</g>
<g>
	<rect x="39.24" y="122.4" class="st0" width="61.27" height="21.38"/>
	<text transform="matrix(1 0 0 1 39.232 137.3976)" class="st1 st2 st8">Cuba</text>
</g>
<g>
	<rect x="40.29" y="96.4" class="st0" width="61.27" height="21.38"/>
	<text transform="matrix(1 0 0 1 40.2906 111.4023)" class="st1 st2 st8">Chile</text>
</g>
<g>
	<rect x="20.23" y="68.83" class="st0" width="66.95" height="21.38"/>
	<text transform="matrix(1 0 0 1 20.2271 83.8271)" class="st1 st2 st8">Canadá</text>
</g>
<g>
	<rect x="24.38" y="176.07" class="st0" width="74.36" height="21.38"/>
	<text transform="matrix(1 0 0 1 24.3726 191.0713)" class="st1 st2 st8">México</text>
</g>
<g>
	<rect x="15.61" y="203.21" class="st0" width="85.28" height="21.38"/>
	<text transform="matrix(1 0 0 1 15.606 218.2119)" class="st1 st2 st8">Uruguay</text>
</g>
<g>
	<rect x="35.03" y="43.02" class="st0" width="82.39" height="21.38"/>
	<text transform="matrix(1 0 0 1 35.0279 58.0245)" class="st1 st2 st8">Brasil</text>
</g>
<g>
	<g>
		<defs>
			<path id="SVGID_1_" d="M85.53,12.03H269.2c0.51,0,0.95,0.18,1.31,0.54s0.54,0.8,0.54,1.31v19.4c0,0.51-0.18,0.95-0.54,1.31
				s-0.8,0.54-1.31,0.54H85.53V12.03z"/>
		</defs>
		<clipPath id="SVGID_00000168832800617987502850000008880675229929082789_">
			<use xlink:href="#SVGID_1_"  style="overflow:visible;"/>
		</clipPath>
		
			<rect x="85.53" y="12.03" style="clip-path:url(#SVGID_00000168832800617987502850000008880675229929082789_);fill:#EFBBA6;" width="257.66" height="205.32"/>
	</g>
</g>
<g>
	<g>
		<defs>
			<rect id="SVGID_00000154411898918158231770000007465301557733598649_" x="85.53" y="38.54" width="123.84" height="23.42"/>
		</defs>
		<clipPath id="SVGID_00000017506964010100792190000012137092308107188637_">
			<use xlink:href="#SVGID_00000154411898918158231770000007465301557733598649_"  style="overflow:visible;"/>
		</clipPath>
		<g style="clip-path:url(#SVGID_00000017506964010100792190000012137092308107188637_);">
			<g>
				<defs>
					<path id="SVGID_00000137107040919468166640000006460026126927110066_" d="M85.53,38.7h121.86c0.51,0,0.95,0.18,1.31,0.54
						s0.54,0.8,0.54,1.31v19.4c0,0.51-0.18,0.95-0.54,1.31s-0.8,0.54-1.31,0.54H85.53V38.7z"/>
				</defs>
				<clipPath id="SVGID_00000043421843735487891140000000958214967231092658_">
					<use xlink:href="#SVGID_00000137107040919468166640000006460026126927110066_"  style="overflow:visible;"/>
				</clipPath>
				
					<rect x="85.53" y="12.68" style="clip-path:url(#SVGID_00000043421843735487891140000000958214967231092658_);fill:#EFBBA6;" width="257.66" height="205.32"/>
			</g>
		</g>
	</g>
</g>
<g>
	<g>
		<defs>
			<rect id="SVGID_00000013189794768285320890000012880953491501837490_" x="85.53" y="65.42" width="113.45" height="23.22"/>
		</defs>
		<clipPath id="SVGID_00000132766711971016475750000015579265018388655289_">
			<use xlink:href="#SVGID_00000013189794768285320890000012880953491501837490_"  style="overflow:visible;"/>
		</clipPath>
		<g style="clip-path:url(#SVGID_00000132766711971016475750000015579265018388655289_);">
			<g>
				<defs>
					<path id="SVGID_00000000182292712300308810000009126448466069824950_" d="M85.53,65.52h111.56c0.51,0,0.95,0.18,1.31,0.54
						s0.54,0.8,0.54,1.31v19.4c0,0.51-0.18,0.95-0.54,1.31s-0.8,0.54-1.31,0.54H85.53V65.52z"/>
				</defs>
				<clipPath id="SVGID_00000159468566275104619930000003310666195669249726_">
					<use xlink:href="#SVGID_00000000182292712300308810000009126448466069824950_"  style="overflow:visible;"/>
				</clipPath>
				
					<rect x="85.53" y="13.48" style="clip-path:url(#SVGID_00000159468566275104619930000003310666195669249726_);fill:#EFBBA6;" width="257.66" height="205.32"/>
			</g>
		</g>
	</g>
</g>
<g>
	<g>
		<defs>
			<rect id="SVGID_00000129193844433861777690000007323215536286473406_" x="85.53" y="92.14" width="185.56" height="23.22"/>
		</defs>
		<clipPath id="SVGID_00000009592157591179062090000011629838963784192950_">
			<use xlink:href="#SVGID_00000129193844433861777690000007323215536286473406_"  style="overflow:visible;"/>
		</clipPath>
		<g style="clip-path:url(#SVGID_00000009592157591179062090000011629838963784192950_);">
			<g>
				<defs>
					<path id="SVGID_00000139262152397238831730000010049965689481943482_" d="M85.53,92.19H269.2c0.51,0,0.95,0.18,1.31,0.54
						s0.54,0.8,0.54,1.31v19.4c0,0.51-0.18,0.95-0.54,1.31s-0.8,0.54-1.31,0.54H85.53V92.19z"/>
				</defs>
				<clipPath id="SVGID_00000126322477018157177210000001139895592470657168_">
					<use xlink:href="#SVGID_00000139262152397238831730000010049965689481943482_"  style="overflow:visible;"/>
				</clipPath>
				
					<rect x="85.53" y="14.12" style="clip-path:url(#SVGID_00000126322477018157177210000001139895592470657168_);fill:#EFBBA6;" width="257.66" height="205.32"/>
			</g>
		</g>
	</g>
</g>
<g>
	<g>
		<defs>
			<rect id="SVGID_00000143600980963721120970000010573591763793959817_" x="85.21" y="119.17" width="257.66" height="23.22"/>
		</defs>
		<clipPath id="SVGID_00000150089280576001639060000014099200220371550604_">
			<use xlink:href="#SVGID_00000143600980963721120970000010573591763793959817_"  style="overflow:visible;"/>
		</clipPath>
		<g style="clip-path:url(#SVGID_00000150089280576001639060000014099200220371550604_);">
			<g>
				<defs>
					<path id="SVGID_00000015316318331850519780000005493405502245197729_" d="M85.21,119.18h255.77c0.51,0,0.95,0.18,1.31,0.54
						s0.54,0.8,0.54,1.31v19.4c0,0.51-0.18,0.95-0.54,1.31s-0.8,0.54-1.31,0.54H85.21L85.21,119.18L85.21,119.18z"/>
				</defs>
				<clipPath id="SVGID_00000056418000804290779060000001888173034557977504_">
					<use xlink:href="#SVGID_00000015316318331850519780000005493405502245197729_"  style="overflow:visible;"/>
				</clipPath>
				
					<rect x="85.21" y="15.09" style="clip-path:url(#SVGID_00000056418000804290779060000001888173034557977504_);fill:#EFBBA6;" width="257.66" height="205.32"/>
			</g>
		</g>
	</g>
</g>
<g>
	<g>
		<defs>
			<rect id="SVGID_00000057150259243602605670000005402452053039694981_" x="85.53" y="145.68" width="164.99" height="23.42"/>
		</defs>
		<clipPath id="SVGID_00000141451247891695981830000000184441968634317226_">
			<use xlink:href="#SVGID_00000057150259243602605670000005402452053039694981_"  style="overflow:visible;"/>
		</clipPath>
		<g style="clip-path:url(#SVGID_00000141451247891695981830000000184441968634317226_);">
			<g>
				<defs>
					<path id="SVGID_00000054257183250311878290000007314554541053071800_" d="M85.53,145.84h163.06c0.51,0,0.95,0.18,1.31,0.54
						s0.54,0.8,0.54,1.31v19.4c0,0.51-0.18,0.95-0.54,1.31s-0.8,0.54-1.31,0.54H85.53V145.84z"/>
				</defs>
				<clipPath id="SVGID_00000101075561099360163820000001623950466242499240_">
					<use xlink:href="#SVGID_00000054257183250311878290000007314554541053071800_"  style="overflow:visible;"/>
				</clipPath>
				
					<rect x="85.53" y="15.73" style="clip-path:url(#SVGID_00000101075561099360163820000001623950466242499240_);fill:#EFBBA6;" width="257.66" height="205.32"/>
			</g>
		</g>
	</g>
</g>
<g>
	<g>
		<defs>
			<rect id="SVGID_00000026128786386883263150000001856531519176850073_" x="85.37" y="172.56" width="103.27" height="23.22"/>
		</defs>
		<clipPath id="SVGID_00000087399015735089784400000010144226622384556732_">
			<use xlink:href="#SVGID_00000026128786386883263150000001856531519176850073_"  style="overflow:visible;"/>
		</clipPath>
		<g style="clip-path:url(#SVGID_00000087399015735089784400000010144226622384556732_);">
			<g>
				<defs>
					<path id="SVGID_00000001629940890341150450000016609739001196011418_" d="M85.37,172.67h101.26c0.51,0,0.95,0.18,1.31,0.54
						s0.54,0.8,0.54,1.31v19.4c0,0.51-0.18,0.95-0.54,1.31s-0.8,0.54-1.31,0.54H85.37V172.67z"/>
				</defs>
				<clipPath id="SVGID_00000049910679389258867700000015244708410503697045_">
					<use xlink:href="#SVGID_00000001629940890341150450000016609739001196011418_"  style="overflow:visible;"/>
				</clipPath>
				
					<rect x="85.37" y="16.53" style="clip-path:url(#SVGID_00000049910679389258867700000015244708410503697045_);fill:#EFBBA6;" width="257.66" height="205.32"/>
			</g>
		</g>
	</g>
</g>
<g>
	<g>
		<defs>
			<rect id="SVGID_00000065756219552189610640000006739754296814896006_" x="85.21" y="199.43" width="164.99" height="23.22"/>
		</defs>
		<clipPath id="SVGID_00000120560051588518754640000013979670133306028416_">
			<use xlink:href="#SVGID_00000065756219552189610640000006739754296814896006_"  style="overflow:visible;"/>
		</clipPath>
		<g style="clip-path:url(#SVGID_00000120560051588518754640000013979670133306028416_);">
			<g>
				<defs>
					<path id="SVGID_00000146498436327392127370000017707148558014663083_" d="M85.21,199.49h163.06c0.51,0,0.95,0.18,1.31,0.54
						s0.54,0.8,0.54,1.31v19.4c0,0.51-0.18,0.95-0.54,1.31s-0.8,0.54-1.31,0.54H85.21V199.49z"/>
				</defs>
				<clipPath id="SVGID_00000127040031081771624640000014533166317220919447_">
					<use xlink:href="#SVGID_00000146498436327392127370000017707148558014663083_"  style="overflow:visible;"/>
				</clipPath>
				
					<rect x="85.21" y="17.34" style="clip-path:url(#SVGID_00000127040031081771624640000014533166317220919447_);fill:#EFBBA6;" width="257.66" height="205.32"/>
			</g>
		</g>
	</g>
</g>
<g>
	<g>
		<defs>
			<rect id="SVGID_00000099658786650112426280000004159098151251344040_" x="85.53" y="12.03" width="123.68" height="23.09"/>
		</defs>
		<clipPath id="SVGID_00000059308759084759824150000015474574710285586313_">
			<use xlink:href="#SVGID_00000099658786650112426280000004159098151251344040_"  style="overflow:visible;"/>
		</clipPath>
		
			<rect x="85.53" y="12.03" style="clip-path:url(#SVGID_00000059308759084759824150000015474574710285586313_);fill:#DD6E52;" width="257.66" height="205.32"/>
	</g>
</g>
<g>
	<g>
		<defs>
			<rect id="SVGID_00000155837580361770557160000015658203629907693236_" x="85.53" y="38.7" width="41.24" height="23.09"/>
		</defs>
		<clipPath id="SVGID_00000167354908244614598720000001306785178365533101_">
			<use xlink:href="#SVGID_00000155837580361770557160000015658203629907693236_"  style="overflow:visible;"/>
		</clipPath>
		
			<rect x="85.53" y="12.68" style="clip-path:url(#SVGID_00000167354908244614598720000001306785178365533101_);fill:#DD6E52;" width="257.66" height="205.32"/>
	</g>
</g>
<g>
	<g>
		<defs>
			<rect id="SVGID_00000041276564997185207890000018045152913506877614_" x="85.53" y="65.52" width="82.48" height="23.09"/>
		</defs>
		<clipPath id="SVGID_00000017507225788493006110000012597919454673466791_">
			<use xlink:href="#SVGID_00000041276564997185207890000018045152913506877614_"  style="overflow:visible;"/>
		</clipPath>
		
			<rect x="85.53" y="13.48" style="clip-path:url(#SVGID_00000017507225788493006110000012597919454673466791_);fill:#DD6E52;" width="257.66" height="205.32"/>
	</g>
</g>
<g>
	<g>
		<defs>
			<rect id="SVGID_00000103247316522686493260000002151459518384561848_" x="85.53" y="92.19" width="123.68" height="23.09"/>
		</defs>
		<clipPath id="SVGID_00000083804024697742074630000003882926261402822581_">
			<use xlink:href="#SVGID_00000103247316522686493260000002151459518384561848_"  style="overflow:visible;"/>
		</clipPath>
		
			<rect x="85.53" y="14.12" style="clip-path:url(#SVGID_00000083804024697742074630000003882926261402822581_);fill:#DD6E52;" width="257.66" height="205.32"/>
	</g>
</g>
<g>
	<g>
		<defs>
			<rect id="SVGID_00000094586358819607539700000016661366530509286819_" x="85.21" y="119.18" width="164.88" height="23.09"/>
		</defs>
		<clipPath id="SVGID_00000131348463079342619520000011093042955243504527_">
			<use xlink:href="#SVGID_00000094586358819607539700000016661366530509286819_"  style="overflow:visible;"/>
		</clipPath>
		
			<rect x="85.21" y="15.09" style="clip-path:url(#SVGID_00000131348463079342619520000011093042955243504527_);fill:#DD6E52;" width="257.66" height="205.32"/>
	</g>
</g>
<g>
	<g>
		<defs>
			<rect id="SVGID_00000013177527874408118850000010280242208790486921_" x="85.53" y="145.84" width="123.68" height="23.09"/>
		</defs>
		<clipPath id="SVGID_00000079457623791577190640000006300450994558273928_">
			<use xlink:href="#SVGID_00000013177527874408118850000010280242208790486921_"  style="overflow:visible;"/>
		</clipPath>
		
			<rect x="85.53" y="15.73" style="clip-path:url(#SVGID_00000079457623791577190640000006300450994558273928_);fill:#DD6E52;" width="257.66" height="205.32"/>
	</g>
</g>
<g>
	<g>
		<defs>
			<rect id="SVGID_00000051362406671628483610000011797444992336334989_" x="85.37" y="172.67" width="61.86" height="23.09"/>
		</defs>
		<clipPath id="SVGID_00000105406671168032199890000008674358062832645517_">
			<use xlink:href="#SVGID_00000051362406671628483610000011797444992336334989_"  style="overflow:visible;"/>
		</clipPath>
		
			<rect x="85.37" y="16.53" style="clip-path:url(#SVGID_00000105406671168032199890000008674358062832645517_);fill:#DD6E52;" width="257.66" height="205.32"/>
	</g>
</g>
<g>
	<g>
		<defs>
			<rect id="SVGID_00000114072242462596964920000009222875161409075607_" x="85.21" y="199.49" width="144.3" height="23.09"/>
		</defs>
		<clipPath id="SVGID_00000113324690518656418590000017764586455501183640_">
			<use xlink:href="#SVGID_00000114072242462596964920000009222875161409075607_"  style="overflow:visible;"/>
		</clipPath>
		
			<rect x="85.21" y="17.34" style="clip-path:url(#SVGID_00000113324690518656418590000017764586455501183640_);fill:#DD6E52;" width="257.66" height="205.32"/>
	</g>
</g>
<g>
	<g>
		<defs>
			<rect id="SVGID_00000137104014405911833940000002403008644707257497_" x="85.53" y="12.03" width="61.84" height="23.09"/>
		</defs>
		<clipPath id="SVGID_00000139992439416532225350000009245396398691654561_">
			<use xlink:href="#SVGID_00000137104014405911833940000002403008644707257497_"  style="overflow:visible;"/>
		</clipPath>
		
			<rect x="85.53" y="12.03" style="clip-path:url(#SVGID_00000139992439416532225350000009245396398691654561_);fill:#CD181C;" width="257.66" height="205.32"/>
	</g>
</g>
<g>
	<g>
		<defs>
			<rect id="SVGID_00000157267538406138622880000014747289309386385839_" x="85.53" y="38.7" width="20.62" height="23.09"/>
		</defs>
		<clipPath id="SVGID_00000007424821388165487380000007396087767619567524_">
			<use xlink:href="#SVGID_00000157267538406138622880000014747289309386385839_"  style="overflow:visible;"/>
		</clipPath>
		
			<rect x="85.53" y="12.68" style="clip-path:url(#SVGID_00000007424821388165487380000007396087767619567524_);fill:#CD181C;" width="257.66" height="205.32"/>
	</g>
</g>
<g>
	<g>
		<defs>
			<rect id="SVGID_00000101807631844298548090000011255168306476135560_" x="85.53" y="65.52" width="41.24" height="23.09"/>
		</defs>
		<clipPath id="SVGID_00000165957378010643373240000013381935450025158789_">
			<use xlink:href="#SVGID_00000101807631844298548090000011255168306476135560_"  style="overflow:visible;"/>
		</clipPath>
		
			<rect x="85.53" y="13.48" style="clip-path:url(#SVGID_00000165957378010643373240000013381935450025158789_);fill:#CD181C;" width="257.66" height="205.32"/>
	</g>
</g>
<g>
	<g>
		<defs>
			<rect id="SVGID_00000055673227278011162260000016975620819151869352_" x="85.53" y="92.19" width="61.84" height="23.09"/>
		</defs>
		<clipPath id="SVGID_00000145042179972944144990000003697909435473002169_">
			<use xlink:href="#SVGID_00000055673227278011162260000016975620819151869352_"  style="overflow:visible;"/>
		</clipPath>
		
			<rect x="85.53" y="14.12" style="clip-path:url(#SVGID_00000145042179972944144990000003697909435473002169_);fill:#CD181C;" width="257.66" height="205.32"/>
	</g>
</g>
<g>
	<g>
		<defs>
			<rect id="SVGID_00000145768429268718122500000012198933113810266771_" x="85.21" y="119.18" width="82.44" height="23.09"/>
		</defs>
		<clipPath id="SVGID_00000157281370584136008130000003163721321699825798_">
			<use xlink:href="#SVGID_00000145768429268718122500000012198933113810266771_"  style="overflow:visible;"/>
		</clipPath>
		
			<rect x="85.21" y="15.09" style="clip-path:url(#SVGID_00000157281370584136008130000003163721321699825798_);fill:#CD181C;" width="257.66" height="205.32"/>
	</g>
</g>
<g>
	<g>
		<defs>
			<rect id="SVGID_00000093892378205353066150000003286898254582568122_" x="85.53" y="145.84" width="61.84" height="23.09"/>
		</defs>
		<clipPath id="SVGID_00000181782060964632030900000004183019709755649163_">
			<use xlink:href="#SVGID_00000093892378205353066150000003286898254582568122_"  style="overflow:visible;"/>
		</clipPath>
		
			<rect x="85.53" y="15.73" style="clip-path:url(#SVGID_00000181782060964632030900000004183019709755649163_);fill:#CD181C;" width="257.66" height="205.32"/>
	</g>
</g>
<g>
	<g>
		<defs>
			<rect id="SVGID_00000022539221272237206470000014994560509556260020_" x="85.37" y="172.67" width="30.93" height="23.09"/>
		</defs>
		<clipPath id="SVGID_00000154417901579090497030000015275533876851251378_">
			<use xlink:href="#SVGID_00000022539221272237206470000014994560509556260020_"  style="overflow:visible;"/>
		</clipPath>
		
			<rect x="85.37" y="16.53" style="clip-path:url(#SVGID_00000154417901579090497030000015275533876851251378_);fill:#CD181C;" width="257.66" height="205.32"/>
	</g>
</g>
<g>
	<g>
		<defs>
			<rect id="SVGID_00000044165635883714798810000016911089603279079603_" x="85.21" y="199.49" width="72.15" height="23.09"/>
		</defs>
		<clipPath id="SVGID_00000179612460719332919270000004777309901528097205_">
			<use xlink:href="#SVGID_00000044165635883714798810000016911089603279079603_"  style="overflow:visible;"/>
		</clipPath>
		
			<rect x="85.21" y="17.34" style="clip-path:url(#SVGID_00000179612460719332919270000004777309901528097205_);fill:#CD181C;" width="257.66" height="205.32"/>
	</g>
</g>
<rect x="139.45" y="234.55" class="st0" width="13.16" height="15.88"/>
<text transform="matrix(1 0 0 1 139.4522 249.5558)" class="st40 st2 st8">5</text>
<rect x="83.48" y="234.55" class="st0" width="13.16" height="22.06"/>
<text transform="matrix(1 0 0 1 83.4781 249.5547)" class="st40 st2 st8">0</text>
<rect x="188.04" y="234.76" class="st0" width="20.43" height="19.52"/>
<text transform="matrix(1 0 0 1 188.0411 249.7676)" class="st40 st2 st8">10</text>
<rect x="241.44" y="234.55" class="st0" width="21.78" height="20.87"/>
<text transform="matrix(1 0 0 1 241.4351 249.5558)" class="st40 st2 st8">15</text>
<rect x="291.84" y="234.55" class="st0" width="28.41" height="20.01"/>
<text transform="matrix(1 0 0 1 291.8414 249.5558)" class="st40 st2 st8">20</text>
<rect x="347.88" y="234.55" class="st0" width="26.89" height="18.34"/>
<text transform="matrix(1 0 0 1 347.8716 249.5547)" class="st40 st2 st8">25</text>
</svg>
