<?xml version="1.0" encoding="utf-8"?>
<!-- Generator: Adobe Illustrator 27.5.0, SVG Export Plug-In . SVG Version: 6.00 Build 0)  -->
<svg version="1.1" id="Capa_1" xmlns="http://www.w3.org/2000/svg" xmlns:xlink="http://www.w3.org/1999/xlink" x="0px" y="0px"
	 viewBox="0 0 374.77 327.4" style="enable-background:new 0 0 374.77 327.4;" xml:space="preserve">
<style type="text/css">
	.st0{fill:none;}
	.st1{fill:#1E1E1C;}
	.st2{font-family:'ArialMT';}
	.st3{font-size:18px;}
	.st4{fill:#CC1719;}
	.st5{fill:#EFBAA5;}
	.st6{fill:#DD6F53;}
	.st7{font-size:12px;}
	.st8{font-size:16px;}
	.st9{clip-path:url(#SVGID_00000029031600890725236900000006027740626557837959_);fill:#EFBBA6;}
	.st10{clip-path:url(#SVGID_00000118393588326914906860000004215238097961651360_);}
	.st11{clip-path:url(#SVGID_00000038401400518422874790000004052535207959286970_);fill:#EFBBA6;}
	.st12{clip-path:url(#SVGID_00000056417094569941095190000010846720657959097007_);}
	.st13{clip-path:url(#SVGID_00000047018777490792923030000010015798692945219006_);fill:#EFBBA6;}
	.st14{clip-path:url(#SVGID_00000114776410155165509500000012505507574040868027_);}
	.st15{clip-path:url(#SVGID_00000042737817214210827280000002870443685320009393_);fill:#EFBBA6;}
	.st16{clip-path:url(#SVGID_00000144340005330607648560000013550392241266808473_);}
	.st17{clip-path:url(#SVGID_00000100377487672052139420000004436837698900910225_);fill:#EFBBA6;}
	.st18{clip-path:url(#SVGID_00000111180629105067015240000014025662992715998131_);}
	.st19{clip-path:url(#SVGID_00000075843910151570479720000005008472538007752350_);fill:#EFBBA6;}
	.st20{clip-path:url(#SVGID_00000091708592225375616850000012362287225963544979_);}
	.st21{clip-path:url(#SVGID_00000009566149722967372970000018109522549656131759_);fill:#EFBBA6;}
	.st22{clip-path:url(#SVGID_00000147186924305125298370000002337866049079255434_);}
	.st23{clip-path:url(#SVGID_00000164500278380834601260000016694309604315931559_);fill:#EFBBA6;}
	.st24{clip-path:url(#SVGID_00000042694878538194377670000006410611142420143798_);fill:#DD6E52;}
	.st25{clip-path:url(#SVGID_00000085249131242808676330000004642672076021843380_);fill:#DD6E52;}
	.st26{clip-path:url(#SVGID_00000157291563946298944340000010805162146191331214_);fill:#DD6E52;}
	.st27{clip-path:url(#SVGID_00000183963569157677420940000013971965748329819020_);fill:#DD6E52;}
	.st28{clip-path:url(#SVGID_00000107564657110604632040000011728597526832428456_);fill:#DD6E52;}
	.st29{clip-path:url(#SVGID_00000041277753344122708990000011143072941642179231_);fill:#DD6E52;}
	.st30{clip-path:url(#SVGID_00000168832421694661782660000009884944420237804962_);fill:#DD6E52;}
	.st31{clip-path:url(#SVGID_00000067945942300253740720000013151993781618149566_);fill:#DD6E52;}
	.st32{clip-path:url(#SVGID_00000070817070321528824470000013578178794642578332_);fill:#CD181C;}
	.st33{clip-path:url(#SVGID_00000046308206721321147950000006566697787380788098_);fill:#CD181C;}
	.st34{clip-path:url(#SVGID_00000139988533245839592460000014328544220043173285_);fill:#CD181C;}
	.st35{clip-path:url(#SVGID_00000165920140822894767380000007359177577196765066_);fill:#CD181C;}
	.st36{clip-path:url(#SVGID_00000153704044008094083750000014257232591491417022_);fill:#CD181C;}
	.st37{clip-path:url(#SVGID_00000062905669090254771360000017270779223376981912_);fill:#CD181C;}
	.st38{clip-path:url(#SVGID_00000031903112236205743310000013792483814088779690_);fill:#CD181C;}
	.st39{clip-path:url(#SVGID_00000049935470653571207850000006356565661766232221_);fill:#CD181C;}
	.st40{fill:#010000;}
</style>
<g id="Capa_1_00000158742265258337145780000009423280058898325420_">
</g>
<g>
	<rect x="42.06" y="282.86" class="st0" width="44.24" height="15.95"/>
	<text transform="matrix(1 0 0 1 42.0586 297.8638)" class="st1 st2 st3">Oro</text>
</g>
<path class="st4" d="M36.94,279.86l-2.67,8.06c-0.06,0.19-0.25,0.31-0.43,0.31h-1.55l-0.31-0.93h1.52l2.36-7.13h-3.01l-1.61,4.93
	l-0.5-1.46l1.3-4.09c0.06-0.19,0.25-0.31,0.43-0.31h4c0.16,0,0.28,0.06,0.37,0.19C36.97,279.55,36.97,279.71,36.94,279.86z
	 M26.46,287.92l-2.67-8.06c-0.06-0.16-0.03-0.31,0.06-0.4c0.09-0.12,0.22-0.19,0.37-0.19h4c0.19,0,0.37,0.12,0.43,0.31l2.85,8.68
	h-4.62C26.7,288.26,26.52,288.14,26.46,287.92z M24.87,280.17l2.36,7.16h3.01l-2.36-7.16H24.87z M34.83,293.38
	c0,2.45-1.98,4.47-4.47,4.47s-4.47-2.02-4.47-4.47c0-2.45,1.98-4.5,4.47-4.5S34.83,290.9,34.83,293.38z"/>
<g>
	<rect x="196.39" y="282.97" class="st0" width="64.79" height="16.25"/>
	<text transform="matrix(1 0 0 1 196.384 297.9775)" class="st1 st2 st3">Bronce</text>
</g>
<path class="st5" d="M191.47,279.91l-2.67,8.06c-0.06,0.19-0.25,0.31-0.43,0.31h-1.55l-0.31-0.93h1.52l2.36-7.13h-3.01l-1.61,4.93
	l-0.5-1.46l1.3-4.09c0.06-0.19,0.25-0.31,0.43-0.31h4c0.16,0,0.28,0.06,0.37,0.19C191.51,279.6,191.51,279.75,191.47,279.91z
	 M180.99,287.97l-2.67-8.06c-0.06-0.16-0.03-0.31,0.06-0.4c0.09-0.12,0.22-0.19,0.37-0.19h4c0.19,0,0.37,0.12,0.43,0.31l2.85,8.68
	h-4.62C181.24,288.31,181.06,288.19,180.99,287.97z M179.41,280.22l2.36,7.16h3.01l-2.36-7.16H179.41z M189.37,293.43
	c0,2.45-1.98,4.47-4.47,4.47s-4.47-2.02-4.47-4.47s1.98-4.5,4.47-4.5S189.37,290.95,189.37,293.43z"/>
<g>
	<rect x="119.19" y="282.65" class="st0" width="53.91" height="20.2"/>
	<text transform="matrix(1 0 0 1 119.186 297.6456)" class="st1 st2 st3">Plata </text>
</g>
<path class="st6" d="M113.98,278.22l-2.67,8.06c-0.06,0.19-0.25,0.31-0.43,0.31h-1.55l-0.31-0.93h1.52l2.36-7.13h-3.01l-1.61,4.93
	l-0.5-1.46l1.3-4.09c0.06-0.19,0.25-0.31,0.43-0.31h4c0.16,0,0.28,0.06,0.37,0.19C114.01,277.91,114.01,278.07,113.98,278.22z
	 M103.5,286.28l-2.67-8.06c-0.06-0.16-0.03-0.31,0.06-0.4c0.09-0.12,0.22-0.19,0.37-0.19h4c0.19,0,0.37,0.12,0.43,0.31l2.85,8.68
	h-4.6C103.75,286.62,103.56,286.5,103.5,286.28z M101.92,278.53l2.36,7.16h3.01l-2.36-7.16H101.92z M111.87,291.74
	c0,2.45-1.98,4.47-4.47,4.47s-4.47-2.02-4.47-4.47s1.98-4.5,4.47-4.5C109.89,287.24,111.87,289.26,111.87,291.74z"/>
<g>
	<rect x="23.34" y="307.94" class="st0" width="152.92" height="19.46"/>
	<text transform="matrix(1 0 0 1 23.3416 319.1907)" class="st1 st2 st7">Datos desde 2011 al 2021</text>
</g>
<g>
	<rect x="32.56" y="151.51" class="st0" width="62.55" height="21.38"/>
	<text transform="matrix(1 0 0 1 32.5591 166.5078)" class="st1 st2 st8">EEUU</text>
</g>
<g>
	<rect x="7.56" y="13.59" class="st0" width="85.54" height="21.38"/>
	<text transform="matrix(1 0 0 1 7.5542 28.5898)" class="st1 st2 st8">Argentina </text>
</g>
<g>
	<rect x="38.24" y="122.4" class="st0" width="61.27" height="21.38"/>
	<text transform="matrix(1 0 0 1 38.232 137.3976)" class="st1 st2 st8">Cuba</text>
</g>
<g>
	<rect x="40.29" y="96.4" class="st0" width="61.27" height="21.38"/>
	<text transform="matrix(1 0 0 1 40.2906 111.4023)" class="st1 st2 st8">Chile</text>
</g>
<g>
	<rect x="20.23" y="68.83" class="st0" width="66.95" height="21.38"/>
	<text transform="matrix(1 0 0 1 20.2271 83.8271)" class="st1 st2 st8">Canadá</text>
</g>
<g>
	<rect x="25.38" y="176.07" class="st0" width="74.36" height="21.38"/>
	<text transform="matrix(1 0 0 1 25.3726 191.0713)" class="st1 st2 st8">México</text>
</g>
<g>
	<rect x="15.61" y="203.21" class="st0" width="85.28" height="21.38"/>
	<text transform="matrix(1 0 0 1 15.606 218.2119)" class="st1 st2 st8">Uruguay</text>
</g>
<g>
	<rect x="37.03" y="43.02" class="st0" width="82.39" height="21.38"/>
	<text transform="matrix(1 0 0 1 37.0279 58.0245)" class="st1 st2 st8">Brasil</text>
</g>
<g>
	<g>
		<defs>
			<path id="SVGID_1_" d="M85.53,12.03H269.2c0.51,0,0.95,0.18,1.31,0.54s0.54,0.8,0.54,1.31v19.4c0,0.51-0.18,0.95-0.54,1.31
				s-0.8,0.54-1.31,0.54H85.53V12.03z"/>
		</defs>
		<clipPath id="SVGID_00000165920148575999347070000015060107732907107005_">
			<use xlink:href="#SVGID_1_"  style="overflow:visible;"/>
		</clipPath>
		
			<rect x="85.53" y="12.03" style="clip-path:url(#SVGID_00000165920148575999347070000015060107732907107005_);fill:#EFBBA6;" width="257.66" height="205.32"/>
	</g>
</g>
<g>
	<g>
		<defs>
			<rect id="SVGID_00000131361750569830191310000009672668382087817901_" x="85.53" y="38.54" width="123.84" height="23.42"/>
		</defs>
		<clipPath id="SVGID_00000138556060632495966160000008032410802606927008_">
			<use xlink:href="#SVGID_00000131361750569830191310000009672668382087817901_"  style="overflow:visible;"/>
		</clipPath>
		<g style="clip-path:url(#SVGID_00000138556060632495966160000008032410802606927008_);">
			<g>
				<defs>
					<path id="SVGID_00000180360306575698703030000005739558486771621297_" d="M85.53,38.7h121.86c0.51,0,0.95,0.18,1.31,0.54
						s0.54,0.8,0.54,1.31v19.4c0,0.51-0.18,0.95-0.54,1.31s-0.8,0.54-1.31,0.54H85.53V38.7z"/>
				</defs>
				<clipPath id="SVGID_00000128466312621622847050000011086522657404958132_">
					<use xlink:href="#SVGID_00000180360306575698703030000005739558486771621297_"  style="overflow:visible;"/>
				</clipPath>
				
					<rect x="85.53" y="12.68" style="clip-path:url(#SVGID_00000128466312621622847050000011086522657404958132_);fill:#EFBBA6;" width="257.66" height="205.32"/>
			</g>
		</g>
	</g>
</g>
<g>
	<g>
		<defs>
			<rect id="SVGID_00000167395386565266860340000015490082286962014874_" x="85.53" y="65.42" width="113.45" height="23.22"/>
		</defs>
		<clipPath id="SVGID_00000003084849393081503130000012689976453117005247_">
			<use xlink:href="#SVGID_00000167395386565266860340000015490082286962014874_"  style="overflow:visible;"/>
		</clipPath>
		<g style="clip-path:url(#SVGID_00000003084849393081503130000012689976453117005247_);">
			<g>
				<defs>
					<path id="SVGID_00000031892929965799676970000000867650006318741155_" d="M85.53,65.52h111.56c0.51,0,0.95,0.18,1.31,0.54
						s0.54,0.8,0.54,1.31v19.4c0,0.51-0.18,0.95-0.54,1.31s-0.8,0.54-1.31,0.54H85.53V65.52z"/>
				</defs>
				<clipPath id="SVGID_00000063615500241197231720000006398220925272689291_">
					<use xlink:href="#SVGID_00000031892929965799676970000000867650006318741155_"  style="overflow:visible;"/>
				</clipPath>
				
					<rect x="85.53" y="13.48" style="clip-path:url(#SVGID_00000063615500241197231720000006398220925272689291_);fill:#EFBBA6;" width="257.66" height="205.32"/>
			</g>
		</g>
	</g>
</g>
<g>
	<g>
		<defs>
			<rect id="SVGID_00000143577707059071177940000016772491962506194366_" x="85.53" y="92.14" width="185.56" height="23.22"/>
		</defs>
		<clipPath id="SVGID_00000039105977573960073400000017992632436425446786_">
			<use xlink:href="#SVGID_00000143577707059071177940000016772491962506194366_"  style="overflow:visible;"/>
		</clipPath>
		<g style="clip-path:url(#SVGID_00000039105977573960073400000017992632436425446786_);">
			<g>
				<defs>
					<path id="SVGID_00000018222220785579967510000014568920296623535517_" d="M85.53,92.19H269.2c0.51,0,0.95,0.18,1.31,0.54
						s0.54,0.8,0.54,1.31v19.4c0,0.51-0.18,0.95-0.54,1.31s-0.8,0.54-1.31,0.54H85.53V92.19z"/>
				</defs>
				<clipPath id="SVGID_00000129196639882408316230000006282634463159877041_">
					<use xlink:href="#SVGID_00000018222220785579967510000014568920296623535517_"  style="overflow:visible;"/>
				</clipPath>
				
					<rect x="85.53" y="14.12" style="clip-path:url(#SVGID_00000129196639882408316230000006282634463159877041_);fill:#EFBBA6;" width="257.66" height="205.32"/>
			</g>
		</g>
	</g>
</g>
<g>
	<g>
		<defs>
			<rect id="SVGID_00000018233716663873418090000003101402614858389931_" x="85.21" y="119.17" width="257.66" height="23.22"/>
		</defs>
		<clipPath id="SVGID_00000087390665509078062500000004171873127417856944_">
			<use xlink:href="#SVGID_00000018233716663873418090000003101402614858389931_"  style="overflow:visible;"/>
		</clipPath>
		<g style="clip-path:url(#SVGID_00000087390665509078062500000004171873127417856944_);">
			<g>
				<defs>
					<path id="SVGID_00000073682818090911214550000015072353746891705771_" d="M85.21,119.18h255.77c0.51,0,0.95,0.18,1.31,0.54
						s0.54,0.8,0.54,1.31v19.4c0,0.51-0.18,0.95-0.54,1.31s-0.8,0.54-1.31,0.54H85.21L85.21,119.18L85.21,119.18z"/>
				</defs>
				<clipPath id="SVGID_00000106112987275736149160000016999873071934443671_">
					<use xlink:href="#SVGID_00000073682818090911214550000015072353746891705771_"  style="overflow:visible;"/>
				</clipPath>
				
					<rect x="85.21" y="15.09" style="clip-path:url(#SVGID_00000106112987275736149160000016999873071934443671_);fill:#EFBBA6;" width="257.66" height="205.32"/>
			</g>
		</g>
	</g>
</g>
<g>
	<g>
		<defs>
			<rect id="SVGID_00000150823589940945670450000018075918303877947271_" x="85.53" y="145.68" width="164.99" height="23.42"/>
		</defs>
		<clipPath id="SVGID_00000093142486537828619730000017269025348090550406_">
			<use xlink:href="#SVGID_00000150823589940945670450000018075918303877947271_"  style="overflow:visible;"/>
		</clipPath>
		<g style="clip-path:url(#SVGID_00000093142486537828619730000017269025348090550406_);">
			<g>
				<defs>
					<path id="SVGID_00000145045370562731376840000017886216847122353823_" d="M85.53,145.84h163.06c0.51,0,0.95,0.18,1.31,0.54
						s0.54,0.8,0.54,1.31v19.4c0,0.51-0.18,0.95-0.54,1.31s-0.8,0.54-1.31,0.54H85.53V145.84z"/>
				</defs>
				<clipPath id="SVGID_00000178921380567554423540000017882869823449972663_">
					<use xlink:href="#SVGID_00000145045370562731376840000017886216847122353823_"  style="overflow:visible;"/>
				</clipPath>
				
					<rect x="85.53" y="15.73" style="clip-path:url(#SVGID_00000178921380567554423540000017882869823449972663_);fill:#EFBBA6;" width="257.66" height="205.32"/>
			</g>
		</g>
	</g>
</g>
<g>
	<g>
		<defs>
			<rect id="SVGID_00000053505626074468146910000005090813410795436956_" x="85.37" y="172.56" width="103.27" height="23.22"/>
		</defs>
		<clipPath id="SVGID_00000152257224221013232230000015729290787840806528_">
			<use xlink:href="#SVGID_00000053505626074468146910000005090813410795436956_"  style="overflow:visible;"/>
		</clipPath>
		<g style="clip-path:url(#SVGID_00000152257224221013232230000015729290787840806528_);">
			<g>
				<defs>
					<path id="SVGID_00000121238859088855661060000006235122965388958639_" d="M85.37,172.67h101.26c0.51,0,0.95,0.18,1.31,0.54
						s0.54,0.8,0.54,1.31v19.4c0,0.51-0.18,0.95-0.54,1.31s-0.8,0.54-1.31,0.54H85.37V172.67z"/>
				</defs>
				<clipPath id="SVGID_00000112617334636514734900000016241775486665260196_">
					<use xlink:href="#SVGID_00000121238859088855661060000006235122965388958639_"  style="overflow:visible;"/>
				</clipPath>
				
					<rect x="85.37" y="16.53" style="clip-path:url(#SVGID_00000112617334636514734900000016241775486665260196_);fill:#EFBBA6;" width="257.66" height="205.32"/>
			</g>
		</g>
	</g>
</g>
<g>
	<g>
		<defs>
			<rect id="SVGID_00000097491867313694908290000011484139094847780517_" x="85.21" y="199.43" width="164.99" height="23.22"/>
		</defs>
		<clipPath id="SVGID_00000017499908781762111720000013055686150726976694_">
			<use xlink:href="#SVGID_00000097491867313694908290000011484139094847780517_"  style="overflow:visible;"/>
		</clipPath>
		<g style="clip-path:url(#SVGID_00000017499908781762111720000013055686150726976694_);">
			<g>
				<defs>
					<path id="SVGID_00000080174025858106899800000006549889020079552647_" d="M85.21,199.49h163.06c0.51,0,0.95,0.18,1.31,0.54
						s0.54,0.8,0.54,1.31v19.4c0,0.51-0.18,0.95-0.54,1.31s-0.8,0.54-1.31,0.54H85.21V199.49z"/>
				</defs>
				<clipPath id="SVGID_00000169558269684152531720000016996005947656325026_">
					<use xlink:href="#SVGID_00000080174025858106899800000006549889020079552647_"  style="overflow:visible;"/>
				</clipPath>
				
					<rect x="85.21" y="17.34" style="clip-path:url(#SVGID_00000169558269684152531720000016996005947656325026_);fill:#EFBBA6;" width="257.66" height="205.32"/>
			</g>
		</g>
	</g>
</g>
<g>
	<g>
		<defs>
			<rect id="SVGID_00000083063330906412190760000013127956993057603245_" x="85.53" y="12.03" width="123.68" height="23.09"/>
		</defs>
		<clipPath id="SVGID_00000042697731291585027290000002343398901923153801_">
			<use xlink:href="#SVGID_00000083063330906412190760000013127956993057603245_"  style="overflow:visible;"/>
		</clipPath>
		
			<rect x="85.53" y="12.03" style="clip-path:url(#SVGID_00000042697731291585027290000002343398901923153801_);fill:#DD6E52;" width="257.66" height="205.32"/>
	</g>
</g>
<g>
	<g>
		<defs>
			<rect id="SVGID_00000096016766833008992590000006956120264612988850_" x="85.53" y="38.7" width="41.24" height="23.09"/>
		</defs>
		<clipPath id="SVGID_00000108306733641665536700000013215552638762210745_">
			<use xlink:href="#SVGID_00000096016766833008992590000006956120264612988850_"  style="overflow:visible;"/>
		</clipPath>
		
			<rect x="85.53" y="12.68" style="clip-path:url(#SVGID_00000108306733641665536700000013215552638762210745_);fill:#DD6E52;" width="257.66" height="205.32"/>
	</g>
</g>
<g>
	<g>
		<defs>
			<rect id="SVGID_00000072264654239237250040000015484464899370177152_" x="85.53" y="65.52" width="82.48" height="23.09"/>
		</defs>
		<clipPath id="SVGID_00000116933912556935706090000018381230868101477006_">
			<use xlink:href="#SVGID_00000072264654239237250040000015484464899370177152_"  style="overflow:visible;"/>
		</clipPath>
		
			<rect x="85.53" y="13.48" style="clip-path:url(#SVGID_00000116933912556935706090000018381230868101477006_);fill:#DD6E52;" width="257.66" height="205.32"/>
	</g>
</g>
<g>
	<g>
		<defs>
			<rect id="SVGID_00000142156272618011796740000007636354285431309730_" x="85.53" y="92.19" width="123.68" height="23.09"/>
		</defs>
		<clipPath id="SVGID_00000128442813638699163130000003762332638927074178_">
			<use xlink:href="#SVGID_00000142156272618011796740000007636354285431309730_"  style="overflow:visible;"/>
		</clipPath>
		
			<rect x="85.53" y="14.12" style="clip-path:url(#SVGID_00000128442813638699163130000003762332638927074178_);fill:#DD6E52;" width="257.66" height="205.32"/>
	</g>
</g>
<g>
	<g>
		<defs>
			<rect id="SVGID_00000112625018290104395840000007397409358266545577_" x="85.21" y="119.18" width="164.88" height="23.09"/>
		</defs>
		<clipPath id="SVGID_00000025440853908654062720000013240867930406515105_">
			<use xlink:href="#SVGID_00000112625018290104395840000007397409358266545577_"  style="overflow:visible;"/>
		</clipPath>
		
			<rect x="85.21" y="15.09" style="clip-path:url(#SVGID_00000025440853908654062720000013240867930406515105_);fill:#DD6E52;" width="257.66" height="205.32"/>
	</g>
</g>
<g>
	<g>
		<defs>
			<rect id="SVGID_00000016772956144132650600000010626743814867964583_" x="85.53" y="145.84" width="123.68" height="23.09"/>
		</defs>
		<clipPath id="SVGID_00000148639791489861297120000018441876702984897455_">
			<use xlink:href="#SVGID_00000016772956144132650600000010626743814867964583_"  style="overflow:visible;"/>
		</clipPath>
		
			<rect x="85.53" y="15.73" style="clip-path:url(#SVGID_00000148639791489861297120000018441876702984897455_);fill:#DD6E52;" width="257.66" height="205.32"/>
	</g>
</g>
<g>
	<g>
		<defs>
			<rect id="SVGID_00000091715354496845881450000015408638212818175907_" x="85.37" y="172.67" width="61.86" height="23.09"/>
		</defs>
		<clipPath id="SVGID_00000133490242273921229920000010345265451903539078_">
			<use xlink:href="#SVGID_00000091715354496845881450000015408638212818175907_"  style="overflow:visible;"/>
		</clipPath>
		
			<rect x="85.37" y="16.53" style="clip-path:url(#SVGID_00000133490242273921229920000010345265451903539078_);fill:#DD6E52;" width="257.66" height="205.32"/>
	</g>
</g>
<g>
	<g>
		<defs>
			<rect id="SVGID_00000168810626236558377290000000531305452680936853_" x="85.21" y="199.49" width="144.3" height="23.09"/>
		</defs>
		<clipPath id="SVGID_00000129200196291290720450000006265302131642230697_">
			<use xlink:href="#SVGID_00000168810626236558377290000000531305452680936853_"  style="overflow:visible;"/>
		</clipPath>
		
			<rect x="85.21" y="17.34" style="clip-path:url(#SVGID_00000129200196291290720450000006265302131642230697_);fill:#DD6E52;" width="257.66" height="205.32"/>
	</g>
</g>
<g>
	<g>
		<defs>
			<rect id="SVGID_00000168808470555037671820000009558836260515424168_" x="85.53" y="12.03" width="61.84" height="23.09"/>
		</defs>
		<clipPath id="SVGID_00000052800677773758875290000001263064775258669983_">
			<use xlink:href="#SVGID_00000168808470555037671820000009558836260515424168_"  style="overflow:visible;"/>
		</clipPath>
		
			<rect x="85.53" y="12.03" style="clip-path:url(#SVGID_00000052800677773758875290000001263064775258669983_);fill:#CD181C;" width="257.66" height="205.32"/>
	</g>
</g>
<g>
	<g>
		<defs>
			<rect id="SVGID_00000084524598466451711970000005356406404767518614_" x="85.53" y="38.7" width="20.62" height="23.09"/>
		</defs>
		<clipPath id="SVGID_00000140696171702577669890000012375956802634196395_">
			<use xlink:href="#SVGID_00000084524598466451711970000005356406404767518614_"  style="overflow:visible;"/>
		</clipPath>
		
			<rect x="85.53" y="12.68" style="clip-path:url(#SVGID_00000140696171702577669890000012375956802634196395_);fill:#CD181C;" width="257.66" height="205.32"/>
	</g>
</g>
<g>
	<g>
		<defs>
			<rect id="SVGID_00000083081094087019910700000015141718144139006889_" x="85.53" y="65.52" width="41.24" height="23.09"/>
		</defs>
		<clipPath id="SVGID_00000009575086426177071970000004382975370601310901_">
			<use xlink:href="#SVGID_00000083081094087019910700000015141718144139006889_"  style="overflow:visible;"/>
		</clipPath>
		
			<rect x="85.53" y="13.48" style="clip-path:url(#SVGID_00000009575086426177071970000004382975370601310901_);fill:#CD181C;" width="257.66" height="205.32"/>
	</g>
</g>
<g>
	<g>
		<defs>
			<rect id="SVGID_00000124855236605243572090000009814872537267561890_" x="85.53" y="92.19" width="61.84" height="23.09"/>
		</defs>
		<clipPath id="SVGID_00000093147196373397941110000015460123123568711061_">
			<use xlink:href="#SVGID_00000124855236605243572090000009814872537267561890_"  style="overflow:visible;"/>
		</clipPath>
		
			<rect x="85.53" y="14.12" style="clip-path:url(#SVGID_00000093147196373397941110000015460123123568711061_);fill:#CD181C;" width="257.66" height="205.32"/>
	</g>
</g>
<g>
	<g>
		<defs>
			<rect id="SVGID_00000160164126530377604370000004288660694959157174_" x="85.21" y="119.18" width="82.44" height="23.09"/>
		</defs>
		<clipPath id="SVGID_00000124145908162130343430000004133947873804077726_">
			<use xlink:href="#SVGID_00000160164126530377604370000004288660694959157174_"  style="overflow:visible;"/>
		</clipPath>
		
			<rect x="85.21" y="15.09" style="clip-path:url(#SVGID_00000124145908162130343430000004133947873804077726_);fill:#CD181C;" width="257.66" height="205.32"/>
	</g>
</g>
<g>
	<g>
		<defs>
			<rect id="SVGID_00000023965104444370803870000009281680226845063866_" x="85.53" y="145.84" width="61.84" height="23.09"/>
		</defs>
		<clipPath id="SVGID_00000011741273576838242900000003021445829774953097_">
			<use xlink:href="#SVGID_00000023965104444370803870000009281680226845063866_"  style="overflow:visible;"/>
		</clipPath>
		
			<rect x="85.53" y="15.73" style="clip-path:url(#SVGID_00000011741273576838242900000003021445829774953097_);fill:#CD181C;" width="257.66" height="205.32"/>
	</g>
</g>
<g>
	<g>
		<defs>
			<rect id="SVGID_00000008866954974284047770000016079308818021004673_" x="85.37" y="172.67" width="30.93" height="23.09"/>
		</defs>
		<clipPath id="SVGID_00000039113843446850586270000000564836804608332426_">
			<use xlink:href="#SVGID_00000008866954974284047770000016079308818021004673_"  style="overflow:visible;"/>
		</clipPath>
		
			<rect x="85.37" y="16.53" style="clip-path:url(#SVGID_00000039113843446850586270000000564836804608332426_);fill:#CD181C;" width="257.66" height="205.32"/>
	</g>
</g>
<g>
	<g>
		<defs>
			<rect id="SVGID_00000062878169869776821220000013246587549033473971_" x="85.21" y="199.49" width="72.15" height="23.09"/>
		</defs>
		<clipPath id="SVGID_00000127739872219346831390000013694544584021740935_">
			<use xlink:href="#SVGID_00000062878169869776821220000013246587549033473971_"  style="overflow:visible;"/>
		</clipPath>
		
			<rect x="85.21" y="17.34" style="clip-path:url(#SVGID_00000127739872219346831390000013694544584021740935_);fill:#CD181C;" width="257.66" height="205.32"/>
	</g>
</g>
<rect x="139.45" y="234.55" class="st0" width="13.16" height="15.88"/>
<text transform="matrix(1 0 0 1 139.4522 249.5558)" class="st40 st2 st8">5</text>
<rect x="83.48" y="234.55" class="st0" width="13.16" height="22.06"/>
<text transform="matrix(1 0 0 1 83.4781 249.5547)" class="st40 st2 st8">0</text>
<rect x="188.04" y="234.76" class="st0" width="20.43" height="19.52"/>
<text transform="matrix(1 0 0 1 188.0411 249.7676)" class="st40 st2 st8">10</text>
<rect x="241.44" y="234.55" class="st0" width="21.78" height="20.87"/>
<text transform="matrix(1 0 0 1 241.4351 249.5558)" class="st40 st2 st8">15</text>
<rect x="291.84" y="234.55" class="st0" width="28.41" height="20.01"/>
<text transform="matrix(1 0 0 1 291.8414 249.5558)" class="st40 st2 st8">20</text>
<rect x="347.88" y="234.55" class="st0" width="26.89" height="18.34"/>
<text transform="matrix(1 0 0 1 347.8716 249.5547)" class="st40 st2 st8">25</text>
</svg>
