<?xml version="1.0" encoding="utf-8"?>
<!-- Generator: Adobe Illustrator 27.5.0, SVG Export Plug-In . SVG Version: 6.00 Build 0)  -->
<svg version="1.1" id="Capa_1" xmlns="http://www.w3.org/2000/svg" xmlns:xlink="http://www.w3.org/1999/xlink" x="0px" y="0px"
	 viewBox="0 0 409 274" style="enable-background:new 0 0 409 274;" xml:space="preserve">
<style type="text/css">
	.st0{fill:none;stroke:#B7B6B6;stroke-width:0.25;stroke-miterlimit:10;}
	.st1{fill:none;stroke:#D23829;stroke-width:0.25;stroke-miterlimit:10;}
	.st2{fill:#DEDDDD;}
	.st3{fill:#6A6A6A;}
	.st4{fill:#FAE9E2;}
	.st5{fill:#ECECEC;}
	.st6{fill:#EFBBA6;}
	.st7{fill:#D23829;}
	.st8{fill:none;stroke:#0E0D0E;stroke-width:2;stroke-linejoin:round;}
	.st9{fill:#0E0D0E;}
	.st10{fill:none;stroke:#0E0D0E;stroke-linejoin:round;}
	.st11{fill:none;stroke:#0E0D0E;stroke-width:2;stroke-miterlimit:10;}
</style>
<path class="st0" d="M271.14,131.57c0,0,32.36-4.75,35.7-9.44c3.34-4.69-2.85-3.65-3.52-2.42"/>
<path class="st0" d="M270.96,135.24c0,0,64.99-12.69,66.17-12.69c2.99,0,7.02,4.22-1.76,6.35c-9.44,2.29-64.52,10.25-64.52,10.25"/>
<path class="st0" d="M107.14,203.5c0,0,10.04-8.75,13.33-8.32c3.3,0.43,4.01,5.74,3.3,8.32c-0.71,2.58-11.18,15.91-13.76,15.77
	C107.42,219.13,105.83,204.6,107.14,203.5z"/>
<path class="st0" d="M114.02,184.58c0,0-9.03-1-14.91,2.15c-5.88,3.15-13.19,4.59-13.05,9.46c0.14,4.88,2.29,12.04,5.45,12.33
	c3.15,0.29,24.09-14.2,24.8-16.92C117.03,188.88,116.03,184.71,114.02,184.58z"/>
<path class="st1" d="M107.91,180.22c0,0-25.02,14.23-30.51,16.25c-5.5,2.02-12.77-8.56-12.06-12.05
	c0.71-3.49,23.24-13.07,32.11-11.12c8.87,1.95,10.47,1.95,10.47,1.95l3.72-1.24c0,0,166.05-52.69,169.07-53.04
	c3.02-0.35,3.19,2.48,2.84,3.02C283.18,124.52,107.91,180.22,107.91,180.22z"/>
<g>
	<path class="st2" d="M163.09,166.64v11.68h153.85v-11.68H163.09z M297.91,171.2c-0.02-2.66,2.7-4.35,5.08-3.16
		c1.12,0.56,1.86,1.76,1.87,3c0.02,2.66-2.7,4.35-5.08,3.16C298.66,173.64,297.91,172.45,297.91,171.2z M278.74,171.2
		c-0.02-2.66,2.7-4.35,5.08-3.16c1.12,0.56,1.86,1.76,1.87,3c0.02,2.66-2.7,4.35-5.08,3.16C279.5,173.64,278.75,172.45,278.74,171.2
		z M259.58,171.2c-0.02-2.66,2.7-4.35,5.08-3.16c1.12,0.56,1.86,1.76,1.87,3c0.02,2.66-2.7,4.35-5.08,3.16
		C260.33,173.64,259.59,172.45,259.58,171.2z M240.82,171.2c-0.02-2.66,2.7-4.35,5.08-3.16c1.12,0.56,1.86,1.76,1.87,3
		c0.02,2.66-2.7,4.35-5.07,3.16C241.58,173.64,240.84,172.45,240.82,171.2z M220.67,171.2c-0.02-2.66,2.7-4.35,5.08-3.16
		c1.12,0.56,1.86,1.76,1.87,3c0.02,2.66-2.7,4.35-5.07,3.16C221.42,173.64,220.68,172.45,220.67,171.2z M202.68,170.72
		c-0.02-2.66,2.7-4.35,5.08-3.16c1.12,0.56,1.86,1.76,1.87,3c0.02,2.66-2.7,4.35-5.08,3.16
		C203.43,173.16,202.69,171.97,202.68,170.72z M183.53,171.2c-0.02-2.66,2.7-4.35,5.08-3.16c1.12,0.56,1.86,1.76,1.87,3
		c0.02,2.66-2.7,4.35-5.08,3.16C184.28,173.64,183.54,172.45,183.53,171.2z"/>
	<g>
		<path class="st2" d="M316.93,166.14l-153.85-0.09v-2.61h12.66c0,0,0.69,1.26,3.47,1.35c2.78,0.08,3.79-1.35,3.79-1.35h9.87
			c0,0-0.56,1.43,2.45,1.35c3.01-0.08,2.92-0.93,3.01-1.35h86.4c0,0,0.76,1.94,4.8,1.77c4.04-0.17,5.31-1.77,5.31-1.77h22.09V166.14
			z"/>
	</g>
</g>
<g>
	<path class="st3" d="M307.51,178.62c0.67,0,1.38-0.06,2.14-0.21c3.24-0.61,6.52-1.81,9.42-2.87c3.1-1.13,5.78-2.11,7.59-2.11
		c1.48,0,3.02,0.69,4.8,1.49c2.42,1.09,5.43,2.44,9.63,2.71c7.43,0.49,10.77-2.31,10.9-2.43l-0.95-1.1
		c-0.03,0.02-3.06,2.52-9.86,2.08c-3.94-0.25-6.7-1.49-9.13-2.59c-1.94-0.87-3.61-1.62-5.4-1.62c-2.07,0-4.86,1.02-8.09,2.2
		c-2.84,1.04-6.06,2.21-9.19,2.81c-3.71,0.7-5.95-0.7-8.31-2.18c-1.61-1.01-3.27-2.05-5.38-2.35c-3.01-0.42-5.34,0.6-8.04,1.8
		c-1.99,0.88-4.23,1.87-7.19,2.49c-4.36,0.92-7.32-1.02-9.92-2.73c-1.37-0.9-2.67-1.75-4-2.01c-3.17-0.63-9.34,1.63-14.29,3.44
		c-0.87,0.32-1.69,0.62-2.44,0.88c-4.68,1.66-11.05-2.17-15.27-4.7c-3.12-1.87-5.77-0.58-9.13,1.05c-2.25,1.09-4.81,2.33-8.21,3.07
		c-5.29,1.14-7.01,0.31-9.4-0.83c-1.41-0.68-3.02-1.44-5.58-1.96c-4.02-0.81-7.24,0.21-10.35,1.2c-2.43,0.77-4.94,1.57-7.93,1.57
		c-5.32,0-5.77-0.38-7.12-1.49c-0.4-0.33-0.87-0.71-1.51-1.16c-2.71-1.88-6.91-0.95-11.77,0.13c-1.05,0.23-2.13,0.47-3.22,0.69
		c-1.33,0.26-2.5,0.58-3.63,0.88c-3.89,1.04-6.7,1.78-11.37-0.8c-5.12-2.83-5.79-3.44-5.85-3.5l-0.51,0.49l-0.59-0.58l-0.2,0.62
		c0.06,0.4,0.11,0.75,6.44,4.24c5.18,2.86,8.39,2.01,12.45,0.93c1.11-0.3,2.25-0.6,3.54-0.85c1.11-0.22,2.19-0.46,3.25-0.69
		c4.53-1.01,8.44-1.88,10.62-0.36c0.6,0.42,1.04,0.78,1.41,1.09c1.67,1.39,2.47,1.83,8.04,1.83c3.22,0,5.84-0.83,8.37-1.64
		c3.07-0.97,5.96-1.9,9.62-1.16c2.39,0.48,3.91,1.2,5.25,1.84c2.55,1.22,4.57,2.18,10.34,0.93c3.57-0.77,6.33-2.11,8.54-3.18
		c3.19-1.55,5.3-2.58,7.75-1.11c4.45,2.67,11.18,6.71,16.5,4.83c0.76-0.27,1.59-0.57,2.46-0.89c4.53-1.66,10.73-3.94,13.51-3.38
		c1.05,0.21,2.17,0.95,3.48,1.81c2.7,1.77,6.06,3.98,11.02,2.94c3.1-0.65,5.43-1.67,7.48-2.58c2.61-1.15,4.67-2.06,7.26-1.69
		c1.8,0.26,3.26,1.17,4.8,2.14C302.26,177.26,304.43,178.62,307.51,178.62z"/>
</g>
<path class="st4" d="M179.53,157.24h3.19c0,0,1.06,5.74,5.11,5.74s4.89-4.47,4.89-4.47l7.44,0.43c-0.21,1.28,2.13,3.83,5.75,2.55
	c3.62-1.28,3.19-3.4,3.19-3.4s3.83,0.21,5.32-2.77c1.49-2.98-3.83-3.4-3.83-3.4l-0.64-6.17h-8.51c0,0,22.34-26.59,27.44-30
	c3.05-2.03,0,4.89,3.83,27.65c1.53,9.13,2.34,18.3,2.34,18.3c-0.85,2.55-0.64,2.98,4.89,1.06c5.53-1.91,22.13-21.06,22.13-23.83
	c0-2.77-20,6.17-20,6.17s0.64-32.12,1.7-33.19c1.06-1.06,27.87,4.47,30.42,4.47c2.55,0,5.53,2.77,8.3,2.13
	c2.77-0.64,4.89,5.32,6.38,5.32c1.49,0,1.92-4.68,0-6.81c-1.92-2.13-6.81-3.19-7.66-3.19c-0.85,0-17.02-8.93-18.3-10.21
	c-1.28-1.28-13.62-1.7-15.32-2.13c-1.7-0.43-11.49-2.98-12.55-3.83c-1.06-0.85-13.61-6.6-14.25-6.81c-0.64-0.21-3.83-3.19-3.83-3.19
	l2.77-3.2c0,0,5.32,0.85,8.3,0c2.98-0.85,1.7-5.74,1.7-5.74h2.34l-1.28-5.53c0,0,0,0,0.21-2.98c0.21-2.98-2.55-13.62-14.89-12.76
	c-12.34,0.85-8.72,17.87-8.72,19.15c0,1.28-4.47,6.17-4.47,6.17c-5.74,0-10.21,8.3-10.21,8.3c-8.72,12.13-9.15,19.15-9.15,38.08
	c0,12.87,1.97,15.71,3.22,16.21l-3.86,0.17l-2.13,7.23C176.34,152.78,179.53,157.24,179.53,157.24z M217.44,101.38l4.31,1.23
	l-4.31,4.15V101.38z"/>
<path class="st4" d="M198.18,86.02c0,0,4.89-3.57,6.42-3.36c1.53,0.2,1.42,1.63,0.92,2.04c-0.51,0.41-2.52-0.2-3.5,3.97
	c-0.99,4.18,0.34,5.7,2.17,7.03c1.83,1.32,5.5,3.26,6.01,3.36c0.51,0.1,6.32,1.83,6.32,1.83l1.22,1.73l-0.92,3.36
	c0,0-13.55,11.72-14.36,11.72c-0.82,0-2.85-2.85-6.22-3.26c-3.36-0.41-7.24,3.36-8.15,4.89c-0.92,1.53-3.2,6.72-3.54,7.03
	c-0.33,0.31,1.3-17.84,2.01-21.86C187.27,100.49,196.14,86.64,198.18,86.02z"/>
<path class="st4" d="M217.74,91.73c0,0-4.59-7.44-10.14-6.52c-5.55,0.92-4.84,5.09-4.33,7.03c0.51,1.94,6.32,6.62,13.96,7.34
	c0,0,9.58,4.38,15.59,5.81c0,0,8.66,5.71,21.7,7.95c13.04,2.24,20.99,2.04,20.99,2.04s1.53,2.65,3.67,2.65
	c2.14,0,3.67-1.53,6.11-0.61c2.44,0.92,2.44,4.99,2.75,6.11c0.31,1.12,3.77-1.53,1.84-5.3c-1.94-3.77-12.13-4.99-12.13-4.99
	s-17.02-10.29-24.66-10.39c-7.64-0.1-10.09-3.57-14.57-3.97C234.04,98.46,217.74,91.73,217.74,91.73z"/>
<path class="st4" d="M185.86,129.8c0,0,2.21-20.37,15.95-10.47c0,0,16.53-13.92,22.35-14.87l19.09,8.01c0,0-0.93,11.76-1.75,17.34
	c-0.81,5.59-1.51,16.88-0.11,17.69c1.4,0.82,17.34-8.26,18.97-7.33c1.63,0.93-17.92,22-21.3,22c-3.38,0-3.14,2.09-3.26-1.4
	c-0.12-3.49-0.46-16.3-0.46-17.58s-2.68-5-4.07-11.41c-1.39-6.4,0.47-11.99,0.35-13.62c-0.12-1.63-3.84-2.45-3.84-2.45
	s-24.44,28.05-27.35,28.98c-2.91,0.93-8.84,1.28-10.82,1.28c-1.98,0-3.72-3.26-3.72-3.26S185.21,137.15,185.86,129.8z"/>
<g>
	<g>
		<g>
			<path class="st5" d="M183.62,151.14h25.58c0.45,0,0.81-0.36,0.81-0.81v-3.37c0-0.45-0.36-0.81-0.81-0.81h-25.58
				c-0.45,0-0.81,0.36-0.81,0.81v3.37C182.81,150.78,183.17,151.14,183.62,151.14z"/>
			<g>
				<path class="st5" d="M200.09,158.4c0,2.36,1.79,4.27,3.99,4.27c2.2,0,3.99-1.91,3.99-4.27c0-2.36-1.79-4.27-3.99-4.27
					C201.88,154.13,200.09,156.05,200.09,158.4z M201.62,158.44c0-1.37,1.11-2.48,2.48-2.48c1.37,0,2.48,1.11,2.48,2.48
					c0,1.37-1.11,2.48-2.48,2.48C202.72,160.92,201.62,159.81,201.62,158.44z"/>
				<path class="st5" d="M204.12,157.18c0.71,0,1.29,0.58,1.29,1.29c0,0.71-0.58,1.29-1.29,1.29c-0.71,0-1.29-0.58-1.29-1.29
					C202.83,157.76,203.41,157.18,204.12,157.18z"/>
			</g>
			<g>
				<path class="st5" d="M184.08,158.4c0,2.36,1.78,4.27,3.99,4.27c2.2,0,3.99-1.91,3.99-4.27c0-2.36-1.78-4.27-3.99-4.27
					C185.87,154.13,184.08,156.05,184.08,158.4z M185.61,158.44c0-1.37,1.11-2.48,2.48-2.48c1.37,0,2.48,1.11,2.48,2.48
					c0,1.37-1.11,2.48-2.48,2.48C186.72,160.92,185.61,159.81,185.61,158.44z"/>
				<path class="st5" d="M188.11,157.18c0.71,0,1.29,0.58,1.29,1.29c0,0.71-0.58,1.29-1.29,1.29c-0.71,0-1.29-0.58-1.29-1.29
					C186.83,157.76,187.4,157.18,188.11,157.18z"/>
			</g>
			
				<rect x="193" y="157.62" transform="matrix(-1 -1.224647e-16 1.224647e-16 -1 392.1491 316.908)" class="st5" width="6.15" height="1.66"/>
			<path class="st5" d="M214.05,155.96h-5.76c0,0-0.61-2.77-3.88-2.82c-3.27-0.05-4.32,2.82-4.32,2.82h-7.75
				c0,0-0.56-2.88-4.27-2.82c-3.71,0.06-3.99,2.82-3.99,2.82h-4.38v-2.83h3.55v-1.55h27.92v1.61h2.88V155.96z"/>
		</g>
	</g>
</g>
<path class="st6" d="M208.14,158.11h3.19c0,0,1.06,5.74,5.1,5.74c4.04,0,4.89-4.47,4.89-4.47l7.44,0.43
	c-0.21,1.28,2.13,3.83,5.75,2.55c3.62-1.28,3.19-3.4,3.19-3.4s3.83,0.21,5.32-2.77c1.49-2.98-3.83-3.4-3.83-3.4l-0.64-6.17h-8.51
	c0,0,22.34-26.59,27.44-30c3.05-2.03,0,4.89,3.83,27.66c1.53,9.13,2.34,18.3,2.34,18.3c-0.85,2.55-0.64,2.98,4.89,1.06
	c5.53-1.91,22.13-21.06,22.13-23.83c0-2.76-20,6.17-20,6.17s0.64-32.12,1.7-33.19c1.07-1.07,27.87,4.47,30.42,4.47
	c2.55,0,5.53,2.77,8.3,2.13c2.77-0.64,4.89,5.32,6.38,5.32c1.49,0,1.91-4.68,0-6.81c-1.92-2.13-6.81-3.19-7.66-3.19
	s-17.02-8.93-18.3-10.21c-1.28-1.28-13.62-1.7-15.32-2.13c-1.7-0.43-11.49-2.98-12.55-3.83c-1.06-0.85-13.61-6.6-14.25-6.81
	c-0.64-0.21-3.83-3.19-3.83-3.19l2.77-3.2c0,0,5.32,0.85,8.3,0c2.98-0.85,1.7-5.74,1.7-5.74h2.34l-1.28-5.53c0,0,0,0,0.21-2.98
	c0.21-2.98-2.55-13.62-14.89-12.77c-12.34,0.85-8.72,17.87-8.72,19.15c0,1.28-4.47,6.17-4.47,6.17c-5.74,0-10.21,8.3-10.21,8.3
	c-8.72,12.13-9.15,19.15-9.15,38.08c0,12.87,1.97,15.71,3.22,16.21l-3.86,0.17l-2.13,7.23
	C204.95,153.64,208.14,158.11,208.14,158.11z M246.05,102.25l4.31,1.23l-4.31,4.15V102.25z"/>
<path class="st6" d="M226.78,86.89c0,0,4.89-3.57,6.42-3.36c1.53,0.2,1.43,1.63,0.92,2.04c-0.51,0.41-2.52-0.2-3.5,3.97
	c-0.99,4.18,0.34,5.7,2.17,7.03c1.83,1.33,5.5,3.26,6.01,3.36c0.51,0.1,6.32,1.83,6.32,1.83l1.22,1.73l-0.92,3.36
	c0,0-13.55,11.72-14.37,11.72c-0.81,0-2.85-2.85-6.21-3.26c-3.36-0.41-7.23,3.36-8.15,4.89c-0.92,1.53-3.2,6.72-3.54,7.03
	c-0.34,0.31,1.29-17.84,2.01-21.86C215.88,101.36,224.74,87.5,226.78,86.89z"/>
<path class="st6" d="M246.34,92.6c0,0-4.59-7.44-10.14-6.52c-5.55,0.92-4.84,5.09-4.33,7.03c0.51,1.94,6.32,6.62,13.96,7.34
	c0,0,9.58,4.38,15.59,5.81c0,0,8.66,5.71,21.7,7.95c13.04,2.24,20.99,2.04,20.99,2.04s1.53,2.65,3.67,2.65
	c2.14,0,3.67-1.53,6.11-0.61c2.45,0.92,2.45,4.99,2.75,6.11c0.31,1.12,3.77-1.53,1.84-5.3c-1.94-3.77-12.13-4.99-12.13-4.99
	s-17.02-10.29-24.66-10.39c-7.64-0.1-10.09-3.57-14.57-3.97C262.64,99.32,246.34,92.6,246.34,92.6z"/>
<path class="st6" d="M214.46,130.67c0,0,2.21-20.37,15.95-10.47c0,0,16.53-13.92,22.35-14.87l19.09,8.01c0,0-0.93,11.76-1.75,17.34
	c-0.81,5.59-1.51,16.88-0.11,17.69c1.4,0.82,17.34-8.26,18.97-7.33c1.63,0.93-17.92,22-21.3,22c-3.38,0-3.14,2.09-3.26-1.4
	c-0.12-3.49-0.46-16.3-0.46-17.58s-2.68-5-4.08-11.41c-1.4-6.4,0.47-11.99,0.35-13.62c-0.12-1.63-3.84-2.44-3.84-2.44
	s-24.44,28.05-27.35,28.98c-2.91,0.93-8.84,1.28-10.82,1.28c-1.98,0-3.72-3.26-3.72-3.26S213.81,138.02,214.46,130.67z"/>
<g>
	<g>
		<g>
			<path class="st5" d="M212.22,152.01h25.58c0.45,0,0.81-0.36,0.81-0.81v-3.37c0-0.45-0.36-0.81-0.81-0.81h-25.58
				c-0.45,0-0.81,0.36-0.81,0.81v3.36C211.41,151.65,211.78,152.01,212.22,152.01z"/>
			<g>
				<path class="st5" d="M228.7,159.27c0,2.36,1.79,4.27,3.99,4.27c2.2,0,3.99-1.91,3.99-4.27c0-2.36-1.79-4.27-3.99-4.27
					C230.48,155,228.7,156.91,228.7,159.27z M230.22,159.31c0-1.37,1.11-2.48,2.48-2.48c1.37,0,2.48,1.11,2.48,2.48
					c0,1.37-1.11,2.48-2.48,2.48C231.33,161.79,230.22,160.68,230.22,159.31z"/>
				<path class="st5" d="M232.73,158.05c0.71,0,1.29,0.58,1.29,1.29c0,0.71-0.58,1.29-1.29,1.29c-0.71,0-1.29-0.58-1.29-1.29
					C231.44,158.62,232.01,158.05,232.73,158.05z"/>
			</g>
			<g>
				<path class="st5" d="M212.69,159.27c0,2.36,1.78,4.27,3.99,4.27c2.2,0,3.99-1.91,3.99-4.27c0-2.36-1.78-4.27-3.99-4.27
					C214.47,155,212.69,156.91,212.69,159.27z M214.21,159.31c0-1.37,1.11-2.48,2.48-2.48c1.37,0,2.48,1.11,2.48,2.48
					c0,1.37-1.11,2.48-2.48,2.48C215.32,161.79,214.21,160.68,214.21,159.31z"/>
				<path class="st5" d="M216.72,158.05c0.71,0,1.29,0.58,1.29,1.29c0,0.71-0.58,1.29-1.29,1.29c-0.71,0-1.29-0.58-1.29-1.29
					C215.43,158.62,216.01,158.05,216.72,158.05z"/>
			</g>
			
				<rect x="221.6" y="158.49" transform="matrix(-1 -1.224647e-16 1.224647e-16 -1 449.3593 318.6441)" class="st5" width="6.15" height="1.66"/>
			<path class="st5" d="M242.65,156.83h-5.76c0,0-0.61-2.77-3.88-2.82c-3.27-0.06-4.32,2.82-4.32,2.82h-7.76
				c0,0-0.55-2.88-4.26-2.83c-3.71,0.06-3.99,2.83-3.99,2.83h-4.38V154h3.55v-1.55h27.92v1.61h2.88V156.83z"/>
		</g>
	</g>
</g>
<path class="st7" d="M232.54,160.93h3.19c0,0,1.06,5.74,5.1,5.74c4.04,0,4.89-4.47,4.89-4.47l7.44,0.43
	c-0.21,1.28,2.13,3.83,5.75,2.55c3.62-1.28,3.19-3.4,3.19-3.4s3.83,0.21,5.32-2.77c1.49-2.98-3.83-3.4-3.83-3.4l-0.64-6.17h-8.51
	c0,0,22.34-26.59,27.44-30c3.05-2.03,0,4.89,3.83,27.66c1.53,9.12,2.34,18.3,2.34,18.3c-0.85,2.55-0.64,2.98,4.89,1.06
	c5.53-1.91,22.13-21.06,22.13-23.83c0-2.76-20,6.17-20,6.17s0.64-32.12,1.7-33.19c1.07-1.06,27.87,4.47,30.42,4.47
	c2.55,0,5.53,2.77,8.3,2.13c2.77-0.64,4.89,5.32,6.38,5.32c1.49,0,1.92-4.68,0-6.81c-1.92-2.13-6.81-3.19-7.66-3.19
	s-17.02-8.94-18.3-10.21c-1.28-1.28-13.62-1.7-15.32-2.13c-1.7-0.43-11.49-2.98-12.55-3.83c-1.06-0.85-13.61-6.6-14.25-6.81
	c-0.64-0.21-3.83-3.18-3.83-3.18l2.77-3.2c0,0,5.32,0.85,8.3,0c2.98-0.85,1.7-5.74,1.7-5.74h2.34l-1.28-5.53c0,0,0,0,0.21-2.98
	c0.21-2.98-2.55-13.62-14.89-12.77c-12.34,0.85-8.72,17.87-8.72,19.15c0,1.28-4.47,6.17-4.47,6.17c-5.74,0-10.21,8.3-10.21,8.3
	c-8.72,12.13-9.15,19.15-9.15,38.08c0,12.87,1.97,15.71,3.22,16.21l-3.86,0.17l-2.13,7.23
	C229.35,156.46,232.54,160.93,232.54,160.93z M270.45,105.07l4.31,1.23l-4.31,4.15V105.07z"/>
<path class="st7" d="M251.18,89.71c0,0,4.89-3.57,6.42-3.36c1.53,0.2,1.42,1.63,0.92,2.04c-0.51,0.41-2.52-0.2-3.5,3.97
	c-0.99,4.18,0.34,5.7,2.17,7.03c1.83,1.33,5.5,3.26,6.01,3.36c0.51,0.1,6.32,1.83,6.32,1.83l1.22,1.73l-0.92,3.36
	c0,0-13.55,11.72-14.37,11.72s-2.85-2.85-6.21-3.26c-3.36-0.41-7.23,3.36-8.15,4.89c-0.92,1.53-3.2,6.72-3.54,7.03
	c-0.34,0.3,1.3-17.84,2.01-21.86C240.28,104.18,249.15,90.32,251.18,89.71z"/>
<path class="st7" d="M270.75,95.42c0,0-4.59-7.44-10.14-6.52c-5.55,0.92-4.84,5.09-4.33,7.03c0.51,1.93,6.32,6.62,13.96,7.34
	c0,0,9.58,4.38,15.59,5.81c0,0,8.66,5.71,21.7,7.95c13.04,2.24,20.99,2.04,20.99,2.04s1.53,2.65,3.67,2.65
	c2.14,0,3.67-1.53,6.11-0.61c2.45,0.92,2.45,4.99,2.75,6.11c0.31,1.12,3.77-1.53,1.84-5.3c-1.94-3.77-12.13-4.99-12.13-4.99
	s-17.02-10.29-24.66-10.39c-7.64-0.1-10.09-3.57-14.57-3.97C287.05,102.14,270.75,95.42,270.75,95.42z"/>
<path class="st7" d="M238.87,133.49c0,0,2.21-20.37,15.95-10.47c0,0,16.53-13.92,22.35-14.87l19.09,8.01c0,0-0.93,11.75-1.75,17.34
	c-0.81,5.59-1.51,16.88-0.11,17.69c1.4,0.82,17.34-8.26,18.97-7.33c1.63,0.93-17.92,22-21.3,22c-3.38,0-3.14,2.09-3.26-1.4
	c-0.12-3.49-0.46-16.29-0.46-17.57c0-1.28-2.68-5-4.08-11.41c-1.4-6.4,0.47-11.99,0.35-13.62c-0.12-1.63-3.84-2.44-3.84-2.44
	s-24.44,28.05-27.35,28.98c-2.91,0.93-8.84,1.28-10.82,1.28c-1.98,0-3.73-3.26-3.73-3.26S238.22,140.84,238.87,133.49z"/>
<g>
	<g>
		<g>
			<path class="st2" d="M236.63,154.83h25.58c0.45,0,0.81-0.36,0.81-0.81v-3.37c0-0.45-0.36-0.81-0.81-0.81h-25.58
				c-0.45,0-0.81,0.36-0.81,0.81v3.37C235.82,154.47,236.18,154.83,236.63,154.83z"/>
			<g>
				<path class="st2" d="M253.1,162.09c0,2.36,1.79,4.27,3.99,4.27c2.2,0,3.99-1.91,3.99-4.27c0-2.36-1.79-4.27-3.99-4.27
					C254.89,157.82,253.1,159.73,253.1,162.09z M254.62,162.13c0-1.37,1.11-2.48,2.48-2.48c1.37,0,2.48,1.11,2.48,2.48
					c0,1.37-1.11,2.48-2.48,2.48C255.73,164.61,254.62,163.5,254.62,162.13z"/>
				<path class="st2" d="M257.13,160.87c0.71,0,1.29,0.58,1.29,1.29c0,0.71-0.58,1.29-1.29,1.29c-0.71,0-1.29-0.58-1.29-1.29
					C255.84,161.44,256.42,160.87,257.13,160.87z"/>
			</g>
			<g>
				<path class="st2" d="M237.09,162.09c0,2.36,1.78,4.27,3.99,4.27s3.99-1.91,3.99-4.27c0-2.36-1.78-4.27-3.99-4.27
					S237.09,159.73,237.09,162.09z M238.61,162.13c0-1.37,1.11-2.48,2.48-2.48c1.37,0,2.48,1.11,2.48,2.48
					c0,1.37-1.11,2.48-2.48,2.48C239.72,164.61,238.61,163.5,238.61,162.13z"/>
				<path class="st2" d="M241.12,160.87c0.71,0,1.29,0.58,1.29,1.29c0,0.71-0.58,1.29-1.29,1.29c-0.71,0-1.29-0.58-1.29-1.29
					C239.84,161.44,240.41,160.87,241.12,160.87z"/>
			</g>
			
				<rect x="246.01" y="161.31" transform="matrix(-1 -1.224647e-16 1.224647e-16 -1 498.1668 324.2846)" class="st2" width="6.15" height="1.66"/>
			<path class="st2" d="M267.06,159.65h-5.76c0,0-0.61-2.77-3.88-2.82c-3.27-0.06-4.32,2.82-4.32,2.82h-7.76
				c0,0-0.55-2.88-4.26-2.83c-3.71,0.06-3.99,2.83-3.99,2.83h-4.38v-2.83h3.55v-1.55h27.92v1.61h2.88V159.65z"/>
		</g>
	</g>
</g>
<g>
	<g>
		<line class="st8" x1="200.08" y1="94.37" x2="242.38" y2="94.37"/>
		<g>
			<polygon class="st9" points="241.51,97.36 246.69,94.37 241.51,91.37 			"/>
		</g>
	</g>
</g>
<g>
	<g>
		<path class="st10" d="M346.39,97.75c1.07,4.05,3.13,13.53,2.18,23.96"/>
		<g>
			<polygon class="st9" points="345.05,98.58 345.79,95.68 347.93,97.77 			"/>
		</g>
	</g>
</g>
<g>
	<g>
		<path class="st11" d="M68.87,164.83c0,0-27.82,7.44-14.02,33.3c10.34,19.37,26.95,26.75,34.64,29.23"/>
		<g>
			<polygon class="st9" points="87.84,229.95 93.64,228.48 89.47,224.2 			"/>
		</g>
	</g>
</g>
<path class="st0" d="M86.06,172.47c0,0-7.5-9.67,27.26-10.69c0,0,0.24-13.36,38.46-9.14"/>
<path class="st0" d="M147.99,161.79c0,0-35.52,6.87-29.42,3.05c6.1-3.83,63.83-17.47,63.83-17.47"/>
</svg>
