<?xml version="1.0" encoding="utf-8"?>
<!-- Generator: Adobe Illustrator 27.5.0, SVG Export Plug-In . SVG Version: 6.00 Build 0)  -->
<svg version="1.1" id="Capa_1" xmlns="http://www.w3.org/2000/svg" xmlns:xlink="http://www.w3.org/1999/xlink" x="0px" y="0px"
	 viewBox="0 0 409 274" style="enable-background:new 0 0 409 274;" xml:space="preserve">
<style type="text/css">
	.st0{fill:#EFBBA6;stroke:#EFBBA6;stroke-width:0.25;stroke-miterlimit:10;}
	.st1{fill:#FAE9E2;}
	.st2{fill:#DDDBDC;}
	.st3{fill:#E6EBF4;}
	.st4{fill:#D23829;}
	.st5{fill:#DEDDDD;}
	.st6{fill:#6A6A6A;}
	.st7{fill:#FFFFFF;}
	.st8{fill:none;stroke:#B7B6B6;stroke-width:0.25;stroke-miterlimit:10;}
	.st9{fill:#1D1D1B;}
	.st10{fill:#FFFFFF;stroke:#1D1D1B;stroke-width:0.25;stroke-miterlimit:10;}
	.st11{fill:none;stroke:#0E0D0E;stroke-width:2;stroke-linecap:square;stroke-miterlimit:10;}
	.st12{fill:#0E0D0E;}
	.st13{fill:none;stroke:#0E0D0E;stroke-width:2;stroke-linejoin:round;}
	.st14{fill:none;stroke:#D23829;stroke-width:0.25;stroke-miterlimit:10;}
</style>
<g>
	<path class="st0" d="M178.42,118.87l12.79-0.47c0,0,1.25-27.02,9.18-34.81c7.91-7.79,9.15-7.54,9.15-7.54l3.8-5.53
		c0,0-3.52-6.66,0-12.07c3.52-5.41,11.88-5.03,16.12-2.01s5.62,8.55,5.88,13.7l1.76,3.39h-2.01c0,0-0.88,4.09-2.64,5.62
		s-7.99,0-7.99,0l-2.17,3.04c0,0,1.36,1.13,1.23,2.26c-0.12,1.13,10.56,1.63,14.08,6.28c0,0,9.04-0.75,13.2,4.15
		c0,0,10.7,0.59,14.27,3c3.57,2.4,15.26,7.43,15.26,7.43s7.29,0.95,9.93,3.99c2.64,3.04,2.53,7.7-1.28,8.33
		c-3.82,0.63-9.25,0.24-10.46-4.65s-1.21-3.67-1.21-3.67s-0.75-0.28-7.79-0.19c-7.04,0.09-20.2-5.19-20.2-5.19s-0.04-1.39-0.79,2.76
		c-0.75,4.15-4.42,31.5-4.42,31.5l-11.8,8.38h-13.95c0,0-0.11,6.76-5.15,5.74c-5.04-1.03-4.9-2.12-5.53-4.69s-8.17-1.57-8.17-1.57
		s0.74,6.35-4.65,6.94s-6.53-3.25-6.27-7.74s0,0,0,0l1.12-7.06c0,0-5.82,0.51-11.16,0.98"/>
</g>
<g>
	<path class="st1" d="M204.93,140.87c0,0-17.28,1.51-19.57,1.72c-2.29,0.22-11.97-0.79-11.97-0.79l-11.59,8l-4.97-0.56
		c0,0,1.9,6.42-4.1,6.42c-6,0-5.23-1.91-5.43-5.37c0,0-3.97,0.39-3.34-2.6c0.63-2.99,4.02-2.55,4.02-2.55l0.38-5.44l3.65-0.64
		c0,0-7.17-6.7-8.11-7.63c-0.94-0.93-10.49-12.37-11.75-13.88s-4.15,0.88-12.95,0.38c-8.8-0.5-1.96-9.51-1.99-11.6
		c-0.03-2.1,3.27-10.14,8.16-14.29c0,0,0.24-0.25-1.27-2.52c-1.51-2.26,0.25-7.3,4.78-10.19c4.52-2.88,6.66-7.91,6.28-10.04
		c-0.38-2.14-3.14-6.29-0.38-14.02s18.6-1.19,19.73,2.7c1.13,3.89,1.5,8.79,1.5,8.79s0.94,2.5,1.69,3.24l-2.56,0.88
		c0,0-0.07,4.82-1.35,5.95c-1.28,1.13-6.48,0.66-6.48,0.66v3.93c0,0,10.27,9.75,8.65,19.79h8.44l19.85,20.66l22.19-0.81"/>
	<path class="st1" d="M154.94,65.28c0,0-0.53,1.75,0,2.82s1.44,1.83,1.44,1.83l-2.66,0.76c0,0,0.23,4.95-1.44,5.47
		c-1.68,0.53-8.21-0.38-12.16-3.65c-3.96-3.27-6.16-7.9-5.93-11.25c0.23-3.34,3.72-8.97,8.06-8.89c4.33,0.08,9.73,2.51,11.1,5.85
		C154.72,61.56,155.18,63.53,154.94,65.28z"/>
	<path class="st1" d="M137.38,71.87c0,0-0.99-1.87-1.37-1.26c-0.38,0.61-0.38,3.27-1.22,4.18c-0.84,0.91-1.29,2.05-1.29,2.05
		s6.09-1.74,7.98,0c1.9,1.74,4.71,3.34,4.71,3.34l0.38-3.34C146.59,76.84,139.74,74.03,137.38,71.87z"/>
	<path class="st1" d="M135.53,80.19c0,0-0.1-5.95,8.3,0c8.4,5.95,11.15,18.01,10.83,19.71c0,0-2.63,1.06-11.88,1.69
		c-9.25,0.63-10.41,2.32-10.41,2.32s6.73-9.68,7.15-15.14c0.42-5.46-0.73-6.18-1.69-7.19C136.9,80.55,135.53,80.19,135.53,80.19z"/>
	<path class="st1" d="M125.39,89.17c0,0-2.47-8.31,5.2-8.99c7.67-0.68,8.3,6.84,7.05,10.54c-1.25,3.7-8.09,12.44-8.09,12.44
		l-11.46,4.03c0,0,0.74-10.35,7.99-15.5L125.39,89.17z"/>
	<path class="st1" d="M116.81,109.88c0,0,0.21-5.13,31.65-6.72l6.23-0.42c0,0,5.2-0.84,6.43,0c1.22,0.84,0,1.79,0,1.79
		s-3.42-1.28-4.72,0.57c-1.31,1.86-1.31,1.86-1.31,1.86s-1.69-1.85-2.94-0.82c-1.26,1.03-17.03,7.79-17.03,7.79s1.56,0.08-7,2.07
		c-8.56,2-9.31,1.52-10.77,0C114.3,112.81,116.81,109.88,116.81,109.88z"/>
	<path class="st1" d="M161.66,113.91l-0.55,5.79c0,0-5.5-2.76-10.76-1.29c-5.26,1.47-7.89,8.55-7.89,8.55s-8.4-6.4-8.96-9.28
		c-0.56-2.88,19.48-11.37,20.53-10.47C155.08,108.09,157.47,112.58,161.66,113.91z"/>
	<path class="st1" d="M161.66,121.03c0,0-6.78-2.94-10.25-1.79c-3.47,1.16-6.42,5.84-6.93,7.71c-0.53,1.87,0,4.48,0,4.48l9.56,7.63
		h12.13c0,0-3.53-2.88-4.36-8.56C160.97,124.82,161.66,121.03,161.66,121.03z"/>
</g>
<path class="st1" d="M194.2,134.74c0,0-4.37,1.16-5.55,2.6c-1.19,1.44-0.84,2.29,0.66,2.47s10.49-0.01,10.93-0.27
	c0.44-0.25,1.41-0.43,1.41-0.43L194.2,134.74z"/>
<path class="st1" d="M154.42,63.94c0,0-0.54,1.75,0,2.82c0.54,1.06,1.44,1.83,1.44,1.83l-2.67,0.76c0,0,0.23,4.95-1.44,5.47
	s-8.21-0.38-12.16-3.65c-3.96-3.27-6.15-7.9-5.93-11.25c0.23-3.34,3.72-8.97,8.06-8.89c4.33,0.08,9.73,2.51,11.1,5.85
	C154.18,60.22,154.64,62.2,154.42,63.94z"/>
<path class="st1" d="M136.85,70.53c0,0-0.99-1.87-1.37-1.26c-0.38,0.61-0.38,3.27-1.22,4.18c-0.84,0.91-1.29,2.05-1.29,2.05
	s6.08-1.74,7.98,0c1.9,1.74,4.71,3.34,4.71,3.34l0.38-3.34C146.05,75.5,139.21,72.71,136.85,70.53z"/>
<path class="st1" d="M135,78.85c0,0-0.1-5.95,8.3,0c8.41,5.95,11.15,18.01,10.83,19.71c0,0-2.63,1.06-11.88,1.69
	c-9.25,0.63-10.41,2.32-10.41,2.32s6.73-9.68,7.15-15.14c0.42-5.46-0.73-6.18-1.69-7.19C136.36,79.22,135,78.85,135,78.85z"/>
<path class="st1" d="M124.85,87.84c0,0-2.48-8.31,5.2-8.99s8.3,6.84,7.05,10.54c-1.26,3.7-8.09,12.44-8.09,12.44l-11.46,4.03
	c0,0,0.74-10.35,7.99-15.5L124.85,87.84z"/>
<path class="st1" d="M116.28,108.55c0,0,0.22-5.13,31.65-6.72l6.23-0.42c0,0,5.2-0.84,6.43,0s0,1.79,0,1.79s-3.41-1.28-4.72,0.57
	c-1.31,1.86-1.31,1.86-1.31,1.86s-1.68-1.85-2.94-0.82c-1.26,1.03-17.03,7.79-17.03,7.79s1.56,0.08-7,2.07
	c-8.56,2-9.31,1.52-10.77,0C113.76,111.48,116.28,108.55,116.28,108.55z"/>
<path class="st1" d="M161.12,112.58l-0.55,5.78c0,0-5.5-2.76-10.76-1.29c-5.26,1.47-7.89,8.55-7.89,8.55s-8.4-6.4-8.96-9.28
	c-0.57-2.88,19.48-11.37,20.52-10.47C154.55,106.77,156.93,111.25,161.12,112.58z"/>
<path class="st1" d="M161.12,119.69c0,0-6.78-2.94-10.25-1.79c-3.47,1.16-6.42,5.84-6.93,7.71c-0.53,1.87,0,4.48,0,4.48l9.56,7.63
	h12.13c0,0-3.53-2.88-4.36-8.56C160.44,123.48,161.12,119.69,161.12,119.69z"/>
<polygon class="st2" points="161.91,139.53 161.91,143.79 148.98,143.79 149.51,139.04 "/>
<path class="st3" d="M155.88,147.27c0,0-0.22-1.35-3.52-1.22c-3.31,0.12-4.01,3.29-4.01,3.29h-3.58c0,0-3.23-3.44,0.5-4.48h11.89
	v2.24L155.88,147.27z"/>
<path class="st4" d="M272.24,134.53c0,0,8.19-4.74,7.47-1.72c-0.72,3.02-19.68,22.41-23.27,22.26c-3.59-0.14-2.53-3.87-3.2-4.6
	c-0.68-0.72-3.99-4.03-5.71-4.75c-1.72-0.72-16.53-9.48-20.55-16.81c-4.02-7.33-3.59-8.62-5.31-7.61
	c-1.72,1.01-19.77,11.62-26.04,12.42c-6.27,0.8-9.01,4.14-8.58,4.63c0.43,0.49,1.58,1.45,1.58,1.45l-0.57,3.49
	c0,0,4.32,4.15,3.88,3.3c-0.43-0.86-1.22,5.84-1.22,5.84l-12.87,0.63v-2.3h-6.91c0,0,0.71,3.47-3.81,3.17
	c-4.51-0.29-3.08-3.46-3.08-3.46h-2.8v-2.02c0,0-2.53,0.41-2.38-1.87c0.14-2.29,0.14-2.29,0.14-2.29l4.02,0.57l0.28-6.83h4.74
	c0,0-3.88-3.22-5.17-16.16c-1.29-12.93-0.14-25.57,3.73-34.19c3.88-8.62,6.61-8.62,8.9-12.21c2.3-3.59,2.44-7.75,2.44-7.75
	s-1.87-10.35,4.31-14.08c6.18-3.73,17.1,0.57,17.82,6.6c0.72,6.03-0.43,7.04,0.87,9.05c1.29,2.02,1.72,3.02,1.72,3.02h-3.59
	l-1.29,5.61c0,0-3.86,0.29-5.89,0c-2.02-0.28-2.73-0.43-2.73-0.43l-0.43,4.88c0,0,1.3,1.01,3.17,3.16
	c1.87,2.16,14.98,5.03,15.31,7.18c0.34,2.16,23.18,2.81,27.21,6.18c4.02,3.36,11.06,6.44,14.51,6.95c3.45,0.51,7.18,3.87,7.61,6.72
	c0.43,2.85-2.74,8.99-7.62,6.26c-4.87-2.73-2.15-7.36-2.15-7.36l-12.64-4.97c0,0-13.65,0.84-17.24-0.66
	c-3.59-1.5-10.63-6.24-10.63-6.24l-13.65-1.72c0,0-2.16,8.47-5.61,12.57c-3.45,4.1-4.82,7.26-2.63,7.11
	c2.2-0.14,35.53-12.76,41.71-9.69s18.82,23.05,21.98,26.64c3.17,3.59,2.87,6.38,9.34,5.28C263.9,138.7,272.24,134.53,272.24,134.53z
	"/>
<g>
	<path class="st5" d="M140.61,157.25v10.68h140.81v-10.68H140.61z M264,161.42c-0.02-2.43,2.48-3.98,4.65-2.89
		c1.03,0.51,1.71,1.61,1.71,2.75c0.02,2.43-2.48,3.99-4.65,2.89C264.7,163.66,264.01,162.57,264,161.42z M246.47,161.42
		c-0.02-2.43,2.48-3.98,4.64-2.89c1.02,0.51,1.7,1.61,1.71,2.75c0.02,2.43-2.47,3.99-4.64,2.89
		C247.16,163.66,246.48,162.57,246.47,161.42z M228.92,161.42c-0.02-2.43,2.48-3.99,4.64-2.89c1.03,0.51,1.71,1.61,1.71,2.75
		c0.02,2.43-2.48,3.99-4.64,2.89C229.61,163.66,228.93,162.57,228.92,161.42z M211.77,161.42c-0.02-2.43,2.48-3.99,4.64-2.89
		c1.02,0.51,1.7,1.61,1.71,2.75c0.02,2.43-2.47,3.99-4.64,2.89C212.45,163.66,211.77,162.57,211.77,161.42z M193.32,161.42
		c-0.02-2.43,2.48-3.99,4.64-2.89c1.02,0.51,1.7,1.61,1.71,2.75c0.02,2.43-2.48,3.99-4.64,2.89
		C194.01,163.66,193.32,162.57,193.32,161.42z M176.85,160.99c-0.02-2.43,2.48-3.98,4.64-2.89c1.02,0.51,1.7,1.61,1.71,2.75
		c0.02,2.43-2.48,3.99-4.64,2.89C177.54,163.22,176.86,162.13,176.85,160.99z M159.32,161.42c-0.02-2.43,2.47-3.99,4.64-2.89
		c1.03,0.51,1.71,1.61,1.71,2.75c0.02,2.43-2.48,3.99-4.64,2.89C160.01,163.66,159.33,162.57,159.32,161.42z"/>
	<g>
		<path class="st5" d="M281.42,156.79l-140.81-0.08v-2.39h11.59c0,0,0.63,1.16,3.18,1.23c2.54,0.08,3.47-1.23,3.47-1.23h9.04
			c0,0-0.51,1.31,2.24,1.23s2.68-0.85,2.75-1.23h79.08c0,0,0.7,1.77,4.39,1.62c3.69-0.15,4.85-1.62,4.85-1.62h20.22L281.42,156.79
			L281.42,156.79z"/>
	</g>
</g>
<g>
	<path class="st6" d="M272.8,168.22c0.61,0,1.26-0.06,1.96-0.19c2.97-0.57,5.97-1.66,8.62-2.63c2.84-1.04,5.29-1.93,6.94-1.93
		c1.35,0,2.76,0.63,4.39,1.37c2.21,1,4.97,2.23,8.82,2.48c6.8,0.45,9.86-2.11,9.98-2.22l-0.88-1.01c-0.03,0.02-2.8,2.31-9.03,1.9
		c-3.61-0.24-6.13-1.37-8.36-2.36c-1.77-0.8-3.3-1.48-4.94-1.48c-1.89,0-4.45,0.93-7.41,2.02c-2.6,0.95-5.55,2.03-8.41,2.57
		c-3.4,0.64-5.44-0.64-7.6-2c-1.47-0.92-3-1.87-4.92-2.15c-2.75-0.39-4.89,0.56-7.37,1.65c-1.82,0.8-3.87,1.71-6.59,2.27
		c-3.99,0.84-6.7-0.93-9.08-2.5c-1.26-0.82-2.45-1.6-3.66-1.85c-2.9-0.57-8.55,1.49-13.08,3.15c-0.79,0.29-1.55,0.57-2.23,0.81
		c-4.29,1.52-10.11-1.99-13.97-4.31c-2.85-1.71-5.29-0.54-8.36,0.96c-2.06,1-4.4,2.14-7.51,2.81c-4.84,1.05-6.42,0.29-8.61-0.75
		c-1.29-0.62-2.76-1.32-5.12-1.79c-3.68-0.73-6.62,0.2-9.48,1.1c-2.22,0.71-4.51,1.43-7.25,1.43c-4.86,0-5.29-0.34-6.51-1.37
		c-0.37-0.3-0.79-0.65-1.38-1.06c-2.48-1.72-6.32-0.87-10.77,0.12c-0.96,0.22-1.95,0.43-2.95,0.63c-1.22,0.24-2.29,0.53-3.33,0.8
		c-3.56,0.95-6.13,1.63-10.41-0.73c-4.68-2.59-5.3-3.16-5.35-3.2l-0.46,0.45l-0.54-0.53l-0.19,0.57c0.06,0.37,0.09,0.68,5.9,3.88
		c4.74,2.62,7.68,1.84,11.4,0.86c1.02-0.27,2.06-0.55,3.24-0.78c1.01-0.2,2.01-0.42,2.98-0.63c4.15-0.92,7.73-1.71,9.72-0.33
		c0.55,0.39,0.94,0.71,1.29,0.99c1.54,1.27,2.26,1.67,7.37,1.67c2.95,0,5.34-0.76,7.66-1.5c2.81-0.89,5.46-1.73,8.81-1.06
		c2.19,0.44,3.58,1.1,4.8,1.69c2.34,1.11,4.18,2,9.46,0.86c3.27-0.71,5.79-1.93,7.81-2.91c2.92-1.42,4.85-2.36,7.09-1.02
		c4.07,2.44,10.23,6.14,15.1,4.42c0.7-0.24,1.45-0.52,2.25-0.82c4.16-1.52,9.83-3.61,12.36-3.09c0.96,0.19,1.99,0.87,3.18,1.65
		c2.48,1.62,5.55,3.65,10.09,2.69c2.84-0.59,4.97-1.54,6.84-2.36c2.38-1.06,4.27-1.88,6.64-1.55c1.65,0.24,2.99,1.07,4.4,1.96
		C268,166.97,269.97,168.22,272.8,168.22z"/>
</g>
<path class="st4" d="M199.6,68.9l1.83,2.57h-2.98c0,0,0,5.69-2.31,6.44c-2.3,0.74-14.9-3.45-17.2-11.11
	c-2.3-7.65,3.38-13.07,8.6-12.87c5.21,0.21,10.29,4.2,10.97,7.31C199.2,64.37,199.6,68.9,199.6,68.9z"/>
<path class="st4" d="M188.97,77.99l-2.44,2.49c0,0-3.12-4.2-7.79-3.18c-4.67,1.02-5.21,1.52-5.21,1.52l5.95-8.28
	C179.49,70.53,185.86,77.07,188.97,77.99z"/>
<path class="st4" d="M200.33,90.22c0,0-5.31-8.14-11.77-6.35c-6.44,1.79-6.44,6.76,0.71,10.34s11.06,3.5,11.06,3.5
	s11.57,5.46,15.73,3.99c4.16-1.46,4.32-5.46,4.32-5.46L200.33,90.22z"/>
<path class="st4" d="M241.88,104.63l0.24,4.48h2.95c0,0,0.91,2.57,1.53,2.7c0.61,0.13,3.34-3.83,5.21-2.55
	c1.87,1.28,4.13,3.34,3.3,5.07c-0.84,1.72-3.42,4.04-3.42,4.04s4.85-1.43,4.9-3.84c0.05-2.41-2.17-4.92-4.32-6
	c-2.17-1.08-4.82-3.09-6.05-2.66C244.98,106.3,241.88,104.63,241.88,104.63z"/>
<path class="st4" d="M183.72,118.93l18.34,12.75c0,0,17.5-7.93,19.58-10.34c0,0,1.75-1.43,2.6-0.07s3.18,6.57,3.18,6.57l0.77,1.56
	l8.78-8.07c0,0-8.45-11.16-9.42-11.93c-0.97-0.75-20.55,2.36-23.8,3.34C200.5,113.73,183.72,118.93,183.72,118.93z"/>
<path class="st4" d="M174.95,80.22c0,0-1.87-0.78-3.99,1.48c-2.1,2.25-6.69,14.21-7.29,15.49c-0.6,1.28-0.9,7.07-0.9,7.07
	l19.78,14.1c0,0,3.23-8.99,4.89-10.86c1.65-1.88,4.99-9.62,4.23-10.22c-0.77-0.6-1.67-1.87-4.68-2.4c-3.01-0.53-8.79-1.73-10.3-2.93
	c-1.51-1.21-2.91-3.16-3.15-4.36s-0.41-4.44,0.24-5.42C174.43,81.18,175.77,80.36,174.95,80.22z"/>
<path class="st4" d="M167.73,137.34l15.57,0.38c4.06-0.83,9.54-4.21,9.54-4.21l-30.07-20C162.77,113.5,161.04,131.15,167.73,137.34z
	"/>
<g>
	<path class="st5" d="M165.36,143.79h18.99c1.17,0,2.13-0.96,2.13-2.13l0,0c0-1.17-0.96-2.13-2.13-2.13h-18.99
		c-1.17,0-2.13,0.96-2.13,2.13l0,0C163.23,142.83,164.2,143.79,165.36,143.79z"/>
	<g>
		<path class="st5" d="M178,149.99c0,2.02,1.53,3.65,3.41,3.65s3.41-1.63,3.41-3.65s-1.53-3.65-3.41-3.65S178,147.99,178,149.99z
			 M179.3,150.03c0-1.17,0.95-2.12,2.12-2.12s2.12,0.95,2.12,2.12c0,1.17-0.95,2.12-2.12,2.12
			C180.25,152.14,179.3,151.2,179.3,150.03z"/>
		<path class="st5" d="M181.45,148.95c0.61,0,1.1,0.49,1.1,1.1c0,0.61-0.49,1.1-1.1,1.1c-0.6,0-1.1-0.49-1.1-1.1
			C180.34,149.44,180.83,148.95,181.45,148.95z"/>
	</g>
	<g>
		<path class="st5" d="M164.33,149.99c0,2.02,1.53,3.65,3.4,3.65c1.88,0,3.41-1.63,3.41-3.65s-1.53-3.65-3.41-3.65
			C165.84,146.35,164.33,147.99,164.33,149.99z M165.63,150.03c0-1.17,0.95-2.12,2.12-2.12c1.17,0,2.12,0.95,2.12,2.12
			c0,1.17-0.95,2.12-2.12,2.12C166.57,152.14,165.63,151.2,165.63,150.03z"/>
		<path class="st5" d="M167.77,148.95c0.6,0,1.1,0.49,1.1,1.1c0,0.61-0.49,1.1-1.1,1.1c-0.61,0-1.1-0.49-1.1-1.1
			C166.66,149.44,167.15,148.95,167.77,148.95z"/>
	</g>
	<rect x="171.94" y="149.32" class="st5" width="5.26" height="1.42"/>
	<path class="st5" d="M189.93,147.91H185c0,0-0.52-2.36-3.32-2.41c-2.79-0.05-3.69,2.41-3.69,2.41h-6.62c0,0-0.47-2.46-3.65-2.41
		c-3.17,0.05-3.4,2.41-3.4,2.41h-3.74v-2.41h3.02v-1.32h23.86v1.38h2.46L189.93,147.91L189.93,147.91z"/>
</g>
<path class="st4" d="M247.62,136.73l-8.48,2.34c0,0,11.35,6.34,12.62,8.81c1.27,2.47,0.22,3.4,1.74,5.01
	c1.53,1.6,3.6,2.07,5.13,0.93c1.54-1.14,20.49-18.89,20.03-19.69c-0.47-0.8-3.07-1.06-6.75,1.13c-3.67,2.2-10.62,5.34-15.02,5.54
	C252.49,141,247.62,136.73,247.62,136.73z"/>
<g>
	<g>
		<path class="st2" d="M149.02,150.34c0,1.95,1.48,3.53,3.31,3.53c1.82,0,3.3-1.58,3.3-3.53c0-1.95-1.48-3.53-3.3-3.53
			C150.49,146.8,149.02,148.38,149.02,150.34z M150.27,150.37c0-1.13,0.92-2.05,2.05-2.05c1.13,0,2.05,0.92,2.05,2.05
			c0,1.13-0.91,2.05-2.05,2.05C151.19,152.42,150.27,151.5,150.27,150.37z"/>
		<circle class="st2" cx="152.35" cy="150.39" r="1.06"/>
	</g>
</g>
<path class="st7" d="M246.47,123.04c0,0-1.71,0.59-2.33,2.27c-0.61,1.68-0.27,3,0,3c0.27,0,2.38,0.35,2.65,0
	c0.26-0.35,1.76-1.68,1.76-1.68l-1.03-1.5L246.47,123.04l-2.33,2.27L246.47,123.04l-2.33,2.27"/>
<g>
	<path class="st8" d="M200.77,202.84c-4.28-1.31-2.74-17.68-2.39-20.94l0.07-0.61h2.12c0.57,0,1.14,0,1.55,0.42
		c0.51,0.51,0.5,1.25,0.49,3.24v0.85c0,3.28,1.32,4.61,3.44,5.67c1.81,0.91,1.09,4.68,0.16,6.99c-1.15,2.86-2.85,4.51-4.61,4.51
		C201.33,202.97,201.04,202.93,200.77,202.84z"/>
</g>
<g>
	<path class="st8" d="M241.54,204.34c-4.42-0.61-11.54-15.09-12.31-18.96c-0.37-1.84-0.19-3.19,0.52-4.01
		c0.41-0.47,0.89-0.65,1.23-0.72c0.3-0.47,0.97-1.27,2.09-1.66c1.27-0.44,2.74-0.24,4.37,0.6c4.26,2.2,9.7,9.51,9.37,12.62
		c-0.03,0.24-0.06,0.56-0.08,0.91c-0.26,3.07-0.76,8.79-3.08,10.64c-0.52,0.41-1.09,0.62-1.71,0.62
		C241.81,204.37,241.68,204.36,241.54,204.34z"/>
</g>
<g>
	<path class="st8" d="M129.27,196.19c-2.73-2.63-4.95-10.38-4.39-13.65c0.73-4.3,8.28-9.09,13.03-9.23c4.48-0.13,15.22,0,15.33,0
		l0.49,0.01l0.15,0.46c0.08,0.23,1.84,5.59-0.71,8.01c-2.04,1.94-18.34,14.58-21.61,15.27c-0.13,0.03-0.27,0.05-0.41,0.05
		C130.53,197.09,129.9,196.79,129.27,196.19z"/>
</g>
<g>
	<g>
		<path class="st7" d="M217.56,148.26l42.33,28.22c0,0-0.51,2.27,3.58,6.18c4.08,3.9,18,15.01,21.31,13.61s6.63-11.86,4.33-14.29
			c-2.3-2.43-7.02-8.05-11.62-7.92c-4.59,0.13-9.32,0.13-9.32,0.13l-2.81,0.25l-44.99-28.7L217.56,148.26z"/>
		<path class="st9" d="M262.99,183.15c-3.3-3.16-3.78-5.37-3.81-6.32l-42.75-28.49l3.89-3.47l45.23,28.86l2.64-0.24
			c0.05,0,4.77,0,9.3-0.13c4.47-0.1,8.84,4.58,11.44,7.4l0.69,0.73c1.36,1.44,0.96,4.53,0.6,6.25c-0.78,3.7-2.85,8.17-5.17,9.15
			c-0.25,0.1-0.56,0.16-0.9,0.16C278.96,197.05,264.86,184.93,262.99,183.15z M277.52,174.73c-4.55,0.12-9.28,0.13-9.27,0.12
			l-3.04,0.27l-44.74-28.55l-1.79,1.59l41.6,27.73l0.37,0.26l-0.08,0.43c0,0.02-0.29,2.04,3.37,5.55
			c5.36,5.13,18.04,14.54,20.57,13.47c1.6-0.68,3.56-4.34,4.36-8.17c0.5-2.39,0.41-4.32-0.25-5.02l-0.7-0.74
			c-2.26-2.44-6.44-6.95-10.26-6.95C277.62,174.73,277.57,174.73,277.52,174.73z"/>
	</g>
	<path class="st10" d="M212.52,140.72l-51.26-35.92c0,0-3-2.37-4.54,0c-1.55,2.37,1.35,4.75,6.93,8.06
		c5.58,3.31,44.95,29.45,44.95,29.45L212.52,140.72z"/>
</g>
<g>
	<g>
		<path class="st7" d="M134.47,163.08c0,0-14.1-2.53-20.22,0c-6.11,2.53-18.35,7.45-17.96,9.44c0.4,2,3.06,9.71,6.39,11.17
			c3.33,1.46,33.57-11.66,34.32-13.28C137.75,168.81,134.47,163.08,134.47,163.08z"/>
		<path class="st9" d="M102.41,184.33c-3.66-1.61-6.38-9.65-6.78-11.66c-0.38-1.87,3.68-4.16,17.36-9.79l1.02-0.41
			c6.23-2.57,20.02-0.14,20.61-0.04l0.32,0.06l0.16,0.28c0.81,1.41,3.38,6.17,2.55,7.96c-0.77,1.67-16.4,8.07-16.55,8.14
			c-6.52,2.67-14.49,5.63-17.68,5.63C102.97,184.49,102.64,184.44,102.41,184.33z M114.51,163.72l-1.02,0.41
			c-4.42,1.82-16.17,6.66-16.54,8.25c0.42,2.13,3.03,9.37,5.99,10.68c0.98,0.44,6.67-1.05,17.2-5.33c9.22-3.75,15.69-7,16.22-7.6
			c0.35-0.74-0.91-3.86-2.34-6.43C131.93,163.35,119.88,161.5,114.51,163.72z"/>
	</g>
	<g>
		<path class="st7" d="M218.26,139.81c0,0-90.7,25.81-92.1,28.2s-0.34,3.52,2.05,2.96s84.51-26.09,84.51-26.09L218.26,139.81z"/>
		<path class="st9" d="M125.21,170.99c-0.41-0.55-0.67-1.56,0.36-3.33c1.43-2.44,71.16-22.44,92.49-28.51l2.78-0.79l-7.66,7.03
			l-0.25,0.15c-3.35,1.05-82.17,25.53-84.56,26.1c-0.48,0.11-0.9,0.16-1.25,0.16C126.01,171.8,125.45,171.32,125.21,170.99z
			 M215.66,141.26c-35.6,10.16-86.77,25.22-88.91,27.1c-0.58,1-0.6,1.6-0.44,1.82c0.16,0.21,0.71,0.37,1.75,0.12
			c2.3-0.54,80.39-24.81,84.32-26.03L215.66,141.26z"/>
	</g>
	<path class="st10" d="M231.84,135.04c0,0,65.78-23.45,68.96-22.43c3.17,1.02,4.06,3.3,0.89,6.09
		c-3.17,2.79-77.45,23.63-77.45,23.63L231.84,135.04z"/>
</g>
<g>
	<g>
		<line class="st11" x1="231.38" y1="108.5" x2="190.65" y2="108.5"/>
		<g>
			<polygon class="st12" points="191.47,105.68 186.59,108.5 191.47,111.32 			"/>
		</g>
	</g>
</g>
<g>
	<g>
		<path class="st13" d="M95.59,201.47c8.28,6.16,35.22,20.95,102.94,20.95c81.23,0,101.83-23.6,101.83-23.6"/>
		<g>
			<polygon class="st12" points="94.45,204.12 92.51,198.83 98.07,199.8 			"/>
		</g>
	</g>
</g>
<g>
	<path class="st14" d="M244.08,116.1c0,0,5.92-6.85,7.48-5.46c2.79,2.51,4.2,3.74-2.19,8.72c-5.01,3.91-49.7,43.93-49.7,43.93
		l-22.43,20.41c0,0-1.4,6.7-7.01,11.99c-5.61,5.3-9.66,7.94-9.66,7.94v-15.73c0,0,2.34-7.01,13.4-7.48L244.08,116.1z"/>
	<path class="st14" d="M159.89,187.93l0.04-0.22c0.1-0.3,2.58-7.36,13.77-7.93l69.89-64.14c0.89-1.03,5.05-5.7,7.31-5.84
		c0.56-0.04,0.91,0.18,1.15,0.4c1.45,1.31,2.59,2.34,2.54,3.85c-0.06,1.56-1.44,3.27-4.8,5.89c-4.94,3.85-49.22,43.5-49.65,43.9
		l-22.27,20.27c-0.3,1.24-1.97,7.23-7.16,12.13c-5.59,5.28-9.59,7.91-9.75,8.02l-1.06,0.7L159.89,187.93L159.89,187.93z"/>
</g>
</svg>
