<?xml version="1.0" encoding="utf-8"?>
<!-- Generator: Adobe Illustrator 27.5.0, SVG Export Plug-In . SVG Version: 6.00 Build 0)  -->
<svg version="1.1" id="Capa_1" xmlns="http://www.w3.org/2000/svg" xmlns:xlink="http://www.w3.org/1999/xlink" x="0px" y="0px"
	 viewBox="0 0 409 274" style="enable-background:new 0 0 409 274;" xml:space="preserve">
<style type="text/css">
	.st0{fill:#1D1D1B;}
	.st1{fill:#D23829;}
	.st2{fill:#DEDDDD;}
	.st3{fill:#6A6A6A;}
	.st4{fill:none;stroke:#0E0D0E;stroke-width:2;stroke-linejoin:round;}
	.st5{fill:#0E0D0E;}
	.st6{fill:none;stroke:#0E0D0E;stroke-linejoin:round;}
</style>
<g>
	<g>
		<polygon class="st0" points="224.71,146.41 224.93,145.23 185.39,137.87 187.09,139.41 		"/>
	</g>
	<path class="st1" d="M194.73,147.18c0,0,0.73,1.31,12.85,2.2c9.85,0.72,23.16-7.95,24.51-6.76c1.35,1.18-15.72,20.63-18.68,20.63
		c-2.96,0-2.96-2.71-3.8-4.57c-0.85-1.86-2.37-4.4-7.44-3.04c-5.07,1.35-13.36,1.18-21.98-1.69c-8.62-2.87-8.12-4.23-11.16-4.4
		c-3.04-0.17-1.86-0.68-5.92,0.17s-14.88-0.51-17.41-0.51c-2.54,0-5.24,0-5.24,0v3.65c0,0,4.23-0.1,3.38,2.6
		c-0.84,2.7-3.38,2.2-3.38,2.2v1.86h-1.71c0,0,0.11,2.39-3.22,2.58c-3.33,0.19-3.18-2.5-3.18-2.5h-6.75c0,0,0,2.43-3.3,2.46
		c-3.3,0.04-3.11-2.58-3.11-2.58h-1.97v-2.46c0,0-2.54,0.19-2.5-1.93c0.04-2.12,0.91-2.05,3.07-1.97V148h4.4
		c0,0-6.75-6.94-8.88-8.58c-2.13-1.64-9.17-9.17-9.17-9.17s-7.86,0.74-12.03-0.33c-4.17-1.06-3.52-3.44-2.7-7.78
		c0.82-4.34,2.87-9.99,6.79-14.98c0,0-1.97-11.79,6.3-13.1l4.18-6.14c0,0-1.97-2.05-1.97-7.12s1.23-10.23,10.48-10.31
		c9.25-0.08,10.39,12.28,9.66,16.29c-0.74,4.01-2.62,6.63-3.44,6.88c-0.82,0.25-3.68-0.16-3.68-0.16l-0.99,2.95
		c0,0,8.02,7.2,8.51,17.02c0,0,7.89,0.36,8.88,3.96c0.99,3.6,0.27,4.77-0.54,4.95c-0.81,0.18-1.53-2.07-2.16-2.88
		c-0.63-0.81-4.05-1.98-5.4-0.27c-1.35,1.71,7.92,10.63,13.6,12.16c5.67,1.53,23.86,3.33,23.86,3.33S190.31,142.62,194.73,147.18z"
		/>
	<path class="st1" d="M108.31,84.4c0,0-4.58-5.64,0.65-10.71c5.24-5.07,13.17-0.24,14.4,2.45c1.23,2.7,1.14,8.26,1.14,8.26
		s1.55,2.45,1.96,2.45c0.41,0-1.72,0.41-1.72,0.41s-0.98,4.83-3.11,5.4C119.52,93.24,112.48,90.87,108.31,84.4z"/>
	<path class="st1" d="M107.78,87.68c0,0-2.18,3.87-2.43,4.77c-0.25,0.9,4.88-0.21,6.76,0.77c1.88,0.98,4.58,1.98,4.58,1.98
		l0.57-1.96C117.27,93.24,112.12,92.18,107.78,87.68z"/>
	<path class="st1" d="M97.85,107.28c0,0-2.48-10.33,5.59-11.41c8.07-1.09,7.53,10.25,3.49,14.52c-4.04,4.27-5.98,6.45-5.98,6.45
		s-8.77,4.27-10.64,6.6c-1.86,2.33,1.09-2.41,2.1-5.28C93.42,115.27,93.73,109.53,97.85,107.28z"/>
	<path class="st1" d="M107.71,95.2c0,0-2.57-1.75,2.56-1.12c5.13,0.62,10.33,7.69,12.19,11.18c1.86,3.49,1.86,9.01,1.24,9.08
		c-0.62,0.08-13.59,0.47-15.76,1.48c-2.17,1.01-4.27,1.55-4.35,0.93c-0.08-0.62,7.45-5.75,7.22-12.27
		C110.58,97.96,107.71,95.2,107.71,95.2z"/>
	<path class="st1" d="M92.63,128.81c0,0-3.34-3.75,1.25-6.67c4.59-2.92,15.35-4.16,20.78-5.13c5.43-0.97,13.85-2.72,16.19-1.47
		c2.34,1.25,3.84,3.59,3.09,4.76c-0.75,1.17-1.17,0.84-1.42,0.5c-0.25-0.33-2.08-4.08-4.67-3.79c-2.59,0.29-0.58,1.79-1.42,2.62
		s-3.84-1.5-4.42-1.42c-0.58,0.08-13.93,7.59-17.77,9.18C100.39,128.98,95.72,130.15,92.63,128.81z"/>
	<path class="st1" d="M104.5,128.54c0,0,10.84-6.91,17.69-7.25c6.85-0.34,8.9,0.69,10.05,1.71c1.14,1.03-0.17,2.63-0.57,2.63
		c-0.4,0-3.54-2-4.74-2c-1.2,0-1.31,0.51-1.08,0.86c0.23,0.34,2.4-0.01,1.71,0.39c-0.69,0.4-4.34,0.46-6.85,0.46
		c-2.51,0-4.79,1.2-6.62,1.77c-1.83,0.57-4.34,0.51-6.96,1.43C104.5,129.46,104.5,128.54,104.5,128.54z"/>
	<path class="st1" d="M106.26,130.14c0,0,6.22,7.36,6.91,7.02c0.69-0.34-0.11-7.37,5.42-7.77c5.54-0.4,12.84,1.03,14.5,0.92
		c1.65-0.12-3.48-5.54-4.11-5.22c-0.63,0.32-8.1-0.08-12.5,1.86C112.09,128.88,106.26,130.14,106.26,130.14z"/>
	<path class="st1" d="M130.18,131.57c0,0-5.94-2.43-10.34-1.07c-4.4,1.36-5.4,5.72-5.04,8.01c0.36,2.29,6.11,9.01,8.07,9.22
		c1.07,0.12,9.9-0.08,18,0.22c6.69,0.25,12.82,1.01,14.15,1.07c2.93,0.14,11.3-2.15,14.17-1.64c2.86,0.5,6.65,2.07,9.59,4.22
		c2.94,2.15,6.66,3.08,15.67,3.29c9.01,0.21,13.16-0.36,14.24,0.5c1.07,0.86,1.29,2.79,1.72,4.15c0.43,1.36,0.43,1.93,2.36,2
		c1.93,0.07,18.39-15.96,18.6-17.03c0.22-1.07-3.79-0.21-8.44,2.79c-4.65,3-9.8,2.79-14.81,2.93c-5.01,0.14-14.74-2.63-19.1-4.43
		c-4.36-1.8-18.53-8.24-20.39-8.45c-1.86-0.21-14.17-2.07-18.17-2.65c-4.01-0.57-7.8-1.65-10.09-1.29
		C138.05,133.79,130.18,131.57,130.18,131.57z"/>
	<path class="st2" d="M120.15,152.28h17.86c1.1,0,2-0.9,2-2l0,0c0-1.1-0.9-2-2-2h-17.86c-1.1,0-2,0.9-2,2l0,0
		C118.14,151.38,119.05,152.28,120.15,152.28z"/>
	<g>
		<path class="st2" d="M132.04,158.12c0,1.9,1.44,3.44,3.21,3.44c1.77,0,3.21-1.54,3.21-3.44c0-1.9-1.44-3.43-3.21-3.43
			C133.48,154.68,132.04,156.22,132.04,158.12z M133.27,158.15c0-1.1,0.89-1.99,1.99-1.99c1.1,0,1.99,0.89,1.99,1.99
			c0,1.1-0.89,1.99-1.99,1.99C134.16,160.14,133.27,159.25,133.27,158.15z"/>
		<path class="st2" d="M135.28,157.13c0.57,0,1.03,0.46,1.03,1.04c0,0.57-0.46,1.04-1.03,1.04s-1.03-0.46-1.03-1.04
			C134.25,157.6,134.71,157.13,135.28,157.13z"/>
	</g>
	<g>
		<path class="st2" d="M119.17,158.12c0,1.9,1.44,3.44,3.21,3.44s3.21-1.54,3.21-3.44c0-1.9-1.44-3.43-3.21-3.43
			S119.17,156.22,119.17,158.12z M120.39,158.15c0-1.1,0.89-1.99,1.99-1.99s1.99,0.89,1.99,1.99c0,1.1-0.89,1.99-1.99,1.99
			S120.39,159.25,120.39,158.15z"/>
		<path class="st2" d="M122.41,157.13c0.57,0,1.04,0.46,1.04,1.04c0,0.57-0.47,1.04-1.04,1.04c-0.57,0-1.03-0.46-1.03-1.04
			C121.37,157.6,121.84,157.13,122.41,157.13z"/>
	</g>
	
		<rect x="126.34" y="157.49" transform="matrix(-1 -1.224647e-16 1.224647e-16 -1 257.6292 316.3182)" class="st2" width="4.95" height="1.34"/>
	<path class="st2" d="M143.27,156.15h-4.63c0,0-0.49-2.23-3.12-2.27c-2.63-0.04-3.47,2.27-3.47,2.27h-6.24c0,0-0.45-2.32-3.43-2.27
		c-2.98,0.04-3.21,2.27-3.21,2.27h-3.52v-2.27h2.85v-1.25h22.45v1.29h2.32V156.15z"/>
	<path class="st0" d="M145.16,113.93h-4.64c0,0-0.64,14.1-3.7,16.84l4.02,1.49C140.84,132.25,145.77,118.98,145.16,113.93z"/>
	<g>
		<g>
			<polygon class="st0" points="229.82,144.27 230.03,143.09 171.74,132.89 174.23,134.54 			"/>
		</g>
		<g>
			<path class="st0" d="M307.91,167.34c0.02,0,0.04,0,0.06,0c3.15-0.12,5.56-8.73,5.64-10.05c0.01-0.15,0.06-0.33,0.11-0.53
				c0.55-2,0.28-3.9-8.49-6.75c-10.17-3.31-26.41,0.87-28.03,1.3L267,150.32l-34.42-6.64l-0.23,1.18l34.48,6.65l10.46,1.02
				l0.11-0.03c0.17-0.05,17.31-4.65,27.45-1.34c8.41,2.74,8.01,4.22,7.71,5.3c-0.07,0.25-0.14,0.5-0.15,0.77
				c-0.09,1.48-2.54,8.85-4.48,8.92c-0.01,0-0.02,0-0.04,0c-2.34,0-27.4-7.34-30.58-10.53l-0.12-0.12l-7.67-1.68l-39.36-7.22
				l-0.22,1.18l39.34,7.22l7.32,1.6C280.5,160.09,304.94,167.34,307.91,167.34z"/>
		</g>
	</g>
	<g>
		
			<rect x="176.87" y="99.47" transform="matrix(0.3491 -0.9371 0.9371 0.3491 -11.5827 254.5876)" class="st1" width="1.2" height="72.31"/>
	</g>
	<g>
		
			<rect x="136.77" y="118" transform="matrix(0.3985 -0.9172 0.9172 0.3985 -27.7179 198.3527)" class="st1" width="1.2" height="4.61"/>
	</g>
	<g>
		
			<rect x="135.26" y="122.74" transform="matrix(0.484 -0.8751 0.8751 0.484 -39.8993 183.7499)" class="st1" width="1.2" height="5.93"/>
	</g>
	<g>
		<polygon class="st1" points="205.16,150.08 208.1,150.25 143.47,127.56 143.07,128.69 		"/>
	</g>
	<g>
		<path class="st1" d="M296.99,188.96c4.05,0,7.09-7.1,7.84-9.59l0.05-0.17c0.69-2.29,0.34-2.49-5.59-5.88
			c-1.14-0.65-2.51-1.44-4.14-2.38c-9.81-5.71-21.61-2.81-23.24-2.37l-8.07-2.4l-38.71-14.33l-0.42,1.12l38.75,14.34l8.43,2.51
			l0.17-0.05c0.12-0.04,12.58-3.55,22.47,2.2c1.63,0.95,3,1.73,4.15,2.39c5.46,3.12,5.46,3.12,5.04,4.49l-0.05,0.17
			c-0.7,2.33-3.59,8.74-6.69,8.74c-3.26,0-19.65-7.79-24.03-11.41c-4-3.31-5.2-5.51-5.21-5.54l-0.11-0.21l-0.22-0.08l-45.13-15.59
			l-0.39,1.13l44.92,15.51c0.4,0.66,1.85,2.76,5.38,5.68C276.41,180.77,293.21,188.96,296.99,188.96z"/>
	</g>
	<g>
		<g>
			<path class="st2" d="M108.43,163.85v9.61h126.62v-9.61H108.43z M219.39,167.61c-0.02-2.19,2.22-3.58,4.18-2.6
				c0.92,0.46,1.53,1.44,1.54,2.47c0.02,2.19-2.22,3.58-4.18,2.6C220.01,169.62,219.4,168.64,219.39,167.61z M203.61,167.61
				c-0.02-2.19,2.22-3.58,4.18-2.6c0.92,0.46,1.53,1.44,1.54,2.47c0.01,2.19-2.23,3.58-4.18,2.6
				C204.24,169.62,203.62,168.64,203.61,167.61z M187.84,167.61c-0.01-2.19,2.22-3.58,4.18-2.6c0.92,0.46,1.53,1.44,1.54,2.47
				c0.02,2.19-2.22,3.58-4.18,2.6C188.46,169.62,187.85,168.64,187.84,167.61z M172.41,167.61c-0.02-2.19,2.23-3.58,4.18-2.6
				c0.92,0.46,1.53,1.44,1.54,2.47c0.01,2.19-2.22,3.58-4.18,2.6C173.03,169.62,172.42,168.64,172.41,167.61z M155.82,167.61
				c-0.02-2.19,2.22-3.58,4.18-2.6c0.92,0.46,1.53,1.44,1.54,2.47c0.02,2.19-2.22,3.58-4.18,2.6
				C156.44,169.62,155.83,168.64,155.82,167.61z M141.01,167.22c-0.02-2.19,2.22-3.58,4.18-2.6c0.92,0.46,1.53,1.44,1.54,2.47
				c0.02,2.19-2.22,3.58-4.18,2.6C141.63,169.23,141.02,168.24,141.01,167.22z M125.25,167.61c-0.02-2.19,2.22-3.58,4.18-2.6
				c0.92,0.46,1.53,1.44,1.54,2.47c0.01,2.19-2.22,3.58-4.18,2.6C125.87,169.62,125.26,168.64,125.25,167.61z"/>
			<g>
				<path class="st2" d="M235.05,163.44l-126.62-0.07v-2.15h10.42c0,0,0.57,1.04,2.86,1.11c2.29,0.07,3.12-1.11,3.12-1.11h8.13
					c0,0-0.46,1.18,2.02,1.11c2.47-0.07,2.4-0.76,2.47-1.11h71.11c0,0,0.62,1.6,3.95,1.46c3.33-0.14,4.37-1.46,4.37-1.46h18.18
					V163.44z"/>
			</g>
		</g>
	</g>
	<g>
		<path class="st3" d="M227.3,173.72c0.55,0,1.14-0.05,1.76-0.17c2.67-0.51,5.37-1.49,7.75-2.36c2.55-0.93,4.75-1.74,6.25-1.74
			c1.22,0,2.48,0.57,3.95,1.23c1.99,0.89,4.46,2.01,7.93,2.23c6.11,0.4,8.86-1.9,8.97-2l-0.78-0.9c-0.02,0.02-2.52,2.07-8.11,1.71
			c-3.25-0.21-5.52-1.23-7.52-2.13c-1.59-0.72-2.97-1.33-4.44-1.33c-1.71,0-4,0.84-6.66,1.81c-2.34,0.85-4.99,1.82-7.56,2.31
			c-3.05,0.58-4.89-0.57-6.84-1.8c-1.32-0.83-2.69-1.69-4.43-1.93c-2.48-0.35-4.4,0.5-6.62,1.48c-1.63,0.72-3.48,1.54-5.92,2.05
			c-3.59,0.75-6.02-0.84-8.17-2.25c-1.13-0.74-2.2-1.44-3.29-1.66c-2.61-0.52-7.68,1.34-11.76,2.83c-0.71,0.26-1.39,0.51-2.01,0.73
			c-3.85,1.36-9.09-1.79-12.57-3.87c-2.57-1.54-4.75-0.48-7.52,0.86c-1.85,0.9-3.96,1.92-6.76,2.53c-4.35,0.94-5.77,0.26-7.74-0.68
			c-1.16-0.56-2.49-1.19-4.6-1.61c-3.31-0.67-5.96,0.18-8.52,0.99c-2,0.63-4.06,1.29-6.53,1.29c-4.38,0-4.75-0.31-5.86-1.23
			c-0.33-0.27-0.71-0.59-1.24-0.96c-2.23-1.55-5.68-0.78-9.69,0.11c-0.86,0.19-1.75,0.39-2.65,0.57c-1.1,0.22-2.06,0.47-2.99,0.72
			c-3.2,0.85-5.51,1.47-9.36-0.66c-4.22-2.33-4.77-2.84-4.81-2.89l-0.42,0.41l-0.48-0.48l-0.17,0.51c0.05,0.33,0.09,0.61,5.3,3.49
			c4.26,2.36,6.9,1.66,10.25,0.77c0.91-0.24,1.86-0.49,2.92-0.7c0.91-0.18,1.81-0.38,2.68-0.57c3.73-0.83,6.95-1.54,8.75-0.29
			c0.49,0.34,0.85,0.64,1.16,0.89c1.38,1.14,2.03,1.5,6.62,1.5c2.65,0,4.81-0.68,6.89-1.35c2.53-0.8,4.91-1.56,7.92-0.96
			c1.97,0.4,3.22,0.99,4.32,1.52c2.1,1,3.76,1.8,8.51,0.77c2.94-0.64,5.21-1.74,7.03-2.62c2.63-1.28,4.36-2.12,6.38-0.91
			c3.66,2.2,9.2,5.52,13.58,3.97c0.62-0.22,1.3-0.47,2.02-0.73c3.73-1.37,8.83-3.25,11.12-2.78c0.86,0.17,1.79,0.78,2.87,1.48
			c2.22,1.46,4.99,3.28,9.07,2.42c2.55-0.53,4.47-1.38,6.16-2.12c2.14-0.95,3.84-1.69,5.97-1.39c1.48,0.21,2.68,0.97,3.95,1.76
			C222.97,172.6,224.76,173.72,227.3,173.72z"/>
	</g>
	<g>
		<path class="st3" d="M305.1,173.08c1.29,0,1.93-0.21,1.97-0.22l-0.38-1.14c-0.01,0-1.22,0.37-3.78-0.02
			c-1.41-0.22-2.09-1.01-2.87-1.93c-0.58-0.69-1.24-1.46-2.26-2.01c-2.47-1.33-5.71,0.29-5.84,0.36l0.54,1.07
			c0.03-0.01,2.83-1.4,4.73-0.38c0.82,0.44,1.35,1.07,1.91,1.73c0.86,1.01,1.74,2.06,3.6,2.34
			C303.68,173.04,304.46,173.08,305.1,173.08z"/>
	</g>
	<g>
		<g>
			<path class="st4" d="M262.69,171.25c0,0,22.12-41.49,16-47.99c-4.6-4.88-12.33,8.2-15.91,15.03"/>
			<g>
				<polygon class="st5" points="260.52,136.17 260.86,142.14 265.87,138.86 				"/>
			</g>
		</g>
	</g>
	<g>
		<g>
			<path class="st6" d="M320.91,167.56c0.47,5.93,0.72,23.02-10.17,35.94"/>
			<g>
				<polygon class="st5" points="319.42,168.14 320.68,165.43 322.4,167.88 				"/>
			</g>
		</g>
	</g>
</g>
</svg>
