<?xml version="1.0" encoding="utf-8"?>
<!-- Generator: Adobe Illustrator 27.5.0, SVG Export Plug-In . SVG Version: 6.00 Build 0)  -->
<svg version="1.1" id="Capa_1" xmlns="http://www.w3.org/2000/svg" xmlns:xlink="http://www.w3.org/1999/xlink" x="0px" y="0px"
	 viewBox="0 0 305.99 184" style="enable-background:new 0 0 305.99 184;" xml:space="preserve">
<style type="text/css">
	.st0{fill:none;stroke:#B7B6B6;stroke-width:0.25;stroke-miterlimit:10;}
	.st1{fill:none;stroke:#D23829;stroke-width:0.25;stroke-miterlimit:10;}
	.st2{fill:#DEDDDD;}
	.st3{fill:#6A6A6A;}
	.st4{fill:#FAE9E2;}
	.st5{fill:#ECECEC;}
	.st6{fill:#EFBBA6;}
	.st7{fill:#D23829;}
	.st8{fill:none;stroke:#0E0D0E;stroke-width:2;stroke-linejoin:round;}
	.st9{fill:#0E0D0E;}
	.st10{fill:none;stroke:#0E0D0E;stroke-linejoin:round;}
	.st11{fill:none;stroke:#0E0D0E;stroke-width:2;stroke-miterlimit:10;}
</style>
<path class="st0" d="M225.14,80.57c0,0,32.36-4.75,35.7-9.44c3.34-4.69-2.85-3.65-3.52-2.42"/>
<path class="st0" d="M224.96,84.24c0,0,64.99-12.69,66.17-12.69c2.99,0,7.02,4.22-1.76,6.35c-9.44,2.29-64.52,10.25-64.52,10.25"/>
<path class="st0" d="M61.14,152.5c0,0,10.04-8.75,13.33-8.32c3.3,0.43,4.01,5.74,3.3,8.32s-11.18,15.91-13.76,15.77
	C61.42,168.13,59.83,153.6,61.14,152.5z"/>
<path class="st0" d="M68.02,133.58c0,0-9.03-1-14.91,2.15s-13.19,4.59-13.05,9.46c0.14,4.88,2.29,12.04,5.45,12.33
	c3.15,0.29,24.09-14.2,24.8-16.92C71.03,137.88,70.03,133.71,68.02,133.58z"/>
<path class="st1" d="M61.91,129.22c0,0-25.02,14.23-30.51,16.25c-5.5,2.02-12.77-8.56-12.06-12.05s23.24-13.07,32.11-11.12
	s10.47,1.95,10.47,1.95l3.72-1.24c0,0,166.05-52.69,169.07-53.04c3.02-0.35,3.19,2.48,2.84,3.02
	C237.18,73.52,61.91,129.22,61.91,129.22z"/>
<g>
	<path class="st2" d="M117.09,115.64v11.68h153.85v-11.68L117.09,115.64L117.09,115.64z M251.91,120.2
		c-0.02-2.66,2.7-4.35,5.08-3.16c1.12,0.56,1.86,1.76,1.87,3c0.02,2.66-2.7,4.35-5.08,3.16
		C252.66,122.64,251.91,121.45,251.91,120.2z M232.74,120.2c-0.02-2.66,2.7-4.35,5.08-3.16c1.12,0.56,1.86,1.76,1.87,3
		c0.02,2.66-2.7,4.35-5.08,3.16C233.5,122.64,232.75,121.45,232.74,120.2z M213.58,120.2c-0.02-2.66,2.7-4.35,5.08-3.16
		c1.12,0.56,1.86,1.76,1.87,3c0.02,2.66-2.7,4.35-5.08,3.16C214.33,122.64,213.59,121.45,213.58,120.2z M194.82,120.2
		c-0.02-2.66,2.7-4.35,5.08-3.16c1.12,0.56,1.86,1.76,1.87,3c0.02,2.66-2.7,4.35-5.07,3.16
		C195.58,122.64,194.84,121.45,194.82,120.2z M174.67,120.2c-0.02-2.66,2.7-4.35,5.08-3.16c1.12,0.56,1.86,1.76,1.87,3
		c0.02,2.66-2.7,4.35-5.07,3.16C175.42,122.64,174.68,121.45,174.67,120.2z M156.68,119.72c-0.02-2.66,2.7-4.35,5.08-3.16
		c1.12,0.56,1.86,1.76,1.87,3c0.02,2.66-2.7,4.35-5.08,3.16C157.43,122.16,156.69,120.97,156.68,119.72z M137.53,120.2
		c-0.02-2.66,2.7-4.35,5.08-3.16c1.12,0.56,1.86,1.76,1.87,3c0.02,2.66-2.7,4.35-5.08,3.16
		C138.28,122.64,137.54,121.45,137.53,120.2z"/>
	<g>
		<path class="st2" d="M270.93,115.14l-153.85-0.09v-2.61h12.66c0,0,0.69,1.26,3.47,1.35c2.78,0.08,3.79-1.35,3.79-1.35h9.87
			c0,0-0.56,1.43,2.45,1.35c3.01-0.08,2.92-0.93,3.01-1.35h86.4c0,0,0.76,1.94,4.8,1.77c4.04-0.17,5.31-1.77,5.31-1.77h22.09
			L270.93,115.14L270.93,115.14z"/>
	</g>
</g>
<g>
	<path class="st3" d="M261.51,127.62c0.67,0,1.38-0.06,2.14-0.21c3.24-0.61,6.52-1.81,9.42-2.87c3.1-1.13,5.78-2.11,7.59-2.11
		c1.48,0,3.02,0.69,4.8,1.49c2.42,1.09,5.43,2.44,9.63,2.71c7.43,0.49,10.77-2.31,10.9-2.43l-0.95-1.1
		c-0.03,0.02-3.06,2.52-9.86,2.08c-3.94-0.25-6.7-1.49-9.13-2.59c-1.94-0.87-3.61-1.62-5.4-1.62c-2.07,0-4.86,1.02-8.09,2.2
		c-2.84,1.04-6.06,2.21-9.19,2.81c-3.71,0.7-5.95-0.7-8.31-2.18c-1.61-1.01-3.27-2.05-5.38-2.35c-3.01-0.42-5.34,0.6-8.04,1.8
		c-1.99,0.88-4.23,1.87-7.19,2.49c-4.36,0.92-7.32-1.02-9.92-2.73c-1.37-0.9-2.67-1.75-4-2.01c-3.17-0.63-9.34,1.63-14.29,3.44
		c-0.87,0.32-1.69,0.62-2.44,0.88c-4.68,1.66-11.05-2.17-15.27-4.7c-3.12-1.87-5.77-0.58-9.13,1.05c-2.25,1.09-4.81,2.33-8.21,3.07
		c-5.29,1.14-7.01,0.31-9.4-0.83c-1.41-0.68-3.02-1.44-5.58-1.96c-4.02-0.81-7.24,0.21-10.35,1.2c-2.43,0.77-4.94,1.57-7.93,1.57
		c-5.32,0-5.77-0.38-7.12-1.49c-0.4-0.33-0.87-0.71-1.51-1.16c-2.71-1.88-6.91-0.95-11.77,0.13c-1.05,0.23-2.13,0.47-3.22,0.69
		c-1.33,0.26-2.5,0.58-3.63,0.88c-3.89,1.04-6.7,1.78-11.37-0.8c-5.12-2.83-5.79-3.44-5.85-3.5l-0.51,0.49l-0.59-0.58l-0.2,0.62
		c0.06,0.4,0.11,0.75,6.44,4.24c5.18,2.86,8.39,2.01,12.45,0.93c1.11-0.3,2.25-0.6,3.54-0.85c1.11-0.22,2.19-0.46,3.25-0.69
		c4.53-1.01,8.44-1.88,10.62-0.36c0.6,0.42,1.04,0.78,1.41,1.09c1.67,1.39,2.47,1.83,8.04,1.83c3.22,0,5.84-0.83,8.37-1.64
		c3.07-0.97,5.96-1.9,9.62-1.16c2.39,0.48,3.91,1.2,5.25,1.84c2.55,1.22,4.57,2.18,10.34,0.93c3.57-0.77,6.33-2.11,8.54-3.18
		c3.19-1.55,5.3-2.58,7.75-1.11c4.45,2.67,11.18,6.71,16.5,4.83c0.76-0.27,1.59-0.57,2.46-0.89c4.53-1.66,10.73-3.94,13.51-3.38
		c1.05,0.21,2.17,0.95,3.48,1.81c2.7,1.77,6.06,3.98,11.02,2.94c3.1-0.65,5.43-1.67,7.48-2.58c2.61-1.15,4.67-2.06,7.26-1.69
		c1.8,0.26,3.26,1.17,4.8,2.14C256.26,126.26,258.43,127.62,261.51,127.62z"/>
</g>
<path class="st4" d="M133.53,106.24h3.19c0,0,1.06,5.74,5.11,5.74s4.89-4.47,4.89-4.47l7.44,0.43c-0.21,1.28,2.13,3.83,5.75,2.55
	s3.19-3.4,3.19-3.4s3.83,0.21,5.32-2.77c1.49-2.98-3.83-3.4-3.83-3.4l-0.64-6.17h-8.51c0,0,22.34-26.59,27.44-30
	c3.05-2.03,0,4.89,3.83,27.65c1.53,9.13,2.34,18.3,2.34,18.3c-0.85,2.55-0.64,2.98,4.89,1.06c5.53-1.91,22.13-21.06,22.13-23.83
	s-20,6.17-20,6.17s0.64-32.12,1.7-33.19c1.06-1.06,27.87,4.47,30.42,4.47s5.53,2.77,8.3,2.13s4.89,5.32,6.38,5.32s1.92-4.68,0-6.81
	s-6.81-3.19-7.66-3.19s-17.02-8.93-18.3-10.21s-13.62-1.7-15.32-2.13c-1.7-0.43-11.49-2.98-12.55-3.83s-13.61-6.6-14.25-6.81
	s-3.83-3.19-3.83-3.19l2.77-3.2c0,0,5.32,0.85,8.3,0s1.7-5.74,1.7-5.74h2.34l-1.28-5.53c0,0,0,0,0.21-2.98s-2.55-13.62-14.89-12.76
	c-12.34,0.85-8.72,17.87-8.72,19.15s-4.47,6.17-4.47,6.17c-5.74,0-10.21,8.3-10.21,8.3c-8.72,12.13-9.15,19.15-9.15,38.08
	c0,12.87,1.97,15.71,3.22,16.21l-3.86,0.17l-2.13,7.23C130.34,101.78,133.53,106.24,133.53,106.24z M171.44,50.38l4.31,1.23
	l-4.31,4.15V50.38z"/>
<path class="st4" d="M152.18,35.02c0,0,4.89-3.57,6.42-3.36c1.53,0.2,1.42,1.63,0.92,2.04c-0.51,0.41-2.52-0.2-3.5,3.97
	c-0.99,4.18,0.34,5.7,2.17,7.03c1.83,1.32,5.5,3.26,6.01,3.36s6.32,1.83,6.32,1.83l1.22,1.73l-0.92,3.36
	c0,0-13.55,11.72-14.36,11.72c-0.82,0-2.85-2.85-6.22-3.26c-3.36-0.41-7.24,3.36-8.15,4.89c-0.92,1.53-3.2,6.72-3.54,7.03
	c-0.33,0.31,1.3-17.84,2.01-21.86C141.27,49.49,150.14,35.64,152.18,35.02z"/>
<path class="st4" d="M171.74,40.73c0,0-4.59-7.44-10.14-6.52c-5.55,0.92-4.84,5.09-4.33,7.03s6.32,6.62,13.96,7.34
	c0,0,9.58,4.38,15.59,5.81c0,0,8.66,5.71,21.7,7.95s20.99,2.04,20.99,2.04s1.53,2.65,3.67,2.65s3.67-1.53,6.11-0.61
	c2.44,0.92,2.44,4.99,2.75,6.11s3.77-1.53,1.84-5.3c-1.94-3.77-12.13-4.99-12.13-4.99s-17.02-10.29-24.66-10.39
	c-7.64-0.1-10.09-3.57-14.57-3.97C188.04,47.46,171.74,40.73,171.74,40.73z"/>
<path class="st4" d="M139.86,78.8c0,0,2.21-20.37,15.95-10.47c0,0,16.53-13.92,22.35-14.87l19.09,8.01c0,0-0.93,11.76-1.75,17.34
	c-0.81,5.59-1.51,16.88-0.11,17.69c1.4,0.82,17.34-8.26,18.97-7.33c1.63,0.93-17.92,22-21.3,22s-3.14,2.09-3.26-1.4
	c-0.12-3.49-0.46-16.3-0.46-17.58s-2.68-5-4.07-11.41c-1.39-6.4,0.47-11.99,0.35-13.62c-0.12-1.63-3.84-2.45-3.84-2.45
	s-24.44,28.05-27.35,28.98c-2.91,0.93-8.84,1.28-10.82,1.28s-3.72-3.26-3.72-3.26S139.21,86.15,139.86,78.8z"/>
<g>
	<g>
		<g>
			<path class="st5" d="M137.62,100.14h25.58c0.45,0,0.81-0.36,0.81-0.81v-3.37c0-0.45-0.36-0.81-0.81-0.81h-25.58
				c-0.45,0-0.81,0.36-0.81,0.81v3.37C136.81,99.78,137.17,100.14,137.62,100.14z"/>
			<g>
				<path class="st5" d="M154.09,107.4c0,2.36,1.79,4.27,3.99,4.27c2.2,0,3.99-1.91,3.99-4.27s-1.79-4.27-3.99-4.27
					C155.88,103.13,154.09,105.05,154.09,107.4z M155.62,107.44c0-1.37,1.11-2.48,2.48-2.48s2.48,1.11,2.48,2.48
					s-1.11,2.48-2.48,2.48C156.72,109.92,155.62,108.81,155.62,107.44z"/>
				<path class="st5" d="M158.12,106.18c0.71,0,1.29,0.58,1.29,1.29c0,0.71-0.58,1.29-1.29,1.29c-0.71,0-1.29-0.58-1.29-1.29
					S157.41,106.18,158.12,106.18z"/>
			</g>
			<g>
				<path class="st5" d="M138.08,107.4c0,2.36,1.78,4.27,3.99,4.27c2.2,0,3.99-1.91,3.99-4.27s-1.78-4.27-3.99-4.27
					C139.87,103.13,138.08,105.05,138.08,107.4z M139.61,107.44c0-1.37,1.11-2.48,2.48-2.48s2.48,1.11,2.48,2.48
					s-1.11,2.48-2.48,2.48S139.61,108.81,139.61,107.44z"/>
				<path class="st5" d="M142.11,106.18c0.71,0,1.29,0.58,1.29,1.29c0,0.71-0.58,1.29-1.29,1.29c-0.71,0-1.29-0.58-1.29-1.29
					C140.83,106.76,141.4,106.18,142.11,106.18z"/>
			</g>
			<rect x="147" y="106.63" class="st5" width="6.15" height="1.66"/>
			<path class="st5" d="M168.05,104.96h-5.76c0,0-0.61-2.77-3.88-2.82s-4.32,2.82-4.32,2.82h-7.75c0,0-0.56-2.88-4.27-2.82
				s-3.99,2.82-3.99,2.82h-4.38v-2.83h3.55v-1.55h27.92v1.61h2.88L168.05,104.96L168.05,104.96z"/>
		</g>
	</g>
</g>
<path class="st6" d="M162.14,107.11h3.19c0,0,1.06,5.74,5.1,5.74c4.04,0,4.89-4.47,4.89-4.47l7.44,0.43
	c-0.21,1.28,2.13,3.83,5.75,2.55s3.19-3.4,3.19-3.4s3.83,0.21,5.32-2.77c1.49-2.98-3.83-3.4-3.83-3.4l-0.64-6.17h-8.51
	c0,0,22.34-26.59,27.44-30c3.05-2.03,0,4.89,3.83,27.66c1.53,9.13,2.34,18.3,2.34,18.3c-0.85,2.55-0.64,2.98,4.89,1.06
	c5.53-1.91,22.13-21.06,22.13-23.83c0-2.76-20,6.17-20,6.17s0.64-32.12,1.7-33.19c1.07-1.07,27.87,4.47,30.42,4.47
	c2.55,0,5.53,2.77,8.3,2.13s4.89,5.32,6.38,5.32s1.91-4.68,0-6.81c-1.92-2.13-6.81-3.19-7.66-3.19s-17.02-8.93-18.3-10.21
	s-13.62-1.7-15.32-2.13s-11.49-2.98-12.55-3.83s-13.61-6.6-14.25-6.81s-3.83-3.19-3.83-3.19l2.77-3.2c0,0,5.32,0.85,8.3,0
	c2.98-0.85,1.7-5.74,1.7-5.74h2.34l-1.28-5.53c0,0,0,0,0.21-2.98s-2.55-13.62-14.89-12.77c-12.34,0.85-8.72,17.87-8.72,19.15
	s-4.47,6.17-4.47,6.17c-5.74,0-10.21,8.3-10.21,8.3c-8.72,12.13-9.15,19.15-9.15,38.08c0,12.87,1.97,15.71,3.22,16.21l-3.86,0.17
	l-2.13,7.23C158.95,102.64,162.14,107.11,162.14,107.11z M200.05,51.25l4.31,1.23l-4.31,4.15V51.25z"/>
<path class="st6" d="M180.78,35.89c0,0,4.89-3.57,6.42-3.36c1.53,0.2,1.43,1.63,0.92,2.04s-2.52-0.2-3.5,3.97
	c-0.99,4.18,0.34,5.7,2.17,7.03s5.5,3.26,6.01,3.36s6.32,1.83,6.32,1.83l1.22,1.73l-0.92,3.36c0,0-13.55,11.72-14.37,11.72
	c-0.81,0-2.85-2.85-6.21-3.26s-7.23,3.36-8.15,4.89s-3.2,6.72-3.54,7.03s1.29-17.84,2.01-21.86
	C169.88,50.36,178.74,36.5,180.78,35.89z"/>
<path class="st6" d="M200.34,41.6c0,0-4.59-7.44-10.14-6.52c-5.55,0.92-4.84,5.09-4.33,7.03s6.32,6.62,13.96,7.34
	c0,0,9.58,4.38,15.59,5.81c0,0,8.66,5.71,21.7,7.95s20.99,2.04,20.99,2.04s1.53,2.65,3.67,2.65s3.67-1.53,6.11-0.61
	c2.45,0.92,2.45,4.99,2.75,6.11c0.31,1.12,3.77-1.53,1.84-5.3c-1.94-3.77-12.13-4.99-12.13-4.99s-17.02-10.29-24.66-10.39
	s-10.09-3.57-14.57-3.97C216.64,48.32,200.34,41.6,200.34,41.6z"/>
<path class="st6" d="M168.46,79.67c0,0,2.21-20.37,15.95-10.47c0,0,16.53-13.92,22.35-14.87l19.09,8.01c0,0-0.93,11.76-1.75,17.34
	c-0.81,5.59-1.51,16.88-0.11,17.69c1.4,0.82,17.34-8.26,18.97-7.33s-17.92,22-21.3,22c-3.38,0-3.14,2.09-3.26-1.4
	c-0.12-3.49-0.46-16.3-0.46-17.58s-2.68-5-4.08-11.41c-1.4-6.4,0.47-11.99,0.35-13.62c-0.12-1.63-3.84-2.44-3.84-2.44
	s-24.44,28.05-27.35,28.98c-2.91,0.93-8.84,1.28-10.82,1.28c-1.98,0-3.72-3.26-3.72-3.26S167.81,87.02,168.46,79.67z"/>
<g>
	<g>
		<g>
			<path class="st5" d="M166.22,101.01h25.58c0.45,0,0.81-0.36,0.81-0.81v-3.37c0-0.45-0.36-0.81-0.81-0.81h-25.58
				c-0.45,0-0.81,0.36-0.81,0.81v3.36C165.41,100.65,165.78,101.01,166.22,101.01z"/>
			<g>
				<path class="st5" d="M182.7,108.27c0,2.36,1.79,4.27,3.99,4.27c2.2,0,3.99-1.91,3.99-4.27s-1.79-4.27-3.99-4.27
					C184.48,104,182.7,105.91,182.7,108.27z M184.22,108.31c0-1.37,1.11-2.48,2.48-2.48s2.48,1.11,2.48,2.48s-1.11,2.48-2.48,2.48
					S184.22,109.68,184.22,108.31z"/>
				<path class="st5" d="M186.73,107.05c0.71,0,1.29,0.58,1.29,1.29c0,0.71-0.58,1.29-1.29,1.29c-0.71,0-1.29-0.58-1.29-1.29
					C185.44,107.62,186.01,107.05,186.73,107.05z"/>
			</g>
			<g>
				<path class="st5" d="M166.69,108.27c0,2.36,1.78,4.27,3.99,4.27c2.2,0,3.99-1.91,3.99-4.27s-1.78-4.27-3.99-4.27
					S166.69,105.91,166.69,108.27z M168.21,108.31c0-1.37,1.11-2.48,2.48-2.48s2.48,1.11,2.48,2.48s-1.11,2.48-2.48,2.48
					S168.21,109.68,168.21,108.31z"/>
				<path class="st5" d="M170.72,107.05c0.71,0,1.29,0.58,1.29,1.29c0,0.71-0.58,1.29-1.29,1.29c-0.71,0-1.29-0.58-1.29-1.29
					C169.43,107.62,170.01,107.05,170.72,107.05z"/>
			</g>
			<rect x="175.61" y="107.49" class="st5" width="6.15" height="1.66"/>
			<path class="st5" d="M196.65,105.83h-5.76c0,0-0.61-2.77-3.88-2.82c-3.27-0.06-4.32,2.82-4.32,2.82h-7.76
				c0,0-0.55-2.88-4.26-2.83c-3.71,0.06-3.99,2.83-3.99,2.83h-4.38V103h3.55v-1.55h27.92v1.61h2.88V105.83z"/>
		</g>
	</g>
</g>
<path class="st7" d="M186.54,109.93h3.19c0,0,1.06,5.74,5.1,5.74c4.04,0,4.89-4.47,4.89-4.47l7.44,0.43
	c-0.21,1.28,2.13,3.83,5.75,2.55s3.19-3.4,3.19-3.4s3.83,0.21,5.32-2.77c1.49-2.98-3.83-3.4-3.83-3.4l-0.64-6.17h-8.51
	c0,0,22.34-26.59,27.44-30c3.05-2.03,0,4.89,3.83,27.66c1.53,9.12,2.34,18.3,2.34,18.3c-0.85,2.55-0.64,2.98,4.89,1.06
	c5.53-1.91,22.13-21.06,22.13-23.83c0-2.76-20,6.17-20,6.17s0.64-32.12,1.7-33.19c1.07-1.06,27.87,4.47,30.42,4.47
	c2.55,0,5.53,2.77,8.3,2.13s4.89,5.32,6.38,5.32s1.92-4.68,0-6.81s-6.81-3.19-7.66-3.19s-17.02-8.94-18.3-10.21
	c-1.28-1.28-13.62-1.7-15.32-2.13s-11.49-2.98-12.55-3.83s-13.61-6.6-14.25-6.81s-3.83-3.18-3.83-3.18l2.77-3.2c0,0,5.32,0.85,8.3,0
	c2.98-0.85,1.7-5.74,1.7-5.74h2.34l-1.28-5.53c0,0,0,0,0.21-2.98s-2.55-13.62-14.89-12.77c-12.34,0.85-8.72,17.87-8.72,19.15
	s-4.47,6.17-4.47,6.17c-5.74,0-10.21,8.3-10.21,8.3c-8.72,12.13-9.15,19.15-9.15,38.08c0,12.87,1.97,15.71,3.22,16.21l-3.86,0.17
	l-2.13,7.23C183.35,105.46,186.54,109.93,186.54,109.93z M224.45,54.07l4.31,1.23l-4.31,4.15V54.07z"/>
<path class="st7" d="M205.18,38.71c0,0,4.89-3.57,6.42-3.36c1.53,0.2,1.42,1.63,0.92,2.04c-0.51,0.41-2.52-0.2-3.5,3.97
	c-0.99,4.18,0.34,5.7,2.17,7.03c1.83,1.33,5.5,3.26,6.01,3.36s6.32,1.83,6.32,1.83l1.22,1.73l-0.92,3.36
	c0,0-13.55,11.72-14.37,11.72s-2.85-2.85-6.21-3.26s-7.23,3.36-8.15,4.89s-3.2,6.72-3.54,7.03c-0.34,0.3,1.3-17.84,2.01-21.86
	C194.28,53.18,203.15,39.32,205.18,38.71z"/>
<path class="st7" d="M224.75,44.42c0,0-4.59-7.44-10.14-6.52c-5.55,0.92-4.84,5.09-4.33,7.03c0.51,1.93,6.32,6.62,13.96,7.34
	c0,0,9.58,4.38,15.59,5.81c0,0,8.66,5.71,21.7,7.95s20.99,2.04,20.99,2.04s1.53,2.65,3.67,2.65s3.67-1.53,6.11-0.61
	c2.45,0.92,2.45,4.99,2.75,6.11c0.31,1.12,3.77-1.53,1.84-5.3c-1.94-3.77-12.13-4.99-12.13-4.99s-17.02-10.29-24.66-10.39
	s-10.09-3.57-14.57-3.97C241.05,51.14,224.75,44.42,224.75,44.42z"/>
<path class="st7" d="M192.87,82.49c0,0,2.21-20.37,15.95-10.47c0,0,16.53-13.92,22.35-14.87l19.09,8.01c0,0-0.93,11.75-1.75,17.34
	c-0.81,5.59-1.51,16.88-0.11,17.69c1.4,0.82,17.34-8.26,18.97-7.33s-17.92,22-21.3,22c-3.38,0-3.14,2.09-3.26-1.4
	c-0.12-3.49-0.46-16.29-0.46-17.57s-2.68-5-4.08-11.41c-1.4-6.4,0.47-11.99,0.35-13.62c-0.12-1.63-3.84-2.44-3.84-2.44
	s-24.44,28.05-27.35,28.98c-2.91,0.93-8.84,1.28-10.82,1.28c-1.98,0-3.73-3.26-3.73-3.26S192.22,89.84,192.87,82.49z"/>
<g>
	<g>
		<g>
			<path class="st2" d="M190.63,103.83h25.58c0.45,0,0.81-0.36,0.81-0.81v-3.37c0-0.45-0.36-0.81-0.81-0.81h-25.58
				c-0.45,0-0.81,0.36-0.81,0.81v3.37C189.82,103.47,190.18,103.83,190.63,103.83z"/>
			<g>
				<path class="st2" d="M207.1,111.09c0,2.36,1.79,4.27,3.99,4.27c2.2,0,3.99-1.91,3.99-4.27s-1.79-4.27-3.99-4.27
					C208.89,106.82,207.1,108.73,207.1,111.09z M208.62,111.13c0-1.37,1.11-2.48,2.48-2.48c1.37,0,2.48,1.11,2.48,2.48
					s-1.11,2.48-2.48,2.48C209.73,113.61,208.62,112.5,208.62,111.13z"/>
				<path class="st2" d="M211.13,109.87c0.71,0,1.29,0.58,1.29,1.29c0,0.71-0.58,1.29-1.29,1.29c-0.71,0-1.29-0.58-1.29-1.29
					C209.84,110.44,210.42,109.87,211.13,109.87z"/>
			</g>
			<g>
				<path class="st2" d="M191.09,111.09c0,2.36,1.78,4.27,3.99,4.27s3.99-1.91,3.99-4.27s-1.78-4.27-3.99-4.27
					S191.09,108.73,191.09,111.09z M192.61,111.13c0-1.37,1.11-2.48,2.48-2.48s2.48,1.11,2.48,2.48s-1.11,2.48-2.48,2.48
					S192.61,112.5,192.61,111.13z"/>
				<path class="st2" d="M195.12,109.87c0.71,0,1.29,0.58,1.29,1.29c0,0.71-0.58,1.29-1.29,1.29c-0.71,0-1.29-0.58-1.29-1.29
					C193.84,110.44,194.41,109.87,195.12,109.87z"/>
			</g>
			<rect x="200.01" y="110.31" class="st2" width="6.15" height="1.66"/>
			<path class="st2" d="M221.06,108.65h-5.76c0,0-0.61-2.77-3.88-2.82c-3.27-0.06-4.32,2.82-4.32,2.82h-7.76
				c0,0-0.55-2.88-4.26-2.83c-3.71,0.06-3.99,2.83-3.99,2.83h-4.38v-2.83h3.55v-1.55h27.92v1.61h2.88V108.65z"/>
		</g>
	</g>
</g>
<g>
	<g>
		<line class="st8" x1="154.08" y1="43.37" x2="196.38" y2="43.37"/>
		<g>
			<polygon class="st9" points="195.51,46.36 200.69,43.37 195.51,40.37 			"/>
		</g>
	</g>
</g>
<g>
	<g>
		<path class="st10" d="M300.39,46.75c1.07,4.05,3.13,13.53,2.18,23.96"/>
		<g>
			<polygon class="st9" points="299.05,47.58 299.79,44.68 301.93,46.77 			"/>
		</g>
	</g>
</g>
<g>
	<g>
		<path class="st11" d="M22.87,113.83c0,0-27.82,7.44-14.02,33.3c10.34,19.37,26.95,26.75,34.64,29.23"/>
		<g>
			<polygon class="st9" points="41.84,178.95 47.64,177.48 43.47,173.2 			"/>
		</g>
	</g>
</g>
<path class="st0" d="M40.06,121.47c0,0-7.5-9.67,27.26-10.69c0,0,0.24-13.36,38.46-9.14"/>
<path class="st0" d="M101.99,110.79c0,0-35.52,6.87-29.42,3.05c6.1-3.83,63.83-17.47,63.83-17.47"/>
</svg>
