<?xml version="1.0" encoding="utf-8"?>
<!-- Generator: Adobe Illustrator 27.5.0, SVG Export Plug-In . SVG Version: 6.00 Build 0)  -->
<svg version="1.1" id="Capa_1" xmlns="http://www.w3.org/2000/svg" xmlns:xlink="http://www.w3.org/1999/xlink" x="0px" y="0px"
	 viewBox="0 0 119 131.5" style="enable-background:new 0 0 119 131.5;" xml:space="preserve">
<style type="text/css">
	.st0{fill:#A19D9D;}
	.st1{fill:#1E1E1C;}
	.st2{fill:none;stroke:#1E1E1C;stroke-width:0.25;stroke-linecap:round;stroke-miterlimit:10;}
	.st3{fill:none;}
</style>
<g>
	<path class="st0" d="M37.38,79.11l8.14-2.27c0,0,2.58,19.99,14.22,19.07s13.06-17.28,13.64-18.38s7.03,1.58,7.03,1.58
		s-3.11,21.92,7.25,27.99l0.88,5.2l-58.46,0c0,0-2.4-3.68,6.87-11.44C40.95,97.53,37.38,79.11,37.38,79.11z"/>
	<g>
		<g>
			<path class="st1" d="M77.54,25.81c-2.27-2.21-4.31-3.43-6.93-4.85c-6.75-2.76-14.31-2.76-21.05,0
				c-5.57,2.82-9.61,7.96-11.04,14.04c-1.06,3.87-1.06,7.98,0.01,11.87c-1.25,4.02,0.35,8.38,3.91,10.65
				c0.89,3.81,2.77,7.31,5.45,10.18c-0.46,2.97-0.59,4.28-0.75,6.19c-0.43-0.16-0.89-0.21-1.34-0.15c-3.05,0.45-5.79,2.04-8.4,2.42
				c-1.18,0.16-2.09,1.1-2.22,2.27c-7.47,2.94-12.29,5.65-14.25,8.05c-3.98,4.91-5.41,22.31-5.55,24.28
				c-0.07,0.95,0.64,1.76,1.58,1.82c0.93,0.07,1.73-0.63,1.81-1.56c0.39-5.06,2-18.92,4.82-22.39c0.88-1.09,3.63-3.36,12.15-6.76
				c1.41,8.17,1.72,19.74-6.01,22.59c-1.1,0.39-1.81,1.48-1.72,2.65c0.13,1.25,0.24,2.46,0.34,3.64c0.09,0.93,0.93,1.61,1.87,1.52
				c0.92-0.08,1.6-0.91,1.54-1.83c-0.09-0.98-0.18-1.98-0.28-3.01c9.69-4.11,9.37-17.74,7.27-28.06c2.4-0.51,4.65-1.63,6.78-2.11
				c0.41,2.82,1.06,5.61,1.97,8.3c2.21,6.96,6.81,11.28,12.03,11.28c5.28,0,9.77-4.22,12.01-11.28c0.91-2.69,1.56-5.46,1.97-8.29
				c2.05,0.54,4.18,1.88,6.58,2.44c-2.05,10.15-2.1,23.64,7.47,27.72c-0.09,1.02-0.18,2.02-0.28,3.01
				c-0.08,0.93,0.63,1.76,1.56,1.84c0.93,0.07,1.75-0.62,1.82-1.54c0.1-1.18,0.22-2.39,0.34-3.65c0.1-1.17-0.6-2.25-1.71-2.64
				c-7.72-2.85-7.54-14.44-6.15-22.57c8.98,3.65,11.83,6.05,12.74,7.2c2.69,3.41,4.06,16.98,4.35,21.92
				c0.07,0.93,0.87,1.66,1.81,1.6c0.93-0.07,1.64-0.87,1.59-1.81c-0.1-1.92-1.23-18.95-5.07-23.81c-2.01-2.55-7.08-5.44-15.01-8.6
				c-0.26-1-1.12-1.75-2.14-1.88c-2.52-0.37-5.09-2.3-8.21-2.76c-0.39-0.06-0.79-0.04-1.17,0.08c-0.14-1.77-0.25-2.94-0.74-6.09
				c2.9-2.82,4.91-6.45,5.78-10.4c3.65-2.51,4.98-7.27,3.13-11.31c1.25-5.2,0.9-10.66-0.99-15.68 M41.79,35.91
				c1.14-5.12,4.52-9.48,9.21-11.86c6.43-3.01,15-1.48,18.25,0.05c2.71,1.35,2.68,2.12,5.69,2c-0.3,0.91,2.18,1.59,1.47,2.22
				c-0.75,0.62-1.01,1.66-0.64,2.55c1.77,4.33,2.23,9.07,1.31,13.66c-1.58-2.4-2.43-5.19-2.49-8.06c-0.03-1.25-1.06-2.25-2.32-2.22
				c-0.2,0.01-0.41,0.04-0.6,0.1c-3.87,1.13-7.88,1.72-11.92,1.76c-4.24,0.04-8.48-0.53-12.57-1.68c-1.21-0.35-2.47,0.34-2.82,1.54
				c-0.05,0.18-0.08,0.37-0.09,0.55c-0.1,2.85-1.09,5.59-2.81,7.85C40.91,41.56,41.03,38.67,41.79,35.91z M45.61,56.11
				c-0.1-0.5-0.42-0.93-0.88-1.18c-2.21-1.14-3.48-3.54-3.17-6.01c1.66-0.55,5.33-5.42,5.97-10.85c4.01,1,8.1,1.48,12.23,1.46
				c3.87-0.04,7.73-0.55,11.49-1.54c0.53,5.42,4.07,11.42,6.4,11.36c0.07,2.26-1.1,4.39-3.05,5.54c-0.41,0.26-0.68,0.68-0.76,1.16
				C71.29,71.51,49.38,75.36,45.61,56.11z M59.51,93.44c-3.68,0-7.04-3.41-8.78-8.9c-0.79-2.35-1.39-4.77-1.79-7.21l0.25-0.08
				c0.68-0.2,1.17-0.8,1.22-1.52c0.21-3.26,0.34-3.66,0.55-5.37c5.12,3.32,12.13,2.64,17.21-0.32c0.13,0.99,0.6,4.36,0.6,5.69
				c0.05,0.7,0.54,1.3,1.21,1.5l0.08,0.03c-0.39,2.48-0.99,4.91-1.79,7.29C66.53,90.03,63.17,93.44,59.51,93.44L59.51,93.44z"/>
		</g>
	</g>
	<line class="st2" x1="17.28" y1="111.13" x2="101.76" y2="111.13"/>
	<line class="st3" x1="16.95" y1="112.58" x2="102.04" y2="112.58"/>
</g>
</svg>
