<?xml version="1.0" encoding="utf-8"?>
<!-- Generator: Adobe Illustrator 27.5.0, SVG Export Plug-In . SVG Version: 6.00 Build 0)  -->
<svg version="1.1" id="Capa_1" xmlns="http://www.w3.org/2000/svg" xmlns:xlink="http://www.w3.org/1999/xlink" x="0px" y="0px"
	 viewBox="0 0 100 100" style="enable-background:new 0 0 100 100;" xml:space="preserve">
<style type="text/css">
	.st0{fill:#EEBAA5;}
	.st1{fill:#1E1E1C;}
</style>
<g>
	<path class="st0" d="M32.64,69.16l4.39-0.68c0,0,4.54,11.55,13.07,9.61c8.54-1.94,11.41-8.46,11.57-10.08l5.82,0.62l-0.65,23.64
		H33.15L32.64,69.16z"/>
	<g>
		<g>
			<path class="st1" d="M38.59,26.87c0,0,2.32-2.79,1.24-4.83c-1.08-2.05-5.17-13.47,6.75-16.29s12.88,9.93,11.62,14.61
				c0,0-0.87,0.53,1.69,1.79c2.16,1.06,5.93,18.91,2.16,17.41c-9.95-3.99-25.14,1.5-25.14,1.5S35.05,29.29,38.59,26.87z"/>
			<g>
				<g>
					<path class="st1" d="M39.4,34.44c0.16,0.22-5.17,7.7-2.19,18.18c0.92,3.17,1.3,5.15,4.68,8.25c0.29,0.2,0.59,0.38,0.91,0.56
						v3.39c-1.1,0.23-3.01,0.65-5,1.04c-2.51,0.52-4.8,0.96-6,1.14c-10.27,1.46-15.47,6.75-15.47,15.7
						c-0.2,3.53-0.59,7.06-1.2,10.55c-0.1,0.65,0.33,1.28,0.99,1.39c0.07,0.01,0.13,0.01,0.2,0.01h67.37c0.66,0,1.21-0.53,1.21-1.2
						c0-0.07-0.01-0.13-0.02-0.2c-0.59-3.49-0.99-7.02-1.18-10.55c0-8.94-5.2-14.22-15.47-15.7c-1.2-0.19-3.49-0.62-6.01-1.14
						c-1.97-0.4-3.88-0.81-4.99-1.04v-3.39c0.3-0.19,0.61-0.36,0.91-0.56c6.43-4.3,4.53-18.98,5.35-22.58 M33.15,69.22
						c1.04-0.17,2.4-0.44,3.88-0.74c1.49,7.15,8.5,11.76,15.65,10.27c5.17-1.07,9.22-5.11,10.28-10.27c1.49,0.3,2.85,0.56,3.88,0.74
						v23.04H33.15V69.22z M37.97,48.94v-8.22c3.3,0.43,11.48,0.95,16.74-3.31c2.01,1.84,4.6,2.93,7.31,3.07v8.47
						c0,6.64-5.38,12.03-12.04,12.03C43.36,60.97,37.97,55.59,37.97,48.94z M44.24,66.97c0.55-0.12,0.94-0.61,0.94-1.17v-3.25
						c3.12,1.12,6.52,1.12,9.62,0v3.25c0,0.56,0.4,1.05,0.95,1.17c0,0,2.23,0.49,4.85,1.02c-1.23,5.87-6.96,9.62-12.82,8.41
						c-4.22-0.88-7.52-4.19-8.39-8.41C42.01,67.46,44.24,66.97,44.24,66.97z M18.72,82.71c0-7.27,3.94-11.57,12.04-13.09v22.64
						H17.71C18.24,89.09,18.58,85.9,18.72,82.71z M69.25,92.26V69.62c8.09,1.53,12.04,5.83,12.04,13.09
						c0.13,3.2,0.47,6.39,0.99,9.55H69.25z M58.43,87.45c0,0.66-0.54,1.21-1.21,1.21H42.79c-0.66,0-1.21-0.54-1.21-1.21
						c0-0.66,0.54-1.21,1.21-1.21h14.43C57.88,86.25,58.43,86.78,58.43,87.45z"/>
				</g>
			</g>
		</g>
	</g>
</g>
</svg>
