<?xml version="1.0" encoding="utf-8"?>
<!-- Generator: Adobe Illustrator 27.5.0, SVG Export Plug-In . SVG Version: 6.00 Build 0)  -->
<svg version="1.1" id="Capa_1" xmlns="http://www.w3.org/2000/svg" xmlns:xlink="http://www.w3.org/1999/xlink" x="0px" y="0px"
	 viewBox="0 0 100 100" style="enable-background:new 0 0 100 100;" xml:space="preserve">
<style type="text/css">
	.st0{fill:#A19D9D;}
	.st1{fill:#1E1E1C;}
	.st2{fill:none;stroke:#1E1E1C;stroke-width:0.25;stroke-linecap:round;stroke-linejoin:round;stroke-miterlimit:10;}
	.st3{fill:none;stroke:#1E1E1C;stroke-width:3;stroke-miterlimit:10;}
</style>
<g>
	<path class="st0" d="M30.26,61.92l7.26-2.03c0,0,2.3,17.83,12.69,17.01c10.38-0.82,11.65-15.42,12.17-16.4
		c0.52-0.98,6.27,1.41,6.27,1.41s-2.77,19.55,6.47,24.97l0.79,4.64H23.75c0,0-2.14-3.28,6.13-10.21
		C33.45,78.35,30.26,61.92,30.26,61.92z"/>
	<g>
		<g>
			<path class="st1" d="M66.09,14.37c-2.03-1.97-3.84-3.06-6.18-4.33c-6.02-2.46-12.77-2.46-18.78,0c-4.97,2.52-8.57,7.1-9.85,12.52
				c-0.95,3.45-0.95,7.12,0.01,10.59c-1.12,3.59,0.31,7.48,3.49,9.5c0.79,3.4,2.47,6.52,4.86,9.08c-0.41,2.65-0.53,3.82-0.67,5.52
				c-0.38-0.14-0.79-0.19-1.2-0.13c-2.72,0.4-5.17,1.82-7.49,2.16c-1.05,0.14-1.86,0.98-1.98,2.03c-6.66,2.62-10.96,5.04-12.71,7.18
				c-3.55,4.38-4.83,19.9-4.95,21.66c-0.06,0.85,0.57,1.57,1.41,1.62c0.83,0.06,1.54-0.56,1.61-1.39c0.35-4.51,1.78-16.88,4.3-19.97
				c0.79-0.97,3.24-3,10.84-6.03c1.26,7.29,1.53,17.61-5.36,20.15c-0.98,0.35-1.61,1.32-1.53,2.36c0.12,1.12,0.21,2.19,0.3,3.25
				c0.08,0.83,0.83,1.44,1.67,1.36c0.82-0.07,1.43-0.81,1.37-1.63C25.17,89,25.09,88.1,25,87.19c8.64-3.67,8.36-15.83,6.49-25.03
				c2.14-0.45,4.15-1.45,6.05-1.88c0.37,2.52,0.95,5,1.76,7.4c1.97,6.21,6.08,10.06,10.73,10.06c4.71,0,8.72-3.76,10.71-10.06
				c0.81-2.4,1.39-4.87,1.76-7.4c1.83,0.48,3.73,1.68,5.87,2.18c-1.83,9.05-1.87,21.09,6.66,24.73c-0.08,0.91-0.16,1.8-0.25,2.69
				c-0.07,0.83,0.56,1.57,1.39,1.64c0.83,0.06,1.56-0.55,1.62-1.37c0.09-1.05,0.2-2.13,0.3-3.26c0.09-1.04-0.54-2.01-1.53-2.36
				c-6.89-2.54-6.73-12.88-5.49-20.13c8.01,3.26,10.55,5.4,11.37,6.42c2.4,3.04,3.62,15.15,3.88,19.55
				c0.06,0.83,0.78,1.48,1.61,1.43c0.83-0.06,1.46-0.78,1.42-1.61c-0.09-1.71-1.1-16.91-4.52-21.24c-1.79-2.27-6.32-4.85-13.39-7.67
				c-0.23-0.89-1-1.56-1.91-1.68c-2.25-0.33-4.54-2.05-7.32-2.46c-0.35-0.05-0.7-0.04-1.04,0.07c-0.12-1.58-0.22-2.62-0.66-5.43
				c2.59-2.52,4.38-5.75,5.16-9.28c3.26-2.24,4.44-6.49,2.79-10.09c1.12-4.64,0.8-9.51-0.88-13.99 M34.2,23.38
				c1.02-4.57,4.03-8.46,8.22-10.58c5.74-2.69,13.38-1.32,16.28,0.04c2.42,1.2,2.39,1.89,5.08,1.78c-0.27,0.81,1.94,1.42,1.31,1.98
				c-0.67,0.55-0.9,1.48-0.57,2.27c1.58,3.86,1.99,8.09,1.17,12.19c-1.41-2.14-2.17-4.63-2.22-7.19c-0.03-1.12-0.95-2.01-2.07-1.98
				c-0.18,0.01-0.37,0.04-0.54,0.09c-3.45,1.01-7.03,1.53-10.63,1.57c-3.78,0.04-7.56-0.47-11.21-1.5c-1.08-0.31-2.2,0.3-2.52,1.37
				c-0.04,0.16-0.07,0.33-0.08,0.49c-0.09,2.54-0.97,4.99-2.51,7C33.41,28.42,33.52,25.85,34.2,23.38z M37.61,41.4
				c-0.09-0.45-0.37-0.83-0.79-1.05c-1.97-1.02-3.1-3.16-2.83-5.36c1.48-0.49,4.75-4.84,5.33-9.68c3.58,0.89,7.23,1.32,10.91,1.3
				c3.45-0.04,6.9-0.49,10.25-1.37c0.47,4.84,3.63,10.19,5.71,10.13c0.06,2.02-0.98,3.92-2.72,4.94c-0.37,0.23-0.61,0.61-0.68,1.03
				C60.51,55.14,40.97,58.58,37.61,41.4z M50.01,74.7c-3.28,0-6.28-3.04-7.83-7.94c-0.7-2.1-1.24-4.26-1.6-6.43l0.22-0.07
				c0.61-0.18,1.04-0.71,1.09-1.36c0.19-2.91,0.3-3.27,0.49-4.79c4.57,2.96,10.82,2.36,15.35-0.29c0.12,0.88,0.54,3.89,0.54,5.08
				c0.04,0.62,0.48,1.16,1.08,1.34l0.07,0.03c-0.35,2.21-0.88,4.38-1.6,6.5C56.27,71.66,53.27,74.7,50.01,74.7L50.01,74.7z"/>
		</g>
	</g>
	<line class="st2" x1="12.41" y1="90.07" x2="87.77" y2="90.07"/>
	<line class="st3" x1="12.12" y1="90.32" x2="88.02" y2="90.32"/>
</g>
</svg>
