<?xml version="1.0" encoding="utf-8"?>
<!-- Generator: Adobe Illustrator 27.5.0, SVG Export Plug-In . SVG Version: 6.00 Build 0)  -->
<svg version="1.1" id="Capa_1" xmlns="http://www.w3.org/2000/svg" xmlns:xlink="http://www.w3.org/1999/xlink" x="0px" y="0px"
	 viewBox="0 0 119 131.5" style="enable-background:new 0 0 119 131.5;" xml:space="preserve">
<style type="text/css">
	.st0{fill:#EEBAA5;}
	.st1{fill:#1E1E1C;}
</style>
<g>
	<path class="st0" d="M37.19,90.38l5.64-0.88c0,0,5.83,14.85,16.8,12.35C70.61,99.36,74.3,90.98,74.5,88.89l7.48,0.8l-0.83,30.39
		l-43.31,0L37.19,90.38z"/>
	<g>
		<g>
			<path class="st1" d="M44.83,36.02c0,0,2.98-3.58,1.6-6.21c-1.39-2.63-6.64-17.31,8.67-20.94c15.31-3.63,16.56,12.76,14.93,18.78
				c0,0-1.12,0.68,2.17,2.3c2.77,1.36,7.62,24.31,2.77,22.38c-12.79-5.13-32.32,1.93-32.32,1.93S40.29,39.13,44.83,36.02z"/>
			<g>
				<g>
					<path class="st1" d="M45.87,45.75c0.21,0.28-6.64,9.9-2.82,23.37c1.18,4.07,1.67,6.62,6.01,10.6c0.37,0.26,0.76,0.49,1.17,0.72
						v4.36c-1.42,0.3-3.87,0.83-6.43,1.34c-3.22,0.67-6.17,1.23-7.71,1.47c-13.2,1.88-19.88,8.67-19.88,20.18
						c-0.26,4.54-0.76,9.07-1.54,13.56c-0.13,0.84,0.43,1.64,1.27,1.79c0.09,0.01,0.17,0.01,0.26,0.01l86.6,0
						c0.85,0,1.55-0.68,1.55-1.54c0-0.09-0.01-0.17-0.03-0.26c-0.76-4.49-1.27-9.02-1.52-13.56c0-11.49-6.68-18.28-19.88-20.18
						c-1.54-0.24-4.49-0.8-7.73-1.47c-2.53-0.51-4.99-1.04-6.41-1.34v-4.36c0.39-0.24,0.79-0.46,1.17-0.72
						c8.27-5.53,5.82-24.4,6.88-29.02 M37.84,90.45c1.34-0.22,3.09-0.56,4.99-0.95c1.92,9.19,10.93,15.12,20.12,13.2
						c6.65-1.38,11.85-6.57,13.21-13.2c1.92,0.38,3.66,0.72,4.99,0.95v29.62l-43.31,0V90.45z M44.04,64.39V53.82
						c4.24,0.55,14.75,1.22,21.52-4.25c2.59,2.36,5.91,3.77,9.4,3.94v10.89c0,8.53-6.92,15.46-15.47,15.46
						C50.96,79.85,44.04,72.93,44.04,64.39z M52.1,87.56c0.71-0.16,1.21-0.79,1.21-1.51v-4.18c4.01,1.44,8.38,1.44,12.37,0v4.18
						c0,0.72,0.51,1.35,1.22,1.51c0,0,2.87,0.63,6.24,1.31c-1.58,7.54-8.94,12.37-16.48,10.81c-5.42-1.13-9.66-5.38-10.79-10.81
						C49.23,88.19,52.1,87.56,52.1,87.56z M19.29,107.79c0-9.35,5.07-14.87,15.47-16.82v29.1H18C18.68,116,19.12,111.9,19.29,107.79
						z M84.25,120.07v-29.1c10.4,1.97,15.47,7.49,15.47,16.82c0.17,4.11,0.6,8.21,1.27,12.28H84.25z M70.33,113.89
						c0,0.85-0.7,1.55-1.55,1.55l-18.55,0c-0.85,0-1.55-0.7-1.55-1.55s0.7-1.55,1.55-1.55h18.55
						C69.63,112.34,70.33,113.03,70.33,113.89z"/>
				</g>
			</g>
		</g>
	</g>
</g>
</svg>
