<?xml version="1.0" encoding="utf-8"?>
<!-- Generator: Adobe Illustrator 27.5.0, SVG Export Plug-In . SVG Version: 6.00 Build 0)  -->
<svg version="1.1" id="Capa_1" xmlns="http://www.w3.org/2000/svg" xmlns:xlink="http://www.w3.org/1999/xlink" x="0px" y="0px"
	 viewBox="0 0 1200 628" style="enable-background:new 0 0 1200 628;" xml:space="preserve">
<style type="text/css">
	.st0{fill:none;stroke:#DDDBDC;stroke-width:4;stroke-miterlimit:10;}
	.st1{fill:#DDDBDC;}
	.st2{fill:#1E1E1C;}
	.st3{font-family:'BarlowSemiCondensed-MediumItalic';}
	.st4{font-size:28.7118px;}
	.st5{font-family:'BarlowSemiCondensed-LightItalic';}
	.st6{fill:#1D1D1B;}
	.st7{font-family:'BarlowSemiCondensed-Medium';}
	.st8{font-size:22.9695px;}
	.st9{font-family:'BarlowSemiCondensed-Light';}
	.st10{fill:none;stroke:#1D1D1B;stroke-width:0.35;stroke-linecap:round;stroke-linejoin:round;}
	.st11{fill:#F4E6D2;stroke:#CC1719;stroke-miterlimit:10;}
	.st12{fill:#CC1719;}
</style>
<g>
	<g>
		<g>
			<line class="st0" x1="170.84" y1="267.69" x2="1085.26" y2="267.69"/>
			<g>
				<polygon class="st1" points="1084.77,264.05 1084.77,271.34 1088.41,267.69 				"/>
			</g>
		</g>
	</g>
	<g>
		<text transform="matrix(1 0 0 1 160.4517 210.3271)"><tspan x="0" y="0" class="st2 st3 st4">JJ.OO.</tspan><tspan x="0" y="34.45" class="st2 st5 st4">Atenas, Grecia</tspan></text>
	</g>
	<g>
		<text transform="matrix(1 0 0 1 543.2778 210.3271)"><tspan x="0" y="0" class="st2 st3 st4">Panamericanos</tspan><tspan x="0" y="34.45" class="st2 st5 st4">Buenos Aires, Argentina</tspan></text>
	</g>
	<g>
		<text transform="matrix(1 0 0 1 129.541 306.1426)" class="st6 st7 st8">1900-1908</text>
	</g>
	<text transform="matrix(1 0 0 1 357.3696 306.1426)" class="st6 st9 st8">1925</text>
	<g>
		<text transform="matrix(1 0 0 1 536.8193 306.1426)" class="st6 st7 st8">1951</text>
	</g>
	<text transform="matrix(1 0 0 1 713.8877 306.1426)" class="st6 st9 st8">1975</text>
	<text transform="matrix(1 0 0 1 888.4727 306.1426)" class="st6 st9 st8">2000</text>
	<g>
		<text transform="matrix(1 0 0 1 1055.9443 306.1426)" class="st6 st7 st8">2023</text>
	</g>
	<g>
		<g>
			<line class="st10" x1="198.56" y1="259.07" x2="198.56" y2="276.33"/>
			<line class="st10" x1="376.53" y1="259.07" x2="376.53" y2="276.33"/>
			<line class="st10" x1="554.5" y1="259.07" x2="554.5" y2="276.33"/>
			<line class="st10" x1="732.47" y1="259.07" x2="732.47" y2="276.33"/>
			<line class="st10" x1="910.44" y1="259.07" x2="910.44" y2="276.33"/>
		</g>
	</g>
	<ellipse class="st11" cx="558.59" cy="266.64" rx="7.99" ry="7.9"/>
	<path class="st12" d="M178.83,267.69c0,4.36-3.58,7.9-7.99,7.9c-4.42,0-7.99-3.54-7.99-7.9c0-4.36,3.58-7.9,7.99-7.9
		C175.25,259.8,178.83,263.33,178.83,267.69z"/>
</g>
</svg>
