<?xml version="1.0" encoding="utf-8"?>
<!-- Generator: Adobe Illustrator 27.5.0, SVG Export Plug-In . SVG Version: 6.00 Build 0)  -->
<svg version="1.1" id="Capa_1" xmlns="http://www.w3.org/2000/svg" xmlns:xlink="http://www.w3.org/1999/xlink" x="0px" y="0px"
	 viewBox="0 0 1033 170.5" style="enable-background:new 0 0 1033 170.5;" xml:space="preserve">
<style type="text/css">
	.st0{fill:none;stroke:#DDDBDC;stroke-width:4;stroke-miterlimit:10;}
	.st1{fill:#DDDBDC;}
	.st2{fill:#1E1E1C;}
	.st3{font-family:'ArialMT';}
	.st4{font-size:28.7118px;}
	.st5{fill:#1D1D1B;}
	.st6{font-size:22.9695px;}
	.st7{font-family:'BarlowSemiCondensed-Medium';}
	.st8{fill:none;stroke:#1D1D1B;stroke-width:0.35;stroke-linecap:round;stroke-linejoin:round;}
	.st9{fill:#F4E6D2;stroke:#CC1719;stroke-miterlimit:10;}
	.st10{fill:#CC1719;}
</style>
<g>
	<g>
		<line class="st0" x1="76.84" y1="97.19" x2="991.26" y2="97.19"/>
		<g>
			<polygon class="st1" points="990.77,93.55 990.77,100.84 994.41,97.19 			"/>
		</g>
	</g>
</g>
<g>
	<text transform="matrix(1 0 0 1 66.4517 39.8271)"><tspan x="0" y="0" class="st2 st3 st4">JJ.OO.</tspan><tspan x="0" y="34.45" class="st2 st3 st4">Atenas, Grecia</tspan></text>
</g>
<g>
	<text transform="matrix(1 0 0 1 449.2778 39.8271)"><tspan x="0" y="0" class="st2 st3 st4">Panamericanos</tspan><tspan x="0" y="34.45" class="st2 st3 st4">Buenos Aires, Argentina</tspan></text>
</g>
<g>
	<text transform="matrix(1 0 0 1 24.9023 135.6426)" class="st5 st3 st6">1900-1908</text>
</g>
<text transform="matrix(1 0 0 1 256.9771 135.6426)" class="st5 st3 st6">1925</text>
<g>
	<text transform="matrix(1 0 0 1 434.9448 135.6426)" class="st5 st3 st6">1951</text>
</g>
<text transform="matrix(1 0 0 1 612.9209 135.6426)" class="st5 st3 st6">1975</text>
<text transform="matrix(1 0 0 1 790.8936 135.6426)" class="st5 st3 st6">2000</text>
<g>
	<text transform="matrix(1 0 0 1 961.9443 135.6426)" class="st5 st7 st6">2023</text>
</g>
<g>
	<g>
		<line class="st8" x1="104.56" y1="88.57" x2="104.56" y2="105.83"/>
		<line class="st8" x1="282.53" y1="88.57" x2="282.53" y2="105.83"/>
		<line class="st8" x1="460.5" y1="88.57" x2="460.5" y2="105.83"/>
		<line class="st8" x1="638.47" y1="88.57" x2="638.47" y2="105.83"/>
		<line class="st8" x1="816.44" y1="88.57" x2="816.44" y2="105.83"/>
	</g>
</g>
<ellipse class="st9" cx="464.59" cy="96.14" rx="7.99" ry="7.9"/>
<path class="st10" d="M84.83,97.19c0,4.36-3.58,7.9-7.99,7.9c-4.42,0-7.99-3.54-7.99-7.9c0-4.36,3.58-7.9,7.99-7.9
	C81.25,89.3,84.83,92.83,84.83,97.19z"/>
</svg>
