<?xml version="1.0" encoding="utf-8"?>
<!-- Generator: Adobe Illustrator 27.5.0, SVG Export Plug-In . SVG Version: 6.00 Build 0)  -->
<svg version="1.1" id="Capa_1" xmlns="http://www.w3.org/2000/svg" xmlns:xlink="http://www.w3.org/1999/xlink" x="0px" y="0px"
	 viewBox="0 0 153 274" style="enable-background:new 0 0 153 274;" xml:space="preserve">
<style type="text/css">
	.st0{fill:#F5D2C4;}
	.st1{fill:#A29E9E;}
	.st2{fill:#1D1D1B;}
	.st3{fill:#82828B;}
	.st4{fill:#656571;}
	.st5{fill:#6E6B6A;}
	.st6{fill:none;}
	.st7{fill:#1E1E1C;}
	.st8{font-family:'ArialMT';}
	.st9{font-size:7px;}
	.st10{fill:none;stroke:#CC1719;stroke-width:0.25;stroke-miterlimit:10;}
</style>
<g>
	<g>
		<path class="st0" d="M69.37,32.93c2.24,0,4.06-1.82,4.06-4.06c0-2.25-1.82-4.06-4.06-4.06s-4.06,1.82-4.06,4.06
			C65.31,31.11,67.13,32.93,69.37,32.93z"/>
	</g>
</g>
<g>
	<g>
		<path class="st0" d="M79.71,40.86c2.24,0,4.06-1.82,4.06-4.06c0-2.25-1.82-4.06-4.06-4.06s-4.06,1.82-4.06,4.06
			S77.47,40.86,79.71,40.86z"/>
	</g>
</g>
<g>
	<g>
		<path class="st1" d="M93.09,31.65c-1.54-0.1-3.07-0.15-4.64-0.18c-4.77-0.09-9.53-0.18-14.3-0.27c-0.12,0-0.56,0.06-0.65-0.01
			l-4.09-3.58l-5.89-11.37c0,0-0.74-3.23-2.06-4.85c0,0-1.21,0.83-0.92,1.69c0.29,0.87,1.76,3.38,2.05,3.56
			c0.29,0.17,5.54,10.91,5.54,10.91l-2.21,3.5c-25.38-0.42-36.87,2.03-36.87,2.03c2.71,2.6,25.39,2.86,46,2.4l3.2,3.99
			c0,0-4.02,11.25-4.29,11.46c-0.27,0.2-2.02,2.67-2.21,3.56c-0.19,0.89,1.08,1.85,1.08,1.85c1.4-2.78,2.1-5.11,2.1-5.11l4.58-11.96
			l3.65-4.01c0.51-0.02,1.01-0.03,1.52-0.05c22.47-0.75,22.35-2.13,22.35-2.13c-3.36-0.36-6.71-0.73-10.07-1.09
			C95.66,31.83,94.37,31.73,93.09,31.65z M72.1,31.15c-0.33-0.01-0.67-0.01-1.01-0.02l-1.32-2.27L72.1,31.15z M68.78,28.69
			l1.09,2.42c-0.82-0.02-1.67-0.03-2.55-0.05L68.78,28.69z M78.76,38.24l-2.19-2.81c1.05-0.02,2.09-0.05,3.12-0.08L78.76,38.24z
			 M79.72,37.95l1.17-2.64c0.34-0.01,0.67-0.02,1.01-0.03L79.72,37.95z"/>
		<path class="st2" d="M82.8,34.41H62.17c-0.69,0-1.26-0.57-1.26-1.26l0,0c0-0.69,0.57-1.26,1.26-1.26H82.8
			c0.69,0,1.26,0.57,1.26,1.26l0,0C84.06,33.85,83.49,34.41,82.8,34.41z"/>
		<g>
			<path class="st3" d="M81.66,33.95h-6.61c-0.36,0-0.66-0.3-0.66-0.66l0,0c0-0.36,0.3-0.66,0.66-0.66h6.61
				c0.36,0,0.66,0.3,0.66,0.66l0,0C82.32,33.65,82.03,33.95,81.66,33.95z"/>
			<path class="st3" d="M78.89,32.27c0,0,0.36-1.31,1.53-1.16c1.16,0.15,1.9,0.86,1.9,1.52c0,0.26-0.18,0.83-0.45,1.42
				c-0.44,0.94-1.12,1.93-1.74,1.8c-1.02-0.22-1.24-1.89-1.24-1.89s0.87-0.51,1.09,0.29s-0.07,0.64,0.62,0.73
				c0.69,0.08,1.12-1.82,0.47-2.84c-0.66-1.02-1.38-0.5-1.31,0s-0.87,1.6-0.87,0.87C78.89,32.27,78.89,32.27,78.89,32.27z"/>
			<path class="st4" d="M81.98,33.95L81.98,33.95c-0.42,0-0.76-0.34-0.76-0.76l0,0c0-0.42,0.34-0.76,0.76-0.76l0,0
				c0.42,0,0.76,0.34,0.76,0.76l0,0C82.74,33.61,82.4,33.95,81.98,33.95z"/>
			<path class="st3" d="M77.76,33.95L77.76,33.95c-0.1,0-0.18-0.08-0.18-0.18v-0.96c0-0.1,0.08-0.18,0.18-0.18l0,0
				c0.1,0,0.18,0.08,0.18,0.18v0.96C77.94,33.87,77.86,33.95,77.76,33.95z"/>
		</g>
		<g>
			<path class="st3" d="M71.7,33.95h-6.61c-0.36,0-0.66-0.3-0.66-0.66l0,0c0-0.36,0.3-0.66,0.66-0.66h6.61
				c0.36,0,0.66,0.3,0.66,0.66l0,0C72.36,33.65,72.06,33.95,71.7,33.95z"/>
			<path class="st3" d="M68.93,32.27c0,0,0.36-1.31,1.53-1.16c1.16,0.15,1.9,0.86,1.9,1.52c0,0.26-0.18,0.83-0.45,1.42
				c-0.44,0.94-1.12,1.93-1.74,1.8c-1.02-0.22-1.24-1.89-1.24-1.89s0.87-0.51,1.09,0.29c0.22,0.8-0.07,0.64,0.63,0.73
				c0.69,0.08,1.12-1.82,0.47-2.84c-0.66-1.02-1.38-0.5-1.31,0s-0.87,1.6-0.87,0.87C68.93,32.27,68.93,32.27,68.93,32.27z"/>
			<path class="st4" d="M72.02,33.95L72.02,33.95c-0.42,0-0.76-0.34-0.76-0.76l0,0c0-0.42,0.34-0.76,0.76-0.76l0,0
				c0.42,0,0.76,0.34,0.76,0.76l0,0C72.78,33.61,72.44,33.95,72.02,33.95z"/>
			<path class="st3" d="M67.8,33.95L67.8,33.95c-0.1,0-0.18-0.08-0.18-0.18v-0.96c0-0.1,0.08-0.18,0.18-0.18l0,0
				c0.1,0,0.18,0.08,0.18,0.18v0.96C67.98,33.87,67.9,33.95,67.8,33.95z"/>
		</g>
		<path class="st5" d="M84.06,31.92l1.46,0.88h17.62C103.13,32.8,92.23,31.61,84.06,31.92z"/>
		<path class="st5" d="M85.47,33.25l-1.41,1.46c0,0,17-0.13,19.25-1.46H85.47z"/>
		<path class="st5" d="M61.75,31.86l-1.32,0.99l-30.35,0.14C30.08,32.99,59.83,30.86,61.75,31.86z"/>
		<path class="st5" d="M60.93,34.67l-0.8-1.24H30.39C30.39,33.43,50.92,34.97,60.93,34.67z"/>
		<path class="st1" d="M61.78,10c0,0-2.69,1.37-3.05,1.75c-0.36,0.39,0.47,2.43,1.34,3.94s0.67,1.09,0.67,1.09s1.05-0.32,1.77-0.1
			l0.48,0.09c0,0,0.75-0.03,0.65-0.31c-0.1-0.28-1.62-5.98-1.73-6.22C61.78,10,61.78,10,61.78,10z"/>
	</g>
	<path class="st1" d="M72.27,57.77c0,0-2.53-1.65-2.84-2.07c-0.32-0.42,0.73-2.36,1.75-3.77c1.03-1.41,0.78-1.01,0.78-1.01
		s1.01,0.43,1.75,0.29l0.48-0.03c0,0,0.74,0.11,0.61,0.38s-2.26,5.77-2.4,5.99C72.27,57.77,72.27,57.77,72.27,57.77z"/>
</g>
<g>
	<path class="st1" d="M129.99,92.14l-18.1-1.51c0,0,0,0-16.87-0.25l-3.53-3.62l-4.98-11.8c0,0-0.65-2.51-2.27-5.04
		c0,0-1.24,1-1.02,1.89s2.06,3.29,2.33,3.48c0.27,0.2,4.67,11.31,4.67,11.31l-2.74,3.67c-2.83-0.04-5.99-0.09-9.51-0.14
		c-1.48-0.02-2.91-0.04-4.32-0.05l-3.79-3.89L64.9,74.4c0,0-0.21-2.25-2.27-5.04c0,0-1.76,1.5-1.54,2.38
		c0.22,0.89,2.58,2.79,2.85,2.99c0.27,0.19,4.67,11.31,4.67,11.31l-3.02,4.04c-25.28,0.17-36.85,2.06-36.85,2.06
		c2.99,2.21,24.82,2.73,47.76,2.55l2.21,2.93c0,0-4.36,11.13-4.63,11.32c-0.27,0.2-2.1,2.6-2.32,3.49s1.02,1.89,1.02,1.89
		c3.24-0.67,2.25-5.05,2.25-5.05l4.94-11.81l2.75-2.84c4.99-0.06,9.96-0.16,14.73-0.27l2.88,3.83c0,0-4.36,11.13-4.63,11.32
		s-2.1,2.6-2.32,3.49s1.02,1.88,1.02,1.88c3.24-0.67,2.25-5.05,2.25-5.05l4.94-11.81l3.76-3.88
		C130.13,93.37,129.99,92.14,129.99,92.14z M93.76,90.36c-0.3,0-0.6-0.01-0.91-0.01l-1.11-2.3L93.76,90.36z M90.78,87.8l0.91,2.53
		c-0.87-0.01-1.77-0.03-2.72-0.04L90.78,87.8z M72.38,90.07c-0.34,0-0.68,0-1.01,0l-1.24-2.58L72.38,90.07z M67.1,90.07l2.06-2.83
		l1.02,2.83C69.13,90.06,68.1,90.06,67.1,90.07z M77.98,94.68c0.64-0.01,1.27-0.01,1.91-0.02l-0.63,1.76L77.98,94.68z M80.22,96.17
		l0.73-1.52c0.2,0,0.4,0,0.6-0.01L80.22,96.17z M100.87,96.99l-1.96-2.67c0.69-0.02,1.37-0.03,2.05-0.05
		c0.3-0.01,0.59-0.02,0.88-0.02L100.87,96.99z M101.84,96.74l1.21-2.52c0.34-0.01,0.67-0.02,1-0.03L101.84,96.74z"/>
	<path class="st2" d="M104.69,93.74H55.22c-0.69,0-1.26-0.57-1.26-1.26l0,0c0-0.69,0.57-1.26,1.26-1.26h49.47
		c0.69,0,1.26,0.57,1.26,1.26l0,0C105.95,93.17,105.38,93.74,104.69,93.74z"/>
	<g>
		<path class="st3" d="M71.97,92.6h-6.61c-0.36,0-0.66-0.3-0.66-0.66l0,0c0-0.36,0.3-0.66,0.66-0.66h6.61c0.36,0,0.66,0.3,0.66,0.66
			l0,0C72.63,92.3,72.33,92.6,71.97,92.6z"/>
		<path class="st3" d="M69.2,90.92c0,0,0.36-1.31,1.53-1.16c1.16,0.15,1.9,0.86,1.9,1.52c0,0.26-0.18,0.83-0.45,1.42
			c-0.44,0.94-1.12,1.93-1.74,1.8c-1.02-0.22-1.24-1.89-1.24-1.89s0.87-0.51,1.09,0.29s-0.07,0.64,0.63,0.73
			c0.69,0.08,1.12-1.82,0.47-2.84s-1.38-0.5-1.31,0s-0.87,1.6-0.87,0.87C69.2,90.92,69.2,90.92,69.2,90.92z"/>
		<path class="st4" d="M72.29,92.6L72.29,92.6c-0.42,0-0.76-0.34-0.76-0.76l0,0c0-0.42,0.34-0.76,0.76-0.76l0,0
			c0.42,0,0.76,0.34,0.76,0.76l0,0C73.05,92.25,72.71,92.6,72.29,92.6z"/>
		<path class="st3" d="M68.07,92.6L68.07,92.6c-0.1,0-0.18-0.08-0.18-0.18v-0.96c0-0.1,0.08-0.18,0.18-0.18l0,0
			c0.1,0,0.18,0.08,0.18,0.18v0.96C68.25,92.51,68.17,92.6,68.07,92.6z"/>
	</g>
	<g>
		<path class="st3" d="M82.03,93.07h-6.61c-0.36,0-0.66-0.3-0.66-0.66l0,0c0-0.36,0.3-0.66,0.66-0.66h6.61
			c0.36,0,0.66,0.3,0.66,0.66l0,0C82.69,92.77,82.39,93.07,82.03,93.07z"/>
		<path class="st3" d="M79.25,91.39c0,0,0.36-1.31,1.53-1.17c1.17,0.15,1.9,0.86,1.9,1.52c0,0.26-0.18,0.83-0.45,1.42
			c-0.44,0.94-1.12,1.93-1.74,1.8c-1.02-0.22-1.24-1.89-1.24-1.89s0.87-0.51,1.09,0.29c0.22,0.8-0.07,0.64,0.63,0.73
			c0.69,0.08,1.12-1.82,0.47-2.84c-0.66-1.02-1.38-0.5-1.31,0s-0.87,1.6-0.87,0.87C79.25,91.39,79.25,91.39,79.25,91.39z"/>
		<path class="st4" d="M82.35,93.07L82.35,93.07c-0.42,0-0.76-0.34-0.76-0.76l0,0c0-0.42,0.34-0.76,0.76-0.76l0,0
			c0.42,0,0.76,0.34,0.76,0.76l0,0C83.11,92.73,82.77,93.07,82.35,93.07z"/>
		<path class="st3" d="M78.13,93.07L78.13,93.07c-0.1,0-0.18-0.08-0.18-0.18v-0.96c0-0.1,0.08-0.18,0.18-0.18l0,0
			c0.1,0,0.18,0.08,0.18,0.18v0.96C78.31,92.99,78.23,93.07,78.13,93.07z"/>
	</g>
	<g>
		<path class="st3" d="M93.42,93.07h-6.61c-0.36,0-0.66-0.3-0.66-0.66l0,0c0-0.36,0.3-0.66,0.66-0.66h6.61
			c0.36,0,0.66,0.3,0.66,0.66l0,0C94.09,92.77,93.79,93.07,93.42,93.07z"/>
		<path class="st3" d="M90.65,91.39c0,0,0.36-1.31,1.53-1.17c1.16,0.15,1.9,0.86,1.9,1.52c0,0.26-0.18,0.83-0.45,1.42
			c-0.44,0.94-1.12,1.93-1.74,1.8c-1.02-0.22-1.24-1.89-1.24-1.89s0.87-0.51,1.09,0.29c0.22,0.8-0.07,0.64,0.63,0.73
			c0.69,0.08,1.12-1.82,0.47-2.84c-0.66-1.02-1.38-0.5-1.31,0s-0.87,1.6-0.87,0.87C90.65,91.39,90.65,91.39,90.65,91.39z"/>
		<path class="st4" d="M93.75,93.07L93.75,93.07c-0.42,0-0.76-0.34-0.76-0.76l0,0c0-0.42,0.34-0.76,0.76-0.76l0,0
			c0.42,0,0.76,0.34,0.76,0.76l0,0C94.5,92.73,94.16,93.07,93.75,93.07z"/>
		<path class="st3" d="M89.52,93.07L89.52,93.07c-0.1,0-0.18-0.08-0.18-0.18v-0.96c0-0.1,0.08-0.18,0.18-0.18l0,0
			c0.1,0,0.18,0.08,0.18,0.18v0.96C89.71,92.99,89.62,93.07,89.52,93.07z"/>
	</g>
	<g>
		<path class="st3" d="M103.48,93.54h-6.61c-0.36,0-0.66-0.3-0.66-0.66l0,0c0-0.36,0.3-0.66,0.66-0.66h6.61
			c0.36,0,0.66,0.3,0.66,0.66l0,0C104.14,93.24,103.85,93.54,103.48,93.54z"/>
		<path class="st3" d="M100.71,91.87c0,0,0.36-1.31,1.53-1.16c1.16,0.15,1.9,0.85,1.9,1.52c0,0.26-0.18,0.83-0.45,1.42
			c-0.44,0.94-1.12,1.93-1.74,1.79c-1.02-0.22-1.24-1.89-1.24-1.89s0.87-0.51,1.09,0.29s-0.07,0.64,0.63,0.73
			c0.69,0.08,1.12-1.82,0.47-2.84c-0.66-1.02-1.38-0.5-1.31,0s-0.87,1.6-0.87,0.87C100.71,91.87,100.71,91.87,100.71,91.87z"/>
		<path class="st4" d="M103.8,93.54L103.8,93.54c-0.42,0-0.76-0.34-0.76-0.76l0,0c0-0.42,0.34-0.76,0.76-0.76l0,0
			c0.42,0,0.76,0.34,0.76,0.76l0,0C104.56,93.2,104.22,93.54,103.8,93.54z"/>
		<path class="st3" d="M99.58,93.54L99.58,93.54c-0.1,0-0.18-0.08-0.18-0.18V92.4c0-0.1,0.08-0.18,0.18-0.18l0,0
			c0.1,0,0.18,0.08,0.18,0.18v0.96C99.76,93.46,99.68,93.54,99.58,93.54z"/>
	</g>
	<path class="st5" d="M106.84,90.94l1.46,0.88h17.62C125.91,91.83,115.01,90.63,106.84,90.94z"/>
	<path class="st5" d="M108.25,92.27l-1.41,1.46c0,0,17-0.13,19.25-1.46H108.25z"/>
	<path class="st5" d="M53.96,91.19l-1.32,0.99l-22.94,0.1C29.7,92.28,52.05,90.19,53.96,91.19z"/>
	<path class="st5" d="M53.64,94.03l-0.92-1.27l-22.24-0.28C30.47,92.48,43.62,94.33,53.64,94.03z"/>
	<path class="st1" d="M63.64,67.95c0,0-2.69,1.37-3.05,1.75c-0.36,0.39,0.47,2.43,1.34,3.94s0.67,1.09,0.67,1.09s1.05-0.32,1.77-0.1
		l0.48,0.09c0,0,0.75-0.03,0.65-0.31s-1.62-5.98-1.73-6.22C63.64,67.95,63.64,67.95,63.64,67.95z"/>
	<path class="st1" d="M84.68,68.39c0,0-2.69,1.37-3.05,1.75c-0.36,0.39,0.47,2.43,1.34,3.94c0.87,1.51,0.67,1.09,0.67,1.09
		s1.05-0.32,1.77-0.1l0.48,0.08c0,0,0.75-0.03,0.65-0.31s-1.62-5.98-1.74-6.22C84.68,68.39,84.68,68.39,84.68,68.39z"/>
	<path class="st1" d="M95.89,116.66c0,0-2.53-1.65-2.84-2.07c-0.32-0.42,0.73-2.36,1.75-3.77c1.03-1.41,0.78-1.01,0.78-1.01
		s1.01,0.43,1.75,0.29l0.48-0.03c0,0,0.74,0.11,0.61,0.38s-2.26,5.77-2.4,5.99C95.89,116.66,95.89,116.66,95.89,116.66z"/>
	<path class="st1" d="M74.71,115.58c0,0-2.53-1.65-2.84-2.07c-0.32-0.42,0.73-2.36,1.75-3.77c1.03-1.41,0.78-1.01,0.78-1.01
		s1.01,0.43,1.75,0.29l0.48-0.03c0,0,0.74,0.11,0.61,0.38s-2.26,5.77-2.4,5.99C74.71,115.58,74.71,115.58,74.71,115.58z"/>
</g>
<g>
	<path class="st1" d="M126.19,234.84l-2.4,0.02l-3.34-3.17l-5.44-11.59c0,0-0.86-2.27-2.46-4.95c0,0-1.2,1.05-0.94,1.93
		c0.25,0.88,2.18,3.2,2.47,3.39c0.28,0.18,5.11,11.12,5.11,11.12l-2.3,3.34l-16.34,0.15l-3.57-3.39l-5.44-11.59
		c0,0-0.36-2.54-2.46-4.95c0,0-1.2,1.05-0.94,1.93c0.26,0.88,2.19,3.2,2.47,3.39c0.28,0.18,5.11,11.12,5.11,11.12l-2.45,3.56
		l-14.53,0.13l-3.78-3.59l-5.44-11.59c0,0-0.05-2.27-2.46-4.95c0,0-1.2,1.05-0.94,1.93c0.25,0.88,2.19,3.2,2.47,3.39
		c0.28,0.18,5.11,11.12,5.11,11.12l-2.59,3.76l-15.77,0.15l-4.01-3.8l-5.44-11.59c0,0-0.26-2.99-2.46-4.95c0,0-1.2,1.05-0.94,1.93
		c0.25,0.88,2.19,3.2,2.47,3.39c0.28,0.18,5.11,11.12,5.11,11.12l-2.74,3.98l-21.64,0.2c-9.7,0.45-18.26,2.78-18.26,2.78
		c5.11,2.89,17.99,3.48,17.99,3.48l10.09-0.03l2.59,3.37c0,0-4.23,11.18-4.5,11.38s-2.07,2.63-2.28,3.52
		c-0.21,0.89,1.04,1.87,1.04,1.87c0.94-3.41,2.19-5.07,2.19-5.07l4.8-11.87l3.04-3.21l16.28-0.05l3.05,3.96
		c0,0-4.23,11.18-4.5,11.38c-0.27,0.2-2.07,2.63-2.28,3.52c-0.21,0.89,1.04,1.87,1.04,1.87c1.56-3.74,2.19-5.07,2.19-5.07l4.8-11.87
		l3.6-3.81l14.06-0.04l3.11,4.03c0,0-4.23,11.18-4.5,11.38c-0.27,0.2-2.07,2.63-2.28,3.52c-0.21,0.89,1.04,1.87,1.04,1.87
		c1.49-3.24,2.19-5.07,2.19-5.07l4.8-11.87l3.67-3.88l15.38-0.05l3.16,4.1c0,0-4.23,11.18-4.5,11.38c-0.27,0.2-2.07,2.63-2.28,3.52
		c-0.21,0.89,1.04,1.87,1.04,1.87c1.64-3.46,2.19-5.07,2.19-5.07l4.8-11.87l3.74-3.95l14.72-0.05c11.05,0.65,21-3.67,21-3.67
		C141.37,233.83,126.19,234.84,126.19,234.84z M122.54,234.87l-0.78,0.01l-1.02-1.91L122.54,234.87z M119.77,232.76l0.86,2.13
		l-2.3,0.02L119.77,232.76z M99.27,235.09l-0.87,0.01l-1.13-2.12L99.27,235.09z M96.3,232.76l0.95,2.35l-2.54,0.02L96.3,232.76z
		 M77.44,235.29l-0.95,0.01l-1.24-2.33L77.44,235.29z M74.28,232.76l1.03,2.55l-2.75,0.03L74.28,232.76z M54.01,235.51l-1.04,0.01
		l-1.35-2.54L54.01,235.51z M50.64,232.76l1.12,2.76l-2.99,0.03L50.64,232.76z M38.61,244.15l-1.62-2.16l2.37-0.01L38.61,244.15z
		 M39.57,243.89l0.89-1.91h0.73L39.57,243.89z M62.25,244.67l-2.07-2.76l3.02-0.01L62.25,244.67z M63.21,244.41l1.16-2.51h0.96
		L63.21,244.41z M84.27,244.67l-2.12-2.83l3.1-0.01L84.27,244.67z M85.23,244.41l1.2-2.58h0.99L85.23,244.41z M107.74,244.67
		l-2.18-2.9l3.18-0.01L107.74,244.67z M108.7,244.41l1.23-2.65h1.02L108.7,244.41z"/>
	<path class="st2" d="M130.76,238.99l-100.68,1.2c-0.69,0.01-1.26-0.55-1.27-1.24l0,0c-0.01-0.69,0.55-1.26,1.24-1.27l100.68-1.2
		c0.69-0.01,1.27,0.55,1.27,1.24l0,0C132.01,238.41,131.45,238.99,130.76,238.99z"/>
	<g>
		<path class="st3" d="M42.31,239.33h-6.62c-0.36,0-0.66-0.3-0.66-0.66l0,0c0-0.36,0.3-0.66,0.66-0.66h6.62
			c0.36,0,0.66,0.3,0.66,0.66l0,0C42.97,239.03,42.67,239.33,42.31,239.33z"/>
		<path class="st3" d="M39.54,237.66c0,0,0.36-1.31,1.53-1.17c1.16,0.15,1.9,0.86,1.9,1.52c0,0.26-0.18,0.83-0.45,1.42
			c-0.44,0.94-1.12,1.93-1.74,1.8c-1.02-0.22-1.24-1.89-1.24-1.89s0.87-0.51,1.09,0.29c0.22,0.8-0.07,0.64,0.63,0.73
			c0.69,0.08,1.12-1.82,0.47-2.84c-0.66-1.02-1.38-0.5-1.31,0s-0.87,1.6-0.87,0.87C39.54,237.66,39.54,237.66,39.54,237.66z"/>
		<path class="st4" d="M42.63,239.33L42.63,239.33c-0.42,0-0.76-0.34-0.76-0.76l0,0c0-0.42,0.34-0.76,0.76-0.76l0,0
			c0.42,0,0.76,0.34,0.76,0.76l0,0C43.39,238.99,43.05,239.33,42.63,239.33z"/>
		<path class="st3" d="M38.41,239.33L38.41,239.33c-0.1,0-0.18-0.08-0.18-0.18v-0.96c0-0.1,0.08-0.18,0.18-0.18l0,0
			c0.1,0,0.18,0.08,0.18,0.18v0.96C38.59,239.25,38.51,239.33,38.41,239.33z"/>
	</g>
	<g>
		<path class="st3" d="M54.2,239.16h-6.61c-0.36,0-0.66-0.3-0.66-0.66l0,0c0-0.36,0.3-0.66,0.66-0.66h6.61
			c0.36,0,0.66,0.3,0.66,0.66l0,0C54.86,238.86,54.56,239.16,54.2,239.16z"/>
		<path class="st3" d="M51.43,237.48c0,0,0.36-1.31,1.53-1.16s1.9,0.85,1.9,1.52c0,0.26-0.18,0.83-0.45,1.42
			c-0.43,0.94-1.12,1.93-1.74,1.8c-1.02-0.22-1.24-1.89-1.24-1.89s0.87-0.51,1.09,0.29c0.22,0.8-0.07,0.64,0.62,0.73
			c0.69,0.08,1.12-1.82,0.47-2.84c-0.66-1.02-1.38-0.5-1.31,0s-0.87,1.6-0.87,0.87C51.43,237.48,51.43,237.48,51.43,237.48z"/>
		<path class="st4" d="M54.52,239.16L54.52,239.16c-0.42,0-0.76-0.34-0.76-0.76l0,0c0-0.42,0.34-0.76,0.76-0.76l0,0
			c0.42,0,0.76,0.34,0.76,0.76l0,0C55.28,238.81,54.94,239.16,54.52,239.16z"/>
		<path class="st3" d="M50.3,239.16L50.3,239.16c-0.1,0-0.18-0.08-0.18-0.18v-0.96c0-0.1,0.08-0.18,0.18-0.18l0,0
			c0.1,0,0.18,0.08,0.18,0.18v0.96C50.48,239.07,50.4,239.16,50.3,239.16z"/>
	</g>
	<g>
		<path class="st3" d="M66.3,239.37h-6.61c-0.36,0-0.66-0.3-0.66-0.66l0,0c0-0.36,0.3-0.66,0.66-0.66h6.61
			c0.36,0,0.66,0.3,0.66,0.66l0,0C66.97,239.07,66.67,239.37,66.3,239.37z"/>
		<path class="st3" d="M63.53,237.7c0,0,0.36-1.31,1.53-1.16c1.16,0.15,1.9,0.85,1.9,1.52c0,0.26-0.18,0.83-0.45,1.42
			c-0.44,0.94-1.12,1.93-1.74,1.8c-1.02-0.22-1.24-1.89-1.24-1.89s0.87-0.51,1.09,0.29c0.22,0.8-0.07,0.64,0.63,0.73
			c0.69,0.08,1.12-1.82,0.47-2.84c-0.66-1.02-1.38-0.5-1.31,0s-0.87,1.6-0.87,0.87C63.53,237.7,63.53,237.7,63.53,237.7z"/>
		<path class="st4" d="M66.63,239.37L66.63,239.37c-0.42,0-0.76-0.34-0.76-0.76l0,0c0-0.42,0.34-0.76,0.76-0.76l0,0
			c0.42,0,0.76,0.34,0.76,0.76l0,0C67.38,239.03,67.04,239.37,66.63,239.37z"/>
		<path class="st3" d="M62.4,239.37L62.4,239.37c-0.1,0-0.18-0.08-0.18-0.18v-0.96c0-0.1,0.08-0.18,0.18-0.18l0,0
			c0.1,0,0.18,0.08,0.18,0.18v0.96C62.59,239.29,62.5,239.37,62.4,239.37z"/>
	</g>
	<g>
		<path class="st3" d="M77.03,239.27h-6.61c-0.36,0-0.66-0.3-0.66-0.66l0,0c0-0.36,0.3-0.66,0.66-0.66h6.61
			c0.36,0,0.66,0.3,0.66,0.66l0,0C77.69,238.97,77.39,239.27,77.03,239.27z"/>
		<path class="st3" d="M74.26,237.59c0,0,0.36-1.31,1.53-1.17c1.17,0.15,1.9,0.86,1.9,1.52c0,0.26-0.18,0.83-0.45,1.42
			c-0.44,0.94-1.12,1.93-1.74,1.8c-1.02-0.22-1.24-1.89-1.24-1.89s0.87-0.51,1.09,0.29c0.22,0.8-0.07,0.64,0.62,0.73
			c0.69,0.08,1.12-1.82,0.47-2.84c-0.66-1.02-1.38-0.5-1.31,0s-0.87,1.6-0.87,0.87C74.26,237.59,74.26,237.59,74.26,237.59z"/>
		<path class="st4" d="M77.35,239.27L77.35,239.27c-0.42,0-0.76-0.34-0.76-0.76l0,0c0-0.42,0.34-0.76,0.76-0.76l0,0
			c0.42,0,0.76,0.34,0.76,0.76l0,0C78.11,238.92,77.77,239.27,77.35,239.27z"/>
		<path class="st3" d="M73.13,239.27L73.13,239.27c-0.1,0-0.18-0.08-0.18-0.18v-0.96c0-0.1,0.08-0.18,0.18-0.18l0,0
			c0.1,0,0.18,0.08,0.18,0.18v0.96C73.31,239.18,73.23,239.27,73.13,239.27z"/>
	</g>
	<g>
		<path class="st3" d="M88.33,239.14h-6.61c-0.36,0-0.66-0.3-0.66-0.66l0,0c0-0.36,0.3-0.66,0.66-0.66h6.61
			c0.36,0,0.66,0.3,0.66,0.66l0,0C88.99,238.84,88.69,239.14,88.33,239.14z"/>
		<path class="st3" d="M85.56,237.47c0,0,0.36-1.31,1.53-1.16c1.17,0.14,1.9,0.85,1.9,1.52c0,0.26-0.18,0.83-0.45,1.42
			c-0.43,0.94-1.12,1.93-1.74,1.8c-1.02-0.22-1.24-1.89-1.24-1.89s0.87-0.51,1.09,0.29c0.22,0.8-0.07,0.64,0.62,0.73
			c0.69,0.08,1.12-1.82,0.47-2.84c-0.66-1.02-1.38-0.5-1.31,0s-0.87,1.6-0.87,0.87S85.56,237.47,85.56,237.47z"/>
		<path class="st4" d="M88.65,239.14L88.65,239.14c-0.42,0-0.76-0.34-0.76-0.76l0,0c0-0.42,0.34-0.76,0.76-0.76l0,0
			c0.42,0,0.76,0.34,0.76,0.76l0,0C89.41,238.8,89.07,239.14,88.65,239.14z"/>
		<path class="st3" d="M84.43,239.14L84.43,239.14c-0.1,0-0.18-0.08-0.18-0.18V238c0-0.1,0.08-0.18,0.18-0.18l0,0
			c0.1,0,0.18,0.08,0.18,0.18v0.96C84.61,239.06,84.53,239.14,84.43,239.14z"/>
	</g>
	<g>
		<path class="st3" d="M100.35,239.18h-6.61c-0.36,0-0.66-0.3-0.66-0.66l0,0c0-0.36,0.3-0.66,0.66-0.66h6.61
			c0.36,0,0.66,0.3,0.66,0.66l0,0C101.01,238.89,100.71,239.18,100.35,239.18z"/>
		<path class="st3" d="M97.58,237.51c0,0,0.36-1.31,1.53-1.16c1.17,0.14,1.9,0.85,1.9,1.52c0,0.26-0.18,0.83-0.45,1.42
			c-0.44,0.94-1.12,1.93-1.74,1.8c-1.02-0.22-1.24-1.89-1.24-1.89s0.87-0.51,1.09,0.29c0.22,0.8-0.07,0.64,0.62,0.73
			c0.69,0.08,1.12-1.82,0.47-2.84c-0.66-1.02-1.38-0.5-1.31,0s-0.87,1.6-0.87,0.87C97.58,237.51,97.58,237.51,97.58,237.51z"/>
		<path class="st4" d="M100.67,239.18L100.67,239.18c-0.42,0-0.76-0.34-0.76-0.76l0,0c0-0.42,0.34-0.76,0.76-0.76l0,0
			c0.42,0,0.76,0.34,0.76,0.76l0,0C101.43,238.84,101.09,239.18,100.67,239.18z"/>
		<path class="st3" d="M96.45,239.18L96.45,239.18c-0.1,0-0.18-0.08-0.18-0.18v-0.96c0-0.1,0.08-0.18,0.18-0.18l0,0
			c0.1,0,0.18,0.08,0.18,0.18V239C96.63,239.1,96.55,239.18,96.45,239.18z"/>
	</g>
	<g>
		<path class="st3" d="M111.38,239.05h-6.61c-0.36,0-0.66-0.3-0.66-0.66l0,0c0-0.36,0.3-0.66,0.66-0.66h6.61
			c0.36,0,0.66,0.3,0.66,0.66l0,0C112.04,238.75,111.74,239.05,111.38,239.05z"/>
		<path class="st3" d="M108.61,237.37c0,0,0.36-1.31,1.53-1.16s1.9,0.85,1.9,1.52c0,0.26-0.18,0.83-0.45,1.42
			c-0.44,0.94-1.12,1.93-1.74,1.8c-1.02-0.22-1.24-1.89-1.24-1.89s0.87-0.51,1.09,0.29c0.22,0.8-0.07,0.64,0.63,0.73
			c0.69,0.08,1.12-1.82,0.47-2.84c-0.66-1.02-1.38-0.5-1.31,0s-0.87,1.6-0.87,0.87S108.61,237.37,108.61,237.37z"/>
		<path class="st4" d="M111.7,239.05L111.7,239.05c-0.42,0-0.76-0.34-0.76-0.76l0,0c0-0.42,0.34-0.76,0.76-0.76l0,0
			c0.42,0,0.76,0.34,0.76,0.76l0,0C112.46,238.7,112.12,239.05,111.7,239.05z"/>
		<path class="st3" d="M107.48,239.05L107.48,239.05c-0.1,0-0.18-0.08-0.18-0.18v-0.96c0-0.1,0.08-0.18,0.18-0.18l0,0
			c0.1,0,0.18,0.08,0.18,0.18v0.96C107.66,238.96,107.58,239.05,107.48,239.05z"/>
	</g>
	<g>
		<path class="st3" d="M123.12,238.76h-6.61c-0.36,0-0.66-0.3-0.66-0.66l0,0c0-0.36,0.3-0.66,0.66-0.66h6.61
			c0.36,0,0.66,0.3,0.66,0.66l0,0C123.78,238.46,123.48,238.76,123.12,238.76z"/>
		<path class="st3" d="M120.35,237.09c0,0,0.36-1.31,1.53-1.17c1.16,0.15,1.9,0.86,1.9,1.52c0,0.26-0.18,0.83-0.45,1.42
			c-0.44,0.94-1.12,1.93-1.74,1.8c-1.02-0.22-1.24-1.89-1.24-1.89s0.87-0.51,1.09,0.29c0.22,0.8-0.07,0.64,0.62,0.73
			c0.69,0.08,1.12-1.82,0.47-2.84c-0.66-1.02-1.38-0.5-1.31,0s-0.87,1.6-0.87,0.87C120.35,237.09,120.35,237.09,120.35,237.09z"/>
		<path class="st4" d="M123.44,238.76L123.44,238.76c-0.42,0-0.76-0.34-0.76-0.76l0,0c0-0.42,0.34-0.76,0.76-0.76l0,0
			c0.42,0,0.76,0.34,0.76,0.76l0,0C124.2,238.42,123.86,238.76,123.44,238.76z"/>
		<path class="st3" d="M119.22,238.76L119.22,238.76c-0.1,0-0.18-0.08-0.18-0.18v-0.96c0-0.1,0.08-0.18,0.18-0.18l0,0
			c0.1,0,0.18,0.08,0.18,0.18v0.96C119.4,238.68,119.32,238.76,119.22,238.76z"/>
	</g>
	<path class="st5" d="M130.84,235.55l2.38,1.6l13.23,0.38C146.45,237.53,139.01,235.24,130.84,235.55z"/>
	<path class="st5" d="M132.82,237.96l-1.51,2.11c0,0,12.64-0.64,14.89-1.97L132.82,237.96z"/>
	<path class="st5" d="M29.37,236.74l-1.28,1.82l-19.81,0.09C8.28,238.65,27.46,235.74,29.37,236.74z"/>
	<path class="st5" d="M28.9,241.24l-1.22-2.14l-19.4-0.24C8.28,238.86,18.88,241.54,28.9,241.24z"/>
	<path class="st1" d="M67.6,213.7c0,0-2.69,1.37-3.05,1.75c-0.36,0.39,0.47,2.43,1.34,3.94c0.87,1.51,0.67,1.09,0.67,1.09
		s1.05-0.32,1.77-0.1l0.48,0.08c0,0,0.75-0.03,0.65-0.31s-1.62-5.98-1.73-6.22C67.6,213.7,67.6,213.7,67.6,213.7z"/>
	<path class="st1" d="M44.49,213.26c0,0-2.69,1.37-3.05,1.75c-0.36,0.39,0.47,2.43,1.34,3.94c0.87,1.51,0.67,1.09,0.67,1.09
		s1.05-0.32,1.77-0.09l0.48,0.08c0,0,0.75-0.03,0.65-0.31s-1.62-5.98-1.73-6.22C44.49,213.26,44.49,213.26,44.49,213.26z"/>
	<path class="st1" d="M90.05,213.7c0,0-2.69,1.37-3.05,1.75c-0.36,0.39,0.47,2.43,1.34,3.94c0.87,1.51,0.67,1.09,0.67,1.09
		s1.05-0.32,1.77-0.1l0.48,0.08c0,0,0.75-0.03,0.65-0.31s-1.62-5.98-1.73-6.22C90.05,213.7,90.05,213.7,90.05,213.7z"/>
	<path class="st1" d="M113.46,213.7c0,0-2.69,1.37-3.05,1.75c-0.36,0.39,0.47,2.43,1.34,3.94c0.87,1.51,0.66,1.09,0.66,1.09
		s1.05-0.32,1.77-0.1l0.48,0.08c0,0,0.75-0.03,0.65-0.31s-1.62-5.98-1.74-6.22C113.46,213.7,113.46,213.7,113.46,213.7z"/>
	<path class="st1" d="M77.61,264c0,0-2.53-1.65-2.84-2.07c-0.32-0.42,0.73-2.36,1.75-3.77c1.03-1.41,0.78-1.01,0.78-1.01
		s1.01,0.43,1.75,0.29l0.48-0.03c0,0,0.74,0.11,0.61,0.38c-0.13,0.27-2.26,5.77-2.4,5.99C77.61,264,77.61,264,77.61,264z"/>
	<path class="st1" d="M31.8,263.5c0,0-2.53-1.65-2.85-2.07s0.73-2.36,1.75-3.77c1.03-1.41,0.78-1.01,0.78-1.01s1.01,0.43,1.75,0.29
		l0.48-0.03c0,0,0.74,0.11,0.61,0.38c-0.13,0.27-2.26,5.77-2.4,5.99C31.8,263.5,31.8,263.5,31.8,263.5z"/>
	<path class="st1" d="M101.15,264c0,0-2.53-1.65-2.84-2.07c-0.32-0.42,0.73-2.36,1.75-3.77c1.03-1.41,0.78-1.01,0.78-1.01
		s1.01,0.43,1.75,0.29l0.48-0.03c0,0,0.74,0.11,0.61,0.38c-0.13,0.27-2.26,5.77-2.4,5.99C101.15,264,101.15,264,101.15,264z"/>
	<path class="st1" d="M55.46,264c0,0-2.53-1.65-2.84-2.07c-0.32-0.42,0.73-2.36,1.75-3.77c1.03-1.41,0.78-1.01,0.78-1.01
		s1.01,0.43,1.75,0.29l0.48-0.03c0,0,0.74,0.11,0.61,0.38c-0.13,0.27-2.26,5.77-2.4,5.99C55.46,264,55.46,264,55.46,264z"/>
</g>
<g>
	<rect x="28.78" y="51.89" class="st6" width="24.5" height="9.84"/>
	<text transform="matrix(1 0 0 1 28.7811 58.5391)" class="st7 st8 st9">10,4 m</text>
</g>
<g>
	<rect x="117.15" y="206.22" class="st6" width="28.34" height="20.9"/>
	<text transform="matrix(1 0 0 1 122.1459 218.874)" class="st7 st8 st9">Con </text>
	<text transform="matrix(1 0 0 1 122.1459 226.754)" class="st7 st8 st9">timonel</text>
</g>
<g>
	<line class="st10" x1="29.33" y1="46.36" x2="106.44" y2="46.36"/>
	<line class="st10" x1="29.32" y1="44.56" x2="29.34" y2="48.15"/>
	<line class="st10" x1="106.43" y1="44.56" x2="106.45" y2="48.15"/>
</g>
<g>
	<rect x="27.71" y="110.96" class="st6" width="24.5" height="9.84"/>
	<text transform="matrix(1 0 0 1 27.7123 117.6074)" class="st7 st8 st9">13,4 m</text>
</g>
<g>
	<line class="st10" x1="28.8" y1="105.64" x2="128.22" y2="105.64"/>
	<line class="st10" x1="28.79" y1="103.85" x2="28.81" y2="107.43"/>
	<line class="st10" x1="128.2" y1="103.85" x2="128.23" y2="107.43"/>
</g>
<g>
	<path class="st1" d="M130.36,163.19l-18.1-1.51c0,0,0,0-16.87-0.25l-3.53-3.62l-4.98-11.8c0,0-0.65-2.51-2.27-5.04
		c0,0-1.24,1-1.02,1.89s2.06,3.29,2.33,3.48c0.27,0.2,4.67,11.31,4.67,11.31l-2.74,3.67c-2.83-0.04-5.99-0.09-9.51-0.14
		c-1.48-0.02-2.91-0.04-4.32-0.05l-3.79-3.89l-4.98-11.8c0,0-0.21-2.25-2.27-5.04c0,0-1.76,1.5-1.54,2.38
		c0.22,0.89,2.58,2.79,2.85,2.99c0.27,0.2,4.67,11.31,4.67,11.31l-3.02,4.04c-25.27,0.17-36.85,2.06-36.85,2.06
		c2.99,2.21,24.82,2.73,47.76,2.55l2.21,2.93c0,0-4.36,11.13-4.63,11.32c-0.27,0.2-2.1,2.6-2.32,3.49s1.02,1.89,1.02,1.89
		c3.25-0.67,2.25-5.05,2.25-5.05l4.94-11.81l2.75-2.84c4.99-0.06,9.96-0.16,14.73-0.27l2.88,3.83c0,0-4.36,11.13-4.63,11.32
		s-2.1,2.6-2.32,3.49s1.02,1.88,1.02,1.88c3.24-0.67,2.25-5.05,2.25-5.05l4.94-11.81l3.76-3.88
		C130.51,164.43,130.36,163.19,130.36,163.19z M94.13,161.42c-0.3,0-0.6-0.01-0.91-0.01l-1.11-2.3L94.13,161.42z M91.15,158.86
		l0.91,2.53c-0.87-0.01-1.78-0.03-2.72-0.04L91.15,158.86z M72.75,161.13c-0.34,0-0.68,0-1.01,0l-1.25-2.58L72.75,161.13z
		 M67.47,161.12l2.06-2.83l1.02,2.83C69.5,161.12,68.48,161.12,67.47,161.12z M78.35,165.74c0.63-0.01,1.27-0.01,1.91-0.02
		l-0.63,1.76L78.35,165.74z M80.59,167.23l0.73-1.52c0.2,0,0.4,0,0.6-0.01L80.59,167.23z M101.25,168.05l-1.95-2.67
		c0.69-0.02,1.37-0.03,2.05-0.05c0.3-0.01,0.59-0.02,0.88-0.02L101.25,168.05z M102.21,167.79l1.21-2.52c0.34-0.01,0.67-0.02,1-0.03
		L102.21,167.79z"/>
	<path class="st2" d="M105.06,164.8H55.59c-0.69,0-1.26-0.57-1.26-1.26l0,0c0-0.69,0.57-1.26,1.26-1.26h49.47
		c0.69,0,1.26,0.57,1.26,1.26l0,0C106.32,164.23,105.75,164.8,105.06,164.8z"/>
	<g>
		<path class="st3" d="M72.34,163.65h-6.61c-0.36,0-0.66-0.3-0.66-0.66l0,0c0-0.36,0.3-0.66,0.66-0.66h6.61
			c0.36,0,0.66,0.3,0.66,0.66l0,0C73,163.36,72.7,163.65,72.34,163.65z"/>
		<path class="st3" d="M69.57,161.98c0,0,0.36-1.31,1.53-1.16c1.16,0.15,1.9,0.86,1.9,1.52c0,0.26-0.18,0.83-0.45,1.42
			c-0.44,0.94-1.12,1.93-1.75,1.8c-1.02-0.22-1.24-1.89-1.24-1.89s0.87-0.51,1.09,0.29s-0.07,0.64,0.62,0.73
			c0.69,0.08,1.12-1.82,0.47-2.84c-0.66-1.02-1.38-0.5-1.31,0s-0.87,1.6-0.87,0.87C69.57,161.98,69.57,161.98,69.57,161.98z"/>
		<path class="st4" d="M72.66,163.65L72.66,163.65c-0.42,0-0.76-0.34-0.76-0.76l0,0c0-0.42,0.34-0.76,0.76-0.76l0,0
			c0.42,0,0.76,0.34,0.76,0.76l0,0C73.42,163.31,73.08,163.65,72.66,163.65z"/>
		<path class="st3" d="M68.44,163.65L68.44,163.65c-0.1,0-0.18-0.08-0.18-0.18v-0.96c0-0.1,0.08-0.18,0.18-0.18l0,0
			c0.1,0,0.18,0.08,0.18,0.18v0.96C68.62,163.57,68.54,163.65,68.44,163.65z"/>
	</g>
	<g>
		<path class="st3" d="M82.4,164.13h-6.61c-0.36,0-0.66-0.3-0.66-0.66l0,0c0-0.36,0.3-0.66,0.66-0.66h6.61
			c0.36,0,0.66,0.3,0.66,0.66l0,0C83.06,163.83,82.76,164.13,82.4,164.13z"/>
		<path class="st3" d="M79.63,162.45c0,0,0.36-1.31,1.53-1.17c1.16,0.15,1.9,0.86,1.9,1.52c0,0.26-0.18,0.83-0.45,1.42
			c-0.44,0.94-1.12,1.93-1.74,1.8c-1.02-0.22-1.24-1.89-1.24-1.89s0.87-0.51,1.09,0.29c0.22,0.8-0.07,0.64,0.62,0.73
			c0.69,0.08,1.12-1.82,0.47-2.84c-0.66-1.02-1.38-0.5-1.31,0s-0.87,1.6-0.87,0.87C79.63,162.45,79.63,162.45,79.63,162.45z"/>
		<path class="st4" d="M82.72,164.13L82.72,164.13c-0.42,0-0.76-0.34-0.76-0.76l0,0c0-0.42,0.34-0.76,0.76-0.76l0,0
			c0.42,0,0.76,0.34,0.76,0.76l0,0C83.48,163.78,83.14,164.13,82.72,164.13z"/>
		<path class="st3" d="M78.5,164.13L78.5,164.13c-0.1,0-0.18-0.08-0.18-0.18v-0.96c0-0.1,0.08-0.18,0.18-0.18l0,0
			c0.1,0,0.18,0.08,0.18,0.18v0.96C78.68,164.04,78.6,164.13,78.5,164.13z"/>
	</g>
	<g>
		<path class="st3" d="M93.8,164.13h-6.61c-0.36,0-0.66-0.3-0.66-0.66l0,0c0-0.36,0.3-0.66,0.66-0.66h6.61
			c0.36,0,0.66,0.3,0.66,0.66l0,0C94.46,163.83,94.16,164.13,93.8,164.13z"/>
		<path class="st3" d="M91.03,162.45c0,0,0.37-1.31,1.53-1.17c1.16,0.15,1.9,0.86,1.9,1.52c0,0.26-0.18,0.83-0.45,1.42
			c-0.44,0.94-1.12,1.93-1.74,1.8c-1.02-0.22-1.24-1.89-1.24-1.89s0.87-0.51,1.09,0.29c0.22,0.8-0.07,0.64,0.63,0.73
			c0.69,0.08,1.12-1.82,0.47-2.84c-0.66-1.02-1.38-0.5-1.31,0s-0.87,1.6-0.87,0.87C91.03,162.45,91.03,162.45,91.03,162.45z"/>
		<path class="st4" d="M94.12,164.13L94.12,164.13c-0.42,0-0.76-0.34-0.76-0.76l0,0c0-0.42,0.34-0.76,0.76-0.76l0,0
			c0.42,0,0.76,0.34,0.76,0.76l0,0C94.88,163.78,94.54,164.13,94.12,164.13z"/>
		<path class="st3" d="M89.9,164.13L89.9,164.13c-0.1,0-0.18-0.08-0.18-0.18v-0.96c0-0.1,0.08-0.18,0.18-0.18l0,0
			c0.1,0,0.18,0.08,0.18,0.18v0.96C90.08,164.04,90,164.13,89.9,164.13z"/>
	</g>
	<g>
		<path class="st3" d="M103.85,164.6h-6.61c-0.36,0-0.66-0.3-0.66-0.66l0,0c0-0.36,0.3-0.66,0.66-0.66h6.61
			c0.36,0,0.66,0.3,0.66,0.66l0,0C104.52,164.3,104.22,164.6,103.85,164.6z"/>
		<path class="st3" d="M101.08,162.92c0,0,0.36-1.31,1.53-1.16c1.16,0.15,1.9,0.86,1.9,1.52c0,0.26-0.18,0.83-0.45,1.42
			c-0.44,0.94-1.12,1.93-1.75,1.8c-1.02-0.22-1.24-1.89-1.24-1.89s0.87-0.51,1.09,0.29c0.22,0.8-0.07,0.64,0.63,0.73
			c0.69,0.08,1.12-1.82,0.47-2.84c-0.66-1.02-1.38-0.5-1.31,0s-0.87,1.6-0.87,0.87C101.08,162.92,101.08,162.92,101.08,162.92z"/>
		<path class="st4" d="M104.18,164.6L104.18,164.6c-0.42,0-0.76-0.34-0.76-0.76l0,0c0-0.42,0.34-0.76,0.76-0.76l0,0
			c0.42,0,0.76,0.34,0.76,0.76l0,0C104.94,164.26,104.59,164.6,104.18,164.6z"/>
		<path class="st3" d="M99.95,164.6L99.95,164.6c-0.1,0-0.18-0.08-0.18-0.18v-0.96c0-0.1,0.08-0.18,0.18-0.18l0,0
			c0.1,0,0.18,0.08,0.18,0.18v0.96C100.14,164.52,100.06,164.6,99.95,164.6z"/>
	</g>
	<path class="st5" d="M107.21,162l1.46,0.88h17.62C126.29,162.88,115.38,161.69,107.21,162z"/>
	<path class="st5" d="M108.63,163.33l-1.41,1.46c0,0,17-0.13,19.25-1.46H108.63z"/>
	<path class="st5" d="M54.33,162.25l-1.32,0.99l-22.94,0.1C30.08,163.34,52.42,161.25,54.33,162.25z"/>
	<path class="st5" d="M54.01,165.09l-0.92-1.27l-22.24-0.28C30.85,163.54,44,165.39,54.01,165.09z"/>
	<path class="st1" d="M64.01,139.01c0,0-2.69,1.37-3.05,1.75c-0.36,0.39,0.47,2.43,1.34,3.94c0.87,1.51,0.67,1.09,0.67,1.09
		s1.05-0.32,1.77-0.1l0.48,0.08c0,0,0.75-0.03,0.65-0.31s-1.62-5.98-1.73-6.22C64.01,139.01,64.01,139.01,64.01,139.01z"/>
	<path class="st1" d="M85.05,139.45c0,0-2.69,1.37-3.05,1.75c-0.36,0.39,0.47,2.43,1.34,3.94c0.87,1.51,0.67,1.09,0.67,1.09
		s1.05-0.32,1.77-0.1l0.48,0.09c0,0,0.75-0.03,0.65-0.31s-1.62-5.98-1.73-6.22C85.05,139.45,85.05,139.45,85.05,139.45z"/>
	<path class="st1" d="M96.26,187.72c0,0-2.53-1.65-2.84-2.07c-0.32-0.42,0.73-2.36,1.75-3.77c1.03-1.41,0.78-1.01,0.78-1.01
		s1.01,0.43,1.75,0.29l0.48-0.03c0,0,0.74,0.11,0.61,0.38s-2.26,5.77-2.4,5.99C96.26,187.72,96.26,187.72,96.26,187.72z"/>
	<path class="st1" d="M75.09,186.64c0,0-2.53-1.65-2.84-2.07c-0.32-0.42,0.73-2.36,1.75-3.77c1.03-1.41,0.78-1.01,0.78-1.01
		s1.01,0.43,1.75,0.29l0.48-0.03c0,0,0.74,0.11,0.61,0.38s-2.26,5.77-2.4,5.99C75.09,186.64,75.09,186.64,75.09,186.64z"/>
</g>
<g>
	<rect x="95.25" y="135" class="st6" width="52.8" height="19.97"/>
	<text transform="matrix(1 0 0 1 95.2523 147.6533)" class="st7 st8 st9">Cuatro sin </text>
	<text transform="matrix(1 0 0 1 95.2523 155.5333)" class="st7 st8 st9">timonel ligero</text>
</g>
<g>
	<rect x="27.89" y="182.55" class="st6" width="24.5" height="9.84"/>
	<text transform="matrix(1 0 0 1 27.8944 189.1963)" class="st7 st8 st9">13,4 m</text>
</g>
<g>
	<line class="st10" x1="29.06" y1="177.19" x2="128.48" y2="177.19"/>
	<line class="st10" x1="29.05" y1="175.4" x2="29.08" y2="178.98"/>
	<line class="st10" x1="128.47" y1="175.4" x2="128.49" y2="178.98"/>
</g>
<g>
	<rect x="6.25" y="253.73" class="st6" width="24.5" height="9.84"/>
	<text transform="matrix(1 0 0 1 6.2508 260.3818)" class="st7 st8 st9">19,9 m</text>
</g>
<g>
	<line class="st10" x1="4.96" y1="248.37" x2="143.42" y2="248.37"/>
	<line class="st10" x1="4.94" y1="246.58" x2="4.98" y2="250.16"/>
	<line class="st10" x1="143.4" y1="246.58" x2="143.44" y2="250.16"/>
</g>
</svg>
