<?xml version="1.0" encoding="utf-8"?>
<!-- Generator: Adobe Illustrator 27.5.0, SVG Export Plug-In . SVG Version: 6.00 Build 0)  -->
<svg version="1.1" id="Capa_1" xmlns="http://www.w3.org/2000/svg" xmlns:xlink="http://www.w3.org/1999/xlink" x="0px" y="0px"
	 viewBox="0 0 153 274" style="enable-background:new 0 0 153 274;" xml:space="preserve">
<style type="text/css">
	.st0{fill:#F5D2C4;}
	.st1{fill:#A29E9E;}
	.st2{fill:#6E6B6A;}
	.st3{fill:#1D1D1B;}
	.st4{fill:#1E1E1C;}
	.st5{fill:#BFBCBC;}
	.st6{fill:#82828B;}
	.st7{fill:#656571;}
	.st8{fill:#FFFFFF;}
	.st9{fill:none;}
	.st10{font-family:'BarlowSemiCondensed-LightItalic';}
	.st11{font-size:10.1828px;}
	.st12{fill:none;stroke:#CC1719;stroke-width:0.25;stroke-miterlimit:10;}
</style>
<g>
	<g>
		<path class="st0" d="M55.29,30.39c2.41,0,4.36-1.95,4.36-4.35c0-2.41-1.95-4.35-4.36-4.35c-2.4,0-4.35,1.95-4.35,4.35
			C50.94,28.44,52.89,30.39,55.29,30.39z"/>
	</g>
</g>
<g>
	<g>
		<path class="st0" d="M56.12,44.42c2.41,0,4.36-1.95,4.36-4.35c0-2.41-1.95-4.35-4.36-4.35c-2.4,0-4.35,1.95-4.35,4.35
			C51.77,42.47,53.72,44.42,56.12,44.42z"/>
	</g>
</g>
<g>
	<path class="st1" d="M60.63,30.21l-4.78-3.41l-7.5-14.2c0,0-1.68-5.17-3.19-4.49c-1.57,0.71-1.15,3.94,2.34,4.95l6.91,13.83
		l-3.93,3.76c0,0-30.29,0.73-35.93,2.25c0,0,2.05,1.18,16.47,1.59h19.12l3.8,4.35L47.4,52.32c0,0-3.97,2.25-1.72,4.17
		c0.77,0.66,1.27,0.82,3-3.74l6.66-13.66l5.72-3.37l0.68-0.73c0,0,15.49,0.73,24.53-2.57C86.26,32.42,77.64,30.63,60.63,30.21z
		 M59.18,30.63H57.3l-1.02-2.39L59.18,30.63z M54.48,27.82l1.79,2.82h-4.69L54.48,27.82z M54.31,37.89l-2.73-3.41h4.69L54.31,37.89z
		 M56.27,36.95l0.85-2.48h2.73L56.27,36.95z"/>
	<path class="st2" d="M62.88,31.47l1.56,0.95h18.88C83.32,32.42,71.63,31.14,62.88,31.47z"/>
	<path class="st2" d="M64.39,32.89l-1.52,1.56c0,0,18.22-0.14,20.64-1.56H64.39z"/>
	<path class="st2" d="M51.01,31.21l-1.41,1.06l-32.53,0.15C17.07,32.42,48.96,30.14,51.01,31.21z"/>
	<path class="st2" d="M50.13,34.22l-0.85-1.33H17.4C17.4,32.89,39.4,34.54,50.13,34.22z"/>
	<path class="st3" d="M53.43,32.89h-2.71c-0.13,0-0.24-0.11-0.24-0.24l0,0c0-0.13,0.11-0.24,0.24-0.24h2.71
		c0.13,0,0.24,0.11,0.24,0.24l0,0C53.67,32.78,53.56,32.89,53.43,32.89z"/>
	<path class="st4" d="M53.3,33.98L53.3,33.98c-0.21,0-0.37-0.17-0.37-0.37v-2.31c0-0.21,0.17-0.37,0.37-0.37l0,0
		c0.21,0,0.37,0.17,0.37,0.37v2.31C53.67,33.81,53.5,33.98,53.3,33.98z"/>
	<path class="st4" d="M54.69,33.98L54.69,33.98c-0.11,0-0.2-0.09-0.2-0.2v-2.16c0-0.11,0.09-0.2,0.2-0.2l0,0
		c0.11,0,0.2,0.09,0.2,0.2v2.16C54.89,33.89,54.8,33.98,54.69,33.98z"/>
	<path class="st3" d="M53.69,31.92h1.9c0.21,0,0.39,0.18,0.39,0.39l0,0c0,0.21-0.18,0.39-0.39,0.39h-1.9
		c-0.21,0-0.39-0.18-0.39-0.39l0,0C53.3,32.09,53.47,31.92,53.69,31.92z"/>
	<path class="st4" d="M58.38,33.67L58.38,33.67c-0.21,0-0.37-0.17-0.37-0.37v-1.51c0-0.21,0.17-0.37,0.37-0.37l0,0
		c0.21,0,0.37,0.17,0.37,0.37v1.51C58.75,33.5,58.59,33.67,58.38,33.67z"/>
	<path class="st4" d="M60.49,33.67h-8.6c-0.48,0-0.88-0.39-0.88-0.88l0,0c0-0.48,0.4-0.88,0.88-0.88h8.6c0.48,0,0.88,0.39,0.88,0.88
		l0,0C61.37,33.28,60.97,33.67,60.49,33.67z"/>
	<g>
		<g>
			<path class="st5" d="M59.67,33.41h-7.09c-0.39,0-0.71-0.32-0.71-0.71l0,0c0-0.39,0.32-0.71,0.71-0.71h7.09
				c0.39,0,0.71,0.32,0.71,0.71l0,0C60.37,33.09,60.06,33.41,59.67,33.41z"/>
			<path class="st5" d="M56.7,31.61c0,0,0.39-1.4,1.64-1.25c1.25,0.16,2.04,0.92,2.04,1.63c0,0.27-0.19,0.89-0.48,1.52
				c-0.47,1.01-1.2,2.07-1.87,1.92c-1.09-0.23-1.33-2.03-1.33-2.03s0.94-0.55,1.17,0.31c0.23,0.86-0.07,0.69,0.67,0.78
				c0.74,0.09,1.2-1.95,0.5-3.04c-0.7-1.09-1.48-0.53-1.4,0c0.08,0.53-0.94,1.72-0.94,0.94C56.7,31.61,56.7,31.61,56.7,31.61z"/>
			<path class="st5" d="M60.01,33.41L60.01,33.41c-0.45,0-0.81-0.37-0.81-0.81l0,0c0-0.45,0.37-0.81,0.81-0.81l0,0
				c0.45,0,0.81,0.37,0.81,0.81l0,0C60.82,33.04,60.46,33.41,60.01,33.41z"/>
			<path class="st5" d="M55.49,33.41L55.49,33.41c-0.11,0-0.2-0.09-0.2-0.2v-1.03c0-0.11,0.09-0.2,0.2-0.2l0,0
				c0.11,0,0.2,0.09,0.2,0.2v1.03C55.68,33.32,55.59,33.41,55.49,33.41z"/>
		</g>
	</g>
	<path class="st1" d="M46.48,6c0,0-2.88,1.46-3.27,1.88c-0.39,0.41,0.5,2.6,1.43,4.22c0.93,1.62,0.71,1.17,0.71,1.17
		s1.12-0.34,1.9-0.1l0.51,0.09c0,0,0.8-0.03,0.7-0.33c-0.1-0.3-1.74-6.41-1.86-6.66C46.48,6,46.48,6,46.48,6z"/>
	<path class="st1" d="M46.37,59.62c0,0-2.81-1.6-3.18-2.03c-0.37-0.43,0.62-2.57,1.62-4.15c1-1.58,0.77-1.13,0.77-1.13
		s1.11,0.39,1.89,0.19l0.51-0.07c0,0,0.8,0.07,0.68,0.36c-0.12,0.3-2.03,6.32-2.16,6.57C46.37,59.62,46.37,59.62,46.37,59.62z"/>
</g>
<g>
	<path class="st1" d="M97.32,96.01c-0.96-0.64-6.24-1.52-11.45-1.69c-1.51-0.05-6.57-0.05-13.21-0.03l-4.34-3.8L62.02,78.3
		c0,0,0.7-4.93-2.22-5.06c0,0-1.38,0.95-1.07,1.88c0.31,0.93,2,3.43,2.31,3.62c0.31,0.19,5.94,11.69,5.94,11.69l-2.46,3.89
		c-1.15,0-2.31,0.01-3.49,0.01l-4.39-3.85L50.32,78.3c0,0,0.52-5.97-2.84-5.2c0,0-0.6,1.03-0.3,1.96c0.31,0.93,1.84,3.48,2.15,3.67
		c0.31,0.19,5.94,11.69,5.94,11.69l-2.49,3.94c-12.33,0.05-24.62,0.6-28.71,0.91c-9.45,0.71-11.05,1.82-11.05,1.82
		c5.23,1.67,11.06,1.67,11.06,1.67s13.44,0.95,28.72,0.9l2.47,3.91c0,0-5.63,11.5-5.94,11.69c-0.31,0.19-2.1,2.98-2.41,3.91
		c-0.31,0.93,1.1,1.72,1.1,1.72c3.53-0.43,2.3-5.2,2.3-5.2l6.31-12.19l4.44-3.9c1.31-0.01,2.6-0.02,3.87-0.04l2.02,3.2
		c0,0-5.63,11.51-5.94,11.69c-0.31,0.19-2.26,3.19-2.57,4.12c-0.31,0.93,0.72,1.51,0.72,1.51c3.53-0.43,2.85-5.2,2.85-5.2
		l6.31-12.19l3.69-3.24c6.74-0.12,12.27-0.31,14.93-0.61C97.28,97.74,98.28,96.65,97.32,96.01z M71.2,94.3c-0.35,0-0.71,0-1.07,0
		l-1.43-2.45L71.2,94.3z M67.65,91.66l1.19,2.64c-0.92,0-1.86,0.01-2.82,0.01L67.65,91.66z M59.55,94.34c-0.36,0-0.72,0-1.09,0
		L57,91.85L59.55,94.34z M55.95,91.66l1.21,2.69c-0.95,0-1.91,0.01-2.87,0.01L55.95,91.66z M55.95,102.34l-1.65-2.68
		c0.95,0,1.91-0.01,2.86-0.01L55.95,102.34z M57,102.15l1.47-2.52c0.37,0,0.74,0,1.11-0.01L57,102.15z M67.65,101.55l-1.22-1.98
		c0.72-0.01,1.42-0.02,2.12-0.03L67.65,101.55z M68.7,101.36l1.07-1.84c0.27,0,0.55-0.01,0.82-0.01L68.7,101.36z"/>
	<path class="st3" d="M71.8,98.39H49.69c-0.74,0-1.35-0.61-1.35-1.35l0,0c0-0.74,0.61-1.35,1.35-1.35H71.8
		c0.74,0,1.35,0.61,1.35,1.35l0,0C73.15,97.78,72.54,98.39,71.8,98.39z"/>
	<g>
		<path class="st6" d="M58.64,97.6h-7.09c-0.39,0-0.71-0.32-0.71-0.71l0,0c0-0.39,0.32-0.71,0.71-0.71h7.09
			c0.39,0,0.71,0.32,0.71,0.71l0,0C59.35,97.29,59.03,97.6,58.64,97.6z"/>
		<path class="st6" d="M55.67,95.81c0,0,0.39-1.4,1.64-1.25c1.25,0.16,2.04,0.92,2.04,1.63c0,0.27-0.19,0.89-0.48,1.52
			c-0.47,1.01-1.2,2.07-1.87,1.92c-1.09-0.23-1.33-2.03-1.33-2.03s0.94-0.55,1.17,0.31c0.23,0.86-0.07,0.69,0.67,0.78
			c0.74,0.09,1.2-1.95,0.5-3.04c-0.7-1.09-1.48-0.53-1.4,0c0.08,0.53-0.94,1.72-0.94,0.94C55.67,95.81,55.67,95.81,55.67,95.81z"/>
		<path class="st7" d="M58.98,97.6L58.98,97.6c-0.45,0-0.81-0.37-0.81-0.81l0,0c0-0.45,0.37-0.81,0.81-0.81l0,0
			c0.45,0,0.81,0.37,0.81,0.81l0,0C59.79,97.24,59.43,97.6,58.98,97.6z"/>
		<path class="st6" d="M54.46,97.6L54.46,97.6c-0.11,0-0.2-0.09-0.2-0.2v-1.03c0-0.11,0.09-0.2,0.2-0.2l0,0c0.11,0,0.2,0.09,0.2,0.2
			v1.03C54.65,97.52,54.56,97.6,54.46,97.6z"/>
	</g>
	<g>
		<path class="st6" d="M70.75,97.6h-7.09c-0.39,0-0.71-0.32-0.71-0.71l0,0c0-0.39,0.32-0.71,0.71-0.71h7.09
			c0.39,0,0.71,0.32,0.71,0.71l0,0C71.46,97.29,71.14,97.6,70.75,97.6z"/>
		<path class="st6" d="M67.78,95.81c0,0,0.39-1.4,1.64-1.25c1.25,0.16,2.04,0.92,2.04,1.63c0,0.27-0.19,0.89-0.48,1.52
			c-0.47,1.01-1.2,2.07-1.87,1.92c-1.09-0.23-1.33-2.03-1.33-2.03s0.94-0.55,1.17,0.31c0.23,0.86-0.07,0.69,0.67,0.78
			c0.74,0.09,1.2-1.95,0.5-3.04c-0.7-1.09-1.48-0.53-1.4,0c0.08,0.53-0.94,1.72-0.94,0.94C67.78,95.81,67.78,95.81,67.78,95.81z"/>
		<path class="st7" d="M71.09,97.6L71.09,97.6c-0.45,0-0.81-0.37-0.81-0.81l0,0c0-0.45,0.37-0.81,0.81-0.81l0,0
			c0.45,0,0.81,0.37,0.81,0.81l0,0C71.91,97.24,71.54,97.6,71.09,97.6z"/>
		<path class="st6" d="M66.57,97.6L66.57,97.6c-0.11,0-0.19-0.09-0.19-0.2v-1.03c0-0.11,0.09-0.2,0.19-0.2l0,0
			c0.11,0,0.2,0.09,0.2,0.2v1.03C66.76,97.52,66.68,97.6,66.57,97.6z"/>
	</g>
	<path class="st2" d="M73.15,95.33l1.56,0.95h18.88C93.59,96.28,81.9,95,73.15,95.33z"/>
	<path class="st2" d="M74.66,96.75l-1.52,1.56c0,0,18.22-0.14,20.63-1.56H74.66z"/>
	<path class="st2" d="M48.56,95.71l-1.41,1.06l-32.53,0.15C14.62,96.92,46.51,94.64,48.56,95.71z"/>
	<path class="st2" d="M47.69,98.73l-0.85-1.33H14.95C14.95,97.4,36.95,99.05,47.69,98.73z"/>
	<path class="st2" d="M49.57,71.32c0,0-2.88,1.46-3.27,1.88s0.5,2.6,1.43,4.22c0.93,1.62,0.71,1.17,0.71,1.17s1.12-0.34,1.9-0.1
		l0.51,0.09c0,0,0.8-0.03,0.7-0.33c-0.1-0.3-1.74-6.41-1.86-6.66C49.57,71.32,49.57,71.32,49.57,71.32z"/>
	<path class="st2" d="M61.53,71.32c0,0-2.88,1.46-3.27,1.88s0.5,2.6,1.43,4.22c0.93,1.62,0.71,1.17,0.71,1.17s1.12-0.34,1.9-0.1
		l0.51,0.09c0,0,0.8-0.03,0.7-0.33c-0.11-0.3-1.74-6.41-1.86-6.66C61.53,71.32,61.53,71.32,61.53,71.32z"/>
	<path class="st2" d="M61.03,122.52c0,0-2.71-1.77-3.05-2.22c-0.34-0.45,0.78-2.53,1.88-4.04c1.1-1.51,0.84-1.08,0.84-1.08
		s1.08,0.46,1.88,0.31l0.52-0.04c0,0,0.79,0.12,0.66,0.41c-0.14,0.29-2.42,6.18-2.57,6.42C61.03,122.52,61.03,122.52,61.03,122.52z"
		/>
	<path class="st2" d="M49.58,122.98c0,0-2.71-1.77-3.05-2.22c-0.34-0.45,0.78-2.53,1.88-4.04c1.1-1.51,0.84-1.08,0.84-1.08
		s1.08,0.46,1.88,0.31l0.52-0.04c0,0,0.79,0.12,0.66,0.41c-0.14,0.29-2.42,6.18-2.57,6.42C49.58,122.98,49.58,122.98,49.58,122.98z"
		/>
</g>
<g>
	<path class="st1" d="M121.2,234.69c-1.25-0.64-8.12-1.52-14.88-1.69c-1.48-0.04-5.41-0.1-10.77-0.16l-3.98-3.49l-6.31-12.19
		c0,0-1.09-2.45-2.85-5.2c0,0-1.24,1.18-0.93,2.1c0.31,0.93,2.47,3.34,2.78,3.53c0.31,0.19,5.94,11.69,5.94,11.69l-2.19,3.47
		c-1.49-0.01-3.03-0.03-4.61-0.04l-3.83-3.36l-6.31-12.19c0,0-0.73-1.64-2.85-5.2c0,0-1.24,1.18-0.93,2.1
		c0.31,0.93,2.47,3.34,2.78,3.53c0.31,0.19,5.94,11.69,5.94,11.69l-2.12,3.36c-1.15-0.01-2.31-0.02-3.48-0.02l-4.27-3.74
		l-6.31-12.19c0,0-1.24-1.98-2.85-5.2c0,0-1.24,1.18-0.93,2.1c0.31,0.93,2.47,3.34,2.78,3.53c0.31,0.19,5.94,11.69,5.94,11.69
		l-2.38,3.76c-1.28-0.01-2.56-0.01-3.83-0.01l-4.2-3.68l-6.31-12.19c0,0-0.76-3.38-2.85-5.2c0,0-1.24,1.18-0.93,2.1
		c0.31,0.93,2.47,3.34,2.78,3.53c0.31,0.19,5.94,11.69,5.94,11.69l-2.36,3.74c-10.34,0-19.14,0.09-22.98,0.32
		c-14.39,0.85-15.57,3.26-15.57,3.26c5.52,2.1,15.12,2.18,15.12,2.18s10.12,0.06,23.19,0.06l2.34,3.7c0,0-5.63,11.5-5.94,11.69
		c-0.31,0.19-1.85,3.48-2.16,4.41c-0.31,0.93,0.3,1.22,0.3,1.22c1.97-2.23,2.85-5.2,2.85-5.2l6.31-12.19l4.16-3.65
		c1.35,0,2.7-0.01,4.07-0.01l2.08,3.29c0,0-5.63,11.51-5.94,11.69c-0.31,0.19-1.35,3.49-1.66,4.41c-0.31,0.93-0.19,1.22-0.19,1.22
		c2.32-5.21,2.85-5.2,2.85-5.2l6.31-12.19l3.71-3.25c1.23-0.01,2.45-0.01,3.67-0.02l2.38,3.77c0,0-5.51,12.23-5.82,12.41
		c-0.31,0.19-1.33,3.13-1.64,4.06c-0.31,0.93-0.33,0.85-0.33,0.85c2.23-4.27,2.85-5.2,2.85-5.2l6.31-12.19l4.31-3.78
		c1.57-0.02,3.11-0.04,4.61-0.06l2.19,3.47c0,0-5.63,11.51-5.94,11.69c-0.31,0.19-2.47,2.6-2.78,3.53c-0.31,0.93,0.93,2.1,0.93,2.1
		c1.65-3.39,2.85-5.2,2.85-5.2l6.31-12.19l4.04-3.54c5.32-0.12,9.61-0.28,12.11-0.49C121.15,236.41,122.45,235.33,121.2,234.69z
		 M94.1,232.82c-0.31,0-0.61-0.01-0.93-0.01l-1.22-2.1L94.1,232.82z M90.89,230.52l1.02,2.27c-0.78-0.01-1.58-0.02-2.4-0.03
		L90.89,230.52z M81.99,232.7c-0.29,0-0.58,0-0.88-0.01l-1.15-1.98L81.99,232.7z M78.9,230.52l0.97,2.15
		c-0.76-0.01-1.52-0.01-2.28-0.02L78.9,230.52z M71.15,232.62c-0.35,0-0.69,0-1.04-0.01l-1.38-2.37L71.15,232.62z M67.68,230.06
		l1.15,2.54c-0.9,0-1.8-0.01-2.7-0.01L67.68,230.06z M59.33,232.56c-0.34,0-0.68,0-1.02,0l-1.35-2.32L59.33,232.56z M55.91,230.06
		l1.13,2.5c-0.89,0-1.78,0-2.66,0L55.91,230.06z M55.65,240.84l-1.51-2.46c0.87,0,1.74,0,2.63,0L55.65,240.84z M56.7,240.65
		l1.33-2.28c0.33,0,0.67,0,1,0L56.7,240.65z M67.31,240.41l-1.26-2.05c0.73,0,1.46,0,2.19-0.01L67.31,240.41z M68.36,240.22
		l1.1-1.88c0.28,0,0.55,0,0.83,0L68.36,240.22z M78.43,240.84l-1.56-2.54c0.91-0.01,1.82-0.01,2.72-0.02L78.43,240.84z
		 M79.48,240.65l1.39-2.39c0.35,0,0.71-0.01,1.06-0.01L79.48,240.65z M90.89,240.41l-1.38-2.25c0.82-0.01,1.62-0.03,2.42-0.04
		L90.89,240.41z M91.94,240.22l1.24-2.13c0.32-0.01,0.64-0.01,0.95-0.02L91.94,240.22z"/>
	<path class="st8" d="M82.58,212.47c0,0-1.16,0.66-0.54,1.66c0.62,1.01,2.05,2.75,2.36,2.82c0.31,0.08-0.5-0.66-0.43-1.24
		c0.08-0.58,0.97,1.24,0.97,1.24S85.67,212.47,82.58,212.47z"/>
	<path class="st8" d="M70.59,212.47c0,0-1.16,0.66-0.54,1.66c0.62,1.01,2.05,2.75,2.36,2.82c0.31,0.08-0.5-0.66-0.43-1.24
		c0.08-0.58,0.97,1.24,0.97,1.24S71.74,215.29,70.59,212.47z"/>
	<path class="st8" d="M59.36,212.01c0,0-1.16,0.66-0.54,1.66c0.62,1,2.05,2.74,2.36,2.82c0.31,0.08-0.5-0.66-0.43-1.24
		c0.08-0.58,0.97,1.24,0.97,1.24S62.45,212.01,59.36,212.01z"/>
	<path class="st8" d="M47.59,212.01c0,0-1.16,0.66-0.54,1.66c0.62,1,2.05,2.74,2.36,2.82c0.31,0.08-0.5-0.66-0.43-1.24
		c0.08-0.58,0.97,1.24,0.97,1.24S50.69,212.01,47.59,212.01z"/>
	<path class="st2" d="M98.76,233.83l1.56,0.95h18.88C119.2,234.78,107.51,233.5,98.76,233.83z"/>
	<path class="st2" d="M100.27,235.25l-1.51,1.56c0,0,18.22-0.14,20.63-1.56H100.27z"/>
	<path class="st2" d="M42.22,233.66l-0.95,1.31l-25.29,0.62C15.99,235.6,40.17,232.59,42.22,233.66z"/>
	<path class="st2" d="M41.82,236.92l-0.85-1.33l-25.73,0.42C15.23,236.01,31.08,237.25,41.82,236.92z"/>
	<path class="st3" d="M96.09,237.12h-52.5c-0.89,0-1.62-0.73-1.62-1.62l0,0c0-0.89,0.73-1.62,1.62-1.62h52.5
		c0.89,0,1.62,0.73,1.62,1.62l0,0C97.71,236.39,96.98,237.12,96.09,237.12z"/>
	<g>
		<path class="st6" d="M59.02,235.95h-7.09c-0.39,0-0.71-0.32-0.71-0.71l0,0c0-0.39,0.32-0.71,0.71-0.71h7.09
			c0.39,0,0.71,0.32,0.71,0.71l0,0C59.73,235.63,59.41,235.95,59.02,235.95z"/>
		<path class="st6" d="M56.05,234.16c0,0,0.39-1.4,1.64-1.25c1.25,0.16,2.04,0.92,2.04,1.63c0,0.27-0.19,0.89-0.48,1.52
			c-0.47,1.01-1.2,2.07-1.87,1.92c-1.09-0.23-1.33-2.03-1.33-2.03s0.94-0.55,1.17,0.31c0.23,0.86-0.07,0.69,0.67,0.78
			c0.74,0.09,1.2-1.95,0.5-3.04c-0.7-1.09-1.48-0.53-1.4,0c0.08,0.53-0.94,1.72-0.94,0.94S56.05,234.16,56.05,234.16z"/>
		<path class="st7" d="M59.37,235.95L59.37,235.95c-0.45,0-0.81-0.37-0.81-0.81l0,0c0-0.45,0.37-0.81,0.81-0.81l0,0
			c0.45,0,0.81,0.37,0.81,0.81l0,0C60.18,235.59,59.82,235.95,59.37,235.95z"/>
		<path class="st6" d="M54.85,235.95L54.85,235.95c-0.11,0-0.2-0.09-0.2-0.2v-1.03c0-0.11,0.09-0.2,0.2-0.2l0,0
			c0.11,0,0.19,0.09,0.19,0.2v1.03C55.04,235.87,54.95,235.95,54.85,235.95z"/>
	</g>
	<g>
		<path class="st6" d="M71.03,235.95h-7.09c-0.39,0-0.71-0.32-0.71-0.71l0,0c0-0.39,0.32-0.71,0.71-0.71h7.09
			c0.39,0,0.71,0.32,0.71,0.71l0,0C71.74,235.63,71.42,235.95,71.03,235.95z"/>
		<path class="st6" d="M68.06,234.16c0,0,0.39-1.4,1.64-1.25c1.25,0.16,2.04,0.92,2.04,1.63c0,0.27-0.19,0.89-0.48,1.52
			c-0.47,1.01-1.2,2.07-1.87,1.92c-1.09-0.23-1.33-2.03-1.33-2.03s0.94-0.55,1.17,0.31c0.23,0.86-0.07,0.69,0.67,0.78
			c0.74,0.09,1.2-1.95,0.5-3.04c-0.7-1.09-1.48-0.53-1.4,0c0.08,0.53-0.94,1.72-0.94,0.94S68.06,234.16,68.06,234.16z"/>
		<path class="st7" d="M71.37,235.95L71.37,235.95c-0.45,0-0.81-0.37-0.81-0.81l0,0c0-0.45,0.37-0.81,0.81-0.81l0,0
			c0.45,0,0.81,0.37,0.81,0.81l0,0C72.19,235.59,71.82,235.95,71.37,235.95z"/>
		<path class="st6" d="M66.85,235.95L66.85,235.95c-0.11,0-0.2-0.09-0.2-0.2v-1.03c0-0.11,0.09-0.2,0.2-0.2l0,0
			c0.11,0,0.2,0.09,0.2,0.2v1.03C67.04,235.87,66.96,235.95,66.85,235.95z"/>
	</g>
	<g>
		<path class="st6" d="M81.55,236h-7.09c-0.39,0-0.71-0.32-0.71-0.71l0,0c0-0.39,0.32-0.71,0.71-0.71h7.09
			c0.39,0,0.71,0.32,0.71,0.71l0,0C82.26,235.69,81.94,236,81.55,236z"/>
		<path class="st6" d="M78.58,234.21c0,0,0.39-1.4,1.64-1.25c1.25,0.16,2.04,0.92,2.04,1.63c0,0.27-0.19,0.89-0.48,1.52
			c-0.47,1.01-1.2,2.07-1.87,1.92c-1.09-0.23-1.33-2.03-1.33-2.03s0.94-0.55,1.17,0.31c0.23,0.86-0.07,0.69,0.67,0.78
			c0.74,0.09,1.2-1.95,0.5-3.04c-0.7-1.09-1.48-0.53-1.41,0c0.08,0.53-0.94,1.72-0.94,0.94S78.58,234.21,78.58,234.21z"/>
		<path class="st7" d="M81.89,236L81.89,236c-0.45,0-0.81-0.37-0.81-0.81l0,0c0-0.45,0.37-0.81,0.81-0.81l0,0
			c0.45,0,0.81,0.37,0.81,0.81l0,0C82.71,235.64,82.34,236,81.89,236z"/>
		<path class="st6" d="M77.37,236L77.37,236c-0.11,0-0.2-0.09-0.2-0.2v-1.03c0-0.11,0.09-0.2,0.2-0.2l0,0c0.11,0,0.2,0.09,0.2,0.2
			v1.03C77.56,235.92,77.47,236,77.37,236z"/>
	</g>
	<g>
		<path class="st6" d="M94.03,236.33h-7.09c-0.39,0-0.71-0.32-0.71-0.71l0,0c0-0.39,0.32-0.71,0.71-0.71h7.09
			c0.39,0,0.71,0.32,0.71,0.71l0,0C94.74,236.01,94.43,236.33,94.03,236.33z"/>
		<path class="st6" d="M91.06,234.53c0,0,0.39-1.4,1.64-1.25c1.25,0.16,2.04,0.92,2.04,1.63c0,0.27-0.19,0.89-0.48,1.52
			c-0.47,1.01-1.2,2.07-1.87,1.92c-1.09-0.23-1.33-2.03-1.33-2.03s0.94-0.55,1.17,0.31s-0.07,0.69,0.67,0.78
			c0.74,0.09,1.2-1.95,0.5-3.04c-0.7-1.09-1.48-0.53-1.4,0c0.08,0.53-0.94,1.72-0.94,0.94C91.06,234.53,91.06,234.53,91.06,234.53z"
			/>
		<path class="st7" d="M94.38,236.33L94.38,236.33c-0.45,0-0.81-0.37-0.81-0.81l0,0c0-0.45,0.37-0.81,0.81-0.81l0,0
			c0.45,0,0.81,0.37,0.81,0.81l0,0C95.19,235.96,94.83,236.33,94.38,236.33z"/>
		<path class="st6" d="M89.85,236.33L89.85,236.33c-0.11,0-0.2-0.09-0.2-0.2v-1.03c0-0.11,0.09-0.2,0.2-0.2l0,0
			c0.11,0,0.2,0.09,0.2,0.2v1.03C90.05,236.24,89.96,236.33,89.85,236.33z"/>
	</g>
	<path class="st1" d="M60.44,210.15c0,0-2.89,1.46-3.27,1.88c-0.39,0.41,0.5,2.6,1.43,4.22c0.93,1.62,0.71,1.17,0.71,1.17
		s1.12-0.34,1.9-0.1l0.51,0.09c0,0,0.8-0.03,0.7-0.33c-0.1-0.3-1.74-6.41-1.86-6.66C60.44,210.15,60.44,210.15,60.44,210.15z"/>
	<path class="st1" d="M48.63,210.36c0,0-2.88,1.46-3.27,1.88c-0.39,0.41,0.5,2.6,1.43,4.22c0.93,1.62,0.71,1.17,0.71,1.17
		s1.12-0.34,1.9-0.1l0.51,0.09c0,0,0.8-0.03,0.7-0.33c-0.1-0.3-1.74-6.41-1.86-6.66C48.63,210.36,48.63,210.36,48.63,210.36z"/>
	<path class="st1" d="M71.18,210.82c0,0-2.88,1.46-3.27,1.88c-0.39,0.41,0.5,2.6,1.43,4.22c0.93,1.62,0.71,1.17,0.71,1.17
		s1.12-0.34,1.9-0.1l0.51,0.09c0,0,0.8-0.03,0.7-0.33c-0.1-0.3-1.74-6.41-1.86-6.66C71.18,210.82,71.18,210.82,71.18,210.82z"/>
	<path class="st1" d="M83.35,210.24c0,0-2.88,1.46-3.27,1.88c-0.39,0.41,0.5,2.6,1.43,4.22c0.93,1.62,0.71,1.17,0.71,1.17
		s1.12-0.34,1.9-0.1l0.51,0.09c0,0,0.8-0.03,0.7-0.33c-0.1-0.3-1.74-6.41-1.86-6.66C83.35,210.24,83.35,210.24,83.35,210.24z"/>
	<path class="st1" d="M58.74,260.86c0,0-2.71-1.77-3.05-2.22c-0.34-0.45,0.78-2.53,1.88-4.04c1.1-1.51,0.84-1.08,0.84-1.08
		s1.08,0.46,1.88,0.31l0.52-0.04c0,0,0.79,0.12,0.66,0.41c-0.14,0.29-2.42,6.18-2.57,6.42C58.74,260.86,58.74,260.86,58.74,260.86z"
		/>
	<path class="st1" d="M47.37,261.45c0,0-2.71-1.77-3.05-2.22c-0.34-0.45,0.78-2.53,1.88-4.04c1.1-1.51,0.84-1.08,0.84-1.08
		s1.08,0.46,1.88,0.31l0.52-0.04c0,0,0.79,0.12,0.66,0.41c-0.14,0.29-2.42,6.18-2.57,6.42C47.37,261.45,47.37,261.45,47.37,261.45z"
		/>
	<path class="st1" d="M82.45,260.42c0,0-2.71-1.77-3.05-2.22c-0.34-0.45,0.78-2.53,1.88-4.04c1.1-1.51,0.84-1.08,0.84-1.08
		s1.08,0.46,1.88,0.31l0.52-0.04c0,0,0.79,0.12,0.66,0.41c-0.14,0.29-2.42,6.18-2.57,6.42C82.45,260.42,82.45,260.42,82.45,260.42z"
		/>
	<path class="st1" d="M70.09,261.15c0,0-2.71-1.77-3.05-2.22c-0.34-0.45,0.78-2.53,1.88-4.04c1.1-1.51,0.84-1.08,0.84-1.08
		s1.08,0.46,1.88,0.31l0.52-0.04c0,0,0.79,0.12,0.66,0.41c-0.14,0.29-2.42,6.18-2.57,6.42C70.09,261.15,70.09,261.15,70.09,261.15z"
		/>
</g>
<g>
	<rect x="13.73" y="52.78" class="st9" width="26.26" height="10.55"/>
	<text transform="matrix(1 0 0 1 13.7266 59.9053)" class="st4 st10 st11">8,2 m</text>
</g>
<g>
	<line class="st12" x1="14.64" y1="47.14" x2="85.64" y2="47.14"/>
	<line class="st12" x1="14.63" y1="45.22" x2="14.65" y2="49.06"/>
	<line class="st12" x1="85.63" y1="45.22" x2="85.65" y2="49.06"/>
</g>
<g>
	<rect x="13.38" y="116.29" class="st9" width="26.26" height="10.55"/>
	<text transform="matrix(1 0 0 1 13.3838 123.418)" class="st4 st10 st11">10,4 m</text>
</g>
<g>
	<line class="st12" x1="14.67" y1="110.13" x2="97.6" y2="110.13"/>
	<line class="st12" x1="14.66" y1="108.21" x2="14.68" y2="112.05"/>
	<line class="st12" x1="97.59" y1="108.21" x2="97.61" y2="112.05"/>
</g>
<g>
	<rect x="13.72" y="256.45" class="st9" width="26.26" height="10.55"/>
	<text transform="matrix(1 0 0 1 13.7148 263.5791)" class="st4 st10 st11">13,4 m</text>
</g>
<g>
	<line class="st12" x1="14.49" y1="250.63" x2="121.39" y2="250.63"/>
	<line class="st12" x1="14.48" y1="248.72" x2="14.51" y2="252.55"/>
	<line class="st12" x1="121.38" y1="248.72" x2="121.41" y2="252.55"/>
</g>
<g>
	<path class="st1" d="M97.79,159.55c-0.96-0.64-6.24-1.52-11.45-1.69c-1.51-0.05-6.57-0.05-13.21-0.03l-4.34-3.8l-6.31-12.19
		c0,0,0.7-4.93-2.22-5.06c0,0-1.38,0.95-1.07,1.88c0.31,0.93,2,3.43,2.31,3.62c0.31,0.19,5.94,11.69,5.94,11.69l-2.46,3.89
		c-1.15,0-2.31,0.01-3.49,0.01l-4.39-3.85l-6.31-12.19c0,0,0.52-5.97-2.85-5.2c0,0-0.6,1.03-0.29,1.96
		c0.31,0.93,1.84,3.48,2.15,3.67c0.31,0.19,5.94,11.69,5.94,11.69l-2.49,3.94c-12.33,0.05-24.62,0.6-28.71,0.91
		c-9.45,0.7-11.05,1.82-11.05,1.82c5.23,1.67,11.06,1.67,11.06,1.67s13.44,0.95,28.72,0.9l2.47,3.91c0,0-5.63,11.51-5.94,11.69
		c-0.31,0.19-2.1,2.98-2.41,3.91c-0.31,0.93,1.1,1.72,1.1,1.72c3.53-0.43,2.3-5.2,2.3-5.2l6.31-12.19l4.44-3.9
		c1.31-0.01,2.6-0.02,3.87-0.04l2.02,3.2c0,0-5.63,11.51-5.94,11.69c-0.31,0.19-2.26,3.19-2.57,4.12c-0.31,0.93,0.72,1.51,0.72,1.51
		c3.53-0.43,2.85-5.2,2.85-5.2l6.31-12.19l3.69-3.24c6.74-0.12,12.27-0.31,14.93-0.61C97.75,161.27,98.75,160.19,97.79,159.55z
		 M71.67,157.83c-0.35,0-0.71,0-1.07,0l-1.43-2.45L71.67,157.83z M68.12,155.2l1.19,2.64c-0.92,0-1.86,0.01-2.82,0.01L68.12,155.2z
		 M60.02,157.88c-0.36,0-0.73,0-1.09,0l-1.46-2.5L60.02,157.88z M56.42,155.2l1.21,2.69c-0.95,0-1.91,0.01-2.87,0.01L56.42,155.2z
		 M56.42,165.88l-1.65-2.68c0.95,0,1.91-0.01,2.86-0.01L56.42,165.88z M57.47,165.69l1.47-2.52c0.37,0,0.74,0,1.11-0.01
		L57.47,165.69z M68.12,165.08l-1.22-1.98c0.72-0.01,1.42-0.02,2.12-0.03L68.12,165.08z M69.17,164.9l1.07-1.84
		c0.28,0,0.55-0.01,0.82-0.01L69.17,164.9z"/>
	<path class="st3" d="M72.27,161.92H50.16c-0.74,0-1.35-0.61-1.35-1.35l0,0c0-0.74,0.61-1.35,1.35-1.35h22.11
		c0.74,0,1.35,0.61,1.35,1.35l0,0C73.62,161.31,73.01,161.92,72.27,161.92z"/>
	<g>
		<path class="st6" d="M59.11,161.14h-7.09c-0.39,0-0.71-0.32-0.71-0.71l0,0c0-0.39,0.32-0.71,0.71-0.71h7.09
			c0.39,0,0.71,0.32,0.71,0.71l0,0C59.81,160.82,59.5,161.14,59.11,161.14z"/>
		<path class="st6" d="M56.14,159.35c0,0,0.39-1.4,1.64-1.25c1.25,0.16,2.04,0.92,2.04,1.63c0,0.27-0.19,0.89-0.48,1.52
			c-0.47,1.01-1.2,2.07-1.87,1.92c-1.09-0.23-1.33-2.03-1.33-2.03s0.94-0.55,1.17,0.31c0.23,0.86-0.07,0.69,0.67,0.78
			c0.74,0.09,1.2-1.95,0.5-3.04c-0.7-1.09-1.48-0.53-1.4,0c0.08,0.53-0.94,1.72-0.94,0.94C56.14,159.35,56.14,159.35,56.14,159.35z"
			/>
		<path class="st7" d="M59.45,161.14L59.45,161.14c-0.45,0-0.81-0.37-0.81-0.81l0,0c0-0.45,0.37-0.81,0.81-0.81l0,0
			c0.45,0,0.81,0.37,0.81,0.81l0,0C60.26,160.78,59.9,161.14,59.45,161.14z"/>
		<path class="st6" d="M54.93,161.14L54.93,161.14c-0.11,0-0.2-0.09-0.2-0.2v-1.03c0-0.11,0.09-0.2,0.2-0.2l0,0
			c0.11,0,0.2,0.09,0.2,0.2v1.03C55.12,161.05,55.03,161.14,54.93,161.14z"/>
	</g>
	<g>
		<path class="st6" d="M71.22,161.14h-7.09c-0.39,0-0.71-0.32-0.71-0.71l0,0c0-0.39,0.32-0.71,0.71-0.71h7.09
			c0.39,0,0.71,0.32,0.71,0.71l0,0C71.93,160.82,71.61,161.14,71.22,161.14z"/>
		<path class="st6" d="M68.25,159.35c0,0,0.39-1.4,1.64-1.25c1.25,0.16,2.04,0.92,2.04,1.63c0,0.27-0.19,0.89-0.48,1.52
			c-0.47,1.01-1.2,2.07-1.87,1.92c-1.09-0.23-1.33-2.03-1.33-2.03s0.94-0.55,1.17,0.31c0.23,0.86-0.07,0.69,0.67,0.78
			c0.74,0.09,1.2-1.95,0.5-3.04c-0.7-1.09-1.48-0.53-1.4,0c0.08,0.53-0.94,1.72-0.94,0.94C68.25,159.35,68.25,159.35,68.25,159.35z"
			/>
		<path class="st7" d="M71.56,161.14L71.56,161.14c-0.45,0-0.81-0.37-0.81-0.81l0,0c0-0.45,0.37-0.81,0.81-0.81l0,0
			c0.45,0,0.81,0.37,0.81,0.81l0,0C72.38,160.78,72.01,161.14,71.56,161.14z"/>
		<path class="st6" d="M67.04,161.14L67.04,161.14c-0.11,0-0.2-0.09-0.2-0.2v-1.03c0-0.11,0.09-0.2,0.2-0.2l0,0
			c0.11,0,0.2,0.09,0.2,0.2v1.03C67.23,161.05,67.15,161.14,67.04,161.14z"/>
	</g>
	<path class="st2" d="M73.62,158.86l1.56,0.95h18.88C94.06,159.81,82.37,158.53,73.62,158.86z"/>
	<path class="st2" d="M75.13,160.28l-1.51,1.56c0,0,18.22-0.14,20.63-1.56H75.13z"/>
	<path class="st2" d="M49.03,159.25l-1.41,1.06l-32.53,0.15C15.09,160.46,46.98,158.18,49.03,159.25z"/>
	<path class="st2" d="M48.16,162.26l-0.85-1.33H15.42C15.42,160.93,37.42,162.58,48.16,162.26z"/>
	<path class="st2" d="M50.04,134.86c0,0-2.88,1.46-3.27,1.88c-0.39,0.41,0.5,2.6,1.43,4.22c0.93,1.62,0.71,1.17,0.71,1.17
		s1.12-0.34,1.9-0.1l0.51,0.09c0,0,0.8-0.03,0.7-0.33c-0.11-0.3-1.74-6.41-1.86-6.66C50.04,134.86,50.04,134.86,50.04,134.86z"/>
	<path class="st2" d="M62,134.86c0,0-2.88,1.46-3.27,1.88c-0.39,0.41,0.5,2.6,1.43,4.22c0.93,1.62,0.71,1.17,0.71,1.17
		s1.12-0.34,1.9-0.1l0.51,0.09c0,0,0.8-0.03,0.7-0.33c-0.1-0.3-1.74-6.41-1.86-6.66C62,134.86,62,134.86,62,134.86z"/>
	<path class="st2" d="M61.5,186.06c0,0-2.71-1.77-3.05-2.22c-0.34-0.45,0.78-2.53,1.88-4.04c1.1-1.51,0.84-1.08,0.84-1.08
		s1.08,0.46,1.88,0.31l0.52-0.04c0,0,0.79,0.12,0.66,0.41c-0.14,0.29-2.42,6.18-2.57,6.42C61.5,186.06,61.5,186.06,61.5,186.06z"/>
	<path class="st2" d="M50.05,186.52c0,0-2.71-1.77-3.05-2.22c-0.34-0.45,0.78-2.53,1.88-4.04c1.1-1.51,0.84-1.08,0.84-1.08
		s1.08,0.46,1.88,0.31l0.52-0.04c0,0,0.79,0.12,0.66,0.41c-0.14,0.29-2.42,6.18-2.57,6.42C50.05,186.52,50.05,186.52,50.05,186.52z"
		/>
</g>
<g>
	<rect x="13.46" y="179.88" class="st9" width="26.26" height="10.55"/>
	<text transform="matrix(1 0 0 1 13.458 187.0059)" class="st4 st10 st11">10,4 m</text>
</g>
<g>
	<line class="st12" x1="14.59" y1="174.08" x2="97.52" y2="174.08"/>
	<line class="st12" x1="14.58" y1="172.16" x2="14.6" y2="176"/>
	<line class="st12" x1="97.51" y1="172.16" x2="97.53" y2="176"/>
</g>
<g>
	<rect x="91.94" y="141.78" class="st9" width="52.3" height="9.17"/>
	<text transform="matrix(1 0 0 1 91.9434 148.9053)" class="st4 st10 st11">Doble ligero</text>
</g>
</svg>
