<?xml version="1.0" encoding="utf-8"?>
<!-- Generator: Adobe Illustrator 27.5.0, SVG Export Plug-In . SVG Version: 6.00 Build 0)  -->
<svg version="1.1" id="Capa_1" xmlns="http://www.w3.org/2000/svg" xmlns:xlink="http://www.w3.org/1999/xlink" x="0px" y="0px"
	 viewBox="0 0 113.21 264.09" style="enable-background:new 0 0 113.21 264.09;" xml:space="preserve">
<style type="text/css">
	.st0{fill:#F5D2C4;}
	.st1{fill:#A29E9E;}
	.st2{fill:#6E6B6A;}
	.st3{fill:#1D1D1B;}
	.st4{fill:#1E1E1C;}
	.st5{fill:#BFBCBC;}
	.st6{fill:#82828B;}
	.st7{fill:#656571;}
	.st8{fill:#FFFFFF;}
	.st9{fill:none;}
	.st10{font-family:'ArialMT';}
	.st11{font-size:7px;}
	.st12{fill:none;stroke:#CC1719;stroke-width:0.25;stroke-miterlimit:10;}
</style>
<g>
	<g>
		<path class="st0" d="M44.26,27.48c2.41,0,4.36-1.95,4.36-4.35c0-2.41-1.95-4.35-4.36-4.35c-2.4,0-4.35,1.95-4.35,4.35
			C39.91,25.53,41.86,27.48,44.26,27.48z"/>
	</g>
</g>
<g>
	<g>
		<path class="st0" d="M45.09,41.51c2.41,0,4.36-1.95,4.36-4.35c0-2.41-1.95-4.35-4.36-4.35c-2.4,0-4.35,1.95-4.35,4.35
			C40.74,39.56,42.69,41.51,45.09,41.51z"/>
	</g>
</g>
<g>
	<path class="st1" d="M49.6,27.3l-4.78-3.41l-7.5-14.2c0,0-1.68-5.17-3.19-4.49c-1.57,0.71-1.15,3.94,2.34,4.95l6.91,13.83
		l-3.93,3.76c0,0-30.29,0.73-35.93,2.25c0,0,2.05,1.18,16.47,1.59h19.12l3.8,4.35l-6.54,13.48c0,0-3.97,2.25-1.72,4.17
		c0.77,0.66,1.27,0.82,3-3.74l6.66-13.66l5.72-3.37l0.68-0.73c0,0,15.49,0.73,24.53-2.57C75.23,29.51,66.61,27.72,49.6,27.3z
		 M48.15,27.72h-1.88l-1.02-2.39L48.15,27.72z M43.45,24.91l1.79,2.82h-4.69L43.45,24.91z M43.28,34.98l-2.73-3.41h4.69L43.28,34.98
		z M45.24,34.04l0.85-2.48h2.73L45.24,34.04z"/>
	<path class="st2" d="M51.85,28.56l1.56,0.95h18.88C72.29,29.51,60.6,28.23,51.85,28.56z"/>
	<path class="st2" d="M53.36,29.98l-1.52,1.56c0,0,18.22-0.14,20.64-1.56H53.36z"/>
	<path class="st2" d="M39.98,28.3l-1.41,1.06L6.04,29.51C6.04,29.51,37.93,27.23,39.98,28.3z"/>
	<path class="st2" d="M39.1,31.31l-0.85-1.33H6.37C6.37,29.98,28.37,31.63,39.1,31.31z"/>
	<path class="st3" d="M42.4,29.98h-2.71c-0.13,0-0.24-0.11-0.24-0.24l0,0c0-0.13,0.11-0.24,0.24-0.24h2.71
		c0.13,0,0.24,0.11,0.24,0.24l0,0C42.64,29.87,42.53,29.98,42.4,29.98z"/>
	<path class="st4" d="M42.27,31.07L42.27,31.07c-0.21,0-0.37-0.17-0.37-0.37v-2.31c0-0.21,0.17-0.37,0.37-0.37l0,0
		c0.21,0,0.37,0.17,0.37,0.37v2.31C42.64,30.9,42.47,31.07,42.27,31.07z"/>
	<path class="st4" d="M43.66,31.07L43.66,31.07c-0.11,0-0.2-0.09-0.2-0.2v-2.16c0-0.11,0.09-0.2,0.2-0.2l0,0
		c0.11,0,0.2,0.09,0.2,0.2v2.16C43.86,30.98,43.77,31.07,43.66,31.07z"/>
	<path class="st3" d="M42.66,29.01h1.9c0.21,0,0.39,0.18,0.39,0.39l0,0c0,0.21-0.18,0.39-0.39,0.39h-1.9
		c-0.21,0-0.39-0.18-0.39-0.39l0,0C42.27,29.18,42.44,29.01,42.66,29.01z"/>
	<path class="st4" d="M47.35,30.76L47.35,30.76c-0.21,0-0.37-0.17-0.37-0.37v-1.51c0-0.21,0.17-0.37,0.37-0.37l0,0
		c0.21,0,0.37,0.17,0.37,0.37v1.51C47.72,30.59,47.56,30.76,47.35,30.76z"/>
	<path class="st4" d="M49.46,30.76h-8.6c-0.48,0-0.88-0.39-0.88-0.88l0,0c0-0.48,0.4-0.88,0.88-0.88h8.6c0.48,0,0.88,0.39,0.88,0.88
		l0,0C50.34,30.37,49.94,30.76,49.46,30.76z"/>
	<g>
		<g>
			<path class="st5" d="M48.64,30.5h-7.09c-0.39,0-0.71-0.32-0.71-0.71l0,0c0-0.39,0.32-0.71,0.71-0.71h7.09
				c0.39,0,0.71,0.32,0.71,0.71l0,0C49.34,30.18,49.03,30.5,48.64,30.5z"/>
			<path class="st5" d="M45.67,28.7c0,0,0.39-1.4,1.64-1.25c1.25,0.16,2.04,0.92,2.04,1.63c0,0.27-0.19,0.89-0.48,1.52
				c-0.47,1.01-1.2,2.07-1.87,1.92c-1.09-0.23-1.33-2.03-1.33-2.03s0.94-0.55,1.17,0.31s-0.07,0.69,0.67,0.78
				c0.74,0.09,1.2-1.95,0.5-3.04s-1.48-0.53-1.4,0c0.08,0.53-0.94,1.72-0.94,0.94C45.67,28.7,45.67,28.7,45.67,28.7z"/>
			<path class="st5" d="M48.98,30.5L48.98,30.5c-0.45,0-0.81-0.37-0.81-0.81l0,0c0-0.45,0.37-0.81,0.81-0.81l0,0
				c0.45,0,0.81,0.37,0.81,0.81l0,0C49.79,30.13,49.43,30.5,48.98,30.5z"/>
			<path class="st5" d="M44.46,30.5L44.46,30.5c-0.11,0-0.2-0.09-0.2-0.2v-1.03c0-0.11,0.09-0.2,0.2-0.2l0,0
				c0.11,0,0.2,0.09,0.2,0.2v1.03C44.65,30.41,44.56,30.5,44.46,30.5z"/>
		</g>
	</g>
	<path class="st1" d="M35.45,3.09c0,0-2.88,1.46-3.27,1.88c-0.39,0.41,0.5,2.6,1.43,4.22s0.71,1.17,0.71,1.17s1.12-0.34,1.9-0.1
		l0.51,0.09c0,0,0.8-0.03,0.7-0.33s-1.74-6.41-1.86-6.66C35.45,3.09,35.45,3.09,35.45,3.09z"/>
	<path class="st1" d="M35.34,56.71c0,0-2.81-1.6-3.18-2.03s0.62-2.57,1.62-4.15s0.77-1.13,0.77-1.13s1.11,0.39,1.89,0.19l0.51-0.07
		c0,0,0.8,0.07,0.68,0.36c-0.12,0.3-2.03,6.32-2.16,6.57C35.34,56.71,35.34,56.71,35.34,56.71z"/>
</g>
<g>
	<path class="st1" d="M86.29,93.1c-0.96-0.64-6.24-1.52-11.45-1.69c-1.51-0.05-6.57-0.05-13.21-0.03l-4.34-3.8l-6.3-12.19
		c0,0,0.7-4.93-2.22-5.06c0,0-1.38,0.95-1.07,1.88s2,3.43,2.31,3.62s5.94,11.69,5.94,11.69l-2.46,3.89c-1.15,0-2.31,0.01-3.49,0.01
		l-4.39-3.85l-6.32-12.18c0,0,0.52-5.97-2.84-5.2c0,0-0.6,1.03-0.3,1.96c0.31,0.93,1.84,3.48,2.15,3.67
		c0.31,0.19,5.94,11.69,5.94,11.69l-2.49,3.94c-12.33,0.05-24.62,0.6-28.71,0.91c-9.45,0.71-11.05,1.82-11.05,1.82
		c5.23,1.67,11.06,1.67,11.06,1.67s13.44,0.95,28.72,0.9l2.47,3.91c0,0-5.63,11.5-5.94,11.69c-0.31,0.19-2.1,2.98-2.41,3.91
		s1.1,1.72,1.1,1.72c3.53-0.43,2.3-5.2,2.3-5.2l6.31-12.19l4.44-3.9c1.31-0.01,2.6-0.02,3.87-0.04l2.02,3.2
		c0,0-5.63,11.51-5.94,11.69c-0.31,0.19-2.26,3.19-2.57,4.12s0.72,1.51,0.72,1.51c3.53-0.43,2.85-5.2,2.85-5.2l6.31-12.19l3.69-3.24
		c6.74-0.12,12.27-0.31,14.93-0.61C86.25,94.83,87.25,93.74,86.29,93.1z M60.17,91.39c-0.35,0-0.71,0-1.07,0l-1.43-2.45L60.17,91.39
		z M56.62,88.75l1.19,2.64c-0.92,0-1.86,0.01-2.82,0.01L56.62,88.75z M48.52,91.43c-0.36,0-0.72,0-1.09,0l-1.46-2.49L48.52,91.43z
		 M44.92,88.75l1.21,2.69c-0.95,0-1.91,0.01-2.87,0.01L44.92,88.75z M44.92,99.43l-1.65-2.68c0.95,0,1.91-0.01,2.86-0.01
		L44.92,99.43z M45.97,99.24l1.47-2.52c0.37,0,0.74,0,1.11-0.01L45.97,99.24z M56.62,98.64l-1.22-1.98
		c0.72-0.01,1.42-0.02,2.12-0.03L56.62,98.64z M57.67,98.45l1.07-1.84c0.27,0,0.55-0.01,0.82-0.01L57.67,98.45z"/>
	<path class="st3" d="M60.77,95.48H38.66c-0.74,0-1.35-0.61-1.35-1.35l0,0c0-0.74,0.61-1.35,1.35-1.35h22.11
		c0.74,0,1.35,0.61,1.35,1.35l0,0C62.12,94.87,61.51,95.48,60.77,95.48z"/>
	<g>
		<path class="st6" d="M47.61,94.69h-7.09c-0.39,0-0.71-0.32-0.71-0.71l0,0c0-0.39,0.32-0.71,0.71-0.71h7.09
			c0.39,0,0.71,0.32,0.71,0.71l0,0C48.32,94.38,48,94.69,47.61,94.69z"/>
		<path class="st6" d="M44.64,92.9c0,0,0.39-1.4,1.64-1.25c1.25,0.16,2.04,0.92,2.04,1.63c0,0.27-0.19,0.89-0.48,1.52
			c-0.47,1.01-1.2,2.07-1.87,1.92c-1.09-0.23-1.33-2.03-1.33-2.03s0.94-0.55,1.17,0.31s-0.07,0.69,0.67,0.78
			c0.74,0.09,1.2-1.95,0.5-3.04c-0.7-1.09-1.48-0.53-1.4,0c0.08,0.53-0.94,1.72-0.94,0.94C44.64,92.9,44.64,92.9,44.64,92.9z"/>
		<path class="st7" d="M47.95,94.69L47.95,94.69c-0.45,0-0.81-0.37-0.81-0.81l0,0c0-0.45,0.37-0.81,0.81-0.81l0,0
			c0.45,0,0.81,0.37,0.81,0.81l0,0C48.76,94.33,48.4,94.69,47.95,94.69z"/>
		<path class="st6" d="M43.43,94.69L43.43,94.69c-0.11,0-0.2-0.09-0.2-0.2v-1.03c0-0.11,0.09-0.2,0.2-0.2l0,0
			c0.11,0,0.2,0.09,0.2,0.2v1.03C43.62,94.61,43.53,94.69,43.43,94.69z"/>
	</g>
	<g>
		<path class="st6" d="M59.72,94.69h-7.09c-0.39,0-0.71-0.32-0.71-0.71l0,0c0-0.39,0.32-0.71,0.71-0.71h7.09
			c0.39,0,0.71,0.32,0.71,0.71l0,0C60.43,94.38,60.11,94.69,59.72,94.69z"/>
		<path class="st6" d="M56.75,92.9c0,0,0.39-1.4,1.64-1.25c1.25,0.16,2.04,0.92,2.04,1.63c0,0.27-0.19,0.89-0.48,1.52
			c-0.47,1.01-1.2,2.07-1.87,1.92c-1.09-0.23-1.33-2.03-1.33-2.03s0.94-0.55,1.17,0.31c0.23,0.86-0.07,0.69,0.67,0.78
			s1.2-1.95,0.5-3.04c-0.7-1.09-1.48-0.53-1.4,0s-0.94,1.72-0.94,0.94C56.75,92.9,56.75,92.9,56.75,92.9z"/>
		<path class="st7" d="M60.06,94.69L60.06,94.69c-0.45,0-0.81-0.37-0.81-0.81l0,0c0-0.45,0.37-0.81,0.81-0.81l0,0
			c0.45,0,0.81,0.37,0.81,0.81l0,0C60.88,94.33,60.51,94.69,60.06,94.69z"/>
		<path class="st6" d="M55.54,94.69L55.54,94.69c-0.11,0-0.19-0.09-0.19-0.2v-1.03c0-0.11,0.09-0.2,0.19-0.2l0,0
			c0.11,0,0.2,0.09,0.2,0.2v1.03C55.73,94.61,55.65,94.69,55.54,94.69z"/>
	</g>
	<path class="st2" d="M62.12,92.42l1.56,0.95h18.88C82.56,93.37,70.87,92.09,62.12,92.42z"/>
	<path class="st2" d="M63.63,93.84l-1.52,1.56c0,0,18.22-0.14,20.63-1.56H63.63z"/>
	<path class="st2" d="M37.53,92.8l-1.41,1.06L3.59,94.01C3.59,94.01,35.48,91.73,37.53,92.8z"/>
	<path class="st2" d="M36.66,95.82l-0.85-1.33H3.92C3.92,94.49,25.92,96.14,36.66,95.82z"/>
	<path class="st2" d="M38.54,68.41c0,0-2.88,1.46-3.27,1.88s0.5,2.6,1.43,4.22s0.71,1.17,0.71,1.17s1.12-0.34,1.9-0.1l0.51,0.09
		c0,0,0.8-0.03,0.7-0.33s-1.74-6.41-1.86-6.66C38.54,68.41,38.54,68.41,38.54,68.41z"/>
	<path class="st2" d="M50.5,68.41c0,0-2.88,1.46-3.27,1.88s0.5,2.6,1.43,4.22s0.71,1.17,0.71,1.17s1.12-0.34,1.9-0.1l0.51,0.09
		c0,0,0.8-0.03,0.7-0.33c-0.11-0.3-1.74-6.41-1.86-6.66C50.5,68.41,50.5,68.41,50.5,68.41z"/>
	<path class="st2" d="M50,119.61c0,0-2.71-1.77-3.05-2.22c-0.34-0.45,0.78-2.53,1.88-4.04c1.1-1.51,0.84-1.08,0.84-1.08
		s1.08,0.46,1.88,0.31l0.52-0.04c0,0,0.79,0.12,0.66,0.41c-0.14,0.29-2.42,6.18-2.57,6.42C50,119.61,50,119.61,50,119.61z"/>
	<path class="st2" d="M38.55,120.07c0,0-2.71-1.77-3.05-2.22c-0.34-0.45,0.78-2.53,1.88-4.04c1.1-1.51,0.84-1.08,0.84-1.08
		s1.08,0.46,1.88,0.31l0.52-0.04c0,0,0.79,0.12,0.66,0.41c-0.14,0.29-2.42,6.18-2.57,6.42C38.55,120.07,38.55,120.07,38.55,120.07z"
		/>
</g>
<g>
	<path class="st1" d="M110.17,231.78c-1.25-0.64-8.12-1.52-14.88-1.69c-1.48-0.04-5.41-0.1-10.77-0.16l-3.98-3.49l-6.31-12.19
		c0,0-1.09-2.45-2.85-5.2c0,0-1.24,1.18-0.93,2.1c0.31,0.93,2.47,3.34,2.78,3.53s5.94,11.69,5.94,11.69l-2.19,3.47
		c-1.49-0.01-3.03-0.03-4.61-0.04l-3.83-3.36l-6.31-12.19c0,0-0.73-1.64-2.85-5.2c0,0-1.24,1.18-0.93,2.1
		c0.31,0.93,2.47,3.34,2.78,3.53s5.94,11.69,5.94,11.69l-2.12,3.36c-1.15-0.01-2.31-0.02-3.48-0.02l-4.27-3.74l-6.31-12.19
		c0,0-1.24-1.98-2.85-5.2c0,0-1.24,1.18-0.93,2.1c0.31,0.93,2.47,3.34,2.78,3.53c0.31,0.19,5.94,11.69,5.94,11.69l-2.38,3.76
		c-1.28-0.01-2.56-0.01-3.83-0.01l-4.2-3.68l-6.31-12.19c0,0-0.76-3.38-2.85-5.2c0,0-1.24,1.18-0.93,2.1
		c0.31,0.93,2.47,3.34,2.78,3.53c0.31,0.19,5.94,11.69,5.94,11.69l-2.36,3.74c-10.34,0-19.14,0.09-22.98,0.32
		c-14.39,0.85-15.57,3.26-15.57,3.26c5.52,2.1,15.12,2.18,15.12,2.18s10.12,0.06,23.19,0.06l2.34,3.7c0,0-5.63,11.5-5.94,11.69
		c-0.31,0.19-1.85,3.48-2.16,4.41s0.3,1.22,0.3,1.22c1.97-2.23,2.85-5.2,2.85-5.2l6.31-12.19l4.16-3.65c1.35,0,2.7-0.01,4.07-0.01
		l2.08,3.29c0,0-5.63,11.51-5.94,11.69c-0.31,0.19-1.35,3.49-1.66,4.41c-0.31,0.93-0.19,1.22-0.19,1.22c2.32-5.21,2.85-5.2,2.85-5.2
		l6.31-12.19l3.71-3.25c1.23-0.01,2.45-0.01,3.67-0.02l2.38,3.77c0,0-5.51,12.23-5.82,12.41c-0.31,0.19-1.33,3.13-1.64,4.06
		c-0.31,0.93-0.33,0.85-0.33,0.85c2.23-4.27,2.85-5.2,2.85-5.2l6.31-12.19l4.31-3.78c1.57-0.02,3.11-0.04,4.61-0.06l2.19,3.47
		c0,0-5.63,11.51-5.94,11.69c-0.31,0.19-2.47,2.6-2.78,3.53c-0.31,0.93,0.93,2.1,0.93,2.1c1.65-3.39,2.85-5.2,2.85-5.2l6.31-12.19
		l4.04-3.54c5.32-0.12,9.61-0.28,12.11-0.49C110.12,233.5,111.42,232.42,110.17,231.78z M83.07,229.91c-0.31,0-0.61-0.01-0.93-0.01
		l-1.22-2.1L83.07,229.91z M79.86,227.61l1.02,2.27c-0.78-0.01-1.58-0.02-2.4-0.03L79.86,227.61z M70.96,229.79
		c-0.29,0-0.58,0-0.88-0.01l-1.15-1.98L70.96,229.79z M67.87,227.61l0.97,2.15c-0.76-0.01-1.52-0.01-2.28-0.02L67.87,227.61z
		 M60.12,229.71c-0.35,0-0.69,0-1.04-0.01l-1.38-2.37L60.12,229.71z M56.65,227.15l1.15,2.54c-0.9,0-1.8-0.01-2.7-0.01L56.65,227.15
		z M48.3,229.65c-0.34,0-0.68,0-1.02,0l-1.35-2.32L48.3,229.65z M44.88,227.15l1.13,2.5c-0.89,0-1.78,0-2.66,0L44.88,227.15z
		 M44.62,237.93l-1.51-2.46c0.87,0,1.74,0,2.63,0L44.62,237.93z M45.67,237.74l1.33-2.28c0.33,0,0.67,0,1,0L45.67,237.74z
		 M56.28,237.5l-1.26-2.05c0.73,0,1.46,0,2.19-0.01L56.28,237.5z M57.33,237.31l1.1-1.88c0.28,0,0.55,0,0.83,0L57.33,237.31z
		 M67.4,237.93l-1.56-2.54c0.91-0.01,1.82-0.01,2.72-0.02L67.4,237.93z M68.45,237.74l1.39-2.39c0.35,0,0.71-0.01,1.06-0.01
		L68.45,237.74z M79.86,237.5l-1.38-2.25c0.82-0.01,1.62-0.03,2.42-0.04L79.86,237.5z M80.91,237.31l1.24-2.13
		c0.32-0.01,0.64-0.01,0.95-0.02L80.91,237.31z"/>
	<path class="st8" d="M71.55,209.56c0,0-1.16,0.66-0.54,1.66c0.62,1.01,2.05,2.75,2.36,2.82c0.31,0.08-0.5-0.66-0.43-1.24
		c0.08-0.58,0.97,1.24,0.97,1.24S74.64,209.56,71.55,209.56z"/>
	<path class="st8" d="M59.56,209.56c0,0-1.16,0.66-0.54,1.66c0.62,1.01,2.05,2.75,2.36,2.82c0.31,0.08-0.5-0.66-0.43-1.24
		c0.08-0.58,0.97,1.24,0.97,1.24S60.71,212.38,59.56,209.56z"/>
	<path class="st8" d="M48.33,209.1c0,0-1.16,0.66-0.54,1.66s2.05,2.74,2.36,2.82s-0.5-0.66-0.43-1.24c0.08-0.58,0.97,1.24,0.97,1.24
		S51.42,209.1,48.33,209.1z"/>
	<path class="st8" d="M36.56,209.1c0,0-1.16,0.66-0.54,1.66s2.05,2.74,2.36,2.82s-0.5-0.66-0.43-1.24c0.08-0.58,0.97,1.24,0.97,1.24
		S39.66,209.1,36.56,209.1z"/>
	<path class="st2" d="M87.73,230.92l1.56,0.95h18.88C108.17,231.87,96.48,230.59,87.73,230.92z"/>
	<path class="st2" d="M89.24,232.34l-1.51,1.56c0,0,18.22-0.14,20.63-1.56H89.24z"/>
	<path class="st2" d="M31.19,230.75l-0.95,1.31l-25.29,0.62C4.96,232.69,29.14,229.68,31.19,230.75z"/>
	<path class="st2" d="M30.79,234.01l-0.85-1.33L4.21,233.1C4.2,233.1,20.05,234.34,30.79,234.01z"/>
	<path class="st3" d="M85.06,234.21h-52.5c-0.89,0-1.62-0.73-1.62-1.62l0,0c0-0.89,0.73-1.62,1.62-1.62h52.5
		c0.89,0,1.62,0.73,1.62,1.62l0,0C86.68,233.48,85.95,234.21,85.06,234.21z"/>
	<g>
		<path class="st6" d="M47.99,233.04H40.9c-0.39,0-0.71-0.32-0.71-0.71l0,0c0-0.39,0.32-0.71,0.71-0.71h7.09
			c0.39,0,0.71,0.32,0.71,0.71l0,0C48.7,232.72,48.38,233.04,47.99,233.04z"/>
		<path class="st6" d="M45.02,231.25c0,0,0.39-1.4,1.64-1.25c1.25,0.16,2.04,0.92,2.04,1.63c0,0.27-0.19,0.89-0.48,1.52
			c-0.47,1.01-1.2,2.07-1.87,1.92c-1.09-0.23-1.33-2.03-1.33-2.03s0.94-0.55,1.17,0.31s-0.07,0.69,0.67,0.78
			c0.74,0.09,1.2-1.95,0.5-3.04s-1.48-0.53-1.4,0c0.08,0.53-0.94,1.72-0.94,0.94S45.02,231.25,45.02,231.25z"/>
		<path class="st7" d="M48.34,233.04L48.34,233.04c-0.45,0-0.81-0.37-0.81-0.81l0,0c0-0.45,0.37-0.81,0.81-0.81l0,0
			c0.45,0,0.81,0.37,0.81,0.81l0,0C49.15,232.68,48.79,233.04,48.34,233.04z"/>
		<path class="st6" d="M43.82,233.04L43.82,233.04c-0.11,0-0.2-0.09-0.2-0.2v-1.03c0-0.11,0.09-0.2,0.2-0.2l0,0
			c0.11,0,0.19,0.09,0.19,0.2v1.03C44.01,232.96,43.92,233.04,43.82,233.04z"/>
	</g>
	<g>
		<path class="st6" d="M60,233.04h-7.09c-0.39,0-0.71-0.32-0.71-0.71l0,0c0-0.39,0.32-0.71,0.71-0.71H60c0.39,0,0.71,0.32,0.71,0.71
			l0,0C60.71,232.72,60.39,233.04,60,233.04z"/>
		<path class="st6" d="M57.03,231.25c0,0,0.39-1.4,1.64-1.25c1.25,0.16,2.04,0.92,2.04,1.63c0,0.27-0.19,0.89-0.48,1.52
			c-0.47,1.01-1.2,2.07-1.87,1.92c-1.09-0.23-1.33-2.03-1.33-2.03s0.94-0.55,1.17,0.31c0.23,0.86-0.07,0.69,0.67,0.78
			s1.2-1.95,0.5-3.04s-1.48-0.53-1.4,0s-0.94,1.72-0.94,0.94S57.03,231.25,57.03,231.25z"/>
		<path class="st7" d="M60.34,233.04L60.34,233.04c-0.45,0-0.81-0.37-0.81-0.81l0,0c0-0.45,0.37-0.81,0.81-0.81l0,0
			c0.45,0,0.81,0.37,0.81,0.81l0,0C61.16,232.68,60.79,233.04,60.34,233.04z"/>
		<path class="st6" d="M55.82,233.04L55.82,233.04c-0.11,0-0.2-0.09-0.2-0.2v-1.03c0-0.11,0.09-0.2,0.2-0.2l0,0
			c0.11,0,0.2,0.09,0.2,0.2v1.03C56.01,232.96,55.93,233.04,55.82,233.04z"/>
	</g>
	<g>
		<path class="st6" d="M70.52,233.09h-7.09c-0.39,0-0.71-0.32-0.71-0.71l0,0c0-0.39,0.32-0.71,0.71-0.71h7.09
			c0.39,0,0.71,0.32,0.71,0.71l0,0C71.23,232.78,70.91,233.09,70.52,233.09z"/>
		<path class="st6" d="M67.55,231.3c0,0,0.39-1.4,1.64-1.25c1.25,0.16,2.04,0.92,2.04,1.63c0,0.27-0.19,0.89-0.48,1.52
			c-0.47,1.01-1.2,2.07-1.87,1.92c-1.09-0.23-1.33-2.03-1.33-2.03s0.94-0.55,1.17,0.31c0.23,0.86-0.07,0.69,0.67,0.78
			s1.2-1.95,0.5-3.04s-1.48-0.53-1.41,0c0.08,0.53-0.94,1.72-0.94,0.94S67.55,231.3,67.55,231.3z"/>
		<path class="st7" d="M70.86,233.09L70.86,233.09c-0.45,0-0.81-0.37-0.81-0.81l0,0c0-0.45,0.37-0.81,0.81-0.81l0,0
			c0.45,0,0.81,0.37,0.81,0.81l0,0C71.68,232.73,71.31,233.09,70.86,233.09z"/>
		<path class="st6" d="M66.34,233.09L66.34,233.09c-0.11,0-0.2-0.09-0.2-0.2v-1.03c0-0.11,0.09-0.2,0.2-0.2l0,0
			c0.11,0,0.2,0.09,0.2,0.2v1.03C66.53,233.01,66.44,233.09,66.34,233.09z"/>
	</g>
	<g>
		<path class="st6" d="M83,233.42h-7.09c-0.39,0-0.71-0.32-0.71-0.71l0,0c0-0.39,0.32-0.71,0.71-0.71H83c0.39,0,0.71,0.32,0.71,0.71
			l0,0C83.71,233.1,83.4,233.42,83,233.42z"/>
		<path class="st6" d="M80.03,231.62c0,0,0.39-1.4,1.64-1.25c1.25,0.16,2.04,0.92,2.04,1.63c0,0.27-0.19,0.89-0.48,1.52
			c-0.47,1.01-1.2,2.07-1.87,1.92c-1.09-0.23-1.33-2.03-1.33-2.03s0.94-0.55,1.17,0.31s-0.07,0.69,0.67,0.78s1.2-1.95,0.5-3.04
			s-1.48-0.53-1.4,0s-0.94,1.72-0.94,0.94C80.03,231.62,80.03,231.62,80.03,231.62z"/>
		<path class="st7" d="M83.35,233.42L83.35,233.42c-0.45,0-0.81-0.37-0.81-0.81l0,0c0-0.45,0.37-0.81,0.81-0.81l0,0
			c0.45,0,0.81,0.37,0.81,0.81l0,0C84.16,233.05,83.8,233.42,83.35,233.42z"/>
		<path class="st6" d="M78.82,233.42L78.82,233.42c-0.11,0-0.2-0.09-0.2-0.2v-1.03c0-0.11,0.09-0.2,0.2-0.2l0,0
			c0.11,0,0.2,0.09,0.2,0.2v1.03C79.02,233.33,78.93,233.42,78.82,233.42z"/>
	</g>
	<path class="st1" d="M49.41,207.24c0,0-2.89,1.46-3.27,1.88c-0.39,0.41,0.5,2.6,1.43,4.22s0.71,1.17,0.71,1.17s1.12-0.34,1.9-0.1
		l0.51,0.09c0,0,0.8-0.03,0.7-0.33s-1.74-6.41-1.86-6.66C49.41,207.24,49.41,207.24,49.41,207.24z"/>
	<path class="st1" d="M37.6,207.45c0,0-2.88,1.46-3.27,1.88c-0.39,0.41,0.5,2.6,1.43,4.22s0.71,1.17,0.71,1.17s1.12-0.34,1.9-0.1
		l0.51,0.09c0,0,0.8-0.03,0.7-0.33s-1.74-6.41-1.86-6.66C37.6,207.45,37.6,207.45,37.6,207.45z"/>
	<path class="st1" d="M60.15,207.91c0,0-2.88,1.46-3.27,1.88c-0.39,0.41,0.5,2.6,1.43,4.22s0.71,1.17,0.71,1.17s1.12-0.34,1.9-0.1
		l0.51,0.09c0,0,0.8-0.03,0.7-0.33c-0.1-0.3-1.74-6.41-1.86-6.66C60.15,207.91,60.15,207.91,60.15,207.91z"/>
	<path class="st1" d="M72.32,207.33c0,0-2.88,1.46-3.27,1.88c-0.39,0.41,0.5,2.6,1.43,4.22s0.71,1.17,0.71,1.17s1.12-0.34,1.9-0.1
		l0.51,0.09c0,0,0.8-0.03,0.7-0.33c-0.1-0.3-1.74-6.41-1.86-6.66C72.32,207.33,72.32,207.33,72.32,207.33z"/>
	<path class="st1" d="M47.71,257.95c0,0-2.71-1.77-3.05-2.22s0.78-2.53,1.88-4.04c1.1-1.51,0.84-1.08,0.84-1.08s1.08,0.46,1.88,0.31
		l0.52-0.04c0,0,0.79,0.12,0.66,0.41c-0.14,0.29-2.42,6.18-2.57,6.42C47.71,257.95,47.71,257.95,47.71,257.95z"/>
	<path class="st1" d="M36.34,258.54c0,0-2.71-1.77-3.05-2.22s0.78-2.53,1.88-4.04c1.1-1.51,0.84-1.08,0.84-1.08s1.08,0.46,1.88,0.31
		l0.52-0.04c0,0,0.79,0.12,0.66,0.41c-0.14,0.29-2.42,6.18-2.57,6.42C36.34,258.54,36.34,258.54,36.34,258.54z"/>
	<path class="st1" d="M71.42,257.51c0,0-2.71-1.77-3.05-2.22c-0.34-0.45,0.78-2.53,1.88-4.04s0.84-1.08,0.84-1.08
		s1.08,0.46,1.88,0.31l0.52-0.04c0,0,0.79,0.12,0.66,0.41c-0.14,0.29-2.42,6.18-2.57,6.42C71.42,257.51,71.42,257.51,71.42,257.51z"
		/>
	<path class="st1" d="M59.06,258.24c0,0-2.71-1.77-3.05-2.22c-0.34-0.45,0.78-2.53,1.88-4.04s0.84-1.08,0.84-1.08
		s1.08,0.46,1.88,0.31l0.52-0.04c0,0,0.79,0.12,0.66,0.41c-0.14,0.29-2.42,6.18-2.57,6.42C59.06,258.24,59.06,258.24,59.06,258.24z"
		/>
</g>
<g>
	<rect x="2.7" y="49.87" class="st9" width="26.26" height="10.55"/>
	<text transform="matrix(1 0 0 1 2.6946 56.9918)" class="st4 st10 st11">8,2 m</text>
</g>
<g>
	<line class="st12" x1="3.61" y1="44.23" x2="74.61" y2="44.23"/>
	<line class="st12" x1="3.6" y1="42.31" x2="3.62" y2="46.15"/>
	<line class="st12" x1="74.6" y1="42.31" x2="74.62" y2="46.15"/>
</g>
<g>
	<rect x="2.35" y="113.38" class="st9" width="26.26" height="10.55"/>
	<text transform="matrix(1 0 0 1 2.3518 120.5045)" class="st4 st10 st11">10,4 m</text>
</g>
<g>
	<line class="st12" x1="3.64" y1="107.22" x2="86.57" y2="107.22"/>
	<line class="st12" x1="3.63" y1="105.3" x2="3.65" y2="109.14"/>
	<line class="st12" x1="86.56" y1="105.3" x2="86.58" y2="109.14"/>
</g>
<g>
	<rect x="2.69" y="253.54" class="st9" width="26.26" height="10.55"/>
	<text transform="matrix(1 0 0 1 2.6828 260.6656)" class="st4 st10 st11">13,4 m</text>
</g>
<g>
	<line class="st12" x1="3.46" y1="247.72" x2="110.36" y2="247.72"/>
	<line class="st12" x1="3.45" y1="245.81" x2="3.48" y2="249.64"/>
	<line class="st12" x1="110.35" y1="245.81" x2="110.38" y2="249.64"/>
</g>
<g>
	<path class="st1" d="M86.76,156.64c-0.96-0.64-6.24-1.52-11.45-1.69c-1.51-0.05-6.57-0.05-13.21-0.03l-4.34-3.8l-6.31-12.19
		c0,0,0.7-4.93-2.22-5.06c0,0-1.38,0.95-1.07,1.88c0.31,0.93,2,3.43,2.31,3.62s5.94,11.69,5.94,11.69l-2.46,3.89
		c-1.15,0-2.31,0.01-3.49,0.01l-4.39-3.85l-6.31-12.19c0,0,0.52-5.97-2.85-5.2c0,0-0.6,1.03-0.29,1.96
		c0.31,0.93,1.84,3.48,2.15,3.67s5.94,11.69,5.94,11.69l-2.49,3.94c-12.33,0.05-24.62,0.6-28.71,0.91
		c-9.45,0.7-11.05,1.82-11.05,1.82c5.23,1.67,11.06,1.67,11.06,1.67s13.44,0.95,28.72,0.9l2.47,3.91c0,0-5.63,11.51-5.94,11.69
		c-0.31,0.19-2.1,2.98-2.41,3.91c-0.31,0.93,1.1,1.72,1.1,1.72c3.53-0.43,2.3-5.2,2.3-5.2l6.31-12.19l4.44-3.9
		c1.31-0.01,2.6-0.02,3.87-0.04l2.02,3.2c0,0-5.63,11.51-5.94,11.69c-0.31,0.19-2.26,3.19-2.57,4.12s0.72,1.51,0.72,1.51
		c3.53-0.43,2.85-5.2,2.85-5.2l6.31-12.19l3.69-3.24c6.74-0.12,12.27-0.31,14.93-0.61C86.72,158.36,87.72,157.28,86.76,156.64z
		 M60.64,154.92c-0.35,0-0.71,0-1.07,0l-1.43-2.45L60.64,154.92z M57.09,152.29l1.19,2.64c-0.92,0-1.86,0.01-2.82,0.01L57.09,152.29
		z M48.99,154.97c-0.36,0-0.73,0-1.09,0l-1.46-2.5L48.99,154.97z M45.39,152.29l1.21,2.69c-0.95,0-1.91,0.01-2.87,0.01L45.39,152.29
		z M45.39,162.97l-1.65-2.68c0.95,0,1.91-0.01,2.86-0.01L45.39,162.97z M46.44,162.78l1.47-2.52c0.37,0,0.74,0,1.11-0.01
		L46.44,162.78z M57.09,162.17l-1.22-1.98c0.72-0.01,1.42-0.02,2.12-0.03L57.09,162.17z M58.14,161.99l1.07-1.84
		c0.28,0,0.55-0.01,0.82-0.01L58.14,161.99z"/>
	<path class="st3" d="M61.24,159.01H39.13c-0.74,0-1.35-0.61-1.35-1.35l0,0c0-0.74,0.61-1.35,1.35-1.35h22.11
		c0.74,0,1.35,0.61,1.35,1.35l0,0C62.59,158.4,61.98,159.01,61.24,159.01z"/>
	<g>
		<path class="st6" d="M48.08,158.23h-7.09c-0.39,0-0.71-0.32-0.71-0.71l0,0c0-0.39,0.32-0.71,0.71-0.71h7.09
			c0.39,0,0.71,0.32,0.71,0.71l0,0C48.78,157.91,48.47,158.23,48.08,158.23z"/>
		<path class="st6" d="M45.11,156.44c0,0,0.39-1.4,1.64-1.25c1.25,0.16,2.04,0.92,2.04,1.63c0,0.27-0.19,0.89-0.48,1.52
			c-0.47,1.01-1.2,2.07-1.87,1.92c-1.09-0.23-1.33-2.03-1.33-2.03s0.94-0.55,1.17,0.31s-0.07,0.69,0.67,0.78
			c0.74,0.09,1.2-1.95,0.5-3.04s-1.48-0.53-1.4,0c0.08,0.53-0.94,1.72-0.94,0.94C45.11,156.44,45.11,156.44,45.11,156.44z"/>
		<path class="st7" d="M48.42,158.23L48.42,158.23c-0.45,0-0.81-0.37-0.81-0.81l0,0c0-0.45,0.37-0.81,0.81-0.81l0,0
			c0.45,0,0.81,0.37,0.81,0.81l0,0C49.23,157.87,48.87,158.23,48.42,158.23z"/>
		<path class="st6" d="M43.9,158.23L43.9,158.23c-0.11,0-0.2-0.09-0.2-0.2V157c0-0.11,0.09-0.2,0.2-0.2l0,0c0.11,0,0.2,0.09,0.2,0.2
			v1.03C44.09,158.14,44,158.23,43.9,158.23z"/>
	</g>
	<g>
		<path class="st6" d="M60.19,158.23H53.1c-0.39,0-0.71-0.32-0.71-0.71l0,0c0-0.39,0.32-0.71,0.71-0.71h7.09
			c0.39,0,0.71,0.32,0.71,0.71l0,0C60.9,157.91,60.58,158.23,60.19,158.23z"/>
		<path class="st6" d="M57.22,156.44c0,0,0.39-1.4,1.64-1.25c1.25,0.16,2.04,0.92,2.04,1.63c0,0.27-0.19,0.89-0.48,1.52
			c-0.47,1.01-1.2,2.07-1.87,1.92c-1.09-0.23-1.33-2.03-1.33-2.03s0.94-0.55,1.17,0.31c0.23,0.86-0.07,0.69,0.67,0.78
			s1.2-1.95,0.5-3.04s-1.48-0.53-1.4,0s-0.94,1.72-0.94,0.94C57.22,156.44,57.22,156.44,57.22,156.44z"/>
		<path class="st7" d="M60.53,158.23L60.53,158.23c-0.45,0-0.81-0.37-0.81-0.81l0,0c0-0.45,0.37-0.81,0.81-0.81l0,0
			c0.45,0,0.81,0.37,0.81,0.81l0,0C61.35,157.87,60.98,158.23,60.53,158.23z"/>
		<path class="st6" d="M56.01,158.23L56.01,158.23c-0.11,0-0.2-0.09-0.2-0.2V157c0-0.11,0.09-0.2,0.2-0.2l0,0
			c0.11,0,0.2,0.09,0.2,0.2v1.03C56.2,158.14,56.12,158.23,56.01,158.23z"/>
	</g>
	<path class="st2" d="M62.59,155.95l1.56,0.95h18.88C83.03,156.9,71.34,155.62,62.59,155.95z"/>
	<path class="st2" d="M64.1,157.37l-1.51,1.56c0,0,18.22-0.14,20.63-1.56H64.1z"/>
	<path class="st2" d="M38,156.34l-1.41,1.06l-32.53,0.15C4.06,157.55,35.95,155.27,38,156.34z"/>
	<path class="st2" d="M37.13,159.35l-0.85-1.33H4.39C4.39,158.02,26.39,159.67,37.13,159.35z"/>
	<path class="st2" d="M39.01,131.95c0,0-2.88,1.46-3.27,1.88c-0.39,0.41,0.5,2.6,1.43,4.22s0.71,1.17,0.71,1.17s1.12-0.34,1.9-0.1
		l0.51,0.09c0,0,0.8-0.03,0.7-0.33c-0.11-0.3-1.74-6.41-1.86-6.66C39.01,131.95,39.01,131.95,39.01,131.95z"/>
	<path class="st2" d="M50.97,131.95c0,0-2.88,1.46-3.27,1.88c-0.39,0.41,0.5,2.6,1.43,4.22s0.71,1.17,0.71,1.17s1.12-0.34,1.9-0.1
		l0.51,0.09c0,0,0.8-0.03,0.7-0.33c-0.1-0.3-1.74-6.41-1.86-6.66C50.97,131.95,50.97,131.95,50.97,131.95z"/>
	<path class="st2" d="M50.47,183.15c0,0-2.71-1.77-3.05-2.22s0.78-2.53,1.88-4.04c1.1-1.51,0.84-1.08,0.84-1.08s1.08,0.46,1.88,0.31
		l0.52-0.04c0,0,0.79,0.12,0.66,0.41c-0.14,0.29-2.42,6.18-2.57,6.42C50.47,183.15,50.47,183.15,50.47,183.15z"/>
	<path class="st2" d="M39.02,183.61c0,0-2.71-1.77-3.05-2.22s0.78-2.53,1.88-4.04c1.1-1.51,0.84-1.08,0.84-1.08s1.08,0.46,1.88,0.31
		l0.52-0.04c0,0,0.79,0.12,0.66,0.41c-0.14,0.29-2.42,6.18-2.57,6.42C39.02,183.61,39.02,183.61,39.02,183.61z"/>
</g>
<g>
	<rect x="2.43" y="176.97" class="st9" width="26.26" height="10.55"/>
	<text transform="matrix(1 0 0 1 2.426 184.0924)" class="st4 st10 st11">10,4 m</text>
</g>
<g>
	<line class="st12" x1="3.56" y1="171.17" x2="86.49" y2="171.17"/>
	<line class="st12" x1="3.55" y1="169.25" x2="3.57" y2="173.09"/>
	<line class="st12" x1="86.48" y1="169.25" x2="86.5" y2="173.09"/>
</g>
<g>
	<rect x="60.91" y="138.87" class="st9" width="52.3" height="9.17"/>
	<text transform="matrix(1 0 0 1 60.9114 145.9918)" class="st4 st10 st11">Doble ligero</text>
</g>
</svg>
